<svg width="17" height="14" viewBox="0 0 17 14" fill="none" xmlns="http://www.w3.org/2000/svg">
<path d="M1.06387 0H5.82983C6.30432 0.000632195 6.77108 0.120256 7.18739 0.347924C7.60369 0.575593 7.95626 0.904034 8.21281 1.30319C8.46936 0.904034 8.82192 0.575593 9.23823 0.347924C9.65453 0.120256 10.1213 0.000632195 10.5958 0H15.3617C15.6382 0 15.9034 0.10984 16.0989 0.305357C16.2945 0.500874 16.4043 0.766051 16.4043 1.04255V10.5745C16.4043 10.851 16.2945 11.1161 16.0989 11.3117C15.9034 11.5072 15.6382 11.617 15.3617 11.617H10.5958C10.0829 11.619 9.59155 11.8236 9.22887 12.1863C8.8662 12.549 8.66158 13.0403 8.65962 13.5532C8.65962 13.6717 8.61254 13.7853 8.52875 13.8691C8.44495 13.9529 8.33131 14 8.21281 14C8.09431 14 7.98066 13.9529 7.89686 13.8691C7.81307 13.7853 7.766 13.6717 7.766 13.5532C7.76404 13.0403 7.55942 12.549 7.19674 12.1863C6.83406 11.8236 6.34273 11.619 5.82983 11.617H1.06387C0.787368 11.617 0.52219 11.5072 0.326674 11.3117C0.131157 11.1161 0.0213165 10.851 0.0213165 10.5745V1.04255C0.0213165 0.766051 0.131157 0.500874 0.326674 0.305357C0.52219 0.10984 0.787368 0 1.06387 0ZM10.5958 10.7234H15.3617C15.4012 10.7234 15.4391 10.7077 15.4671 10.6798C15.495 10.6519 15.5107 10.614 15.5107 10.5745V1.04255C15.5107 1.00305 15.495 0.96517 15.4671 0.937239C15.4391 0.909308 15.4012 0.893617 15.3617 0.893617H10.5958C10.0829 0.895579 9.59155 1.1002 9.22887 1.46288C8.8662 1.82555 8.66158 2.31689 8.65962 2.82979V11.4904C9.18363 10.9973 9.87622 10.7229 10.5958 10.7234ZM0.914933 10.5745C0.914933 10.614 0.930625 10.6519 0.958556 10.6798C0.986486 10.7077 1.02437 10.7234 1.06387 10.7234H5.82983C6.54969 10.7214 7.24281 10.996 7.766 11.4904V2.82979C7.76404 2.31689 7.55942 1.82555 7.19674 1.46288C6.83406 1.1002 6.34273 0.895579 5.82983 0.893617H1.06387C1.02437 0.893617 0.986486 0.909308 0.958556 0.937239C0.930625 0.96517 0.914933 1.00305 0.914933 1.04255V10.5745Z" fill="black"/>
</svg>
