<svg width="12" height="14" viewBox="0 0 12 14" fill="none" xmlns="http://www.w3.org/2000/svg">
<path d="M6 0.599998C6.10609 0.599998 6.20783 0.642141 6.28284 0.717156C6.35786 0.79217 6.4 0.893912 6.4 0.999998V2.2H7.2C7.51826 2.2 7.82348 2.32643 8.04853 2.55147C8.27357 2.77651 8.4 3.08174 8.4 3.4V6.2H10.4C10.7183 6.2 11.0235 6.32643 11.2485 6.55147C11.4736 6.77651 11.6 7.08174 11.6 7.4V12.2C11.6 12.5183 11.4736 12.8235 11.2485 13.0485C11.0235 13.2736 10.7183 13.4 10.4 13.4H1.6C1.28174 13.4 0.976515 13.2736 0.751472 13.0485C0.526428 12.8235 0.4 12.5183 0.4 12.2V7.2528C0.400011 7.04563 0.453658 6.84199 0.555718 6.6617C0.657777 6.48142 0.804774 6.33062 0.9824 6.224L3.3824 4.784C3.45136 4.7423 3.52424 4.70747 3.6 4.68V3.4C3.6 3.08174 3.72643 2.77651 3.95147 2.55147C4.17652 2.32643 4.48174 2.2 4.8 2.2H5.6V0.999998C5.6 0.893912 5.64214 0.79217 5.71716 0.717156C5.79217 0.642141 5.89391 0.599998 6 0.599998ZM4.4 4.6808C4.8504 4.8424 5.2 5.2664 5.2 5.8128V12.6H6.8V7.4C6.79987 7.15174 6.87674 6.90955 7.02002 6.70681C7.1633 6.50406 7.36594 6.35075 7.6 6.268V3.4008C7.6 3.29471 7.55786 3.19297 7.48284 3.11796C7.40783 3.04294 7.30609 3.0008 7.2 3.0008H4.8C4.69391 3.0008 4.59217 3.04294 4.51716 3.11796C4.44214 3.19297 4.4 3.29471 4.4 3.4008V4.6808ZM8 7C7.89391 7 7.79217 7.04214 7.71716 7.11716C7.64214 7.19217 7.6 7.29391 7.6 7.4V12.6H10.4C10.5061 12.6 10.6078 12.5579 10.6828 12.4828C10.7579 12.4078 10.8 12.3061 10.8 12.2V7.4C10.8 7.29391 10.7579 7.19217 10.6828 7.11716C10.6078 7.04214 10.5061 7 10.4 7H8ZM3.7944 5.4696L1.3944 6.9096C1.33499 6.9452 1.28584 6.99562 1.25176 7.05592C1.21768 7.11622 1.19985 7.18434 1.2 7.2536V12.2C1.2 12.3061 1.24214 12.4078 1.31716 12.4828C1.39217 12.5579 1.49391 12.6 1.6 12.6H4.4V5.8128C4.40001 5.74203 4.38125 5.67252 4.34563 5.61136C4.31 5.55021 4.25879 5.49961 4.19722 5.46471C4.13564 5.42982 4.06592 5.41189 3.99515 5.41274C3.92438 5.4136 3.85511 5.43322 3.7944 5.4696Z" fill="#858585"/>
</svg>
