<svg width="36" height="35" viewBox="0 0 36 35" fill="none" xmlns="http://www.w3.org/2000/svg">
<rect width="35" height="35" transform="translate(0.00292969)" fill="white"/>
<path d="M17.5029 4.64844C14.9611 4.64844 12.4764 5.40217 10.363 6.81432C8.24956 8.22646 6.60234 10.2336 5.62964 12.5819C4.65694 14.9302 4.40243 17.5143 4.89831 20.0072C5.39419 22.5002 6.61819 24.7901 8.41551 26.5874C10.2128 28.3848 12.5028 29.6087 14.9957 30.1046C17.4887 30.6005 20.0727 30.346 22.421 29.3733C24.7693 28.4006 26.7765 26.7534 28.1886 24.6399C29.6008 22.5265 30.3545 20.0418 30.3545 17.5C30.3509 14.0927 28.9957 10.8259 26.5864 8.41657C24.177 6.00722 20.9103 4.65206 17.5029 4.64844ZM17.5029 28.7109C15.2856 28.7109 13.1181 28.0534 11.2745 26.8216C9.43084 25.5897 7.99391 23.8388 7.14538 21.7902C6.29685 19.7417 6.07484 17.4876 6.50741 15.3129C6.93999 13.1381 8.00773 11.1405 9.57561 9.57267C11.1435 8.00479 13.1411 6.93705 15.3158 6.50448C17.4905 6.0719 19.7446 6.29391 21.7932 7.14244C23.8417 7.99097 25.5926 9.42791 26.8245 11.2715C28.0564 13.1152 28.7139 15.2827 28.7139 17.5C28.7103 20.4722 27.5279 23.3217 25.4263 25.4233C23.3246 27.525 20.4752 28.7073 17.5029 28.7109ZM23.4912 11.5117C23.569 11.5858 23.6309 11.6749 23.6732 11.7736C23.7155 11.8723 23.7373 11.9785 23.7373 12.0859C23.7373 12.1933 23.7155 12.2996 23.6732 12.3983C23.6309 12.497 23.569 12.5861 23.4912 12.6602L18.0772 18.0742C17.9249 18.2265 17.7183 18.3121 17.5029 18.3121C17.2876 18.3121 17.081 18.2265 16.9287 18.0742C16.7764 17.9219 16.6909 17.7154 16.6909 17.5C16.6909 17.2846 16.7764 17.0781 16.9287 16.9258L22.3428 11.5117C22.4168 11.434 22.5059 11.372 22.6046 11.3297C22.7033 11.2874 22.8096 11.2656 22.917 11.2656C23.0244 11.2656 23.1307 11.2874 23.2294 11.3297C23.3281 11.372 23.4172 11.434 23.4912 11.5117ZM13.4014 1.09375C13.4014 0.87619 13.4878 0.66754 13.6416 0.513701C13.7955 0.359863 14.0041 0.273438 14.2217 0.273438H20.7842C21.0017 0.273438 21.2104 0.359863 21.3642 0.513701C21.5181 0.66754 21.6045 0.87619 21.6045 1.09375C21.6045 1.31131 21.5181 1.51996 21.3642 1.6738C21.2104 1.82764 21.0017 1.91406 20.7842 1.91406H14.2217C14.0041 1.91406 13.7955 1.82764 13.6416 1.6738C13.4878 1.51996 13.4014 1.31131 13.4014 1.09375Z" fill="#FFC000"/>
</svg>
