<svg width="16" height="16" viewBox="0 0 16 16" fill="none" xmlns="http://www.w3.org/2000/svg">
<path d="M8 14.375C6.73915 14.375 5.50661 14.0011 4.45824 13.3006C3.40988 12.6001 2.59278 11.6045 2.11027 10.4396C1.62776 9.27473 1.50152 7.99293 1.7475 6.7563C1.99348 5.51967 2.60064 4.38375 3.4922 3.49219C4.38376 2.60063 5.51967 1.99347 6.7563 1.74749C7.99293 1.50151 9.27473 1.62776 10.4396 2.11027C11.6045 2.59278 12.6001 3.40988 13.3006 4.45824C14.0011 5.5066 14.375 6.73914 14.375 8C14.3717 9.68974 13.699 11.3093 12.5042 12.5042C11.3093 13.699 9.68974 14.3717 8 14.375ZM8 2.375C6.88748 2.375 5.79995 2.7049 4.87492 3.32298C3.94989 3.94107 3.22892 4.81957 2.80318 5.8474C2.37744 6.87524 2.26604 8.00624 2.48309 9.09738C2.70013 10.1885 3.23586 11.1908 4.02253 11.9775C4.8092 12.7641 5.81148 13.2999 6.90262 13.5169C7.99376 13.734 9.12476 13.6226 10.1526 13.1968C11.1804 12.7711 12.0589 12.0501 12.677 11.1251C13.2951 10.2001 13.625 9.11252 13.625 8C13.6233 6.50866 13.0302 5.07888 11.9757 4.02435C10.9211 2.96982 9.49134 2.37665 8 2.375ZM11.875 8C11.875 7.90054 11.8355 7.80516 11.7652 7.73483C11.6948 7.66451 11.5995 7.625 11.5 7.625H8.375V4.5C8.375 4.40054 8.33549 4.30516 8.26517 4.23483C8.19484 4.16451 8.09946 4.125 8 4.125C7.90055 4.125 7.80516 4.16451 7.73484 4.23483C7.66451 4.30516 7.625 4.40054 7.625 4.5V8C7.625 8.09946 7.66451 8.19484 7.73484 8.26516C7.80516 8.33549 7.90055 8.375 8 8.375H11.5C11.5995 8.375 11.6948 8.33549 11.7652 8.26516C11.8355 8.19484 11.875 8.09946 11.875 8Z" fill="#858585"/>
</svg>
