<svg width="299" height="48" viewBox="0 0 299 48" fill="none" xmlns="http://www.w3.org/2000/svg">
<path fill-rule="evenodd" clip-rule="evenodd" d="M274.258 0.0556013C273.925 0.500351 252.053 1.24025 247.488 0.961269C247.166 0.941727 241.763 1.01787 235.482 1.13108C225.902 1.30359 224.002 1.49834 223.695 2.33662C223.406 3.12774 223.329 3.14324 223.324 2.41142C223.32 1.71869 223.188 1.67287 222.8 2.22881C222.484 2.68232 221.839 2.77127 221.144 2.45725C220.517 2.17422 218.311 1.9532 216.241 1.96533C214.171 1.97813 212.569 1.73284 212.68 1.42084C212.792 1.10884 211.766 1.02798 210.401 1.2416C204.261 2.20185 181.86 2.67558 181.098 1.86155C180.882 1.63176 180.824 1.77193 180.967 2.17423C181.111 2.57652 181.05 3.09607 180.833 3.32922C180.615 3.56171 180.436 3.43098 180.436 3.03879C180.436 2.6466 180.251 2.32517 180.024 2.32517C179.797 2.32517 179.719 2.62841 179.852 2.99903C179.984 3.36966 179.917 3.6729 179.703 3.6729C179.488 3.6729 179.205 3.36966 179.072 2.99903C178.939 2.62841 178.622 2.32989 178.367 2.33528C178.088 2.34202 178.136 2.60684 178.487 2.99903C179.158 3.74837 178.899 3.84945 176.733 3.68435C175.875 3.61899 175.007 3.28677 174.803 2.94512C174.245 2.01047 160.945 2.14121 160.945 3.08125C160.945 3.63786 160.806 3.6392 160.422 3.08731C160.134 2.6749 159.82 2.47275 159.724 2.63919C159.628 2.80496 157.672 2.98825 155.378 3.0462C152.751 3.11292 151.296 3.39796 151.445 3.81643C151.576 4.18233 151.311 4.13719 150.856 3.7167C150.401 3.29553 150.03 3.18973 150.03 3.48084C150.031 4.05363 145.529 3.84675 144.572 3.23017C144.25 3.02262 139.952 2.9586 135.021 3.08866C130.09 3.21804 121.79 3.32653 116.577 3.3299C111.364 3.33327 107.505 3.53341 108.001 3.77398C108.51 4.02128 107.662 4.24164 106.053 4.27937C104.393 4.31846 103.297 4.61024 103.429 4.97749C103.567 5.36362 103.201 5.38316 102.483 5.02669C101.838 4.70728 101.219 4.70391 101.106 5.0186C100.994 5.33397 100.29 5.49368 99.5414 5.37305C98.7937 5.25311 98.1817 5.36968 98.1817 5.63249C98.1817 5.89597 97.9182 6.69921 97.5962 7.4189C97.1077 8.50921 97.05 8.53078 97.248 7.54761C97.4063 6.76054 97.2878 6.36835 96.8913 6.36835C96.5647 6.36835 96.2243 5.98964 96.1351 5.52602C95.7885 3.72748 46.3542 3.84608 38.639 5.66416C37.4036 5.95527 34.8708 6.24773 33.0102 6.31376C31.1495 6.38048 29.1321 6.66687 28.5271 6.95056C27.9221 7.23426 26.8571 7.41418 26.16 7.35017C25.463 7.28682 24.8931 7.49437 24.8931 7.81244C24.8931 8.12982 24.6884 8.38994 24.4381 8.38994C24.1883 8.38994 24.0994 8.1898 24.2409 7.94519C24.3824 7.70057 24.1563 7.08601 23.7388 6.58062C23.1392 5.85419 21.6399 5.74031 16.6267 6.0395C13.133 6.24773 9.25843 6.6608 8.01681 6.95798C6.14093 7.40677 5.70042 7.31715 5.41156 6.42765C5.10125 5.47211 5.03537 5.48559 4.79718 6.55434C4.61474 7.37375 4.38747 7.54491 4.07599 7.09814C3.79336 6.69315 3.40431 6.68237 3.04917 7.07051C2.73496 7.41418 2.6531 7.70462 2.86751 7.71607C3.08191 7.72753 3.00901 8.00853 2.70494 8.34075C2.38606 8.68981 1.77481 8.69654 1.25711 8.35624C0.190914 7.65542 -0.170465 8.37983 0.148418 10.5766C0.367504 12.0847 1.89292 13.082 1.89292 11.7175C1.89292 11.3698 2.16659 11.0854 2.50068 11.0854C2.83476 11.0854 3.00005 10.7822 2.86751 10.4115C2.73496 10.0409 2.90025 9.73766 3.23434 9.73766C3.94929 9.73766 3.98048 10.053 3.43861 11.8037C3.09751 12.9048 3.16534 13.107 3.87601 13.107C4.61708 13.107 4.65372 13.2424 4.18202 14.2472C3.87756 14.8968 3.84521 15.1818 4.10756 14.9102C4.36057 14.6474 4.67789 14.7411 4.81278 15.1178C4.94727 15.4945 4.83889 15.8024 4.57107 15.8024C4.29663 15.8024 4.44321 16.3793 4.9075 17.1272C5.3601 17.8564 5.84271 19.0639 5.97993 19.8119C6.15497 20.7654 6.48477 21.0896 7.08238 20.8962C7.55174 20.7439 7.93534 20.5747 7.93534 20.5195C7.93534 20.4642 8.37039 20.2816 8.90251 20.1131C9.8385 19.8166 9.84474 19.8389 9.09743 20.8153C8.3431 21.8005 8.34739 21.8247 9.27675 21.8456C10.2034 21.8665 10.2085 21.8948 9.47167 22.9279C9.05571 23.5114 8.93058 23.8005 9.1945 23.5707C9.45802 23.3403 10.433 23.5977 11.3608 24.1422C13.4246 25.3531 21.8602 25.1294 22.1054 23.8571C22.2036 23.347 21.9799 23.225 21.4633 23.5087C21.0275 23.7479 20.5577 23.628 20.4197 23.2426C20.2564 22.7857 21.0014 22.5411 22.5541 22.5411C24.0448 22.5411 24.8486 22.2884 24.6982 21.8672C24.2787 20.694 30.3075 21.0229 30.9947 22.2102C31.5853 23.2318 32.4933 22.9528 32.1058 21.8692C31.9919 21.5512 32.2742 21.0842 32.7326 20.8328C33.5298 20.3955 34.4046 21.5606 34.0417 22.5761C33.9559 22.816 34.718 22.8746 35.7351 22.7055C36.8984 22.5121 38.1205 22.785 39.0272 23.44C39.8202 24.0128 40.564 24.217 40.6798 23.8935C40.7951 23.5701 41.4154 23.3315 42.0578 23.3632C42.7006 23.3948 43.3493 23.2075 43.4998 22.9474C43.6503 22.6873 42.8145 22.5114 41.6426 22.5559C40.4708 22.601 38.6764 22.4245 37.655 22.1637C36.0984 21.7668 35.8735 21.533 36.2633 20.721C36.5218 20.1832 37.0785 19.9103 37.5151 20.1077C37.9478 20.3032 38.5637 20.097 38.8842 19.6488C39.2756 19.1017 39.3789 19.0875 39.1996 19.6057C39.005 20.167 40.3262 20.3921 44.0682 20.4352C48.0616 20.4817 49.1005 20.3153 48.7368 19.6866C48.4795 19.2418 47.7899 18.8173 47.204 18.7425C46.6185 18.6684 46.0076 18.5828 45.8466 18.5525C45.6856 18.5228 45.5542 18.2398 45.5542 17.9238C45.5542 17.6077 47.0013 17.4595 48.7703 17.5936C50.5394 17.7277 52.2496 17.6414 52.5712 17.4015C53.5657 16.6603 55.1122 16.8813 55.0014 17.7485C54.9445 18.196 55.12 18.5114 55.3913 18.45C56.5487 18.1879 59.6985 18.5316 59.4869 18.8975C59.1754 19.4359 52.3451 19.3523 51.3335 18.7978C50.7573 18.481 50.58 18.6145 50.7074 19.2695C50.8357 19.9278 51.5128 20.1293 53.1349 19.9925C54.4615 19.8807 55.6143 20.1313 55.9437 20.6037C56.367 21.2115 56.6122 21.2162 56.9537 20.6259C57.2021 20.1967 57.8527 19.8759 58.3992 19.913L59.3933 19.9797L58.4187 20.5195C57.1619 21.2156 57.3681 21.2675 62.7069 21.5963C67.9306 21.9191 68.1774 22.0249 67.9735 23.8551C67.8258 25.1792 67.995 25.2365 72.0621 25.2365C74.3956 25.2365 76.3881 25.4683 76.489 25.752C76.5904 26.035 77.9603 26.215 79.5332 26.1516C81.1066 26.0883 84.3231 25.9757 86.6816 25.9009C89.0401 25.8268 91.3206 25.44 91.7495 25.0418C92.7591 24.1044 94.2834 23.8153 94.2834 24.562C94.2834 25.4063 95.8591 25.7082 97.165 25.1145C97.7852 24.8322 98.4721 24.7931 98.6912 25.0276C99.3309 25.7109 101.3 25.8093 101.3 25.1583C101.3 24.8309 101.651 24.5627 102.08 24.5627C102.509 24.5627 102.86 24.2594 102.86 23.8888C102.86 23.5182 103.309 23.2149 103.857 23.2149C104.406 23.2149 104.764 23.4676 104.654 23.7763C104.544 24.0856 104.665 24.343 104.923 24.3484C105.182 24.3544 105.95 24.5755 106.631 24.8403C107.746 25.2736 107.847 25.1846 107.657 23.9306C107.469 22.69 107.128 22.5323 104.471 22.4568C101.812 22.3814 101.681 22.3207 103.24 21.8861C104.2 21.6179 105.324 21.5525 105.737 21.7392C106.306 21.9959 106.409 21.8477 106.159 21.1313C105.883 20.3382 105.942 20.3409 106.518 21.1502C107.117 21.9905 107.259 21.9905 107.604 21.1502C107.931 20.353 107.965 20.3786 107.797 21.2951C107.481 23.0087 108.673 23.2351 115.494 22.7567C120.163 22.4292 121.627 22.5155 121.416 23.1051C121.262 23.5364 121.303 23.8888 121.507 23.8888C121.711 23.8888 121.979 23.4339 122.103 22.878C122.226 22.3221 122.552 21.8719 122.827 21.8773C123.181 21.8847 123.156 22.0956 122.741 22.6024C122.222 23.2378 122.222 23.285 122.741 23.0256C123.063 22.8645 123.304 22.2587 123.277 21.6792C123.244 20.9743 123.437 20.7614 123.862 21.0357C124.432 21.4043 124.437 21.316 123.911 20.1515C123.341 18.8914 123.353 18.8881 124.369 20.008C125.055 20.7654 125.461 20.9029 125.556 20.411C125.701 19.6569 127.915 19.6226 132.779 20.2998C135.375 20.6617 136.168 21.8672 133.81 21.8672C132.747 21.8672 132.456 22.1037 132.619 22.8362C132.744 23.4009 132.558 23.9232 132.173 24.0889C131.81 24.2453 132.39 24.2197 133.462 24.0316C134.534 23.8436 135.622 23.6839 135.881 23.6772C136.139 23.6698 136.261 23.4117 136.15 23.1024C136.04 22.7938 136.618 22.5714 137.434 22.6084C138.69 22.6651 138.77 22.7473 137.949 23.1421C137.288 23.4602 137.132 23.7742 137.461 24.126C137.727 24.4097 138.12 24.4548 138.334 24.2257C138.549 23.9966 138.727 24.2062 138.73 24.6914C138.735 25.3942 138.804 25.3875 139.071 24.659C139.32 23.9804 139.479 23.9488 139.69 24.5364C139.845 24.9724 140.26 25.1375 140.612 24.9043C140.963 24.6718 142.115 24.3342 143.171 24.1556C144.227 23.9764 145.235 23.6758 145.412 23.4878C145.588 23.2992 145.628 23.6152 145.5 24.1907C145.353 24.8538 145.485 25.2365 145.862 25.2365C146.189 25.2365 146.544 24.8578 146.653 24.3942C146.81 23.7203 146.855 23.7203 146.88 24.3942C146.897 24.8578 147.184 25.2365 147.519 25.2365C147.901 25.2365 148.018 24.9245 147.834 24.3942C147.606 23.7405 147.678 23.7439 148.154 24.4097C148.767 25.2689 152.589 25.4373 153.343 24.6388C153.557 24.4117 156.386 24.192 159.628 24.1502C162.87 24.1091 165.748 23.8342 166.023 23.5411C166.335 23.2075 166.427 23.2756 166.268 23.721C165.915 24.7069 172.825 24.7999 173.88 23.8234C174.322 23.4151 174.58 23.3679 174.454 23.719C174.32 24.0957 175.222 24.3585 176.649 24.3591L179.072 24.3598L177.513 23.5209C175.766 22.5815 175.769 22.568 177.817 22.1954C178.728 22.0303 179.2 22.1832 179.052 22.5963C178.908 23.0006 179.365 23.2001 180.21 23.1017C180.978 23.0128 181.606 22.7324 181.606 22.4797C181.606 22.227 185.728 22.0613 190.767 22.1118C195.805 22.163 199.928 22.4494 199.928 22.7493C199.928 23.0492 199.765 23.1199 199.565 22.907C199.366 22.6934 199.075 22.8753 198.92 23.3099C198.71 23.8949 199.123 23.9858 200.506 23.6577C201.535 23.4144 202.888 23.2149 203.514 23.2149C204.321 23.2149 204.567 22.9696 204.359 22.3726C204.146 21.7587 204.239 21.7708 204.701 22.4191C205.16 23.062 205.542 23.1172 206.081 22.6192C206.532 22.2014 206.967 22.1738 207.183 22.5478C207.643 23.3423 210.571 21.6543 210.165 20.8288C210.002 20.4979 210.186 20.6475 210.573 21.161C211.174 21.9575 211.26 21.9575 211.158 21.1596C211.064 20.4258 211.606 20.2445 213.665 20.3207C215.109 20.3746 216.392 20.1374 216.514 19.7951C216.637 19.4521 216.332 19.167 215.837 19.1616C215.113 19.1529 215.051 19.0235 215.521 18.4979C215.975 17.9911 215.844 17.822 214.937 17.7425C213.942 17.6556 213.905 17.5949 214.689 17.3382C215.196 17.1717 215.802 17.3651 216.034 17.7667C216.565 18.6852 217.209 18.7283 216.886 17.824C216.747 17.4372 217.101 17.1502 217.717 17.1502C218.711 17.1502 218.737 17.2155 218.071 18.0579C217.573 18.6872 217.49 19.1131 217.802 19.4453C218.048 19.7095 218.25 19.5687 218.25 19.1327C218.25 18.6724 218.577 18.4885 219.03 18.6926C219.458 18.8867 219.907 18.7701 220.027 18.4345C220.147 18.099 219.928 17.7937 219.54 17.7566C219.041 17.7095 219.119 17.5322 219.81 17.1502C220.512 16.7613 220.031 16.5922 218.088 16.5437C215.234 16.4723 214.861 16.0895 217.095 15.5241C217.837 15.3361 219.156 14.9183 220.024 14.5969C220.893 14.2748 221.989 14.0605 222.46 14.1205C222.979 14.1865 223.318 13.8428 223.318 13.2525C223.318 12.574 223.616 12.3745 224.293 12.5982C224.925 12.8071 225.267 12.6151 225.267 12.0497C225.267 11.5706 224.872 11.0389 224.39 10.8671C223.908 10.6959 224.302 10.5375 225.267 10.5166C226.232 10.4951 229.828 10.27 233.259 10.0173C236.689 9.76394 239.408 9.72284 239.301 9.92567C239.032 10.4351 235.105 11.1393 230.984 11.4169C229.09 11.5443 227.438 11.8253 227.314 12.0409C227.189 12.2566 227.467 12.4331 227.931 12.4331C228.396 12.4331 228.776 12.7835 228.776 13.2114C228.776 13.6528 229.113 13.4614 229.555 12.77C229.984 12.0996 230.335 11.8583 230.335 12.235C230.335 12.6117 230.817 12.7754 231.407 12.5989C232.447 12.2869 232.456 12.3091 231.7 13.3516C230.967 14.3604 231.055 14.4102 233.161 14.173C234.394 14.0349 235.403 14.1932 235.403 14.5248C235.403 14.857 235.008 15.1528 234.526 15.1818C234.044 15.2108 233.868 15.388 234.136 15.5747C235.024 16.1939 234.642 17.0619 233.386 17.2762C231.844 17.539 231.394 19.1717 232.864 19.1717C233.433 19.1717 234.139 19.5855 234.431 20.0909C234.791 20.7122 235.613 20.9211 236.97 20.7365C238.074 20.5855 238.883 20.7284 238.766 21.0538C238.648 21.3834 239.315 21.4454 240.276 21.1933C241.223 20.9447 242.219 20.979 242.49 21.2688C242.762 21.5586 243.076 21.5397 243.189 21.2257C243.35 20.7803 246.499 20.1489 249.947 19.8712C250.121 19.8571 250.139 19.4669 249.987 19.0033C249.771 18.3402 249.821 18.3355 250.224 18.9797C250.629 19.628 250.841 19.5579 251.243 18.6428C251.589 17.8557 251.755 17.7701 251.763 18.3746C251.772 18.9709 252.048 19.1131 252.604 18.8079C253.162 18.5019 253.346 18.5976 253.166 19.0996C253.019 19.51 253.091 19.8456 253.324 19.8456C253.558 19.8456 253.85 19.3928 253.973 18.8389C254.096 18.2849 254.372 18.0194 254.587 18.2492C254.847 18.5269 254.846 18.8072 254.583 19.0875C254.366 19.3193 256.409 19.4042 259.122 19.2769C261.836 19.1488 263.968 19.1866 263.861 19.3604C263.754 19.5343 261.736 19.886 259.378 20.1428C255.238 20.5936 252.844 21.7702 255.694 21.9535C258.274 22.1192 262.908 21.9339 265.81 21.5485C267.418 21.3348 269.26 21.0923 269.903 21.0087C270.546 20.9245 271.369 20.4258 271.731 19.8988C272.453 18.8503 274.331 18.4729 274.633 19.316C274.737 19.6071 275.272 19.8456 275.821 19.8456C276.641 19.8456 276.738 20.0181 276.361 20.8032C275.983 21.5896 276.046 21.696 276.709 21.3962C277.153 21.1954 277.618 20.7493 277.741 20.4056C277.871 20.0404 278.193 20.1091 278.514 20.5693C279.261 21.6401 279.214 20.8739 278.452 19.5565C277.895 18.5942 277.986 18.4979 279.449 18.4979C280.377 18.4979 280.962 18.2243 280.829 17.8517C280.688 17.4601 281.177 17.353 282.073 17.5801C282.883 17.7863 283.81 17.9312 284.132 17.9029C287.415 17.6124 290.974 18.0093 291.218 18.6926C291.429 19.2802 291.649 19.1697 292.021 18.2883C292.38 17.4419 293.18 17.0012 294.668 16.8321C295.841 16.6987 296.494 16.7378 296.119 16.919C295.337 17.2977 295.197 18.4703 295.924 18.5538C296.193 18.5848 296.807 18.6859 297.289 18.7782C297.771 18.8705 298.166 18.6758 298.166 18.3456C298.166 18.0147 298.341 17.9318 298.556 18.161C298.77 18.3901 298.946 18.1043 298.946 17.5268C298.946 16.9493 298.787 16.4763 298.593 16.4763C298.398 16.4763 298.331 15.8698 298.443 15.1286C298.629 13.8974 298.257 13.4372 297.289 13.7013C297.128 13.7451 297.024 13.5538 297.059 13.2754C297.195 12.1595 296.511 10.5173 296.04 10.83C295.764 11.0126 295.434 10.6939 295.307 10.1211C295.18 9.54831 295.201 9.15208 295.354 9.24035C295.507 9.32863 295.72 9.09749 295.827 8.72687C295.934 8.35624 295.471 7.96069 294.797 7.84748C293.867 7.69114 293.614 7.36634 293.744 6.49975C293.865 5.69246 293.482 5.02197 292.435 4.21266L290.954 3.06844L292.319 2.98016L293.683 2.89256L292.611 2.216C292.021 1.84336 291.539 1.31101 291.539 1.03203C291.539 0.753048 290.443 0.433636 289.102 0.321775C286.613 0.114225 274.377 -0.105452 274.258 0.0556013ZM147.228 2.78542C147.509 2.98016 147.845 2.9559 147.975 2.73218C148.104 2.50846 147.874 2.34943 147.463 2.37841C147.009 2.41075 146.917 2.57046 147.228 2.78542ZM225.762 2.76722C225.498 2.95186 224.972 2.96332 224.592 2.79216C224.213 2.621 224.429 2.47005 225.072 2.45657C225.716 2.4431 226.026 2.58258 225.762 2.76722ZM248.573 2.81979C247.561 2.95793 245.807 2.95927 244.675 2.82248C243.542 2.68636 244.369 2.57315 246.513 2.57113C248.657 2.56978 249.584 2.68097 248.573 2.81979ZM96.6224 5.28545C96.6224 5.431 96.8855 5.72481 97.2071 5.93842C97.5287 6.15136 97.7919 6.03209 97.7919 5.6736C97.7919 5.31443 97.5287 5.02062 97.2071 5.02062C96.8855 5.02062 96.6224 5.13989 96.6224 5.28545ZM95.8064 5.98155C95.4704 6.5631 92.3342 6.82118 92.3342 6.26727C92.3342 5.95257 93.1528 5.69449 94.1535 5.69449C95.1539 5.69449 95.8981 5.82387 95.8064 5.98155ZM103.639 7.15273C103.639 7.4627 103.245 7.73899 102.762 7.76796C102.28 7.79627 101.577 7.92093 101.201 8.04559C100.825 8.16958 100.616 7.99506 100.737 7.65678C100.857 7.3185 100.771 7.04221 100.544 7.04221C100.317 7.04221 100.131 7.34545 100.131 7.71607C100.131 8.77337 99.46 8.50449 99.2023 7.3441C99.0066 6.46134 99.3348 6.32118 101.305 6.44382C102.589 6.52401 103.639 6.84275 103.639 7.15273ZM90.9296 8.50247C90.8193 8.8111 90.3008 9.0638 89.7773 9.0638C89.2537 9.0638 88.8257 8.8111 88.8257 8.50247C88.8257 8.19317 89.3442 7.94047 89.978 7.94047C90.6119 7.94047 91.04 8.19317 90.9296 8.50247ZM95.6236 9.66691C95.5226 9.84211 95.2459 9.64939 95.0088 9.23968C94.7722 8.83064 94.2927 8.65207 93.9434 8.84277C93.4265 9.12647 93.4109 9.06515 93.8588 8.51527C94.3952 7.85624 96.0474 8.93442 95.6236 9.66691ZM225.267 7.98157C225.267 8.47821 222.94 8.81919 222.531 8.38252C222.303 8.13859 222.825 7.89128 223.692 7.83265C224.558 7.77402 225.267 7.84074 225.267 7.98157ZM242.589 8.46137C242.328 9.19318 241.365 9.25653 241.116 8.5584C241.017 8.28077 241.356 8.00921 241.87 7.95597C242.384 7.90274 242.708 8.1305 242.589 8.46137ZM271.462 8.40948C270.125 9.06717 259.181 9.60289 259.182 9.01056C259.182 8.79628 260.187 8.55032 261.415 8.46474C262.643 8.37848 263.682 8.25112 263.724 8.18037C263.765 8.11029 265.787 8.00381 268.216 7.94384C271.212 7.86971 272.256 8.01931 271.462 8.40948ZM206.165 9.47284C206.165 9.61839 205.902 9.73766 205.581 9.73766C205.259 9.73766 204.996 9.44386 204.996 9.08469C204.996 8.72619 205.259 8.60692 205.581 8.81986C205.902 9.03348 206.165 9.32728 206.165 9.47284ZM238.806 8.79695C238.676 9.02067 238.34 9.04493 238.059 8.85019C237.748 8.63522 237.84 8.47552 238.294 8.44317C238.705 8.4142 238.935 8.57323 238.806 8.79695ZM240.365 8.79695C240.236 9.02067 239.899 9.04493 239.618 8.85019C239.307 8.63522 239.399 8.47552 239.854 8.44317C240.265 8.4142 240.495 8.57323 240.365 8.79695ZM168.096 10.1036C167.969 10.6757 167.782 10.9991 167.68 10.8226C167.577 10.646 167.609 10.1777 167.751 9.78281C168.135 8.70733 168.36 8.91622 168.096 10.1036ZM199.492 10.1063C199.589 10.2741 198.948 10.4115 198.067 10.4115C197.186 10.4115 196.357 10.7148 196.225 11.0854C196.092 11.456 195.775 11.7545 195.519 11.7491C195.24 11.7424 195.289 11.4776 195.64 11.0854C196.076 10.5982 195.829 10.4041 194.665 10.3206L193.106 10.2094L194.86 9.79359C196.634 9.37445 199.167 9.54494 199.492 10.1063ZM201.195 9.5099C200.927 9.69723 200.489 9.69723 200.22 9.5099C199.953 9.32324 200.172 9.17027 200.708 9.17027C201.244 9.17027 201.463 9.32324 201.195 9.5099ZM83.563 10.4115C83.4304 10.7822 82.9377 11.0551 82.4679 11.018C81.6727 10.956 81.6812 10.9136 82.5884 10.4115C83.1244 10.115 83.6171 9.84211 83.6834 9.80505C83.7497 9.76799 83.6955 10.0409 83.563 10.4115ZM86.0969 10.4115C86.0969 10.7822 85.9214 11.0854 85.707 11.0854C85.4926 11.0854 85.3172 10.7822 85.3172 10.4115C85.3172 10.0409 85.4926 9.73766 85.707 9.73766C85.9214 9.73766 86.0969 10.0409 86.0969 10.4115ZM221.788 10.3657C221.08 11.1413 217.029 11.1029 217.307 10.3233C217.422 10.0011 218.603 9.74238 219.93 9.74777C221.515 9.75451 222.153 9.96678 221.788 10.3657ZM270.753 10.179C270.353 10.8698 262.876 11.0274 262.264 10.3576C261.927 9.98834 263.498 9.75451 266.362 9.74777C268.917 9.74238 270.893 9.93645 270.753 10.179ZM83.3743 11.954L85.1223 12.2411L83.2035 12.169C81.8539 12.1178 81.238 11.7963 81.1273 11.0854C81.0185 10.3866 81.0711 10.3206 81.298 10.8704C81.4789 11.3084 82.4129 11.7956 83.3743 11.954ZM79.2849 12.3031C79.1652 12.5106 78.8507 12.3037 78.586 11.8428C78.2039 11.177 78.2487 11.1002 78.8043 11.4655C79.1886 11.7188 79.405 12.0955 79.2849 12.3031ZM80.7928 12.1528C80.9382 12.8085 80.8513 13.1171 80.5663 12.9527C79.9835 12.6171 79.6627 11.0854 80.1753 11.0854C80.3846 11.0854 80.6622 11.5659 80.7928 12.1528ZM192.818 11.5483C192.446 11.7168 191.744 11.7229 191.259 11.5618C190.774 11.4008 191.079 11.2626 191.937 11.2552C192.794 11.2478 193.191 11.3799 192.818 11.5483ZM225.657 12.4331C225.657 12.8037 225.92 13.107 226.242 13.107C226.563 13.107 226.827 12.8037 226.827 12.4331C226.827 12.0625 226.563 11.7593 226.242 11.7593C225.92 11.7593 225.657 12.0625 225.657 12.4331ZM71.3861 12.9075C70.9066 13.0672 70.0295 13.0713 69.437 12.917C68.8444 12.762 69.2366 12.6312 70.3086 12.6258C71.3807 12.6211 71.8656 12.7478 71.3861 12.9075ZM84.0421 13.514C83.9126 13.7377 83.5762 13.762 83.2951 13.5672C82.984 13.3523 83.0764 13.1926 83.5306 13.1602C83.9415 13.1312 84.1715 13.2903 84.0421 13.514ZM174.589 14.078C174.589 14.2418 174.414 14.5625 174.199 14.7916C173.985 15.0208 173.809 14.8867 173.809 14.4945C173.809 14.1023 173.985 13.7808 174.199 13.7808C174.414 13.7808 174.589 13.9143 174.589 14.078ZM224.025 14.2411C224.306 14.4358 224.642 14.4116 224.772 14.1879C224.901 13.9641 224.671 13.8051 224.26 13.8341C223.806 13.8664 223.714 14.0261 224.025 14.2411ZM225.584 14.2411C225.865 14.4358 226.202 14.4116 226.331 14.1879C226.461 13.9641 226.231 13.8051 225.82 13.8341C225.365 13.8664 225.273 14.0261 225.584 14.2411ZM170.065 15.1703C170.185 15.3786 169.191 15.5598 167.856 15.5733C166.333 15.5888 165.791 15.4278 166.402 15.142C167.544 14.6083 169.75 14.6252 170.065 15.1703ZM292.601 15.392C292.731 15.6178 291.274 15.7809 289.362 15.7553C287.191 15.7256 286.179 15.5039 286.666 15.1643C287.529 14.5632 292.226 14.7438 292.601 15.392ZM162.788 15.5356C162.659 15.7593 162.322 15.7836 162.041 15.5888C161.73 15.3739 161.823 15.2142 162.277 15.1818C162.688 15.1528 162.918 15.3119 162.788 15.5356ZM285.691 15.4257C285.691 16.1367 284.943 16.4359 284.721 15.8132C284.586 15.4365 284.75 15.1286 285.084 15.1286C285.418 15.1286 285.691 15.262 285.691 15.4257ZM59.8389 16.8132C59.5173 17.3692 59.0327 17.824 58.7618 17.824C58.4858 17.824 58.6015 17.3901 59.0265 16.8348C60.0194 15.5363 60.5862 15.5214 59.8389 16.8132ZM221.759 16.4554C221.759 16.8139 222.022 16.9332 222.344 16.7202C222.665 16.5066 222.928 16.2128 222.928 16.0673C222.928 15.9217 222.665 15.8024 222.344 15.8024C222.022 15.8024 221.759 16.0962 221.759 16.4554ZM57.4441 17.1502C58.1349 17.6636 58.1018 17.7344 57.1518 17.7769C56.5623 17.8025 56.0797 17.5208 56.0797 17.1502C56.0797 16.359 56.3795 16.359 57.4441 17.1502ZM162.999 16.9183C162.735 17.103 162.209 17.1144 161.829 16.9433C161.45 16.7721 161.666 16.6212 162.309 16.6077C162.952 16.5942 163.263 16.7337 162.999 16.9183ZM168.839 16.9635C168.142 17.1131 167.002 17.1131 166.305 16.9635C165.608 16.8146 166.178 16.6919 167.572 16.6919C168.966 16.6919 169.536 16.8146 168.839 16.9635ZM192.805 16.8833C192.676 17.107 192.34 17.1313 192.059 16.9365C191.747 16.7216 191.84 16.5619 192.294 16.5295C192.705 16.5006 192.935 16.6596 192.805 16.8833ZM196.03 17.8105C195.402 18.5269 196.621 18.7546 199.733 18.5019C200.591 18.4325 201.16 18.6077 200.997 18.8914C200.834 19.1751 199.468 19.3618 197.959 19.3072C195.91 19.2324 195.278 19.4157 195.458 20.0316C195.591 20.4851 195.348 20.1677 194.918 19.3261C194.395 18.3004 194.047 18.0471 193.864 18.5585C193.714 18.979 193.809 19.5558 194.076 19.8402C194.346 20.1293 193.809 20.3503 192.859 20.3402C191.923 20.3308 191.48 20.1879 191.875 20.0228C192.269 19.8577 192.887 19.2142 193.247 18.5916C193.607 17.9696 194.512 17.3894 195.258 17.3018C196.267 17.1845 196.464 17.3146 196.03 17.8105ZM260.255 17.6145C259.88 17.7843 259.265 17.7843 258.89 17.6145C258.515 17.4453 258.822 17.3065 259.573 17.3065C260.323 17.3065 260.63 17.4453 260.255 17.6145ZM262.586 17.5572C262.456 17.7809 262.12 17.8052 261.839 17.6104C261.528 17.3954 261.62 17.2357 262.074 17.2034C262.485 17.1744 262.715 17.3334 262.586 17.5572ZM45.3503 18.7701L46.4048 19.7156L44.9492 19.6441C44.1485 19.605 43.6951 19.4568 43.9415 19.3146C44.1879 19.1731 44.2904 18.7796 44.1691 18.4406C43.867 17.5949 44.1181 17.665 45.3503 18.7701ZM108.991 18.231C108.862 18.4548 108.526 18.479 108.244 18.2843C107.933 18.0693 108.026 17.9096 108.48 17.8773C108.891 17.8483 109.121 18.0073 108.991 18.231ZM110.754 18.2701C110.486 18.4575 110.047 18.4575 109.779 18.2701C109.511 18.0835 109.73 17.9305 110.267 17.9305C110.803 17.9305 111.022 18.0835 110.754 18.2701ZM192.326 18.4979C192.194 18.8685 191.701 19.1414 191.231 19.1044C190.436 19.0424 190.445 18.9999 191.352 18.4979C191.888 18.2014 192.381 17.9285 192.447 17.8914C192.513 17.8543 192.459 18.1273 192.326 18.4979ZM203.047 18.4979C203.047 18.8685 202.861 19.1717 202.634 19.1717C202.407 19.1717 202.329 18.8685 202.462 18.4979C202.595 18.1273 202.78 17.824 202.875 17.824C202.97 17.824 203.047 18.1273 203.047 18.4979ZM207.011 18.3119C206.082 18.512 205.774 18.8658 205.927 19.5552C206.224 20.8914 205.77 20.7634 205.168 19.3416C204.894 18.6933 204.529 18.4062 204.357 18.7041C204.185 19.0013 204.302 19.5269 204.617 19.8719C204.933 20.2169 204.993 20.5033 204.751 20.5094C204.509 20.5148 204.108 20.0943 203.858 19.574C203.276 18.3631 203.668 18.1232 206.307 18.0713C207.486 18.0484 207.775 18.1475 207.011 18.3119ZM209.771 18.2701C209.504 18.4575 209.065 18.4575 208.797 18.2701C208.529 18.0835 208.748 17.9305 209.284 17.9305C209.82 17.9305 210.04 18.0835 209.771 18.2701ZM220.15 18.9447C219.699 19.8887 219.698 20.1131 220.146 20.3739C220.595 20.6347 220.595 20.7735 220.146 21.2648C219.792 21.6529 220.094 21.8497 221.054 21.8571C221.845 21.8625 222.588 21.6017 222.703 21.2769C222.819 20.9521 224.189 20.7533 225.748 20.8355C227.306 20.9171 229.107 20.7641 229.75 20.4945C231.044 19.9534 231.109 19.9662 224.492 19.446C222.886 19.3193 221.512 18.9029 221.438 18.5201C221.243 17.5073 220.76 17.6663 220.15 18.9447ZM229.555 18.4669C229.877 18.8436 230.476 19.1556 230.887 19.1616C231.885 19.1751 231.574 18.7897 230.14 18.2351C229.286 17.9049 229.129 17.9676 229.555 18.4669ZM187.453 19.1717C187.453 19.5424 187.268 19.8456 187.041 19.8456C186.814 19.8456 186.736 19.5424 186.869 19.1717C187.001 18.8011 187.187 18.4979 187.282 18.4979C187.376 18.4979 187.453 18.8011 187.453 19.1717ZM47.7876 19.5788C47.6582 19.8025 47.3217 19.8267 47.0407 19.632C46.7296 19.417 46.822 19.2573 47.2761 19.225C47.687 19.196 47.917 19.355 47.7876 19.5788ZM49.4526 19.8456C49.4526 20.2162 49.628 20.5195 49.8424 20.5195C50.0568 20.5195 50.2322 20.2162 50.2322 19.8456C50.2322 19.475 50.0568 19.1717 49.8424 19.1717C49.628 19.1717 49.4526 19.475 49.4526 19.8456ZM122.846 19.6138C122.582 19.7984 122.056 19.8099 121.677 19.6387C121.297 19.4676 121.513 19.3166 122.156 19.3032C122.8 19.2897 123.11 19.4292 122.846 19.6138ZM218.835 19.8456C218.968 20.2162 219.153 20.5195 219.248 20.5195C219.343 20.5195 219.42 20.2162 219.42 19.8456C219.42 19.475 219.234 19.1717 219.007 19.1717C218.78 19.1717 218.702 19.475 218.835 19.8456ZM240.568 19.6475C240.086 19.8079 239.296 19.8079 238.814 19.6475C238.332 19.4864 238.726 19.355 239.691 19.355C240.656 19.355 241.05 19.4864 240.568 19.6475ZM267.467 19.6475C266.984 19.8079 266.195 19.8079 265.712 19.6475C265.23 19.4864 265.625 19.355 266.59 19.355C267.554 19.355 267.949 19.4864 267.467 19.6475ZM35.5605 20.8524C35.4373 21.4063 35.1613 21.6718 34.9461 21.442C34.7059 21.1853 34.7594 20.8018 35.0845 20.4453C35.7944 19.6684 35.8185 19.6886 35.5605 20.8524ZM190.767 20.5195C190.634 20.8901 190.361 21.1933 190.159 21.1933C189.957 21.1933 189.792 20.8901 189.792 20.5195C189.792 20.1488 190.066 19.8456 190.4 19.8456C190.734 19.8456 190.9 20.1488 190.767 20.5195ZM208.407 20.3099C208.032 20.4797 207.418 20.4797 207.043 20.3099C206.668 20.1408 206.974 20.0019 207.725 20.0019C208.475 20.0019 208.782 20.1408 208.407 20.3099ZM112.513 20.9824C112.14 21.1509 111.438 21.1569 110.953 20.9959C110.468 20.8348 110.773 20.6967 111.631 20.6893C112.489 20.6819 112.885 20.8139 112.513 20.9824ZM176.308 21.4622C175.898 21.9474 174.95 22.2634 174.199 22.1637C173.449 22.0646 172.342 21.9568 171.74 21.9252C171.137 21.8935 170.727 21.6394 170.829 21.3618C170.93 21.0842 172.372 20.7944 174.032 20.7183C176.625 20.599 176.947 20.7041 176.308 21.4622ZM217.081 21.1933C217.081 21.564 217.246 21.8672 217.448 21.8672C217.65 21.8672 217.923 21.564 218.055 21.1933C218.188 20.8227 218.023 20.5195 217.689 20.5195C217.354 20.5195 217.081 20.8227 217.081 21.1933ZM271.974 20.9797C272.255 21.1745 272.592 21.1502 272.721 20.9265C272.851 20.7028 272.621 20.5437 272.21 20.5727C271.756 20.6051 271.663 20.7648 271.974 20.9797ZM297.386 21.1933C297.386 21.564 297.748 21.8672 298.189 21.8672C298.63 21.8672 298.883 21.564 298.751 21.1933C298.618 20.8227 298.257 20.5195 297.948 20.5195C297.639 20.5195 297.386 20.8227 297.386 21.1933ZM32.864 21.8099C32.9852 22.1489 32.864 22.562 32.5946 22.7284C32.3252 22.8942 32.2461 23.2904 32.4184 23.6085C32.5911 23.9265 32.8952 23.7405 33.0948 23.1954C33.575 21.8827 33.5618 21.1933 33.0566 21.1933C32.8297 21.1933 32.7427 21.471 32.864 21.8099ZM50.1449 21.6906C51.307 21.8308 52.1026 22.2163 51.9736 22.5768C51.8481 22.9279 52.326 23.2257 53.0355 23.2392C53.745 23.2527 56.9795 23.4393 60.2233 23.655C64.1617 23.9171 66.3631 23.8039 66.8504 23.3147C67.3993 22.7634 66.1016 22.5768 61.6118 22.5613C57.7353 22.5485 55.7285 22.3052 55.8848 21.8672C56.0403 21.4319 54.7044 21.2371 52.1069 21.318C49.8849 21.3867 49.0078 21.5539 50.1449 21.6906ZM137.449 21.6003C137.32 21.8241 136.983 21.8483 136.702 21.6536C136.391 21.4386 136.484 21.2789 136.938 21.2466C137.349 21.2176 137.579 21.3766 137.449 21.6003ZM229.91 21.9191C229.51 22.3571 229.652 22.5235 230.433 22.531C231.597 22.5417 231.806 22.2115 230.982 21.665C230.695 21.4743 230.212 21.5889 229.91 21.9191ZM235.793 21.8382C233.922 22.3517 234.826 23.0289 236.767 22.5694C237.625 22.3659 238.064 22.0343 237.742 21.8315C237.42 21.6293 236.543 21.632 235.793 21.8382ZM248.852 21.7904L247.683 22.2682L248.811 22.6664C249.431 22.8861 250.443 22.8153 251.06 22.5094C251.742 22.1718 252.092 22.2008 251.955 22.5842C251.824 22.9521 252.674 23.1765 253.994 23.1233C255.24 23.0727 255.82 22.8921 255.284 22.7217C254.748 22.5512 254.134 22.1886 253.92 21.9157C253.407 21.2621 250.33 21.1859 248.852 21.7904ZM293.586 21.6576C293.961 21.8274 294.575 21.8274 294.95 21.6576C295.325 21.4885 295.018 21.3497 294.268 21.3497C293.517 21.3497 293.21 21.4885 293.586 21.6576ZM26.3795 22.3274C26.6606 22.5222 26.997 22.4979 27.1264 22.2742C27.2559 22.0505 27.0258 21.8915 26.615 21.9204C26.1608 21.9528 26.0684 22.1125 26.3795 22.3274ZM54.8174 22.3301C54.4448 22.4986 53.7431 22.5047 53.2581 22.3436C52.7732 22.1826 53.078 22.0444 53.9356 22.037C54.7933 22.0296 55.1901 22.1617 54.8174 22.3301ZM165.338 22.3093C165.074 22.4939 164.548 22.5054 164.168 22.3342C163.789 22.163 164.005 22.0121 164.648 21.9986C165.291 21.9851 165.602 22.1246 165.338 22.3093ZM169.805 22.2742C169.676 22.4979 169.339 22.5222 169.058 22.3274C168.747 22.1125 168.84 21.9528 169.294 21.9204C169.705 21.8915 169.935 22.0505 169.805 22.2742ZM223.807 22.6624C223.36 22.9616 223.596 23.1199 224.488 23.1199C225.238 23.1199 226.203 22.8686 226.632 22.5606C227.223 22.1361 227.058 22.0249 225.951 22.1024C225.148 22.1583 224.183 22.4103 223.807 22.6624ZM277.797 22.3133C278.065 22.5006 278.504 22.5006 278.772 22.3133C279.04 22.1266 278.821 21.9737 278.285 21.9737C277.749 21.9737 277.529 22.1266 277.797 22.3133ZM19.5902 23.3275C19.4799 23.6361 19.1263 23.8888 18.8047 23.8888C18.4831 23.8888 18.3104 23.6361 18.4207 23.3275C18.531 23.0182 18.8846 22.7655 19.2062 22.7655C19.5278 22.7655 19.7005 23.0182 19.5902 23.3275ZM124.405 23.0081C124.785 23.1792 125.311 23.1678 125.575 22.9831C125.839 22.7985 125.528 22.659 124.885 22.6725C124.242 22.6859 124.026 22.8369 124.405 23.0081ZM131.245 23.0013C131.526 23.1961 131.862 23.1718 131.992 22.9481C132.121 22.7244 131.891 22.5653 131.48 22.5943C131.026 22.6266 130.934 22.7863 131.245 23.0013ZM17.8761 23.6246C17.8761 24.1819 17.119 24.4973 16.9455 24.0121C16.8329 23.6974 16.9962 23.4393 17.3085 23.4393C17.6207 23.4393 17.8761 23.5229 17.8761 23.6246ZM22.749 23.8888C22.6164 24.2594 22.694 24.5627 22.9209 24.5627C23.1478 24.5627 23.3337 24.2594 23.3337 23.8888C23.3337 23.5182 23.2566 23.2149 23.1618 23.2149C23.0671 23.2149 22.8815 23.5182 22.749 23.8888ZM69.1391 23.8888C69.2717 24.2594 69.1941 24.5627 68.9672 24.5627C68.7403 24.5627 68.5544 24.2594 68.5544 23.8888C68.5544 23.5182 68.6316 23.2149 68.7263 23.2149C68.821 23.2149 69.0066 23.5182 69.1391 23.8888ZM152.076 23.7021C151.379 23.8517 150.239 23.8517 149.542 23.7021C148.845 23.5532 149.415 23.4306 150.809 23.4306C152.203 23.4306 152.773 23.5532 152.076 23.7021ZM261.522 23.7938C261.522 24.6381 262.4 25.6813 262.984 25.5303C263.252 25.4616 263.778 25.3578 264.153 25.3005C264.73 25.2116 264.745 25.1085 264.251 24.6334C263.27 23.69 261.522 23.1523 261.522 23.7938ZM265.03 24.5627C265.03 24.9333 265.206 25.2365 265.42 25.2365C265.634 25.2365 265.81 24.9333 265.81 24.5627C265.81 24.192 265.634 23.8888 265.42 23.8888C265.206 23.8888 265.03 24.192 265.03 24.5627ZM271.755 24.3531C272.13 24.5229 272.744 24.5229 273.119 24.3531C273.494 24.1839 273.188 24.0451 272.437 24.0451C271.687 24.0451 271.38 24.1839 271.755 24.3531ZM249.437 25.1105C249.437 25.4117 250.27 25.721 251.289 25.7972C252.637 25.8983 252.981 25.752 252.556 25.2594C251.855 24.4488 249.437 24.3335 249.437 25.1105ZM261.102 24.7311C260.793 26.4757 260.95 26.9939 261.824 27.1193C262.79 27.2574 262.797 27.2285 262.107 25.9117C261.446 24.6496 261.173 24.3288 261.102 24.7311ZM26.7693 25.6968C27.0504 25.8915 27.3868 25.8672 27.5163 25.6435C27.6457 25.4198 27.4157 25.2608 27.0048 25.2898C26.5506 25.3221 26.4583 25.4818 26.7693 25.6968ZM28.499 25.7008C28.8741 25.8706 29.4884 25.8706 29.8634 25.7008C30.2385 25.5317 29.9317 25.3929 29.1812 25.3929C28.4308 25.3929 28.124 25.5317 28.499 25.7008ZM192.329 25.903C192.193 26.2844 192.349 26.3976 192.696 26.1678C193.371 25.7197 193.495 25.2365 192.934 25.2365C192.732 25.2365 192.46 25.5364 192.329 25.903ZM242.03 25.9501C242.03 26.3423 242.206 26.4764 242.42 26.2473C242.634 26.0182 242.81 25.6974 242.81 25.5337C242.81 25.3699 242.634 25.2365 242.42 25.2365C242.206 25.2365 242.03 25.5579 242.03 25.9501ZM287.722 26.0317C287.356 26.2837 288.62 26.5108 290.532 26.5371C292.444 26.5627 293.892 26.3848 293.751 26.1408C293.406 25.5431 288.56 25.4555 287.722 26.0317ZM295.242 25.9104L294.073 26.4245L295.317 26.5047C296.001 26.5485 296.669 26.281 296.802 25.9104C297.068 25.1644 296.938 25.1644 295.242 25.9104ZM161.237 26.3565C161.505 26.5438 161.944 26.5438 162.212 26.3565C162.48 26.1698 162.26 26.0168 161.724 26.0168C161.188 26.0168 160.969 26.1698 161.237 26.3565ZM179.135 26.3625C178.947 26.688 175.289 27.3376 172.454 27.5485C170.948 27.6604 168.663 27.8329 167.377 27.932L165.038 28.1119L166.987 28.6368C169.865 29.4118 178.444 29.3545 180.242 28.5486C181.099 28.1638 182.004 27.8174 182.251 27.7783C182.499 27.7392 182.609 27.2931 182.497 26.7864C182.363 26.184 181.765 25.9191 180.768 26.0209C179.929 26.1065 179.194 26.2601 179.135 26.3625ZM237.547 26.5344C236.47 26.9778 236.524 27.0391 238.235 27.3113C239.739 27.5506 242.007 26.9933 241.25 26.5701C240.501 26.1503 238.525 26.1314 237.547 26.5344ZM247.415 26.3706C247.696 26.5654 248.032 26.5411 248.162 26.3174C248.291 26.0937 248.061 25.9346 247.65 25.9636C247.196 25.996 247.104 26.1557 247.415 26.3706ZM148.957 27.0485C149.332 27.2183 149.947 27.2183 150.322 27.0485C150.697 26.8794 150.39 26.7406 149.64 26.7406C148.889 26.7406 148.582 26.8794 148.957 27.0485ZM216.301 27.2581C215.826 27.7891 215.876 27.9131 216.57 27.9219C217.04 27.9273 217.533 27.6287 217.666 27.2581C217.972 26.4003 217.069 26.4003 216.301 27.2581ZM219.371 27.3241C219.011 27.719 219.315 27.9144 220.297 27.9219C221.101 27.9273 221.759 27.7042 221.758 27.4266C221.758 26.7028 220.007 26.628 219.371 27.3241ZM250.217 26.9333C250.217 27.4785 251.334 27.7305 251.755 27.2797C252.071 26.9427 251.883 26.7527 251.233 26.7527C250.674 26.7527 250.217 26.8342 250.217 26.9333ZM74.1169 27.7251C74.4962 27.8963 75.0225 27.8848 75.2864 27.7002C75.5503 27.5155 75.24 27.376 74.5968 27.3895C73.9536 27.403 73.7376 27.5539 74.1169 27.7251ZM77.9104 28.0573C77.1599 28.3848 75.3457 28.7716 73.8787 28.9158C72.4118 29.0607 71.1222 29.3336 71.0127 29.523C70.4954 30.4172 74.2584 30.7555 79.7976 30.3121C88.5279 29.6133 91.8703 29.5465 94.0884 30.0257C95.1605 30.2575 96.0957 30.1867 96.1666 29.8687C96.2376 29.5492 96.5869 29.5472 96.9463 29.8633C97.3042 30.178 98.4741 30.2164 99.5461 29.9482L101.495 29.4596L99.3512 29.3606C96.868 29.2453 95.3823 28.6746 95.6462 27.936C95.7476 27.6523 94.138 27.3706 92.0691 27.31C89.3605 27.2312 88.2183 27.4441 87.988 28.0715C87.7275 28.781 87.6671 28.779 87.6621 28.0607C87.6585 27.5344 87.4625 27.3855 87.1759 27.6921C86.5323 28.3794 85.3172 28.5048 85.3172 27.8835C85.3172 27.1948 79.5777 27.3295 77.9104 28.0573ZM100.033 27.7339C100.516 27.8942 101.305 27.8942 101.788 27.7339C102.27 27.5728 101.875 27.4414 100.911 27.4414C99.9457 27.4414 99.5508 27.5728 100.033 27.7339ZM199.636 27.7224C200.011 27.8922 200.625 27.8922 201 27.7224C201.375 27.5533 201.068 27.4144 200.318 27.4144C199.568 27.4144 199.261 27.5533 199.636 27.7224ZM214.669 27.7184C214.95 27.9131 215.286 27.8888 215.416 27.6651C215.545 27.4414 215.315 27.2824 214.904 27.3113C214.45 27.3437 214.358 27.5034 214.669 27.7184ZM21.0922 28.3963C21.4676 28.5661 22.0812 28.5661 22.4566 28.3963C22.832 28.2271 22.5248 28.0883 21.7744 28.0883C21.024 28.0883 20.7168 28.2271 21.0922 28.3963ZM92.724 28.6368C93.1509 29.1362 92.9934 29.1988 92.1393 28.8686C90.7059 28.314 90.3948 27.9286 91.392 27.9421C91.8029 27.9481 92.4024 28.2601 92.724 28.6368ZM148.47 28.7231C148.47 29.4448 155.831 29.3585 156.852 28.6247C157.324 28.2851 155.824 28.0843 153.051 28.1153C150.532 28.1436 148.47 28.4165 148.47 28.7231ZM163.991 28.3922C164.272 28.587 164.608 28.5627 164.738 28.339C164.867 28.1153 164.637 27.9562 164.226 27.9852C163.772 28.0176 163.679 28.1773 163.991 28.3922ZM40.6813 29.2797C40.5488 29.6503 40.8018 29.9536 41.2431 29.9536C41.6844 29.9536 42.0457 29.6503 42.0457 29.2797C42.0457 28.9091 41.7931 28.6058 41.484 28.6058C41.1748 28.6058 40.8139 28.9091 40.6813 29.2797ZM45.7694 29.2231C45.6727 29.4933 44.8517 29.6126 43.945 29.4886C43.0379 29.3646 42.4024 29.4468 42.5326 29.6719C42.9486 30.3909 48.0008 30.7999 47.7486 30.0944C47.4414 29.2345 45.9932 28.5971 45.7694 29.2231ZM66.8001 29.2965C65.8638 29.6948 66.0902 29.81 67.9373 29.874C69.2058 29.9178 70.1706 29.8444 70.0814 29.7116C69.6564 29.0782 67.85 28.8498 66.8001 29.2965ZM37.0828 29.7467C37.4621 29.9178 37.9883 29.9064 38.2523 29.7217C38.5162 29.5371 38.2059 29.3976 37.5626 29.4111C36.9194 29.4246 36.7035 29.5755 37.0828 29.7467ZM20.532 30.4138C20.8131 30.6086 21.1495 30.5843 21.2789 30.3606C21.4084 30.1368 21.1784 29.9778 20.7675 30.0068C20.3133 30.0391 20.2209 30.1988 20.532 30.4138ZM48.5754 30.3997C48.8436 30.587 49.2822 30.587 49.55 30.3997C49.8182 30.213 49.5987 30.06 49.0627 30.06C48.5267 30.06 48.3076 30.213 48.5754 30.3997Z" fill="#F2C94C"/>
<path fill-rule="evenodd" clip-rule="evenodd" d="M24.7249 47.9444C25.057 47.4996 46.9289 46.7598 51.4947 47.0387C51.8163 47.0583 57.219 46.9821 63.5004 46.8689C73.0801 46.6964 74.9802 46.5017 75.287 45.6634C75.5762 44.8723 75.6538 44.8568 75.6585 45.5886C75.6628 46.2813 75.7945 46.3271 76.182 45.7712C76.4982 45.3177 77.143 45.2287 77.8388 45.5428C78.4653 45.8258 80.6713 46.0468 82.7413 46.0347C84.8114 46.0219 86.4136 46.2672 86.3021 46.5792C86.1906 46.8912 87.2162 46.972 88.581 46.7584C94.7217 45.7981 117.123 45.3244 117.885 46.1385C118.1 46.3682 118.159 46.2281 118.015 45.8258C117.871 45.4235 117.932 44.9039 118.15 44.6708C118.368 44.4383 118.546 44.569 118.546 44.9612C118.546 45.3534 118.732 45.6748 118.959 45.6748C119.186 45.6748 119.263 45.3716 119.131 45.001C118.998 44.6303 119.065 44.3271 119.28 44.3271C119.494 44.3271 119.778 44.6303 119.91 45.001C120.043 45.3716 120.36 45.6701 120.616 45.6647C120.895 45.658 120.846 45.3932 120.495 45.001C119.824 44.2516 120.083 44.1506 122.249 44.3156C123.107 44.381 123.975 44.7132 124.179 45.0549C124.737 45.9895 138.038 45.8588 138.038 44.9188C138.038 44.3621 138.176 44.3608 138.561 44.9127C138.848 45.3251 139.163 45.5273 139.259 45.3608C139.355 45.195 141.31 45.0117 143.604 44.9538C146.232 44.8871 147.687 44.602 147.537 44.1836C147.406 43.8177 147.672 43.8628 148.126 44.2833C148.581 44.7045 148.953 44.8103 148.952 44.5192C148.951 43.9464 153.454 44.1532 154.411 44.7698C154.732 44.9774 159.03 45.0414 163.962 44.9113C168.893 44.782 177.193 44.6735 182.405 44.6701C187.618 44.6667 191.477 44.4666 190.982 44.226C190.473 43.9787 191.321 43.7584 192.93 43.7206C194.59 43.6815 195.685 43.3898 195.554 43.0225C195.415 42.6364 195.782 42.6168 196.5 42.9733C197.144 43.2927 197.764 43.2961 197.876 42.9814C197.989 42.666 198.693 42.5063 199.441 42.6269C200.189 42.7469 200.801 42.6303 200.801 42.3675C200.801 42.104 201.064 41.3008 201.386 40.5811C201.875 39.4908 201.932 39.4692 201.734 40.4524C201.576 41.2395 201.695 41.6317 202.091 41.6317C202.418 41.6317 202.758 42.0104 202.847 42.474C203.194 44.2725 252.628 44.1539 260.343 42.3358C261.579 42.0447 264.112 41.7523 265.972 41.6862C267.833 41.6195 269.85 41.3331 270.455 41.0494C271.06 40.7657 272.125 40.5858 272.822 40.6498C273.519 40.7132 274.089 40.5056 274.089 40.1876C274.089 39.8702 274.294 39.6101 274.544 39.6101C274.794 39.6101 274.883 39.8102 274.742 40.0548C274.6 40.2994 274.826 40.914 275.244 41.4194C275.843 42.1458 277.343 42.2597 282.356 41.9605C285.849 41.7523 289.724 41.3392 290.966 41.042C292.841 40.5932 293.282 40.6829 293.571 41.5724C293.881 42.5279 293.947 42.5144 294.185 41.4457C294.368 40.6262 294.595 40.4551 294.906 40.9019C295.189 41.3068 295.578 41.3176 295.933 40.9295C296.247 40.5858 296.329 40.2954 296.115 40.2839C295.901 40.2725 295.973 39.9915 296.277 39.6593C296.596 39.3102 297.208 39.3035 297.725 39.6438C298.792 40.3446 299.153 39.6202 298.834 37.4234C298.615 35.9153 297.089 34.918 297.089 36.2825C297.089 36.6302 296.816 36.9146 296.482 36.9146C296.148 36.9146 295.982 37.2178 296.115 37.5885C296.247 37.9591 296.082 38.2623 295.748 38.2623C295.033 38.2623 295.002 37.947 295.544 36.1963C295.885 35.0952 295.817 34.893 295.106 34.893C294.365 34.893 294.329 34.7576 294.8 33.7528C295.105 33.1032 295.137 32.8182 294.875 33.0898C294.622 33.3526 294.305 33.2589 294.17 32.8822C294.035 32.5055 294.144 32.1976 294.411 32.1976C294.686 32.1976 294.539 31.6207 294.075 30.8728C293.622 30.1436 293.14 28.9361 293.002 28.1881C292.827 27.2346 292.498 26.9104 291.9 27.1038C291.431 27.2561 291.047 27.4253 291.047 27.4805C291.047 27.5358 290.612 27.7184 290.08 27.8869C289.144 28.1834 289.138 28.1611 289.885 27.1847C290.639 26.1995 290.635 26.1753 289.706 26.1544C288.779 26.1335 288.774 26.1052 289.511 25.0721C289.927 24.4886 290.052 24.1995 289.788 24.4293C289.524 24.6597 288.549 24.4023 287.622 23.8578C285.558 22.6469 277.122 22.8706 276.877 24.1429C276.779 24.653 277.003 24.775 277.519 24.4913C277.955 24.2521 278.425 24.372 278.563 24.7574C278.726 25.2143 277.981 25.4589 276.428 25.4589C274.938 25.4589 274.134 25.7116 274.284 26.1328C274.704 27.306 268.675 26.9771 267.988 25.7898C267.397 24.7682 266.489 25.0472 266.877 26.1308C266.99 26.4488 266.708 26.9158 266.25 27.1672C265.453 27.6045 264.578 26.4394 264.941 25.4239C265.027 25.184 264.264 25.1254 263.247 25.2945C262.084 25.4879 260.862 25.215 259.955 24.56C259.162 23.9872 258.418 23.783 258.303 24.1065C258.187 24.4299 257.567 24.6685 256.925 24.6368C256.282 24.6052 255.633 24.7925 255.483 25.0526C255.332 25.3127 256.168 25.4886 257.34 25.4441C258.512 25.399 260.306 25.5755 261.327 25.8363C262.884 26.2332 263.109 26.467 262.719 27.279C262.461 27.8168 261.904 28.0897 261.467 27.8923C261.035 27.6968 260.419 27.903 260.098 28.3512C259.707 28.8983 259.604 28.9125 259.783 28.3943C259.977 27.833 258.656 27.6079 254.914 27.5648C250.921 27.5183 249.882 27.6847 250.246 28.3134C250.503 28.7582 251.193 29.1827 251.778 29.2575C252.364 29.3316 252.975 29.4172 253.136 29.4475C253.297 29.4772 253.428 29.7602 253.428 30.0762C253.428 30.3923 251.981 30.5405 250.212 30.4064C248.443 30.2723 246.733 30.3586 246.411 30.5985C245.417 31.3397 243.87 31.1187 243.981 30.2515C244.038 29.804 243.862 29.4886 243.591 29.55C242.434 29.8121 239.284 29.4684 239.496 29.1025C239.807 28.5641 246.637 28.6477 247.649 29.2022C248.225 29.519 248.402 29.3855 248.275 28.7305C248.147 28.0722 247.47 27.8707 245.847 28.0075C244.521 28.1193 243.368 27.8687 243.039 27.3963C242.615 26.7885 242.37 26.7838 242.029 27.3741C241.78 27.8033 241.13 28.1241 240.583 28.087L239.589 28.0203L240.564 27.4805C241.821 26.7844 241.614 26.7325 236.276 26.4037C231.052 26.0809 230.805 25.9751 231.009 24.1449C231.157 22.8208 230.987 22.7635 226.92 22.7635C224.587 22.7635 222.594 22.5317 222.493 22.248C222.392 21.965 221.022 21.785 219.449 21.8484C217.876 21.9117 214.659 22.0243 212.301 22.0991C209.942 22.1732 207.662 22.56 207.233 22.9582C206.223 23.8956 204.699 24.1847 204.699 23.438C204.699 22.5937 203.123 22.2918 201.817 22.8855C201.197 23.1678 200.51 23.2069 200.291 22.9724C199.651 22.2891 197.682 22.1907 197.682 22.8417C197.682 23.1691 197.331 23.4373 196.902 23.4373C196.474 23.4373 196.123 23.7406 196.123 24.1112C196.123 24.4818 195.674 24.7851 195.125 24.7851C194.577 24.7851 194.218 24.5324 194.328 24.2237C194.439 23.9144 194.317 23.657 194.059 23.6516C193.8 23.6456 193.032 23.4245 192.352 23.1597C191.236 22.7264 191.136 22.8154 191.325 24.0694C191.513 25.31 191.855 25.4677 194.512 25.5432C197.171 25.6186 197.302 25.6793 195.742 26.1139C194.782 26.3821 193.659 26.4475 193.245 26.2608C192.677 26.0041 192.573 26.1523 192.823 26.8687C193.1 27.6618 193.041 27.6591 192.465 26.8498C191.865 26.0095 191.723 26.0095 191.378 26.8498C191.051 27.647 191.017 27.6214 191.186 26.7049C191.501 24.9913 190.309 24.7649 183.488 25.2433C178.82 25.5708 177.355 25.4845 177.566 24.8949C177.721 24.4636 177.68 24.1112 177.475 24.1112C177.271 24.1112 177.003 24.5661 176.88 25.122C176.757 25.6779 176.431 26.1281 176.156 26.1227C175.802 26.1153 175.827 25.9044 176.241 25.3976C176.761 24.7622 176.761 24.715 176.241 24.9744C175.92 25.1355 175.679 25.7413 175.706 26.3208C175.738 27.0257 175.545 27.2386 175.121 26.9643C174.551 26.5957 174.546 26.684 175.072 27.8485C175.641 29.1086 175.63 29.1119 174.614 27.992C173.927 27.2346 173.521 27.0971 173.427 27.589C173.281 28.3431 171.067 28.3774 166.203 27.7002C163.607 27.3383 162.815 26.1328 165.173 26.1328C166.235 26.1328 166.526 25.8963 166.364 25.1638C166.238 24.5991 166.424 24.0768 166.809 23.9111C167.173 23.7547 166.593 23.7803 165.521 23.9684C164.449 24.1564 163.36 24.3161 163.102 24.3228C162.843 24.3302 162.722 24.5883 162.832 24.8976C162.943 25.2062 162.365 25.4286 161.548 25.3916C160.292 25.3349 160.213 25.2527 161.034 24.8579C161.695 24.5398 161.85 24.2258 161.521 23.874C161.255 23.5903 160.862 23.5452 160.648 23.7743C160.434 24.0034 160.255 23.7938 160.252 23.3086C160.247 22.6058 160.178 22.6125 159.911 23.341C159.662 24.0196 159.503 24.0512 159.293 23.4636C159.137 23.0276 158.722 22.8625 158.371 23.0957C158.019 23.3282 156.868 23.6658 155.812 23.8444C154.756 24.0236 153.747 24.3242 153.571 24.5122C153.394 24.7008 153.355 24.3848 153.482 23.8093C153.629 23.1462 153.497 22.7635 153.12 22.7635C152.794 22.7635 152.438 23.1422 152.33 23.6058C152.173 24.2797 152.127 24.2797 152.102 23.6058C152.086 23.1422 151.798 22.7635 151.464 22.7635C151.081 22.7635 150.964 23.0755 151.149 23.6058C151.376 24.2595 151.304 24.2561 150.829 23.5903C150.215 22.7311 146.393 22.5627 145.639 23.3612C145.425 23.5883 142.597 23.808 139.354 23.8498C136.112 23.8909 133.234 24.1658 132.959 24.4589C132.648 24.7925 132.556 24.7244 132.715 24.279C133.067 23.2931 126.157 23.2001 125.103 24.1766C124.661 24.5849 124.402 24.6321 124.528 24.281C124.662 23.9043 123.761 23.6415 122.333 23.6409L119.91 23.6402L121.47 24.4791C123.217 25.4185 123.213 25.432 121.165 25.8046C120.254 25.9697 119.783 25.8168 119.93 25.4037C120.075 24.9994 119.618 24.7999 118.773 24.8983C118.005 24.9872 117.376 25.2676 117.376 25.5203C117.376 25.773 113.254 25.9387 108.216 25.8882C103.177 25.837 99.0547 25.5506 99.0547 25.2507C99.0543 24.9508 99.2177 24.8801 99.4173 25.093C99.6169 25.3066 99.9073 25.1247 100.063 24.6901C100.272 24.1051 99.8593 24.0142 98.4762 24.3423C97.4478 24.5856 96.0943 24.7851 95.4682 24.7851C94.6617 24.7851 94.4157 25.0304 94.6231 25.6274C94.8363 26.2413 94.7439 26.2292 94.2812 25.5809C93.8227 24.938 93.4399 24.8828 92.9016 25.3808C92.4501 25.7986 92.0159 25.8262 91.7995 25.4522C91.3399 24.6577 88.4119 26.3457 88.8177 27.1712C88.9803 27.5021 88.7966 27.3525 88.4095 26.839C87.8088 26.0425 87.7226 26.0425 87.8248 26.8404C87.9183 27.5742 87.3765 27.7555 85.3174 27.6793C83.873 27.6254 82.5909 27.8626 82.4681 28.2049C82.3457 28.5479 82.6505 28.833 83.1456 28.8384C83.8699 28.8471 83.9315 28.9765 83.461 29.5021C83.0072 30.0089 83.1382 30.178 84.0457 30.2575C85.0402 30.3444 85.0772 30.4051 84.2933 30.6618C83.7861 30.8283 83.1807 30.6349 82.9483 30.2333C82.417 29.3148 81.7734 29.2717 82.0966 30.176C82.235 30.5628 81.881 30.8498 81.2654 30.8498C80.271 30.8498 80.2453 30.7845 80.9115 29.9421C81.4093 29.3128 81.4919 28.8869 81.1808 28.5547C80.9341 28.2905 80.7321 28.4313 80.7321 28.8673C80.7321 29.3276 80.4059 29.5115 79.9529 29.3074C79.5244 29.1133 79.0754 29.2299 78.9553 29.5655C78.8352 29.901 79.0543 30.2063 79.4422 30.2434C79.9416 30.2905 79.8632 30.4678 79.1728 30.8498C78.4703 31.2387 78.951 31.4078 80.8947 31.4563C83.7483 31.5277 84.121 31.9105 81.8876 32.4759C81.145 32.6639 79.8266 33.0817 78.9584 33.4031C78.0899 33.7252 76.9937 33.9395 76.522 33.8795C76.0039 33.8135 75.6643 34.1572 75.6643 34.7475C75.6643 35.426 75.3669 35.6255 74.6897 35.4018C74.057 35.1929 73.7151 35.3849 73.7151 35.9503C73.7151 36.4294 74.1101 36.9611 74.5923 37.1329C75.0745 37.3041 74.68 37.4625 73.7151 37.4834C72.7503 37.5049 69.1541 37.73 65.7236 37.9827C62.293 38.2361 59.574 38.2772 59.6812 38.0743C59.9505 37.5649 63.877 36.8607 67.9983 36.5831C69.8925 36.4557 71.5442 36.1747 71.6689 35.9591C71.7937 35.7434 71.5157 35.5669 71.0514 35.5669C70.5867 35.5669 70.2067 35.2165 70.2067 34.7886C70.2067 34.3472 69.8691 34.5386 69.427 35.23C68.9982 35.9004 68.6473 36.1417 68.6473 35.765C68.6473 35.3883 68.1651 35.2246 67.5753 35.4011C66.5352 35.7131 66.5262 35.6909 67.2829 34.6484C68.0154 33.6396 67.9273 33.5898 65.821 33.827C64.588 33.9651 63.5795 33.8068 63.5795 33.4752C63.5795 33.143 63.9744 32.8472 64.4566 32.8182C64.9388 32.7892 65.1143 32.612 64.8465 32.4253C63.9588 31.8061 64.3408 30.9381 65.5961 30.7238C67.1387 30.461 67.5882 28.8283 66.1181 28.8283C65.549 28.8283 64.8437 28.4145 64.5513 27.9091C64.1919 27.2878 63.3694 27.0789 62.0124 27.2635C60.908 27.4145 60.0999 27.2716 60.216 26.9462C60.3341 26.6166 59.6671 26.5546 58.7062 26.8067C57.7597 27.0553 56.7633 27.021 56.4919 26.7312C56.2202 26.4414 55.906 26.4603 55.793 26.7743C55.6328 27.2197 52.4833 27.8511 49.0352 28.1288C48.8617 28.1429 48.8438 28.5331 48.9951 28.9967C49.2114 29.6598 49.1611 29.6645 48.7588 29.0203C48.3538 28.372 48.1413 28.4421 47.7394 29.3572C47.3932 30.1443 47.2272 30.2299 47.219 29.6254C47.2104 29.0291 46.9344 28.8869 46.3781 29.1921C45.8206 29.4981 45.6367 29.4024 45.8164 28.9004C45.963 28.49 45.8916 28.1544 45.6581 28.1544C45.4242 28.1544 45.1322 28.6072 45.0094 29.1611C44.8862 29.7151 44.6102 29.9806 44.395 29.7508C44.135 29.4731 44.1366 29.1928 44.3993 28.9125C44.6161 28.6807 42.5737 28.5958 39.8601 28.7231C37.1469 28.8512 35.0145 28.8134 35.1217 28.6396C35.2289 28.4657 37.2463 28.114 39.6048 27.8572C43.744 27.4064 46.1388 26.2298 43.2887 26.0465C40.7084 25.8808 36.0748 26.0661 33.1725 26.4515C31.5645 26.6652 29.7229 26.9077 29.0797 26.9913C28.4368 27.0755 27.6139 27.5742 27.2513 28.1012C26.5294 29.1497 24.6512 29.5271 24.3498 28.684C24.2457 28.3929 23.7105 28.1544 23.1612 28.1544C22.3414 28.1544 22.2443 27.9819 22.6217 27.1968C22.9991 26.4104 22.9367 26.304 22.2736 26.6038C21.8292 26.8046 21.3649 27.2507 21.2417 27.5944C21.1115 27.9596 20.7891 27.8909 20.4683 27.4307C19.7217 26.3599 19.7689 27.1261 20.5306 28.4435C21.0877 29.4058 20.9969 29.5021 19.5331 29.5021C18.6056 29.5021 18.0209 29.7757 18.1538 30.1483C18.2942 30.5399 17.8049 30.647 16.9099 30.4199C16.099 30.2137 15.172 30.0688 14.8504 30.0971C11.5672 30.3876 8.00803 29.9907 7.76398 29.3074C7.55347 28.7198 7.33362 28.8303 6.96094 29.7117C6.60266 30.5581 5.80194 30.9988 4.31396 31.1679C3.14093 31.3013 2.48798 31.2622 2.86301 31.081C3.64578 30.7023 3.78574 29.5297 3.05792 29.4462C2.7897 29.4152 2.17572 29.3141 1.69351 29.2218C1.21127 29.1295 0.816376 29.3242 0.816376 29.6544C0.816376 29.9853 0.640961 30.0682 0.426544 29.839C0.212128 29.6099 0.0367126 29.8957 0.0367126 30.4732C0.0367126 31.0507 0.19577 31.5237 0.389893 31.5237C0.584412 31.5237 0.651459 32.1302 0.539581 32.8714C0.353241 34.1026 0.725555 34.5628 1.69351 34.2987C1.85449 34.2549 1.95819 34.4462 1.92389 34.7246C1.78745 35.8405 2.47122 37.4827 2.9425 37.17C3.21851 36.9874 3.54874 37.3061 3.67581 37.8789C3.80289 38.4517 3.78183 38.8479 3.62863 38.7596C3.47543 38.6714 3.26257 38.9025 3.15536 39.2731C3.04816 39.6438 3.51169 40.0393 4.18533 40.1525C5.11508 40.3089 5.36887 40.6337 5.23825 41.5002C5.117 42.3075 5.50021 42.978 6.5473 43.7873L8.02829 44.9316L6.66388 45.0198L5.29947 45.1074L6.37149 45.784C6.9613 46.1566 7.44354 46.689 7.44354 46.968C7.44354 47.247 8.53973 47.5664 9.88 47.6782C12.3691 47.8858 24.6052 48.1055 24.7249 47.9444ZM151.755 45.2146C151.474 45.0198 151.137 45.0441 151.008 45.2678C150.878 45.4915 151.108 45.6506 151.519 45.6216C151.973 45.5892 152.066 45.4295 151.755 45.2146ZM73.2205 45.2328C73.4844 45.0481 74.0107 45.0367 74.39 45.2078C74.7693 45.379 74.5533 45.5299 73.9101 45.5434C73.2668 45.5569 72.9565 45.4174 73.2205 45.2328ZM50.4094 45.1802C51.421 45.0421 53.1752 45.0407 54.3077 45.1775C55.4406 45.3136 54.6133 45.4269 52.4693 45.4289C50.3252 45.4302 49.3981 45.319 50.4094 45.1802ZM202.36 42.7146C202.36 42.569 202.097 42.2752 201.775 42.0616C201.454 41.8486 201.191 41.9679 201.191 42.3264C201.191 42.6856 201.454 42.9794 201.775 42.9794C202.097 42.9794 202.36 42.8601 202.36 42.7146ZM203.176 42.0184C203.512 41.4369 206.648 41.1788 206.648 41.7327C206.648 42.0474 205.83 42.3055 204.829 42.3055C203.829 42.3055 203.084 42.1761 203.176 42.0184ZM195.343 40.8473C195.343 40.5373 195.738 40.261 196.22 40.232C196.703 40.2037 197.405 40.0791 197.781 39.9544C198.158 39.8304 198.367 40.0049 198.246 40.3432C198.125 40.6815 198.212 40.9578 198.439 40.9578C198.666 40.9578 198.852 40.6546 198.852 40.2839C198.852 39.2266 199.522 39.4955 199.78 40.6559C199.976 41.5387 199.648 41.6788 197.678 41.5562C196.394 41.476 195.343 41.1573 195.343 40.8473ZM208.053 39.4975C208.163 39.1889 208.682 38.9362 209.205 38.9362C209.729 38.9362 210.157 39.1889 210.157 39.4975C210.157 39.8068 209.638 40.0595 209.004 40.0595C208.371 40.0595 207.942 39.8068 208.053 39.4975ZM203.359 38.3331C203.46 38.1579 203.737 38.3506 203.974 38.7603C204.21 39.1694 204.69 39.3479 205.039 39.1572C205.556 38.8735 205.572 38.9349 205.124 39.4847C204.587 40.1438 202.935 39.0656 203.359 38.3331ZM73.7151 40.0184C73.7151 39.5218 76.0421 39.1808 76.451 39.6175C76.6791 39.8614 76.1571 40.1087 75.2905 40.1673C74.4243 40.226 73.7151 40.1593 73.7151 40.0184ZM56.3933 39.5386C56.6549 38.8068 57.617 38.7435 57.8665 39.4416C57.9659 39.7192 57.6264 39.9908 57.1126 40.044C56.5984 40.0973 56.2748 39.8695 56.3933 39.5386ZM27.5199 39.5905C28.8571 38.9328 39.8012 38.3971 39.8 38.9894C39.8 39.2037 38.7951 39.4497 37.5671 39.5353C36.3391 39.6215 35.3002 39.7489 35.2589 39.8196C35.2176 39.8897 33.1959 39.9962 30.7668 40.0562C27.7706 40.1303 26.7266 39.9807 27.5199 39.5905ZM92.817 38.5272C92.817 38.3816 93.0801 38.2623 93.4017 38.2623C93.7233 38.2623 93.9865 38.5561 93.9865 38.9153C93.9865 39.2738 93.7233 39.3931 93.4017 39.1801C93.0801 38.9665 92.817 38.6727 92.817 38.5272ZM60.1766 39.2031C60.3061 38.9793 60.6425 38.9551 60.9236 39.1498C61.2346 39.3648 61.1423 39.5245 60.6881 39.5568C60.2772 39.5858 60.0472 39.4268 60.1766 39.2031ZM58.6173 39.2031C58.7467 38.9793 59.0832 38.9551 59.3642 39.1498C59.6753 39.3648 59.5829 39.5245 59.1288 39.5568C58.7179 39.5858 58.4879 39.4268 58.6173 39.2031ZM130.886 37.8964C131.013 37.3243 131.201 37.0009 131.303 37.1774C131.405 37.354 131.373 37.8223 131.232 38.2172C130.847 39.2927 130.623 39.0838 130.886 37.8964ZM99.4909 37.8937C99.3935 37.7259 100.035 37.5885 100.915 37.5885C101.796 37.5885 102.625 37.2852 102.758 36.9146C102.89 36.544 103.208 36.2455 103.463 36.2509C103.742 36.2576 103.694 36.5224 103.342 36.9146C102.906 37.4018 103.154 37.5959 104.317 37.6794L105.876 37.7906L104.122 38.2064C102.349 38.6255 99.8153 38.4551 99.4909 37.8937ZM97.7874 38.4901C98.0552 38.3028 98.4937 38.3028 98.7619 38.4901C99.0297 38.6768 98.8107 38.8297 98.2746 38.8297C97.7386 38.8297 97.5191 38.6768 97.7874 38.4901ZM215.419 37.5885C215.552 37.2178 216.045 36.9449 216.515 36.982C217.31 37.044 217.301 37.0864 216.394 37.5885C215.858 37.885 215.365 38.1579 215.299 38.195C215.233 38.232 215.287 37.9591 215.419 37.5885ZM212.886 37.5885C212.886 37.2178 213.061 36.9146 213.275 36.9146C213.49 36.9146 213.665 37.2178 213.665 37.5885C213.665 37.9591 213.49 38.2623 213.275 38.2623C213.061 38.2623 212.886 37.9591 212.886 37.5885ZM77.194 37.6343C77.9027 36.8587 81.9539 36.8971 81.6752 37.6767C81.5602 37.9989 80.3797 38.2576 79.0524 38.2522C77.4673 38.2455 76.8295 38.0332 77.194 37.6343ZM28.2298 37.821C28.6298 37.1302 36.1064 36.9726 36.718 37.6424C37.0556 38.0117 35.4842 38.2455 32.6201 38.2522C30.0652 38.2576 28.0895 38.0635 28.2298 37.821ZM215.608 36.046L213.86 35.7589L215.779 35.831C217.128 35.8822 217.744 36.2037 217.855 36.9146C217.964 37.6134 217.911 37.6794 217.684 37.1296C217.504 36.6916 216.569 36.2044 215.608 36.046ZM219.697 35.6969C219.817 35.4894 220.132 35.6963 220.396 36.1572C220.779 36.823 220.734 36.8998 220.178 36.5345C219.794 36.2812 219.577 35.9045 219.697 35.6969ZM218.19 35.8472C218.044 35.1915 218.131 34.8829 218.416 35.0473C218.999 35.3829 219.32 36.9146 218.807 36.9146C218.598 36.9146 218.32 36.4341 218.19 35.8472ZM106.164 36.4517C106.537 36.2832 107.238 36.2771 107.723 36.4382C108.208 36.5992 107.904 36.7374 107.046 36.7448C106.188 36.7522 105.791 36.6201 106.164 36.4517ZM73.3253 35.5669C73.3253 35.1963 73.0622 34.893 72.7406 34.893C72.419 34.893 72.1558 35.1963 72.1558 35.5669C72.1558 35.9375 72.419 36.2407 72.7406 36.2407C73.0622 36.2407 73.3253 35.9375 73.3253 35.5669ZM227.596 35.0925C228.076 34.9328 228.953 34.9287 229.545 35.083C230.138 35.238 229.746 35.3688 228.674 35.3742C227.602 35.3789 227.117 35.2522 227.596 35.0925ZM214.94 34.486C215.07 34.2623 215.406 34.238 215.687 34.4328C215.998 34.6477 215.906 34.8074 215.452 34.8398C215.041 34.8688 214.811 34.7097 214.94 34.486ZM124.393 33.922C124.393 33.7582 124.569 33.4375 124.783 33.2084C124.998 32.9792 125.173 33.1133 125.173 33.5055C125.173 33.8977 124.998 34.2192 124.783 34.2192C124.569 34.2192 124.393 34.0857 124.393 33.922ZM74.9576 33.7589C74.6765 33.5642 74.3401 33.5884 74.2106 33.8121C74.0812 34.0359 74.3112 34.1949 74.7221 34.1659C75.1763 34.1336 75.2686 33.9739 74.9576 33.7589ZM73.3982 33.7589C73.1172 33.5642 72.7807 33.5884 72.6513 33.8121C72.5219 34.0359 72.7519 34.1949 73.1628 34.1659C73.6169 34.1336 73.7093 33.9739 73.3982 33.7589ZM128.917 32.8297C128.797 32.6214 129.791 32.4402 131.127 32.4267C132.649 32.4112 133.191 32.5722 132.58 32.858C131.439 33.3917 129.232 33.3748 128.917 32.8297ZM6.38126 32.608C6.25104 32.3822 7.70822 32.2191 9.61996 32.2447C11.7914 32.2744 12.8033 32.4961 12.3164 32.8357C11.4537 33.4368 6.75665 33.2562 6.38126 32.608ZM136.194 32.4644C136.324 32.2407 136.66 32.2164 136.941 32.4112C137.252 32.6261 137.16 32.7858 136.706 32.8182C136.295 32.8472 136.065 32.6881 136.194 32.4644ZM13.291 32.5743C13.291 31.8633 14.0391 31.5641 14.2617 32.1868C14.3962 32.5635 14.2329 32.8714 13.8988 32.8714C13.5647 32.8714 13.291 32.738 13.291 32.5743ZM239.144 31.1868C239.465 30.6308 239.95 30.176 240.221 30.176C240.497 30.176 240.381 30.6099 239.956 31.1652C238.963 32.4637 238.396 32.4786 239.144 31.1868ZM77.2236 31.5446C77.2236 31.1861 76.9605 31.0668 76.6389 31.2798C76.3173 31.4934 76.0542 31.7872 76.0542 31.9327C76.0542 32.0783 76.3173 32.1976 76.6389 32.1976C76.9605 32.1976 77.2236 31.9038 77.2236 31.5446ZM241.538 30.8498C240.847 30.3364 240.881 30.2656 241.831 30.2231C242.42 30.1975 242.903 30.4792 242.903 30.8498C242.903 31.641 242.603 31.641 241.538 30.8498ZM135.984 31.0817C136.248 30.897 136.774 30.8856 137.153 31.0567C137.532 31.2279 137.316 31.3788 136.673 31.3923C136.03 31.4058 135.72 31.2663 135.984 31.0817ZM130.143 31.0365C130.841 30.8869 131.98 30.8869 132.677 31.0365C133.374 31.1854 132.804 31.3081 131.41 31.3081C130.017 31.3081 129.446 31.1854 130.143 31.0365ZM106.177 31.1167C106.306 30.893 106.643 30.8687 106.924 31.0635C107.235 31.2784 107.143 31.4381 106.688 31.4705C106.278 31.4994 106.048 31.3404 106.177 31.1167ZM102.953 30.1895C103.581 29.4731 102.361 29.2454 99.2492 29.4981C98.3916 29.5675 97.8228 29.3923 97.9854 29.1086C98.1479 28.8249 99.5147 28.6382 101.023 28.6928C103.072 28.7676 103.705 28.5843 103.525 27.9684C103.392 27.5149 103.634 27.8323 104.064 28.6739C104.588 29.6996 104.936 29.9529 105.119 29.4415C105.269 29.021 105.174 28.4442 104.906 28.1598C104.636 27.8707 105.174 27.6497 106.124 27.6598C107.06 27.6692 107.503 27.8121 107.108 27.9772C106.713 28.1423 106.096 28.7858 105.736 29.4084C105.376 30.0304 104.471 30.6106 103.725 30.6982C102.716 30.8155 102.518 30.6854 102.953 30.1895ZM38.7276 30.3855C39.1027 30.2157 39.717 30.2157 40.092 30.3855C40.4671 30.5547 40.1603 30.6935 39.4099 30.6935C38.6594 30.6935 38.3526 30.5547 38.7276 30.3855ZM36.3968 30.4428C36.5262 30.2191 36.8627 30.1948 37.1437 30.3896C37.4548 30.6046 37.3625 30.7643 36.9083 30.7966C36.4974 30.8256 36.2674 30.6666 36.3968 30.4428ZM253.632 29.2299L252.578 28.2844L254.033 28.3559C254.834 28.395 255.287 28.5432 255.041 28.6854C254.795 28.8269 254.692 29.2204 254.813 29.5594C255.115 30.4051 254.864 30.335 253.632 29.2299ZM189.991 29.769C190.12 29.5452 190.457 29.521 190.738 29.7157C191.049 29.9307 190.957 30.0904 190.503 30.1227C190.092 30.1517 189.862 29.9927 189.991 29.769ZM188.229 29.7299C188.496 29.5425 188.935 29.5425 189.203 29.7299C189.471 29.9165 189.252 30.0695 188.716 30.0695C188.18 30.0695 187.96 29.9165 188.229 29.7299ZM106.656 29.5021C106.789 29.1315 107.281 28.8586 107.751 28.8956C108.546 28.9576 108.538 29.0001 107.631 29.5021C107.095 29.7986 106.602 30.0715 106.536 30.1086C106.469 30.1457 106.524 29.8727 106.656 29.5021ZM95.9356 29.5021C95.9356 29.1315 96.1216 28.8283 96.3485 28.8283C96.5754 28.8283 96.6529 29.1315 96.5204 29.5021C96.3878 29.8727 96.2023 30.176 96.1075 30.176C96.0128 30.176 95.9356 29.8727 95.9356 29.5021ZM91.971 29.6881C92.9 29.488 93.2088 29.1342 93.0556 28.4448C92.7589 27.1086 93.2126 27.2366 93.8142 28.6584C94.0882 29.3067 94.4535 29.5938 94.6254 29.2959C94.7977 28.9987 94.6804 28.4731 94.365 28.1281C94.0496 27.7831 93.9892 27.4967 94.2313 27.4906C94.473 27.4852 94.8749 27.9057 95.1244 28.426C95.706 29.6369 95.3143 29.8768 92.6759 29.9287C91.4966 29.9516 91.207 29.8525 91.971 29.6881ZM89.211 29.7299C89.4788 29.5425 89.9174 29.5425 90.1856 29.7299C90.4534 29.9165 90.2343 30.0695 89.6983 30.0695C89.1623 30.0695 88.9428 29.9165 89.211 29.7299ZM78.8329 29.0553C79.2835 28.1113 79.2843 27.8869 78.8364 27.6261C78.3877 27.3653 78.3877 27.2265 78.8364 26.7352C79.1908 26.3471 78.8886 26.1503 77.9289 26.1429C77.1375 26.1375 76.3949 26.3983 76.2791 26.7231C76.1629 27.0479 74.793 27.2467 73.2349 27.1645C71.6763 27.0829 69.8753 27.2359 69.2321 27.5055C67.9386 28.0466 67.8731 28.0338 74.4905 28.554C76.0963 28.6807 77.4704 29.0971 77.5441 29.4799C77.7394 30.4927 78.2224 30.3337 78.8329 29.0553ZM69.427 29.5331C69.1054 29.1564 68.5062 28.8444 68.0949 28.8384C67.0977 28.8249 67.4088 29.2103 68.8422 29.7649C69.6964 30.0951 69.8539 30.0324 69.427 29.5331ZM111.529 28.8283C111.529 28.4576 111.715 28.1544 111.942 28.1544C112.169 28.1544 112.246 28.4576 112.114 28.8283C111.981 29.1989 111.796 29.5021 111.701 29.5021C111.606 29.5021 111.529 29.1989 111.529 28.8283ZM251.195 28.4212C251.324 28.1975 251.661 28.1733 251.942 28.368C252.253 28.583 252.16 28.7427 251.706 28.775C251.295 28.804 251.065 28.645 251.195 28.4212ZM249.53 28.1544C249.53 27.7838 249.354 27.4805 249.14 27.4805C248.926 27.4805 248.75 27.7838 248.75 28.1544C248.75 28.525 248.926 28.8283 249.14 28.8283C249.354 28.8283 249.53 28.525 249.53 28.1544ZM176.136 28.3862C176.4 28.2016 176.927 28.1901 177.306 28.3613C177.685 28.5324 177.469 28.6834 176.826 28.6968C176.183 28.7103 175.872 28.5708 176.136 28.3862ZM80.1474 28.1544C80.0149 27.7838 79.8293 27.4805 79.7346 27.4805C79.6398 27.4805 79.5627 27.7838 79.5627 28.1544C79.5627 28.525 79.7486 28.8283 79.9755 28.8283C80.2024 28.8283 80.2799 28.525 80.1474 28.1544ZM58.4142 28.3525C58.8964 28.1921 59.6862 28.1921 60.1685 28.3525C60.6507 28.5136 60.2562 28.645 59.2913 28.645C58.3265 28.645 57.932 28.5136 58.4142 28.3525ZM31.5157 28.3525C31.998 28.1921 32.7878 28.1921 33.27 28.3525C33.7522 28.5136 33.3577 28.645 32.3929 28.645C31.428 28.645 31.0335 28.5136 31.5157 28.3525ZM263.422 27.1476C263.545 26.5937 263.821 26.3282 264.036 26.558C264.276 26.8147 264.223 27.1982 263.898 27.5547C263.188 28.3316 263.164 28.3114 263.422 27.1476ZM108.215 27.4805C108.348 27.1099 108.621 26.8067 108.823 26.8067C109.025 26.8067 109.19 27.1099 109.19 27.4805C109.19 27.8512 108.916 28.1544 108.582 28.1544C108.248 28.1544 108.083 27.8512 108.215 27.4805ZM90.5754 27.6901C90.9505 27.5203 91.5648 27.5203 91.9398 27.6901C92.3149 27.8592 92.0081 27.9981 91.2576 27.9981C90.5072 27.9981 90.2004 27.8592 90.5754 27.6901ZM186.47 27.0176C186.842 26.8491 187.544 26.8431 188.029 27.0041C188.514 27.1652 188.209 27.3033 187.351 27.3107C186.494 27.3181 186.097 27.1861 186.47 27.0176ZM122.675 26.5378C123.084 26.0526 124.033 25.7366 124.783 25.8363C125.534 25.9354 126.64 26.0432 127.243 26.0748C127.845 26.1065 128.255 26.3606 128.154 26.6382C128.052 26.9158 126.611 27.2056 124.95 27.2817C122.357 27.401 122.036 27.2959 122.675 26.5378ZM81.9017 26.8067C81.9017 26.436 81.7368 26.1328 81.5348 26.1328C81.3329 26.1328 81.0596 26.436 80.9271 26.8067C80.7945 27.1773 80.9598 27.4805 81.2939 27.4805C81.628 27.4805 81.9017 27.1773 81.9017 26.8067ZM27.0081 27.0203C26.727 26.8255 26.3906 26.8498 26.2612 27.0735C26.1317 27.2972 26.3618 27.4563 26.7726 27.4273C27.2268 27.3949 27.3192 27.2352 27.0081 27.0203ZM1.59604 26.8067C1.59604 26.436 1.23465 26.1328 0.793365 26.1328C0.352081 26.1328 0.0990906 26.436 0.231628 26.8067C0.364166 27.1773 0.725159 27.4805 1.0343 27.4805C1.34344 27.4805 1.59604 27.1773 1.59604 26.8067ZM266.118 26.1901C265.997 25.8511 266.118 25.438 266.388 25.2716C266.657 25.1058 266.736 24.7096 266.564 24.3915C266.391 24.0735 266.087 24.2595 265.888 24.8046C265.407 26.1173 265.421 26.8067 265.926 26.8067C266.153 26.8067 266.24 26.529 266.118 26.1901ZM248.838 26.3094C247.675 26.1692 246.88 25.7837 247.009 25.4232C247.134 25.0721 246.656 24.7743 245.947 24.7608C245.237 24.7473 242.003 24.5607 238.759 24.345C234.821 24.0829 232.619 24.1961 232.132 24.6853C231.583 25.2366 232.881 25.4232 237.371 25.4387C241.247 25.4515 243.254 25.6948 243.098 26.1328C242.942 26.5681 244.278 26.7629 246.875 26.682C249.098 26.6133 249.975 26.4461 248.838 26.3094ZM161.533 26.3997C161.663 26.1759 161.999 26.1517 162.28 26.3464C162.591 26.5614 162.499 26.7211 162.045 26.7534C161.634 26.7824 161.404 26.6234 161.533 26.3997ZM69.0726 26.0809C69.4722 25.6429 69.3299 25.4765 68.5499 25.469C67.3858 25.4583 67.1761 25.7885 68.0006 26.335C68.2879 26.5257 68.7705 26.4111 69.0726 26.0809ZM63.1897 26.1618C65.0601 25.6483 64.1568 24.9711 62.2151 25.4306C61.3575 25.6341 60.9189 25.9657 61.2405 26.1685C61.5621 26.3707 62.4392 26.368 63.1897 26.1618ZM50.1302 26.2096L51.2998 25.7318L50.1716 25.3336C49.551 25.1139 48.5389 25.1847 47.9226 25.4906C47.2408 25.8282 46.89 25.7992 47.0272 25.4158C47.1586 25.0479 46.308 24.8235 44.988 24.8767C43.7425 24.9273 43.162 25.1079 43.698 25.2783C44.234 25.4488 44.848 25.8114 45.0624 26.0843C45.5758 26.7379 48.652 26.8141 50.1302 26.2096ZM5.39691 26.3424C5.02188 26.1726 4.4075 26.1726 4.0325 26.3424C3.65747 26.5115 3.96426 26.6503 4.71469 26.6503C5.46512 26.6503 5.77194 26.5115 5.39691 26.3424ZM272.603 25.6726C272.322 25.4778 271.985 25.5021 271.856 25.7258C271.727 25.9495 271.957 26.1085 272.367 26.0796C272.822 26.0472 272.914 25.8875 272.603 25.6726ZM244.165 25.6699C244.538 25.5014 245.239 25.4953 245.724 25.6564C246.209 25.8174 245.904 25.9556 245.047 25.963C244.189 25.9704 243.792 25.8383 244.165 25.6699ZM133.645 25.6907C133.909 25.5061 134.435 25.4946 134.814 25.6658C135.193 25.837 134.977 25.9879 134.334 26.0014C133.691 26.0149 133.381 25.8754 133.645 25.6907ZM129.177 25.7258C129.307 25.5021 129.643 25.4778 129.924 25.6726C130.235 25.8875 130.143 26.0472 129.689 26.0796C129.278 26.1085 129.048 25.9495 129.177 25.7258ZM75.1755 25.3376C75.6222 25.0384 75.3864 24.8801 74.4948 24.8801C73.7444 24.8801 72.7796 25.1314 72.3507 25.4394C71.7598 25.8639 71.9246 25.9751 73.0314 25.8976C73.8348 25.8417 74.7997 25.5897 75.1755 25.3376ZM21.1852 25.6867C20.9169 25.4994 20.4784 25.4994 20.2106 25.6867C19.9424 25.8734 20.1618 26.0263 20.6978 26.0263C21.2339 26.0263 21.453 25.8734 21.1852 25.6867ZM279.392 24.6725C279.503 24.3639 279.856 24.1112 280.178 24.1112C280.499 24.1112 280.672 24.3639 280.562 24.6725C280.451 24.9818 280.098 25.2345 279.776 25.2345C279.455 25.2345 279.282 24.9818 279.392 24.6725ZM174.577 24.9919C174.198 24.8208 173.671 24.8322 173.408 25.0169C173.144 25.2015 173.454 25.341 174.097 25.3275C174.74 25.3141 174.956 25.1631 174.577 24.9919ZM167.738 24.9987C167.457 24.8039 167.12 24.8282 166.991 25.0519C166.861 25.2756 167.091 25.4347 167.502 25.4057C167.957 25.3734 168.049 25.2137 167.738 24.9987ZM281.106 24.3754C281.106 23.8181 281.863 23.5027 282.037 23.9879C282.15 24.3026 281.986 24.5607 281.674 24.5607C281.362 24.5607 281.106 24.4771 281.106 24.3754ZM276.233 24.1112C276.366 23.7406 276.288 23.4373 276.062 23.4373C275.835 23.4373 275.649 23.7406 275.649 24.1112C275.649 24.4818 275.726 24.7851 275.821 24.7851C275.915 24.7851 276.101 24.4818 276.233 24.1112ZM229.843 24.1112C229.711 23.7406 229.788 23.4373 230.015 23.4373C230.242 23.4373 230.428 23.7406 230.428 24.1112C230.428 24.4818 230.351 24.7851 230.256 24.7851C230.161 24.7851 229.976 24.4818 229.843 24.1112ZM146.906 24.2979C147.603 24.1483 148.743 24.1483 149.44 24.2979C150.137 24.4468 149.567 24.5694 148.173 24.5694C146.78 24.5694 146.209 24.4468 146.906 24.2979ZM37.4607 24.2062C37.4607 23.3619 36.5828 22.3187 35.9988 22.4697C35.7306 22.5384 35.2043 22.6422 34.8293 22.6995C34.2527 22.7884 34.2375 22.8915 34.7318 23.3666C35.7123 24.31 37.4607 24.8477 37.4607 24.2062ZM33.9522 23.4373C33.9522 23.0667 33.7768 22.7635 33.5623 22.7635C33.3479 22.7635 33.1725 23.0667 33.1725 23.4373C33.1725 23.808 33.3479 24.1112 33.5623 24.1112C33.7768 24.1112 33.9522 23.808 33.9522 23.4373ZM27.2276 23.6469C26.8525 23.4771 26.2382 23.4771 25.8632 23.6469C25.4881 23.8161 25.7949 23.9549 26.5453 23.9549C27.2958 23.9549 27.6026 23.8161 27.2276 23.6469ZM49.5455 22.8895C49.5455 22.5883 48.712 22.279 47.6938 22.2028C46.3458 22.1017 46.0011 22.248 46.4268 22.7406C47.1278 23.5512 49.5455 23.6665 49.5455 22.8895ZM37.8806 23.2689C38.1893 21.5243 38.0326 21.0061 37.1582 20.8807C36.1926 20.7426 36.1859 20.7715 36.8752 22.0883C37.5363 23.3504 37.8092 23.6712 37.8806 23.2689ZM272.213 22.3032C271.932 22.1085 271.596 22.1328 271.466 22.3565C271.337 22.5802 271.567 22.7392 271.978 22.7102C272.432 22.6779 272.524 22.5182 272.213 22.3032ZM270.483 22.2992C270.108 22.1294 269.494 22.1294 269.119 22.2992C268.744 22.4683 269.051 22.6071 269.801 22.6071C270.552 22.6071 270.858 22.4683 270.483 22.2992ZM106.653 22.097C106.79 21.7156 106.633 21.6024 106.286 21.8322C105.611 22.2803 105.488 22.7635 106.048 22.7635C106.25 22.7635 106.522 22.4636 106.653 22.097ZM56.9523 22.0499C56.9523 21.6577 56.7769 21.5236 56.5625 21.7527C56.3481 21.9818 56.1727 22.3026 56.1727 22.4663C56.1727 22.6301 56.3481 22.7635 56.5625 22.7635C56.7769 22.7635 56.9523 22.4421 56.9523 22.0499ZM11.26 21.9683C11.6268 21.7163 10.3626 21.4892 8.45047 21.4629C6.53873 21.4373 5.09012 21.6152 5.23123 21.8592C5.57663 22.4569 10.4222 22.5445 11.26 21.9683ZM3.74011 22.0896L4.90961 21.5755L3.66568 21.4953C2.98151 21.4515 2.31332 21.719 2.18079 22.0896C1.91415 22.8356 2.04474 22.8356 3.74011 22.0896ZM137.745 21.6435C137.477 21.4562 137.038 21.4562 136.771 21.6435C136.502 21.8302 136.722 21.9832 137.258 21.9832C137.794 21.9832 138.013 21.8302 137.745 21.6435ZM119.847 21.6375C120.036 21.312 123.694 20.6624 126.529 20.4515C128.034 20.3396 130.319 20.1671 131.605 20.068L133.944 19.8881L131.995 19.3632C129.117 18.5882 120.538 18.6455 118.741 19.4514C117.883 19.8362 116.979 20.1826 116.731 20.2217C116.484 20.2608 116.373 20.7069 116.486 21.2136C116.619 21.816 117.218 22.0809 118.215 21.9791C119.053 21.8935 119.788 21.7399 119.847 21.6375ZM61.4354 21.4656C62.5129 21.0222 62.4587 20.9609 60.7478 20.6887C59.243 20.4494 56.9757 21.0067 57.732 21.4299C58.4813 21.8497 60.4577 21.8686 61.4354 21.4656ZM51.5676 21.6294C51.2865 21.4346 50.9501 21.4589 50.8206 21.6826C50.6912 21.9063 50.9212 22.0654 51.3321 22.0364C51.7863 22.004 51.8787 21.8443 51.5676 21.6294ZM150.025 20.9515C149.65 20.7817 149.036 20.7817 148.661 20.9515C148.286 21.1206 148.592 21.2594 149.343 21.2594C150.093 21.2594 150.4 21.1206 150.025 20.9515ZM82.6813 20.7419C83.1565 20.2109 83.1062 20.0869 82.412 20.0781C81.9422 20.0727 81.4494 20.3713 81.3169 20.7419C81.0101 21.5997 81.9133 21.5997 82.6813 20.7419ZM79.6114 20.6759C79.9716 20.281 79.6679 20.0856 78.6855 20.0781C77.8813 20.0727 77.2236 20.2958 77.224 20.5734C77.2244 21.2972 78.9752 21.372 79.6114 20.6759ZM48.7658 21.0667C48.7658 20.5215 47.6486 20.2695 47.2272 20.7203C46.9114 21.0573 47.0997 21.2473 47.7495 21.2473C48.3086 21.2473 48.7658 21.1658 48.7658 21.0667ZM224.866 20.2749C224.486 20.1037 223.96 20.1152 223.696 20.2998C223.432 20.4845 223.742 20.624 224.386 20.6105C225.029 20.597 225.245 20.4461 224.866 20.2749ZM221.072 19.9427C221.822 19.6152 223.637 19.2284 225.104 19.0842C226.571 18.9393 227.86 18.6664 227.97 18.477C228.487 17.5828 224.724 17.2445 219.185 17.6879C210.455 18.3867 207.112 18.4535 204.894 17.9743C203.822 17.7425 202.887 17.8133 202.816 18.1313C202.745 18.4508 202.396 18.4528 202.036 18.1367C201.678 17.822 200.508 17.7836 199.436 18.0518L197.487 18.5404L199.631 18.6394C202.114 18.7547 203.6 19.3254 203.336 20.064C203.235 20.3477 204.844 20.6294 206.913 20.69C209.622 20.7688 210.764 20.5559 210.994 19.9285C211.255 19.219 211.315 19.221 211.32 19.9393C211.324 20.4656 211.52 20.6145 211.806 20.3079C212.45 19.6206 213.665 19.4952 213.665 20.1165C213.665 20.8052 219.405 20.6705 221.072 19.9427ZM198.949 20.2661C198.466 20.1058 197.677 20.1058 197.195 20.2661C196.712 20.4272 197.107 20.5586 198.072 20.5586C199.037 20.5586 199.432 20.4272 198.949 20.2661ZM99.3467 20.2776C98.9717 20.1078 98.3573 20.1078 97.9823 20.2776C97.6072 20.4467 97.914 20.5856 98.6645 20.5856C99.4149 20.5856 99.7217 20.4467 99.3467 20.2776ZM84.3136 20.2816C84.0325 20.0869 83.696 20.1112 83.5666 20.3349C83.4372 20.5586 83.6672 20.7176 84.0781 20.6887C84.5322 20.6563 84.6246 20.4966 84.3136 20.2816ZM277.89 19.6037C277.515 19.4339 276.901 19.4339 276.526 19.6037C276.15 19.7729 276.458 19.9117 277.208 19.9117C277.958 19.9117 278.266 19.7729 277.89 19.6037ZM206.258 19.3632C205.832 18.8638 205.989 18.8012 206.843 19.1314C208.277 19.686 208.588 20.0714 207.59 20.0579C207.18 20.0519 206.58 19.7399 206.258 19.3632ZM150.512 19.2769C150.512 18.5552 143.152 18.6415 142.131 19.3753C141.659 19.7149 143.159 19.9157 145.932 19.8847C148.451 19.8564 150.512 19.5835 150.512 19.2769ZM134.992 19.6078C134.711 19.413 134.374 19.4373 134.245 19.661C134.115 19.8847 134.346 20.0438 134.756 20.0148C135.211 19.9824 135.303 19.8227 134.992 19.6078ZM258.301 18.7203C258.434 18.3497 258.181 18.0464 257.739 18.0464C257.298 18.0464 256.937 18.3497 256.937 18.7203C256.937 19.0909 257.189 19.3942 257.498 19.3942C257.808 19.3942 258.169 19.0909 258.301 18.7203ZM253.213 18.7769C253.31 18.5067 254.131 18.3874 255.037 18.5114C255.945 18.6354 256.58 18.5532 256.45 18.3281C256.034 17.6091 250.982 17.2001 251.234 17.9056C251.541 18.7655 252.989 19.4029 253.213 18.7769ZM232.182 18.7035C233.119 18.3052 232.892 18.19 231.045 18.126C229.777 18.0822 228.812 18.1556 228.901 18.2884C229.326 18.9218 231.132 19.1502 232.182 18.7035ZM261.9 18.2533C261.52 18.0822 260.994 18.0936 260.73 18.2783C260.466 18.4629 260.777 18.6024 261.42 18.5889C262.063 18.5754 262.279 18.4245 261.9 18.2533ZM278.45 17.5862C278.169 17.3914 277.833 17.4157 277.703 17.6394C277.574 17.8632 277.804 18.0222 278.215 17.9932C278.669 17.9609 278.761 17.8012 278.45 17.5862ZM250.407 17.6003C250.139 17.413 249.7 17.413 249.432 17.6003C249.164 17.787 249.384 17.94 249.92 17.94C250.456 17.94 250.675 17.787 250.407 17.6003Z" fill="#F2C94C"/>
</svg>
