<svg width="15" height="15" viewBox="0 0 15 15" fill="none" xmlns="http://www.w3.org/2000/svg">
<path d="M2.21591 1.02273C1.89946 1.02273 1.59597 1.14844 1.3722 1.3722C1.14844 1.59597 1.02273 1.89946 1.02273 2.21591V12.7841C1.02274 13.071 1.12613 13.3483 1.31396 13.5652C1.50179 13.7821 1.76148 13.924 2.04545 13.965V9.03409C2.04545 8.62722 2.20708 8.23702 2.49478 7.94933C2.78248 7.66163 3.17268 7.5 3.57955 7.5H11.4205C11.8273 7.5 12.2175 7.66163 12.5052 7.94933C12.7929 8.23702 12.9545 8.62722 12.9545 9.03409V13.965C13.2385 13.924 13.4982 13.7821 13.686 13.5652C13.8739 13.3483 13.9773 13.071 13.9773 12.7841V3.945C13.9773 3.62795 13.8518 3.32455 13.6275 3.10091L11.8991 1.3725C11.7883 1.2616 11.6567 1.17363 11.5119 1.11362C11.367 1.0536 11.2118 1.02272 11.055 1.02273H10.9091V3.92045C10.9091 4.12191 10.8694 4.3214 10.7923 4.50753C10.7152 4.69365 10.6022 4.86277 10.4598 5.00522C10.3173 5.14767 10.1482 5.26067 9.96207 5.33777C9.77595 5.41487 9.57646 5.45455 9.375 5.45455H4.94318C4.53632 5.45455 4.14611 5.29292 3.85842 5.00522C3.57072 4.71752 3.40909 4.32732 3.40909 3.92045V1.02273H2.21591ZM4.43182 1.02273V3.92045C4.43182 4.20273 4.66091 4.43182 4.94318 4.43182H9.375C9.51062 4.43182 9.64069 4.37794 9.73659 4.28204C9.83249 4.18614 9.88636 4.05608 9.88636 3.92045V1.02273H4.43182ZM11.9318 13.9773V9.03409C11.9318 8.89847 11.8779 8.7684 11.782 8.6725C11.6861 8.5766 11.5561 8.52273 11.4205 8.52273H3.57955C3.44392 8.52273 3.31386 8.5766 3.21796 8.6725C3.12206 8.7684 3.06818 8.89847 3.06818 9.03409V13.9773H11.9318ZM0 2.21591C0 1.62821 0.233461 1.06459 0.649025 0.649025C1.06459 0.233461 1.62821 0 2.21591 0H11.0557C11.6434 3.50945e-05 12.207 0.233519 12.6225 0.649091L14.3509 2.3775C14.7668 2.79341 15 3.35727 15 3.945V12.7841C15 13.3718 14.7665 13.9354 14.351 14.351C13.9354 14.7665 13.3718 15 12.7841 15H2.21591C1.62821 15 1.06459 14.7665 0.649025 14.351C0.233461 13.9354 0 13.3718 0 12.7841V2.21591Z" fill="#858585"/>
</svg>
