<svg width="29" height="29" viewBox="0 0 29 29" fill="none" xmlns="http://www.w3.org/2000/svg">
<path d="M25.4403 28.7188H25.2544C3.76223 27.4828 0.710662 9.34844 0.284099 3.81406C0.249729 3.38376 0.300603 2.9509 0.433806 2.54029C0.56701 2.12968 0.779925 1.74939 1.06035 1.42121C1.34078 1.09303 1.68321 0.823409 2.06802 0.627793C2.45283 0.432178 2.87245 0.314414 3.30285 0.281251H9.32941C9.76752 0.280827 10.1957 0.411965 10.5584 0.657678C10.9211 0.903391 11.2017 1.25236 11.3638 1.65938L13.0263 5.75C13.1864 6.14763 13.2261 6.58352 13.1405 7.00354C13.055 7.42355 12.8479 7.80917 12.545 8.1125L10.2154 10.4641C10.5793 12.5321 11.5696 14.4384 13.0524 15.9251C14.5352 17.4118 16.4389 18.4072 18.506 18.7766L20.8794 16.425C21.1873 16.1255 21.5766 15.9232 21.9986 15.8435C22.4207 15.7638 22.8569 15.81 23.2528 15.9766L27.3763 17.6281C27.7772 17.7953 28.1192 18.0781 28.3588 18.4404C28.5984 18.8027 28.7247 19.2282 28.7216 19.6625V25.4375C28.7216 26.3077 28.3759 27.1423 27.7605 27.7577C27.1452 28.373 26.3106 28.7188 25.4403 28.7188ZM3.56535 2.46875C3.27527 2.46875 2.99707 2.58399 2.79195 2.7891C2.58683 2.99422 2.4716 3.27242 2.4716 3.5625V3.65C2.97472 10.125 6.20129 25.4375 25.3747 26.5312C25.5184 26.5401 25.6624 26.5206 25.7986 26.4737C25.9347 26.4267 26.0602 26.3534 26.1679 26.2579C26.2756 26.1624 26.3634 26.0466 26.4262 25.917C26.4891 25.7875 26.5257 25.6468 26.5341 25.5031V19.6625L22.4107 18.0109L19.2716 21.1281L18.7466 21.0625C9.23097 19.8703 7.94035 10.3547 7.94035 10.2563L7.87472 9.73125L10.981 6.59219L9.34035 2.46875H3.56535Z" fill="#FFC000"/>
</svg>
