<svg width="100" height="64" viewBox="0 0 100 64" fill="none" xmlns="http://www.w3.org/2000/svg">
<path d="M87.3832 1.30734C91.0881 4.8176 95.9706 9.63896 98.9725 13.6058M98.9725 13.6058C99.3185 14.0627 95.1346 15.1825 94.9361 15.2188C90.5846 16.0187 86.2245 16.2607 81.7701 16.4187M98.9725 13.6058C75.0289 -1.12098 46.8138 0.609959 34.0836 14.3138C32.8218 15.672 31.4502 17.1516 30.233 18.7447M30.233 18.7447C28.2947 21.2818 26.7483 24.1067 26.662 27.1876C26.5825 30.0311 27.7758 33.8273 30.5399 35.4889C35.7035 38.5926 41.8722 34.1971 41.2459 28.834C40.6957 24.121 35.2759 19.0462 30.233 18.7447ZM30.233 18.7447C30.1267 18.7384 30.0205 18.7341 29.9145 18.7321C4.3327 18.2342 -4.01743 44.5764 4.33643 62.731" stroke="black" stroke-width="2" stroke-miterlimit="1.5" stroke-linecap="round" stroke-linejoin="round"/>
</svg>
