<svg width="16" height="14" viewBox="0 0 16 14" fill="none" xmlns="http://www.w3.org/2000/svg">
<path fill-rule="evenodd" clip-rule="evenodd" d="M8.50001 0.833332C8.50001 0.700724 8.44733 0.573547 8.35356 0.479779C8.25979 0.38601 8.13261 0.333332 8.00001 0.333332C7.8674 0.333332 7.74022 0.38601 7.64645 0.479779C7.55268 0.573547 7.50001 0.700724 7.50001 0.833332V2H6.18401C5.9498 1.99989 5.72099 2.07028 5.52734 2.202L4.39734 2.97133C4.3696 2.99012 4.33684 3.00011 4.30334 3H1.56867C1.43606 3 1.30889 3.05268 1.21512 3.14645C1.12135 3.24021 1.06867 3.36739 1.06867 3.5C1.06867 3.63261 1.12135 3.75978 1.21512 3.85355C1.30889 3.94732 1.43606 4 1.56867 4H2.62001L0.375339 9.12C0.33294 9.21991 0.323657 9.33078 0.348851 9.43636C0.374045 9.54193 0.432391 9.63666 0.515339 9.70666C0.568673 9.74933 0.622673 9.79 0.721339 9.854C0.845339 9.93466 1.02267 10.0393 1.24934 10.1427C1.70267 10.35 2.35734 10.556 3.16667 10.556C3.82802 10.5573 4.48192 10.4163 5.08401 10.1427C5.31067 10.0393 5.48801 9.93466 5.61201 9.854C5.71201 9.78933 5.76534 9.74867 5.81867 9.70533C5.90228 9.63611 5.9611 9.54157 5.98624 9.43597C6.01137 9.33037 6.00146 9.21947 5.95801 9.12L3.71267 4H4.30334C4.53734 4 4.76601 3.92933 4.95934 3.798L6.09001 3.02867C6.11756 3.01001 6.15006 3.00002 6.18334 3H7.50001V12.6667H4.50867C4.37606 12.6667 4.24889 12.7193 4.15512 12.8131C4.06135 12.9069 4.00867 13.0341 4.00867 13.1667C4.00867 13.2993 4.06135 13.4265 4.15512 13.5202C4.24889 13.614 4.37606 13.6667 4.50867 13.6667H11.4913C11.6239 13.6667 11.7511 13.614 11.8449 13.5202C11.9387 13.4265 11.9913 13.2993 11.9913 13.1667C11.9913 13.0341 11.9387 12.9069 11.8449 12.8131C11.7511 12.7193 11.6239 12.6667 11.4913 12.6667H8.50001V3H9.81601C9.84934 3 9.88267 3.01 9.90934 3.02867L11.0407 3.798C11.234 3.92933 11.4627 4 11.6967 4H12.2873L10.042 9.12C9.99711 9.22237 9.98782 9.33684 10.0156 9.44512C10.0434 9.5534 10.1067 9.64924 10.1953 9.71733C10.2033 9.72333 10.1953 9.71733 10.1967 9.71733C10.2628 9.76714 10.3318 9.813 10.4033 9.85466C10.5267 9.92933 10.7033 10.0253 10.93 10.1213C11.5328 10.3733 12.18 10.5021 12.8333 10.5C13.487 10.5019 14.1344 10.373 14.7373 10.1207C14.9627 10.0253 15.14 9.92933 15.264 9.85466C15.3353 9.81258 15.4043 9.76674 15.4707 9.71733C15.5593 9.64924 15.6226 9.5534 15.6504 9.44512C15.6782 9.33684 15.6689 9.22237 15.624 9.12L13.38 4H14.432C14.5646 4 14.6918 3.94732 14.7856 3.85355C14.8793 3.75978 14.932 3.63261 14.932 3.5C14.932 3.36739 14.8793 3.24021 14.7856 3.14645C14.6918 3.05268 14.5646 3 14.432 3H11.6973C11.6641 2.99997 11.6316 2.98999 11.604 2.97133L10.4727 2.202C10.2792 2.07041 10.0506 2.00003 9.81667 2H8.50001V0.833332ZM1.46201 9.132C1.98674 9.41122 2.57227 9.55663 3.16667 9.55533C3.76107 9.55663 4.34661 9.41122 4.87134 9.132L3.16667 5.24533L1.46201 9.132ZM11.1353 9.116C11.19 9.14266 11.2513 9.17133 11.3187 9.2C11.672 9.34866 12.1887 9.5 12.8333 9.5C13.4211 9.50166 14.0015 9.37039 14.5313 9.116L12.8333 5.24466L11.1353 9.116Z" fill="#858585"/>
</svg>
