<svg width="290" height="42" viewBox="0 0 290 42" fill="none" xmlns="http://www.w3.org/2000/svg">
<path d="M7.61162 5.225C7.54495 5.30833 7.41995 5.375 7.23662 5.425C7.06996 5.45833 6.89496 5.40833 6.71162 5.275C6.57829 5.175 6.41995 5.075 6.23662 4.975C6.05329 4.85833 5.85329 4.75 5.63662 4.65C5.41995 4.55 5.20329 4.46667 4.98662 4.4C4.76995 4.33333 4.56162 4.3 4.36162 4.3C4.11162 4.3 3.84495 4.35833 3.56162 4.475C3.29495 4.59167 3.06162 4.75833 2.86162 4.975C2.47829 5.39167 2.33662 5.8 2.43662 6.2C2.55329 6.58333 2.84495 6.94167 3.31162 7.275C3.61162 7.49167 3.93662 7.71667 4.28662 7.95C4.63662 8.16667 4.97829 8.38333 5.31162 8.6C5.66162 8.81667 5.98662 9.025 6.28662 9.225C6.60329 9.425 6.87829 9.6 7.11162 9.75C7.41162 9.95 7.69495 10.1667 7.96162 10.4C8.22829 10.6333 8.46162 10.9 8.66162 11.2C8.86162 11.4833 9.01995 11.8083 9.13662 12.175C9.25329 12.5417 9.31162 12.9583 9.31162 13.425C9.19495 14.3417 8.82829 15.075 8.21162 15.625C7.61162 16.1583 6.91162 16.5 6.11162 16.65C5.41162 16.7833 4.71995 16.7583 4.03662 16.575C3.36995 16.3917 2.80329 16.0417 2.33662 15.525C2.21995 15.3917 2.11995 15.2083 2.03662 14.975C1.95329 14.7417 1.94495 14.575 2.01162 14.475C2.11162 14.325 2.28662 14.225 2.53662 14.175C2.78662 14.1083 2.97829 14.1167 3.11162 14.2C3.49495 14.55 3.94495 14.8083 4.46162 14.975C4.97829 15.125 5.51995 15.1333 6.08662 15C6.51995 14.9 6.86995 14.7167 7.13662 14.45C7.40329 14.1667 7.56995 13.85 7.63662 13.5C7.71995 13.1333 7.66995 12.7583 7.48662 12.375C7.31995 11.975 7.01162 11.6167 6.56162 11.3C5.87829 10.7833 5.14495 10.3 4.36162 9.85C3.59495 9.4 2.81162 8.88333 2.01162 8.3C1.62829 7.96667 1.34495 7.6 1.16162 7.2C0.994954 6.8 0.911621 6.40833 0.911621 6.025C0.911621 5.625 0.994954 5.25 1.16162 4.9C1.32829 4.53333 1.56162 4.20833 1.86162 3.925C2.16162 3.625 2.51162 3.38333 2.91162 3.2C3.31162 3.01667 3.75329 2.90833 4.23662 2.875C4.90329 2.84167 5.54495 2.98333 6.16162 3.3C6.77829 3.6 7.27829 3.975 7.66162 4.425C7.74495 4.525 7.77829 4.65 7.76162 4.8C7.76162 4.95 7.71162 5.09167 7.61162 5.225ZM23.797 12.275C23.797 13.3917 23.647 14.3833 23.347 15.25C23.0636 16.1 22.647 16.825 22.097 17.425C21.5636 18.025 20.9053 18.4833 20.122 18.8C19.3553 19.1 18.497 19.25 17.547 19.25C16.6636 19.25 15.847 19.1 15.097 18.8C14.347 18.4833 13.697 18.025 13.147 17.425C12.597 16.825 12.1636 16.1 11.847 15.25C11.547 14.3833 11.397 13.3917 11.397 12.275C11.397 10.7917 11.647 9.54167 12.147 8.525C12.647 7.49167 13.3636 6.70833 14.297 6.175C15.2303 5.625 16.3386 5.35 17.622 5.35C18.8386 5.35 19.9053 5.625 20.822 6.175C21.7553 6.70833 22.4803 7.49167 22.997 8.525C23.5303 9.54167 23.797 10.7917 23.797 12.275ZM13.672 12.275C13.672 13.325 13.8053 14.2417 14.072 15.025C14.3553 15.7917 14.7886 16.3833 15.372 16.8C15.9553 17.2167 16.697 17.425 17.597 17.425C18.497 17.425 19.2386 17.2167 19.822 16.8C20.4053 16.3833 20.8303 15.7917 21.097 15.025C21.3803 14.2417 21.522 13.325 21.522 12.275C21.522 11.2083 21.3803 10.3 21.097 9.55C20.8136 8.8 20.3803 8.225 19.797 7.825C19.2303 7.40833 18.4886 7.2 17.572 7.2C16.2053 7.2 15.2136 7.65 14.597 8.55C13.9803 9.45 13.672 10.6917 13.672 12.275ZM14.097 1.975C14.097 1.54167 14.2136 1.23333 14.447 1.05C14.6803 0.849999 14.9553 0.75 15.272 0.75C15.5886 0.75 15.8636 0.849999 16.097 1.05C16.3303 1.23333 16.447 1.54167 16.447 1.975C16.447 2.39167 16.3303 2.70833 16.097 2.925C15.8636 3.125 15.5886 3.225 15.272 3.225C14.9553 3.225 14.6803 3.125 14.447 2.925C14.2136 2.70833 14.097 2.39167 14.097 1.975ZM18.797 1.975C18.797 1.54167 18.9053 1.23333 19.122 1.05C19.3553 0.849999 19.6303 0.75 19.947 0.75C20.2636 0.75 20.5386 0.849999 20.772 1.05C21.0053 1.23333 21.122 1.54167 21.122 1.975C21.122 2.39167 21.0053 2.70833 20.772 2.925C20.5386 3.125 20.2636 3.225 19.947 3.225C19.6303 3.225 19.3553 3.125 19.122 2.925C18.9053 2.70833 18.797 2.39167 18.797 1.975ZM33.0587 7.7C33.1254 7.68333 33.2254 7.675 33.3587 7.675C33.492 7.65833 33.617 7.66667 33.7337 7.7C33.867 7.71667 33.9754 7.75833 34.0587 7.825C34.1587 7.875 34.217 7.94167 34.2337 8.025C34.267 8.225 34.2337 8.40833 34.1337 8.575C34.0504 8.725 33.892 8.85833 33.6587 8.975C33.0254 9.275 32.367 9.61667 31.6837 10C31.0004 10.3667 30.417 10.7 29.9337 11C30.2337 11.2 30.5754 11.425 30.9587 11.675C31.3587 11.925 31.767 12.1917 32.1837 12.475C32.6004 12.7417 33.017 13.0333 33.4337 13.35C33.8504 13.65 34.242 13.95 34.6087 14.25C34.942 14.5333 35.0004 14.7917 34.7837 15.025C34.6837 15.1417 34.517 15.225 34.2837 15.275C34.067 15.325 33.8587 15.3 33.6587 15.2C33.292 15.0167 32.892 14.8 32.4587 14.55C32.0254 14.2833 31.5837 14.0167 31.1337 13.75C30.6837 13.4667 30.242 13.1917 29.8087 12.925C29.392 12.6417 29.0087 12.3833 28.6587 12.15C28.7254 12.7333 28.7837 13.3167 28.8337 13.9C28.9004 14.4833 28.9587 15.0667 29.0087 15.65C29.1087 15.9667 29.1004 16.225 28.9837 16.425C28.867 16.625 28.6754 16.7167 28.4087 16.7C28.1254 16.65 27.917 16.5417 27.7837 16.375C27.6504 16.1917 27.5504 15.9583 27.4837 15.675C27.3837 14.9917 27.267 14.1833 27.1337 13.25C27.017 12.3167 26.892 11.35 26.7587 10.35C26.6254 9.35 26.492 8.375 26.3587 7.425C26.242 6.475 26.1337 5.63333 26.0337 4.9C26.0004 4.66667 25.9754 4.41667 25.9587 4.15C25.9587 3.86667 26.0504 3.68333 26.2337 3.6C26.4837 3.5 26.742 3.55833 27.0087 3.775C27.2754 3.975 27.4754 4.28333 27.6087 4.7C27.742 5.46667 27.8754 6.3 28.0087 7.2C28.142 8.1 28.2754 9.05 28.4087 10.05C28.742 9.85 29.1254 9.63333 29.5587 9.4C30.0087 9.15 30.4504 8.91667 30.8837 8.7C31.3337 8.46667 31.7504 8.25833 32.1337 8.075C32.517 7.89167 32.8254 7.76667 33.0587 7.7ZM51.7718 6.8C51.5051 7.25 51.2384 7.69167 50.9718 8.125C50.7051 8.55833 50.4134 9.05833 50.0968 9.625C49.7968 10.175 49.4468 10.8167 49.0468 11.55C48.6468 12.2833 48.1801 13.175 47.6468 14.225C47.5134 14.475 47.3801 14.675 47.2468 14.825C47.1134 14.975 46.9551 15.05 46.7718 15.05C46.5218 15.05 46.3218 14.9833 46.1718 14.85C46.0384 14.7 45.9218 14.5417 45.8218 14.375C45.2718 13.4583 44.7301 12.4417 44.1968 11.325C43.6634 10.2083 43.2301 9.11667 42.8968 8.05C42.8634 7.96667 42.8634 7.875 42.8968 7.775C42.9468 7.65833 43.0134 7.58333 43.0968 7.55C43.2634 7.46667 43.4801 7.45833 43.7468 7.525C43.9468 7.60833 44.1468 7.75833 44.3468 7.975C44.5468 8.19167 44.7051 8.41667 44.8218 8.65C44.9218 8.88333 45.0384 9.15 45.1718 9.45C45.3051 9.75 45.4468 10.075 45.5968 10.425C45.7634 10.7583 45.9301 11.0917 46.0968 11.425C46.2634 11.7583 46.4301 12.0583 46.5968 12.325C46.8801 11.825 47.1801 11.2917 47.4968 10.725C47.8301 10.1417 48.1634 9.55833 48.4968 8.975C48.8301 8.375 49.1634 7.8 49.4968 7.25C49.8468 6.7 50.1884 6.20833 50.5218 5.775C50.6051 5.65833 50.7218 5.59167 50.8718 5.575C51.0218 5.55833 51.1884 5.61667 51.3718 5.75C51.7884 6.06667 51.9218 6.41667 51.7718 6.8ZM57.6542 5.675C57.6209 5.84167 57.5042 5.93333 57.3042 5.95C57.1042 5.96667 56.9375 5.975 56.8042 5.975C56.3875 5.99167 55.9542 6.03333 55.5042 6.1C55.0709 6.16667 54.6125 6.26667 54.1292 6.4C53.9292 6.46667 53.7125 6.44167 53.4792 6.325C53.2459 6.20833 53.1042 5.975 53.0542 5.625C53.0542 5.49167 53.1042 5.38333 53.2042 5.3C53.3042 5.21667 53.4209 5.14167 53.5542 5.075C53.7709 4.975 54.0292 4.89167 54.3292 4.825C54.6292 4.74167 54.9292 4.68333 55.2292 4.65C55.5459 4.61667 55.8459 4.60833 56.1292 4.625C56.4125 4.625 56.6459 4.65 56.8292 4.7C57.0959 4.78333 57.3042 4.90833 57.4542 5.075C57.6209 5.24167 57.6875 5.44167 57.6542 5.675ZM57.0792 14C57.1959 14.2667 57.2542 14.5583 57.2542 14.875C57.2709 15.175 57.1875 15.3833 57.0042 15.5C56.7709 15.65 56.5209 15.6417 56.2542 15.475C55.9875 15.3083 55.7875 15.0833 55.6542 14.8C55.4709 14.45 55.3292 14.025 55.2292 13.525C55.1292 13.0083 55.0542 12.5 55.0042 12C54.9542 11.5 54.9209 11.0333 54.9042 10.6C54.9042 10.1667 54.9042 9.84167 54.9042 9.625C54.9209 9.39167 54.9875 9.175 55.1042 8.975C55.2209 8.775 55.3709 8.65833 55.5542 8.625C55.8542 8.64167 56.0959 8.78333 56.2792 9.05C56.4625 9.3 56.5459 9.61667 56.5292 10C56.5292 10.3 56.5375 10.6333 56.5542 11C56.5709 11.3667 56.6042 11.7333 56.6542 12.1C56.7042 12.4667 56.7625 12.825 56.8292 13.175C56.8959 13.5083 56.9792 13.7833 57.0792 14ZM61.6089 4.175C61.6922 5.99167 61.8339 7.875 62.0339 9.825C62.2339 11.7583 62.4506 13.6083 62.6839 15.375C62.7339 16.1083 62.5339 16.4833 62.0839 16.5C61.9839 16.5 61.8839 16.4667 61.7839 16.4C61.6839 16.3167 61.5922 16.2167 61.5089 16.1C61.4256 15.9833 61.3422 15.8583 61.2589 15.725C61.1922 15.5917 61.1506 15.475 61.1339 15.375C61.0006 14.525 60.8756 13.625 60.7589 12.675C60.6422 11.725 60.5339 10.775 60.4339 9.825C60.3506 8.85833 60.2756 7.91667 60.2089 7C60.1422 6.08333 60.1006 5.24167 60.0839 4.475C60.1172 4.075 60.1756 3.74167 60.2589 3.475C60.3422 3.19167 60.5172 3.05833 60.7839 3.075C61.0672 3.09167 61.2672 3.20833 61.3839 3.425C61.5172 3.625 61.5922 3.875 61.6089 4.175ZM71.6085 7.7C71.6752 7.68333 71.7752 7.675 71.9085 7.675C72.0418 7.65833 72.1668 7.66667 72.2835 7.7C72.4168 7.71667 72.5252 7.75833 72.6085 7.825C72.7085 7.875 72.7668 7.94167 72.7835 8.025C72.8168 8.225 72.7835 8.40833 72.6835 8.575C72.6002 8.725 72.4418 8.85833 72.2085 8.975C71.5752 9.275 70.9168 9.61667 70.2335 10C69.5502 10.3667 68.9668 10.7 68.4835 11C68.7835 11.2 69.1252 11.425 69.5085 11.675C69.9085 11.925 70.3168 12.1917 70.7335 12.475C71.1502 12.7417 71.5668 13.0333 71.9835 13.35C72.4002 13.65 72.7918 13.95 73.1585 14.25C73.4918 14.5333 73.5502 14.7917 73.3335 15.025C73.2335 15.1417 73.0668 15.225 72.8335 15.275C72.6168 15.325 72.4085 15.3 72.2085 15.2C71.8418 15.0167 71.4418 14.8 71.0085 14.55C70.5752 14.2833 70.1335 14.0167 69.6835 13.75C69.2335 13.4667 68.7918 13.1917 68.3585 12.925C67.9418 12.6417 67.5585 12.3833 67.2085 12.15C67.2752 12.7333 67.3335 13.3167 67.3835 13.9C67.4502 14.4833 67.5085 15.0667 67.5585 15.65C67.6585 15.9667 67.6502 16.225 67.5335 16.425C67.4168 16.625 67.2252 16.7167 66.9585 16.7C66.6752 16.65 66.4668 16.5417 66.3335 16.375C66.2002 16.1917 66.1002 15.9583 66.0335 15.675C65.9335 14.9917 65.8168 14.1833 65.6835 13.25C65.5668 12.3167 65.4418 11.35 65.3085 10.35C65.1752 9.35 65.0418 8.375 64.9085 7.425C64.7918 6.475 64.6835 5.63333 64.5835 4.9C64.5502 4.66667 64.5252 4.41667 64.5085 4.15C64.5085 3.86667 64.6002 3.68333 64.7835 3.6C65.0335 3.5 65.2918 3.55833 65.5585 3.775C65.8252 3.975 66.0252 4.28333 66.1585 4.7C66.2918 5.46667 66.4252 6.3 66.5585 7.2C66.6918 8.1 66.8252 9.05 66.9585 10.05C67.2918 9.85 67.6752 9.63333 68.1085 9.4C68.5585 9.15 69.0002 8.91667 69.4335 8.7C69.8835 8.46667 70.3002 8.25833 70.6835 8.075C71.0668 7.89167 71.3752 7.76667 71.6085 7.7ZM80.9397 10C80.2897 10.3833 79.5897 10.6833 78.8397 10.9C78.0897 11.1 77.2814 11.2 76.4147 11.2C76.4481 11.7833 76.6147 12.25 76.9147 12.6C77.2147 12.9333 77.5897 13.1333 78.0397 13.2C78.3064 13.2333 78.5731 13.225 78.8397 13.175C79.1231 13.125 79.3814 13.05 79.6147 12.95C79.8647 12.8333 80.0897 12.7083 80.2897 12.575C80.4897 12.4417 80.6647 12.3083 80.8147 12.175C80.9647 12.0417 81.1231 11.9583 81.2897 11.925C81.4564 11.875 81.5814 11.8667 81.6647 11.9C81.8981 11.9833 81.9814 12.2333 81.9147 12.65C81.6481 13.1833 81.2647 13.6417 80.7647 14.025C80.2647 14.3917 79.7064 14.625 79.0897 14.725C78.5564 14.825 78.0064 14.8 77.4397 14.65C76.8731 14.5 76.3647 14.2083 75.9147 13.775C75.5314 13.3917 75.2397 12.9417 75.0397 12.425C74.8397 11.9083 74.7147 11.375 74.6647 10.825C74.6147 10.3083 74.6564 9.81667 74.7897 9.35C74.9397 8.88333 75.1647 8.475 75.4647 8.125C75.7647 7.75833 76.1397 7.45833 76.5897 7.225C77.0397 6.99167 77.5647 6.85833 78.1647 6.825C78.8814 6.775 79.5314 6.90833 80.1147 7.225C80.6981 7.54167 81.1064 7.98333 81.3397 8.55C81.4731 8.86667 81.5064 9.14167 81.4397 9.375C81.3897 9.60833 81.2231 9.81667 80.9397 10ZM78.0647 8.3C77.8981 8.33333 77.7147 8.39167 77.5147 8.475C77.3314 8.55833 77.1564 8.66667 76.9897 8.8C76.8397 8.91667 76.6981 9.05833 76.5647 9.225C76.4481 9.375 76.3814 9.55 76.3647 9.75C76.6481 9.75 76.9564 9.725 77.2897 9.675C77.6397 9.625 77.9731 9.56667 78.2897 9.5C78.6231 9.41667 78.9231 9.325 79.1897 9.225C79.4731 9.125 79.7064 9.01667 79.8897 8.9C79.7564 8.58333 79.5064 8.39167 79.1397 8.325C78.7897 8.24167 78.4314 8.23333 78.0647 8.3ZM85.2544 7.625C85.3044 7.875 85.3544 8.15833 85.4044 8.475C85.4711 8.775 85.5377 9.09167 85.6044 9.425C85.6711 9.74167 85.7294 10.0667 85.7794 10.4C85.8294 10.7333 85.8711 11.05 85.9044 11.35C86.1044 10.9167 86.3211 10.4583 86.5544 9.975C86.7877 9.49167 87.0377 9.05 87.3044 8.65C87.5877 8.23333 87.8794 7.89167 88.1794 7.625C88.4961 7.35833 88.8377 7.225 89.2044 7.225C89.7544 7.225 90.2127 7.425 90.5794 7.825C90.9627 8.225 91.2794 8.725 91.5294 9.325C91.7961 9.90833 92.0044 10.525 92.1544 11.175C92.3044 11.825 92.4294 12.4 92.5294 12.9C92.6294 13.35 92.4294 13.6833 91.9294 13.9C91.6961 14.0167 91.5211 14.0333 91.4044 13.95C91.2877 13.8667 91.2211 13.7833 91.2044 13.7C91.1211 13.5 91.0127 13.15 90.8794 12.65C90.7627 12.15 90.6211 11.6417 90.4544 11.125C90.3044 10.6083 90.1294 10.1583 89.9294 9.775C89.7294 9.39167 89.5044 9.21667 89.2544 9.25C88.9544 9.26667 88.6877 9.49167 88.4544 9.925C88.2544 10.275 88.0461 10.6667 87.8294 11.1C87.6294 11.5167 87.4294 11.95 87.2294 12.4C87.0294 12.8333 86.8294 13.275 86.6294 13.725C86.4461 14.1583 86.2711 14.5583 86.1044 14.925C85.9877 15.0417 85.8377 15.125 85.6544 15.175C85.4877 15.2083 85.3127 15.1917 85.1294 15.125C84.9627 15.075 84.8294 14.9917 84.7294 14.875C84.6294 14.7583 84.5794 14.6417 84.5794 14.525C84.4294 13.225 84.2711 12.0417 84.1044 10.975C83.9544 9.90833 83.7544 8.81667 83.5044 7.7C83.3877 7.31667 83.3627 7.01667 83.4294 6.8C83.5127 6.56667 83.7627 6.475 84.1794 6.525C84.7627 6.625 85.1211 6.99167 85.2544 7.625ZM105.482 3.2C105.432 2.9 105.449 2.625 105.532 2.375C105.632 2.125 105.824 1.98333 106.107 1.95C106.357 1.91667 106.574 1.98333 106.757 2.15C106.957 2.31667 107.082 2.53333 107.132 2.8C107.465 4.71667 107.774 6.625 108.057 8.525C108.357 10.4083 108.624 12.2583 108.857 14.075C108.924 14.5583 108.89 14.8917 108.757 15.075C108.624 15.2417 108.465 15.3667 108.282 15.45C108.082 15.5333 107.89 15.5333 107.707 15.45C107.54 15.3667 107.432 15.2167 107.382 15L107.357 14.85L107.257 14.875C106.707 15.075 106.132 15.1917 105.532 15.225C104.932 15.2417 104.357 15.1667 103.807 15C103.257 14.8333 102.765 14.5667 102.332 14.2C101.915 13.8167 101.615 13.3333 101.432 12.75C101.032 11.4667 101.282 10.3 102.182 9.25C102.565 8.81667 103.04 8.425 103.607 8.075C104.174 7.725 104.857 7.45 105.657 7.25L106.107 7.15L105.482 3.2ZM102.957 12.125C103.057 12.525 103.24 12.8333 103.507 13.05C103.774 13.2667 104.09 13.4167 104.457 13.5C104.824 13.5667 105.215 13.575 105.632 13.525C106.049 13.475 106.457 13.3833 106.857 13.25L107.082 13.175L106.382 8.775L105.882 8.9C105.532 9 105.157 9.15833 104.757 9.375C104.374 9.575 104.032 9.81667 103.732 10.1C103.432 10.3833 103.199 10.7 103.032 11.05C102.882 11.4 102.857 11.7583 102.957 12.125ZM116.442 6.625C116.509 7.09167 116.559 7.59167 116.592 8.125C116.642 8.64167 116.676 9.16667 116.692 9.7C116.726 10.2333 116.742 10.75 116.742 11.25C116.742 11.75 116.734 12.2 116.717 12.6C117.251 12.9667 117.567 13.2917 117.667 13.575C117.784 13.8583 117.801 14.1083 117.717 14.325C117.617 14.625 117.434 14.7833 117.167 14.8C116.917 14.8 116.626 14.7083 116.292 14.525C116.059 14.6917 115.792 14.875 115.492 15.075C115.192 15.2583 114.876 15.4417 114.542 15.625C114.209 15.7917 113.876 15.9417 113.542 16.075C113.209 16.2083 112.901 16.3 112.617 16.35C112.084 16.4333 111.601 16.3333 111.167 16.05C110.751 15.7667 110.467 15.3417 110.317 14.775C110.217 14.3917 110.192 14 110.242 13.6C110.292 13.1833 110.417 12.7917 110.617 12.425C110.817 12.0417 111.084 11.7 111.417 11.4C111.767 11.1 112.176 10.8667 112.642 10.7C112.759 10.65 112.917 10.6083 113.117 10.575C113.334 10.5417 113.551 10.5333 113.767 10.55C114.001 10.55 114.234 10.5917 114.467 10.675C114.701 10.7583 114.917 10.9 115.117 11.1C115.117 10.8167 115.109 10.5083 115.092 10.175C115.092 9.825 115.084 9.475 115.067 9.125C115.051 8.775 115.026 8.45 114.992 8.15C114.976 7.83333 114.951 7.56667 114.917 7.35C114.884 7.1 114.784 6.95 114.617 6.9C114.467 6.83333 114.276 6.84167 114.042 6.925C113.642 7.05833 113.176 7.31667 112.642 7.7C112.109 8.08333 111.601 8.49167 111.117 8.925C110.967 9.075 110.792 9.14167 110.592 9.125C110.409 9.10833 110.251 9.03333 110.117 8.9C109.984 8.76667 109.909 8.61667 109.892 8.45C109.876 8.26667 109.942 8.075 110.092 7.875C110.376 7.575 110.692 7.26667 111.042 6.95C111.392 6.63333 111.759 6.35 112.142 6.1C112.526 5.83333 112.917 5.61667 113.317 5.45C113.717 5.28333 114.117 5.19167 114.517 5.175C115.101 5.15833 115.551 5.29167 115.867 5.575C116.184 5.84167 116.376 6.19167 116.442 6.625ZM113.542 12C113.326 12.05 113.092 12.1583 112.842 12.325C112.609 12.475 112.392 12.6667 112.192 12.9C112.009 13.1167 111.867 13.3667 111.767 13.65C111.684 13.9167 111.684 14.1833 111.767 14.45C111.801 14.55 111.867 14.625 111.967 14.675C112.084 14.725 112.209 14.7333 112.342 14.7C112.742 14.6167 113.192 14.4583 113.692 14.225C114.209 13.975 114.617 13.7083 114.917 13.425C114.917 13.325 114.867 13.2 114.767 13.05C114.667 12.8833 114.551 12.725 114.417 12.575C114.284 12.4083 114.134 12.2667 113.967 12.15C113.817 12.0333 113.676 11.9833 113.542 12ZM126.052 7.7C126.119 7.68333 126.219 7.675 126.352 7.675C126.485 7.65833 126.61 7.66667 126.727 7.7C126.86 7.71667 126.969 7.75833 127.052 7.825C127.152 7.875 127.21 7.94167 127.227 8.025C127.26 8.225 127.227 8.40833 127.127 8.575C127.044 8.725 126.885 8.85833 126.652 8.975C126.019 9.275 125.36 9.61667 124.677 10C123.994 10.3667 123.41 10.7 122.927 11C123.227 11.2 123.569 11.425 123.952 11.675C124.352 11.925 124.76 12.1917 125.177 12.475C125.594 12.7417 126.01 13.0333 126.427 13.35C126.844 13.65 127.235 13.95 127.602 14.25C127.935 14.5333 127.994 14.7917 127.777 15.025C127.677 15.1417 127.51 15.225 127.277 15.275C127.06 15.325 126.852 15.3 126.652 15.2C126.285 15.0167 125.885 14.8 125.452 14.55C125.019 14.2833 124.577 14.0167 124.127 13.75C123.677 13.4667 123.235 13.1917 122.802 12.925C122.385 12.6417 122.002 12.3833 121.652 12.15C121.719 12.7333 121.777 13.3167 121.827 13.9C121.894 14.4833 121.952 15.0667 122.002 15.65C122.102 15.9667 122.094 16.225 121.977 16.425C121.86 16.625 121.669 16.7167 121.402 16.7C121.119 16.65 120.91 16.5417 120.777 16.375C120.644 16.1917 120.544 15.9583 120.477 15.675C120.377 14.9917 120.26 14.1833 120.127 13.25C120.01 12.3167 119.885 11.35 119.752 10.35C119.619 9.35 119.485 8.375 119.352 7.425C119.235 6.475 119.127 5.63333 119.027 4.9C118.994 4.66667 118.969 4.41667 118.952 4.15C118.952 3.86667 119.044 3.68333 119.227 3.6C119.477 3.5 119.735 3.55833 120.002 3.775C120.269 3.975 120.469 4.28333 120.602 4.7C120.735 5.46667 120.869 6.3 121.002 7.2C121.135 8.1 121.269 9.05 121.402 10.05C121.735 9.85 122.119 9.63333 122.552 9.4C123.002 9.15 123.444 8.91667 123.877 8.7C124.327 8.46667 124.744 8.25833 125.127 8.075C125.51 7.89167 125.819 7.76667 126.052 7.7ZM131.483 8.475C131.383 8.925 131.283 9.425 131.183 9.975C131.083 10.5083 131.008 11.025 130.958 11.525C130.925 12.025 130.925 12.475 130.958 12.875C131.008 13.275 131.116 13.5583 131.283 13.725C131.566 13.775 131.891 13.6583 132.258 13.375C132.625 13.075 132.983 12.7 133.333 12.25C133.683 11.8 134 11.3167 134.283 10.8C134.566 10.2667 134.766 9.8 134.883 9.4C134.95 9.2 135.008 8.99167 135.058 8.775C135.108 8.55833 135.133 8.33333 135.133 8.1C135.133 7.96667 135.216 7.84167 135.383 7.725C135.566 7.59167 135.716 7.51667 135.833 7.5C135.916 7.48333 136.008 7.5 136.108 7.55C136.225 7.6 136.325 7.675 136.408 7.775C136.508 7.85833 136.591 7.96667 136.658 8.1C136.741 8.21667 136.783 8.34167 136.783 8.475C136.816 8.975 136.866 9.525 136.933 10.125C137 10.725 137.075 11.325 137.158 11.925C137.258 12.525 137.358 13.1083 137.458 13.675C137.558 14.2417 137.658 14.75 137.758 15.2C137.808 15.3833 137.758 15.5917 137.608 15.825C137.458 16.0583 137.291 16.2 137.108 16.25C136.958 16.2833 136.8 16.2667 136.633 16.2C136.483 16.1333 136.366 16 136.283 15.8C136.2 15.5667 136.116 15.2833 136.033 14.95C135.966 14.6 135.9 14.2417 135.833 13.875C135.783 13.4917 135.733 13.1333 135.683 12.8C135.633 12.45 135.6 12.1583 135.583 11.925C135.333 12.375 135.033 12.8333 134.683 13.3C134.35 13.75 133.983 14.1667 133.583 14.55C133.2 14.9167 132.791 15.2083 132.358 15.425C131.941 15.625 131.508 15.7 131.058 15.65C130.391 15.5667 129.883 14.9417 129.533 13.775C129.4 13.3083 129.333 12.7917 129.333 12.225C129.35 11.6583 129.391 11.1 129.458 10.55C129.541 9.98333 129.633 9.45 129.733 8.95C129.85 8.45 129.95 8.04167 130.033 7.725C130.066 7.59167 130.133 7.475 130.233 7.375C130.333 7.25833 130.45 7.21667 130.583 7.25C130.833 7.3 131.058 7.45 131.258 7.7C131.475 7.95 131.55 8.20833 131.483 8.475ZM141.087 7.8C141.104 8.06667 141.129 8.4 141.162 8.8C141.212 9.18333 141.262 9.59167 141.312 10.025C141.362 10.4417 141.412 10.8583 141.462 11.275C141.529 11.6917 141.587 12.075 141.637 12.425C141.82 12.0583 142.045 11.6083 142.312 11.075C142.579 10.5417 142.854 10.0333 143.137 9.55C143.437 9.05 143.737 8.63333 144.037 8.3C144.354 7.95 144.637 7.775 144.887 7.775C145.154 7.775 145.395 7.90833 145.612 8.175C145.845 8.425 146.045 8.73333 146.212 9.1C146.379 9.46667 146.52 9.85833 146.637 10.275C146.77 10.6917 146.879 11.0583 146.962 11.375C147.029 11.1583 147.112 10.9167 147.212 10.65C147.329 10.3667 147.445 10.0833 147.562 9.8C147.695 9.5 147.837 9.20833 147.987 8.925C148.154 8.64167 148.329 8.39167 148.512 8.175C148.729 7.94167 148.962 7.775 149.212 7.675C149.462 7.55833 149.645 7.5 149.762 7.5C149.912 7.5 150.087 7.55 150.287 7.65C150.504 7.73333 150.72 7.85 150.937 8C151.154 8.15 151.354 8.33333 151.537 8.55C151.737 8.75 151.895 8.95833 152.012 9.175C152.245 9.625 152.429 10.1167 152.562 10.65C152.712 11.1833 152.82 11.6917 152.887 12.175C152.954 12.6583 152.995 13.0917 153.012 13.475C153.045 13.8417 153.07 14.1 153.087 14.25C153.087 14.4667 153.062 14.6333 153.012 14.75C152.962 14.85 152.87 14.9333 152.737 15C152.554 15.0833 152.395 15.1167 152.262 15.1C152.129 15.0667 152.02 15.0083 151.937 14.925C151.854 14.8417 151.787 14.75 151.737 14.65C151.687 14.5333 151.654 14.4333 151.637 14.35C151.587 13.9667 151.529 13.575 151.462 13.175C151.412 12.775 151.354 12.3917 151.287 12.025C151.22 11.6417 151.137 11.2917 151.037 10.975C150.954 10.6417 150.862 10.35 150.762 10.1C150.729 10.0333 150.67 9.95 150.587 9.85C150.52 9.73333 150.437 9.625 150.337 9.525C150.254 9.425 150.17 9.34167 150.087 9.275C150.004 9.20833 149.945 9.16667 149.912 9.15C149.745 9.15 149.57 9.30833 149.387 9.625C149.204 9.925 149.029 10.2917 148.862 10.725C148.695 11.1583 148.537 11.6167 148.387 12.1C148.254 12.5667 148.154 12.9667 148.087 13.3C148.087 13.7333 148.004 14.0583 147.837 14.275C147.67 14.475 147.495 14.575 147.312 14.575C147.129 14.575 146.929 14.5083 146.712 14.375C146.512 14.225 146.379 14.0583 146.312 13.875C146.212 13.6083 146.104 13.3083 145.987 12.975C145.87 12.6417 145.745 12.3 145.612 11.95C145.495 11.6 145.37 11.2583 145.237 10.925C145.12 10.5917 145.004 10.2917 144.887 10.025C144.654 10.3417 144.42 10.6917 144.187 11.075C143.97 11.4583 143.754 11.85 143.537 12.25C143.337 12.65 143.137 13.05 142.937 13.45C142.754 13.8333 142.579 14.175 142.412 14.475C142.295 14.6583 142.17 14.825 142.037 14.975C141.904 15.1083 141.745 15.175 141.562 15.175C141.429 15.175 141.287 15.1167 141.137 15C140.987 14.8667 140.845 14.7083 140.712 14.525C140.579 14.3417 140.454 14.1333 140.337 13.9C140.237 13.6667 140.162 13.4333 140.112 13.2C139.979 12.4833 139.862 11.7 139.762 10.85C139.679 9.98333 139.595 9.14167 139.512 8.325C139.495 8.04167 139.529 7.78333 139.612 7.55C139.712 7.3 139.895 7.13333 140.162 7.05C140.445 7 140.662 7.04167 140.812 7.175C140.962 7.30833 141.054 7.51667 141.087 7.8ZM161.164 10C160.514 10.3833 159.814 10.6833 159.064 10.9C158.314 11.1 157.506 11.2 156.639 11.2C156.673 11.7833 156.839 12.25 157.139 12.6C157.439 12.9333 157.814 13.1333 158.264 13.2C158.531 13.2333 158.798 13.225 159.064 13.175C159.348 13.125 159.606 13.05 159.839 12.95C160.089 12.8333 160.314 12.7083 160.514 12.575C160.714 12.4417 160.889 12.3083 161.039 12.175C161.189 12.0417 161.348 11.9583 161.514 11.925C161.681 11.875 161.806 11.8667 161.889 11.9C162.123 11.9833 162.206 12.2333 162.139 12.65C161.873 13.1833 161.489 13.6417 160.989 14.025C160.489 14.3917 159.931 14.625 159.314 14.725C158.781 14.825 158.231 14.8 157.664 14.65C157.098 14.5 156.589 14.2083 156.139 13.775C155.756 13.3917 155.464 12.9417 155.264 12.425C155.064 11.9083 154.939 11.375 154.889 10.825C154.839 10.3083 154.881 9.81667 155.014 9.35C155.164 8.88333 155.389 8.475 155.689 8.125C155.989 7.75833 156.364 7.45833 156.814 7.225C157.264 6.99167 157.789 6.85833 158.389 6.825C159.106 6.775 159.756 6.90833 160.339 7.225C160.923 7.54167 161.331 7.98333 161.564 8.55C161.698 8.86667 161.731 9.14167 161.664 9.375C161.614 9.60833 161.448 9.81667 161.164 10ZM158.289 8.3C158.123 8.33333 157.939 8.39167 157.739 8.475C157.556 8.55833 157.381 8.66667 157.214 8.8C157.064 8.91667 156.923 9.05833 156.789 9.225C156.673 9.375 156.606 9.55 156.589 9.75C156.873 9.75 157.181 9.725 157.514 9.675C157.864 9.625 158.198 9.56667 158.514 9.5C158.848 9.41667 159.148 9.325 159.414 9.225C159.698 9.125 159.931 9.01667 160.114 8.9C159.981 8.58333 159.731 8.39167 159.364 8.325C159.014 8.24167 158.656 8.23333 158.289 8.3ZM165.479 7.625C165.529 7.875 165.579 8.15833 165.629 8.475C165.696 8.775 165.762 9.09167 165.829 9.425C165.896 9.74167 165.954 10.0667 166.004 10.4C166.054 10.7333 166.096 11.05 166.129 11.35C166.329 10.9167 166.546 10.4583 166.779 9.975C167.012 9.49167 167.262 9.05 167.529 8.65C167.812 8.23333 168.104 7.89167 168.404 7.625C168.721 7.35833 169.062 7.225 169.429 7.225C169.979 7.225 170.437 7.425 170.804 7.825C171.187 8.225 171.504 8.725 171.754 9.325C172.021 9.90833 172.229 10.525 172.379 11.175C172.529 11.825 172.654 12.4 172.754 12.9C172.854 13.35 172.654 13.6833 172.154 13.9C171.921 14.0167 171.746 14.0333 171.629 13.95C171.512 13.8667 171.446 13.7833 171.429 13.7C171.346 13.5 171.237 13.15 171.104 12.65C170.987 12.15 170.846 11.6417 170.679 11.125C170.529 10.6083 170.354 10.1583 170.154 9.775C169.954 9.39167 169.729 9.21667 169.479 9.25C169.179 9.26667 168.912 9.49167 168.679 9.925C168.479 10.275 168.271 10.6667 168.054 11.1C167.854 11.5167 167.654 11.95 167.454 12.4C167.254 12.8333 167.054 13.275 166.854 13.725C166.671 14.1583 166.496 14.5583 166.329 14.925C166.212 15.0417 166.062 15.125 165.879 15.175C165.712 15.2083 165.537 15.1917 165.354 15.125C165.187 15.075 165.054 14.9917 164.954 14.875C164.854 14.7583 164.804 14.6417 164.804 14.525C164.654 13.225 164.496 12.0417 164.329 10.975C164.179 9.90833 163.979 8.81667 163.729 7.7C163.612 7.31667 163.587 7.01667 163.654 6.8C163.737 6.56667 163.987 6.475 164.404 6.525C164.987 6.625 165.346 6.99167 165.479 7.625ZM180.15 9.175C180.466 9.15833 180.783 9.23333 181.1 9.4C181.416 9.56667 181.575 9.825 181.575 10.175C181.541 10.4583 181.383 10.6417 181.1 10.725C180.833 10.7917 180.616 10.825 180.45 10.825C180.116 10.825 179.758 10.8333 179.375 10.85C178.991 10.8667 178.6 10.8917 178.2 10.925C178.166 11.475 178.133 11.9917 178.1 12.475C178.083 12.9583 178.066 13.3917 178.05 13.775C178.033 14.1417 178.025 14.4417 178.025 14.675C178.025 14.9083 178.033 15.0333 178.05 15.05C178.416 14.9833 178.808 14.875 179.225 14.725C179.658 14.5583 180.083 14.3833 180.5 14.2C180.933 14 181.35 13.8 181.75 13.6C182.166 13.3833 182.558 13.1833 182.925 13C183.091 12.9167 183.241 12.8917 183.375 12.925C183.525 12.9583 183.616 13.0333 183.65 13.15C183.683 13.3333 183.658 13.5583 183.575 13.825C183.491 14.0917 183.341 14.3333 183.125 14.55C182.875 14.75 182.541 14.9833 182.125 15.25C181.725 15.5 181.291 15.7417 180.825 15.975C180.358 16.2083 179.883 16.4167 179.4 16.6C178.933 16.7667 178.516 16.8667 178.15 16.9C177.6 16.95 177.183 16.8 176.9 16.45C176.616 16.1 176.458 15.6583 176.425 15.125C176.391 14.5917 176.383 13.975 176.4 13.275C176.433 12.575 176.466 11.8333 176.5 11.05C176.183 11.0833 175.875 11.1167 175.575 11.15C175.291 11.1667 175.016 11.1917 174.75 11.225C174.533 11.225 174.291 11.175 174.025 11.075C173.775 10.975 173.65 10.7833 173.65 10.5C173.65 10.4 173.691 10.2667 173.775 10.1C173.858 9.93333 174.041 9.80833 174.325 9.725C175.008 9.60833 175.766 9.50833 176.6 9.425C176.65 8.64167 176.708 7.88333 176.775 7.15C176.841 6.41667 176.9 5.75 176.95 5.15C176.966 4.95 177.025 4.775 177.125 4.625C177.225 4.475 177.333 4.4 177.45 4.4C177.733 4.38333 178 4.45833 178.25 4.625C178.516 4.775 178.65 4.95 178.65 5.15C178.583 5.71667 178.516 6.35833 178.45 7.075C178.4 7.79167 178.35 8.525 178.3 9.275C178.633 9.24167 178.95 9.225 179.25 9.225C179.566 9.20833 179.866 9.19167 180.15 9.175ZM196.362 8.4C196.328 8.21667 196.295 8.04167 196.262 7.875C196.228 7.70833 196.145 7.6 196.012 7.55C195.728 7.46667 195.428 7.45833 195.112 7.525C194.795 7.59167 194.503 7.7 194.237 7.85C193.97 7.98333 193.745 8.14167 193.562 8.325C193.378 8.49167 193.278 8.64167 193.262 8.775C193.212 9.025 193.278 9.26667 193.462 9.5C193.645 9.73333 193.912 9.96667 194.262 10.2C194.845 10.55 195.453 10.9083 196.087 11.275C196.72 11.6417 197.253 12.0167 197.687 12.4C198.12 12.7833 198.412 13.2083 198.562 13.675C198.728 14.125 198.695 14.6417 198.462 15.225C198.278 15.675 197.937 16.0417 197.437 16.325C196.937 16.6083 196.387 16.8333 195.787 17C195.187 17.15 194.587 17.2583 193.987 17.325C193.387 17.375 192.878 17.4 192.462 17.4C192.362 17.4 192.237 17.3667 192.087 17.3C191.953 17.2167 191.82 17.125 191.687 17.025C191.57 16.925 191.462 16.825 191.362 16.725C191.278 16.6083 191.237 16.5083 191.237 16.425C191.237 16.125 191.37 15.9167 191.637 15.8C191.903 15.6833 192.178 15.625 192.462 15.625C192.862 15.625 193.287 15.6083 193.737 15.575C194.203 15.525 194.645 15.4583 195.062 15.375C195.478 15.275 195.853 15.15 196.187 15C196.52 14.85 196.753 14.6583 196.887 14.425C197.003 14.225 196.928 13.9917 196.662 13.725C196.412 13.4417 196.07 13.15 195.637 12.85C195.22 12.55 194.762 12.2583 194.262 11.975C193.778 11.6917 193.362 11.4333 193.012 11.2C192.662 10.9667 192.362 10.6917 192.112 10.375C191.862 10.0417 191.703 9.63333 191.637 9.15C191.62 8.71667 191.712 8.3 191.912 7.9C192.112 7.5 192.37 7.15 192.687 6.85C193.02 6.53333 193.395 6.28333 193.812 6.1C194.228 5.91667 194.645 5.825 195.062 5.825C195.778 5.85833 196.37 6.05833 196.837 6.425C197.303 6.775 197.578 7.3 197.662 8C197.662 8.23333 197.62 8.425 197.537 8.575C197.47 8.725 197.345 8.81667 197.162 8.85C196.928 8.88333 196.737 8.85833 196.587 8.775C196.453 8.675 196.378 8.55 196.362 8.4ZM205.908 7.15C206.408 7.33333 206.825 7.60833 207.158 7.975C207.508 8.34167 207.775 8.75833 207.958 9.225C208.142 9.675 208.242 10.1417 208.258 10.625C208.292 11.1083 208.242 11.5583 208.108 11.975C207.925 12.4417 207.692 12.9 207.408 13.35C207.125 13.8 206.8 14.2 206.433 14.55C206.067 14.9 205.65 15.1833 205.183 15.4C204.717 15.6167 204.2 15.725 203.633 15.725C202.95 15.725 202.375 15.5667 201.908 15.25C201.442 14.9333 201.075 14.525 200.808 14.025C200.542 13.525 200.367 12.9583 200.283 12.325C200.217 11.6917 200.233 11.0583 200.333 10.425C200.4 9.95833 200.508 9.50833 200.658 9.075C200.825 8.625 201.033 8.23333 201.283 7.9C201.533 7.55 201.817 7.26667 202.133 7.05C202.467 6.83333 202.842 6.725 203.258 6.725C203.492 6.725 203.783 6.775 204.133 6.875C204.483 6.95833 204.808 7.08333 205.108 7.25C205.325 7.05 205.592 7.01667 205.908 7.15ZM204.958 8.975C204.775 8.85833 204.558 8.70833 204.308 8.525C204.075 8.325 203.867 8.225 203.683 8.225C203.483 8.225 203.283 8.31667 203.083 8.5C202.9 8.68333 202.733 8.9 202.583 9.15C202.45 9.38333 202.333 9.625 202.233 9.875C202.133 10.125 202.067 10.325 202.033 10.475C201.983 10.725 201.95 11.025 201.933 11.375C201.917 11.725 201.942 12.075 202.008 12.425C202.075 12.7583 202.2 13.0667 202.383 13.35C202.583 13.6167 202.875 13.8083 203.258 13.925C203.492 13.9917 203.767 13.9917 204.083 13.925C204.4 13.8417 204.708 13.7 205.008 13.5C205.325 13.3 205.617 13.0333 205.883 12.7C206.167 12.3667 206.383 11.9833 206.533 11.55C206.7 11.0667 206.7 10.5667 206.533 10.05C206.383 9.51667 206.067 9.13333 205.583 8.9C205.467 8.98333 205.35 9.025 205.233 9.025C205.117 9.025 205.025 9.00833 204.958 8.975ZM211.766 7.8C211.782 8.06667 211.807 8.4 211.841 8.8C211.891 9.18333 211.941 9.59167 211.991 10.025C212.041 10.4417 212.091 10.8583 212.141 11.275C212.207 11.6917 212.266 12.075 212.316 12.425C212.499 12.0583 212.724 11.6083 212.991 11.075C213.257 10.5417 213.532 10.0333 213.816 9.55C214.116 9.05 214.416 8.63333 214.716 8.3C215.032 7.95 215.316 7.775 215.566 7.775C215.832 7.775 216.074 7.90833 216.291 8.175C216.524 8.425 216.724 8.73333 216.891 9.1C217.057 9.46667 217.199 9.85833 217.316 10.275C217.449 10.6917 217.557 11.0583 217.641 11.375C217.707 11.1583 217.791 10.9167 217.891 10.65C218.007 10.3667 218.124 10.0833 218.241 9.8C218.374 9.5 218.516 9.20833 218.666 8.925C218.832 8.64167 219.007 8.39167 219.191 8.175C219.407 7.94167 219.641 7.775 219.891 7.675C220.141 7.55833 220.324 7.5 220.441 7.5C220.591 7.5 220.766 7.55 220.966 7.65C221.182 7.73333 221.399 7.85 221.616 8C221.832 8.15 222.032 8.33333 222.216 8.55C222.416 8.75 222.574 8.95833 222.691 9.175C222.924 9.625 223.107 10.1167 223.241 10.65C223.391 11.1833 223.499 11.6917 223.566 12.175C223.632 12.6583 223.674 13.0917 223.691 13.475C223.724 13.8417 223.749 14.1 223.766 14.25C223.766 14.4667 223.741 14.6333 223.691 14.75C223.641 14.85 223.549 14.9333 223.416 15C223.232 15.0833 223.074 15.1167 222.941 15.1C222.807 15.0667 222.699 15.0083 222.616 14.925C222.532 14.8417 222.466 14.75 222.416 14.65C222.366 14.5333 222.332 14.4333 222.316 14.35C222.266 13.9667 222.207 13.575 222.141 13.175C222.091 12.775 222.032 12.3917 221.966 12.025C221.899 11.6417 221.816 11.2917 221.716 10.975C221.632 10.6417 221.541 10.35 221.441 10.1C221.407 10.0333 221.349 9.95 221.266 9.85C221.199 9.73333 221.116 9.625 221.016 9.525C220.932 9.425 220.849 9.34167 220.766 9.275C220.682 9.20833 220.624 9.16667 220.591 9.15C220.424 9.15 220.249 9.30833 220.066 9.625C219.882 9.925 219.707 10.2917 219.541 10.725C219.374 11.1583 219.216 11.6167 219.066 12.1C218.932 12.5667 218.832 12.9667 218.766 13.3C218.766 13.7333 218.682 14.0583 218.516 14.275C218.349 14.475 218.174 14.575 217.991 14.575C217.807 14.575 217.607 14.5083 217.391 14.375C217.191 14.225 217.057 14.0583 216.991 13.875C216.891 13.6083 216.782 13.3083 216.666 12.975C216.549 12.6417 216.424 12.3 216.291 11.95C216.174 11.6 216.049 11.2583 215.916 10.925C215.799 10.5917 215.682 10.2917 215.566 10.025C215.332 10.3417 215.099 10.6917 214.866 11.075C214.649 11.4583 214.432 11.85 214.216 12.25C214.016 12.65 213.816 13.05 213.616 13.45C213.432 13.8333 213.257 14.175 213.091 14.475C212.974 14.6583 212.849 14.825 212.716 14.975C212.582 15.1083 212.424 15.175 212.241 15.175C212.107 15.175 211.966 15.1167 211.816 15C211.666 14.8667 211.524 14.7083 211.391 14.525C211.257 14.3417 211.132 14.1333 211.016 13.9C210.916 13.6667 210.841 13.4333 210.791 13.2C210.657 12.4833 210.541 11.7 210.441 10.85C210.357 9.98333 210.274 9.14167 210.191 8.325C210.174 8.04167 210.207 7.78333 210.291 7.55C210.391 7.3 210.574 7.13333 210.841 7.05C211.124 7 211.341 7.04167 211.491 7.175C211.641 7.30833 211.732 7.51667 211.766 7.8ZM237.025 3.2C236.975 2.9 236.992 2.625 237.075 2.375C237.175 2.125 237.367 1.98333 237.65 1.95C237.9 1.91667 238.117 1.98333 238.3 2.15C238.5 2.31667 238.625 2.53333 238.675 2.8C239.008 4.71667 239.317 6.625 239.6 8.525C239.9 10.4083 240.167 12.2583 240.4 14.075C240.467 14.5583 240.433 14.8917 240.3 15.075C240.167 15.2417 240.008 15.3667 239.825 15.45C239.625 15.5333 239.433 15.5333 239.25 15.45C239.083 15.3667 238.975 15.2167 238.925 15L238.9 14.85L238.8 14.875C238.25 15.075 237.675 15.1917 237.075 15.225C236.475 15.2417 235.9 15.1667 235.35 15C234.8 14.8333 234.308 14.5667 233.875 14.2C233.458 13.8167 233.158 13.3333 232.975 12.75C232.575 11.4667 232.825 10.3 233.725 9.25C234.108 8.81667 234.583 8.425 235.15 8.075C235.717 7.725 236.4 7.45 237.2 7.25L237.65 7.15L237.025 3.2ZM234.5 12.125C234.6 12.525 234.783 12.8333 235.05 13.05C235.317 13.2667 235.633 13.4167 236 13.5C236.367 13.5667 236.758 13.575 237.175 13.525C237.592 13.475 238 13.3833 238.4 13.25L238.625 13.175L237.925 8.775L237.425 8.9C237.075 9 236.7 9.15833 236.3 9.375C235.917 9.575 235.575 9.81667 235.275 10.1C234.975 10.3833 234.742 10.7 234.575 11.05C234.425 11.4 234.4 11.7583 234.5 12.125ZM243.885 8.475C243.785 8.925 243.685 9.425 243.585 9.975C243.485 10.5083 243.41 11.025 243.36 11.525C243.327 12.025 243.327 12.475 243.36 12.875C243.41 13.275 243.519 13.5583 243.685 13.725C243.969 13.775 244.294 13.6583 244.66 13.375C245.027 13.075 245.385 12.7 245.735 12.25C246.085 11.8 246.402 11.3167 246.685 10.8C246.969 10.2667 247.169 9.8 247.285 9.4C247.352 9.2 247.41 8.99167 247.46 8.775C247.51 8.55833 247.535 8.33333 247.535 8.1C247.535 7.96667 247.619 7.84167 247.785 7.725C247.969 7.59167 248.119 7.51667 248.235 7.5C248.319 7.48333 248.41 7.5 248.51 7.55C248.627 7.6 248.727 7.675 248.81 7.775C248.91 7.85833 248.994 7.96667 249.06 8.1C249.144 8.21667 249.185 8.34167 249.185 8.475C249.219 8.975 249.269 9.525 249.335 10.125C249.402 10.725 249.477 11.325 249.56 11.925C249.66 12.525 249.76 13.1083 249.86 13.675C249.96 14.2417 250.06 14.75 250.16 15.2C250.21 15.3833 250.16 15.5917 250.01 15.825C249.86 16.0583 249.694 16.2 249.51 16.25C249.36 16.2833 249.202 16.2667 249.035 16.2C248.885 16.1333 248.769 16 248.685 15.8C248.602 15.5667 248.519 15.2833 248.435 14.95C248.369 14.6 248.302 14.2417 248.235 13.875C248.185 13.4917 248.135 13.1333 248.085 12.8C248.035 12.45 248.002 12.1583 247.985 11.925C247.735 12.375 247.435 12.8333 247.085 13.3C246.752 13.75 246.385 14.1667 245.985 14.55C245.602 14.9167 245.194 15.2083 244.76 15.425C244.344 15.625 243.91 15.7 243.46 15.65C242.794 15.5667 242.285 14.9417 241.935 13.775C241.802 13.3083 241.735 12.7917 241.735 12.225C241.752 11.6583 241.794 11.1 241.86 10.55C241.944 9.98333 242.035 9.45 242.135 8.95C242.252 8.45 242.352 8.04167 242.435 7.725C242.469 7.59167 242.535 7.475 242.635 7.375C242.735 7.25833 242.852 7.21667 242.985 7.25C243.235 7.3 243.46 7.45 243.66 7.7C243.877 7.95 243.952 8.20833 243.885 8.475ZM2.56162 25.175C2.57829 25.4417 2.58662 25.7667 2.58662 26.15C2.60329 26.5333 2.61995 26.95 2.63662 27.4C2.65329 27.85 2.67829 28.3083 2.71162 28.775C2.74495 29.225 2.79495 29.6583 2.86162 30.075C3.11162 29.6583 3.39495 29.3417 3.71162 29.125C4.04495 28.9083 4.37829 28.775 4.71162 28.725C5.22829 28.6583 5.67829 28.7167 6.06162 28.9C6.44495 29.0833 6.76162 29.3417 7.01162 29.675C7.26162 29.9917 7.44495 30.35 7.56162 30.75C7.67829 31.1333 7.73662 31.5083 7.73662 31.875C7.73662 32.6583 7.52829 33.3833 7.11162 34.05C6.71162 34.7167 6.23662 35.3083 5.68662 35.825C5.15329 36.3417 4.61995 36.775 4.08662 37.125C3.56995 37.475 3.19495 37.725 2.96162 37.875C2.62829 38.0083 2.30329 38.0417 1.98662 37.975C1.66995 37.9083 1.46162 37.8083 1.36162 37.675C1.27829 37.475 1.25329 37.3083 1.28662 37.175C1.31995 37.025 1.38662 36.8917 1.48662 36.775C1.58662 36.6583 1.70329 36.5583 1.83662 36.475C1.98662 36.375 2.11162 36.2833 2.21162 36.2C1.81162 34.3667 1.50329 32.5167 1.28662 30.65C1.06995 28.7667 0.978288 26.8583 1.01162 24.925C1.01162 24.5917 1.07829 24.4 1.21162 24.35C1.36162 24.3 1.48662 24.275 1.58662 24.275C1.81995 24.3083 2.02829 24.4 2.21162 24.55C2.39495 24.7 2.51162 24.9083 2.56162 25.175ZM6.21162 31.8C6.21162 31.2333 6.06995 30.8417 5.78662 30.625C5.50329 30.3917 5.21162 30.2917 4.91162 30.325C4.66162 30.3583 4.43662 30.45 4.23662 30.6C4.03662 30.75 3.86162 30.9333 3.71162 31.15C3.56162 31.3667 3.44495 31.6083 3.36162 31.875C3.29495 32.1417 3.26995 32.4 3.28662 32.65C3.31995 33.0667 3.36162 33.5167 3.41162 34C3.47829 34.4833 3.55329 34.9167 3.63662 35.3C3.90329 35.1167 4.18662 34.9083 4.48662 34.675C4.78662 34.425 5.06162 34.15 5.31162 33.85C5.57829 33.55 5.79495 33.2333 5.96162 32.9C6.12829 32.55 6.21162 32.1833 6.21162 31.8ZM15.5345 32C14.8845 32.3833 14.1845 32.6833 13.4345 32.9C12.6845 33.1 11.8761 33.2 11.0095 33.2C11.0428 33.7833 11.2095 34.25 11.5095 34.6C11.8095 34.9333 12.1845 35.1333 12.6345 35.2C12.9011 35.2333 13.1678 35.225 13.4345 35.175C13.7178 35.125 13.9761 35.05 14.2095 34.95C14.4595 34.8333 14.6845 34.7083 14.8845 34.575C15.0845 34.4417 15.2595 34.3083 15.4095 34.175C15.5595 34.0417 15.7178 33.9583 15.8845 33.925C16.0511 33.875 16.1761 33.8667 16.2595 33.9C16.4928 33.9833 16.5761 34.2333 16.5095 34.65C16.2428 35.1833 15.8595 35.6417 15.3595 36.025C14.8595 36.3917 14.3011 36.625 13.6845 36.725C13.1511 36.825 12.6011 36.8 12.0345 36.65C11.4678 36.5 10.9595 36.2083 10.5095 35.775C10.1261 35.3917 9.83447 34.9417 9.63447 34.425C9.43447 33.9083 9.30947 33.375 9.25947 32.825C9.20947 32.3083 9.25114 31.8167 9.38447 31.35C9.53447 30.8833 9.75947 30.475 10.0595 30.125C10.3595 29.7583 10.7345 29.4583 11.1845 29.225C11.6345 28.9917 12.1595 28.8583 12.7595 28.825C13.4761 28.775 14.1261 28.9083 14.7095 29.225C15.2928 29.5417 15.7011 29.9833 15.9345 30.55C16.0678 30.8667 16.1011 31.1417 16.0345 31.375C15.9845 31.6083 15.8178 31.8167 15.5345 32ZM12.6595 30.3C12.4928 30.3333 12.3095 30.3917 12.1095 30.475C11.9261 30.5583 11.7511 30.6667 11.5845 30.8C11.4345 30.9167 11.2928 31.0583 11.1595 31.225C11.0428 31.375 10.9761 31.55 10.9595 31.75C11.2428 31.75 11.5511 31.725 11.8845 31.675C12.2345 31.625 12.5678 31.5667 12.8845 31.5C13.2178 31.4167 13.5178 31.325 13.7845 31.225C14.0678 31.125 14.3011 31.0167 14.4845 30.9C14.3511 30.5833 14.1011 30.3917 13.7345 30.325C13.3845 30.2417 13.0261 30.2333 12.6595 30.3ZM19.9991 26.8C19.9991 27.2 19.9908 27.65 19.9741 28.15C19.9741 28.65 19.9741 29.1667 19.9741 29.7C19.9908 30.2333 19.9991 30.7833 19.9991 31.35C20.0158 31.9167 20.0325 32.4583 20.0491 32.975C20.2158 32.6417 20.4158 32.3167 20.6491 32C20.8825 31.6667 21.1408 31.375 21.4241 31.125C21.7241 30.875 22.0325 30.675 22.3491 30.525C22.6825 30.375 23.0408 30.3 23.4241 30.3C23.8408 30.3 24.2075 30.4333 24.5241 30.7C24.8575 30.9667 25.1408 31.325 25.3741 31.775C25.6241 32.2083 25.8325 32.7 25.9991 33.25C26.1658 33.7833 26.2991 34.3333 26.3991 34.9C26.5158 35.45 26.5991 35.9833 26.6491 36.5C26.6991 37 26.7408 37.4333 26.7741 37.8C26.7741 38.0667 26.7075 38.2833 26.5741 38.45C26.4408 38.6167 26.2825 38.7 26.0991 38.7C25.9658 38.7 25.7991 38.6167 25.5991 38.45C25.4158 38.2667 25.2825 38.05 25.1991 37.8C25.1491 37.6 25.0991 37.3083 25.0491 36.925C24.9991 36.5417 24.9408 36.1333 24.8741 35.7C24.8075 35.25 24.7241 34.8 24.6241 34.35C24.5241 33.9 24.3991 33.5 24.2491 33.15C24.1158 32.7833 23.9491 32.5 23.7491 32.3C23.5491 32.1 23.3158 32.025 23.0491 32.075C22.6325 32.1583 22.2658 32.45 21.9491 32.95C21.6491 33.45 21.3825 34.0167 21.1491 34.65C20.9325 35.2833 20.7491 35.925 20.5991 36.575C20.4658 37.225 20.3658 37.75 20.2991 38.15C20.2325 38.45 20.1408 38.6583 20.0241 38.775C19.9241 38.875 19.8075 38.925 19.6741 38.925C19.5408 38.925 19.4158 38.8583 19.2991 38.725C19.1991 38.5917 19.0991 38.4333 18.9991 38.25C18.9158 38.05 18.8408 37.85 18.7741 37.65C18.7075 37.4333 18.6658 37.25 18.6491 37.1C18.5658 36.2 18.4991 35.3417 18.4491 34.525C18.3991 33.6917 18.3575 32.8583 18.3241 32.025C18.3075 31.1917 18.2991 30.3417 18.2991 29.475C18.2991 28.5917 18.3158 27.65 18.3491 26.65C18.3491 25.8167 18.6491 25.4417 19.2491 25.525C19.4491 25.5583 19.6241 25.7083 19.7741 25.975C19.9241 26.225 19.9991 26.5 19.9991 26.8ZM41.3263 34.275C41.3263 35.3917 41.1763 36.3833 40.8763 37.25C40.5929 38.1 40.1763 38.825 39.6263 39.425C39.0929 40.025 38.4346 40.4833 37.6513 40.8C36.8846 41.1 36.0263 41.25 35.0763 41.25C34.1929 41.25 33.3763 41.1 32.6263 40.8C31.8763 40.4833 31.2263 40.025 30.6763 39.425C30.1263 38.825 29.6929 38.1 29.3763 37.25C29.0763 36.3833 28.9263 35.3917 28.9263 34.275C28.9263 32.7917 29.1763 31.5417 29.6763 30.525C30.1763 29.4917 30.8929 28.7083 31.8263 28.175C32.7596 27.625 33.8679 27.35 35.1513 27.35C36.3679 27.35 37.4346 27.625 38.3513 28.175C39.2846 28.7083 40.0096 29.4917 40.5263 30.525C41.0596 31.5417 41.3263 32.7917 41.3263 34.275ZM31.2013 34.275C31.2013 35.325 31.3346 36.2417 31.6013 37.025C31.8846 37.7917 32.3179 38.3833 32.9013 38.8C33.4846 39.2167 34.2263 39.425 35.1263 39.425C36.0263 39.425 36.7679 39.2167 37.3513 38.8C37.9346 38.3833 38.3596 37.7917 38.6263 37.025C38.9096 36.2417 39.0513 35.325 39.0513 34.275C39.0513 33.2083 38.9096 32.3 38.6263 31.55C38.3429 30.8 37.9096 30.225 37.3263 29.825C36.7596 29.4083 36.0179 29.2 35.1013 29.2C33.7346 29.2 32.7429 29.65 32.1263 30.55C31.5096 31.45 31.2013 32.6917 31.2013 34.275ZM31.6263 23.975C31.6263 23.5417 31.7429 23.2333 31.9763 23.05C32.2096 22.85 32.4846 22.75 32.8013 22.75C33.1179 22.75 33.3929 22.85 33.6263 23.05C33.8596 23.2333 33.9763 23.5417 33.9763 23.975C33.9763 24.3917 33.8596 24.7083 33.6263 24.925C33.3929 25.125 33.1179 25.225 32.8013 25.225C32.4846 25.225 32.2096 25.125 31.9763 24.925C31.7429 24.7083 31.6263 24.3917 31.6263 23.975ZM36.3263 23.975C36.3263 23.5417 36.4346 23.2333 36.6513 23.05C36.8846 22.85 37.1596 22.75 37.4763 22.75C37.7929 22.75 38.0679 22.85 38.3013 23.05C38.5346 23.2333 38.6513 23.5417 38.6513 23.975C38.6513 24.3917 38.5346 24.7083 38.3013 24.925C38.0679 25.125 37.7929 25.225 37.4763 25.225C37.1596 25.225 36.8846 25.125 36.6513 24.925C36.4346 24.7083 36.3263 24.3917 36.3263 23.975ZM52.138 28.8C51.8713 29.25 51.6047 29.6917 51.338 30.125C51.0713 30.5583 50.7797 31.0583 50.463 31.625C50.163 32.175 49.813 32.8167 49.413 33.55C49.013 34.2833 48.5463 35.175 48.013 36.225C47.8797 36.475 47.7463 36.675 47.613 36.825C47.4797 36.975 47.3213 37.05 47.138 37.05C46.888 37.05 46.688 36.9833 46.538 36.85C46.4047 36.7 46.288 36.5417 46.188 36.375C45.638 35.4583 45.0963 34.4417 44.563 33.325C44.0297 32.2083 43.5963 31.1167 43.263 30.05C43.2297 29.9667 43.2297 29.875 43.263 29.775C43.313 29.6583 43.3797 29.5833 43.463 29.55C43.6297 29.4667 43.8463 29.4583 44.113 29.525C44.313 29.6083 44.513 29.7583 44.713 29.975C44.913 30.1917 45.0713 30.4167 45.188 30.65C45.288 30.8833 45.4047 31.15 45.538 31.45C45.6713 31.75 45.813 32.075 45.963 32.425C46.1297 32.7583 46.2963 33.0917 46.463 33.425C46.6297 33.7583 46.7963 34.0583 46.963 34.325C47.2463 33.825 47.5463 33.2917 47.863 32.725C48.1963 32.1417 48.5297 31.5583 48.863 30.975C49.1963 30.375 49.5297 29.8 49.863 29.25C50.213 28.7 50.5547 28.2083 50.888 27.775C50.9713 27.6583 51.088 27.5917 51.238 27.575C51.388 27.5583 51.5547 27.6167 51.738 27.75C52.1547 28.0667 52.288 28.4167 52.138 28.8ZM59.8704 32C59.2204 32.3833 58.5204 32.6833 57.7704 32.9C57.0204 33.1 56.2121 33.2 55.3454 33.2C55.3787 33.7833 55.5454 34.25 55.8454 34.6C56.1454 34.9333 56.5204 35.1333 56.9704 35.2C57.2371 35.2333 57.5037 35.225 57.7704 35.175C58.0537 35.125 58.3121 35.05 58.5454 34.95C58.7954 34.8333 59.0204 34.7083 59.2204 34.575C59.4204 34.4417 59.5954 34.3083 59.7454 34.175C59.8954 34.0417 60.0537 33.9583 60.2204 33.925C60.3871 33.875 60.5121 33.8667 60.5954 33.9C60.8287 33.9833 60.9121 34.2333 60.8454 34.65C60.5787 35.1833 60.1954 35.6417 59.6954 36.025C59.1954 36.3917 58.6371 36.625 58.0204 36.725C57.4871 36.825 56.9371 36.8 56.3704 36.65C55.8037 36.5 55.2954 36.2083 54.8454 35.775C54.4621 35.3917 54.1704 34.9417 53.9704 34.425C53.7704 33.9083 53.6454 33.375 53.5954 32.825C53.5454 32.3083 53.5871 31.8167 53.7204 31.35C53.8704 30.8833 54.0954 30.475 54.3954 30.125C54.6954 29.7583 55.0704 29.4583 55.5204 29.225C55.9704 28.9917 56.4954 28.8583 57.0954 28.825C57.8121 28.775 58.4621 28.9083 59.0454 29.225C59.6287 29.5417 60.0371 29.9833 60.2704 30.55C60.4037 30.8667 60.4371 31.1417 60.3704 31.375C60.3204 31.6083 60.1537 31.8167 59.8704 32ZM56.9954 30.3C56.8287 30.3333 56.6454 30.3917 56.4454 30.475C56.2621 30.5583 56.0871 30.6667 55.9204 30.8C55.7704 30.9167 55.6287 31.0583 55.4954 31.225C55.3787 31.375 55.3121 31.55 55.2954 31.75C55.5787 31.75 55.8871 31.725 56.2204 31.675C56.5704 31.625 56.9037 31.5667 57.2204 31.5C57.5537 31.4167 57.8537 31.325 58.1204 31.225C58.4037 31.125 58.6371 31.0167 58.8204 30.9C58.6871 30.5833 58.4371 30.3917 58.0704 30.325C57.7204 30.2417 57.3621 30.2333 56.9954 30.3ZM70.0601 29.25C69.7601 29.4167 69.4434 29.5917 69.1101 29.775C68.7934 29.9583 68.4684 30.175 68.1351 30.425C67.8184 30.6583 67.5101 30.9417 67.2101 31.275C66.9267 31.5917 66.6684 31.975 66.4351 32.425C66.1017 33.0583 65.8767 33.7083 65.7601 34.375C65.6434 35.025 65.5684 35.6667 65.5351 36.3C65.5351 36.6 65.4601 36.9083 65.3101 37.225C65.1767 37.525 64.9851 37.675 64.7351 37.675C64.4184 37.675 64.1601 37.5167 63.9601 37.2C63.7767 36.8667 63.6517 36.55 63.5851 36.25C63.3017 35.0667 63.0684 33.9 62.8851 32.75C62.7017 31.5833 62.5434 30.425 62.4101 29.275C62.4101 29.0417 62.4767 28.8917 62.6101 28.825C62.7601 28.7583 62.9267 28.7333 63.1101 28.75C63.3101 28.7667 63.5017 28.8167 63.6851 28.9C63.8684 28.9833 63.9767 29.1167 64.0101 29.3C64.0767 29.9167 64.1601 30.5667 64.2601 31.25C64.3601 31.9167 64.4601 32.4917 64.5601 32.975C64.6267 32.4083 64.8101 31.8583 65.1101 31.325C65.4101 30.7917 65.7767 30.3083 66.2101 29.875C66.6601 29.4417 67.1601 29.075 67.7101 28.775C68.2767 28.475 68.8517 28.275 69.4351 28.175C69.6851 28.1417 69.8934 28.1417 70.0601 28.175C70.2267 28.2083 70.3434 28.2667 70.4101 28.35C70.4767 28.4333 70.4851 28.5667 70.4351 28.75C70.4017 28.9333 70.2767 29.1 70.0601 29.25ZM84.3263 29.15C84.8263 29.3333 85.2429 29.6083 85.5763 29.975C85.9263 30.3417 86.1929 30.7583 86.3763 31.225C86.5596 31.675 86.6596 32.1417 86.6763 32.625C86.7096 33.1083 86.6596 33.5583 86.5263 33.975C86.3429 34.4417 86.1096 34.9 85.8263 35.35C85.5429 35.8 85.2179 36.2 84.8513 36.55C84.4846 36.9 84.0679 37.1833 83.6013 37.4C83.1346 37.6167 82.6179 37.725 82.0513 37.725C81.3679 37.725 80.7929 37.5667 80.3263 37.25C79.8596 36.9333 79.4929 36.525 79.2263 36.025C78.9596 35.525 78.7846 34.9583 78.7013 34.325C78.6346 33.6917 78.6513 33.0583 78.7513 32.425C78.8179 31.9583 78.9263 31.5083 79.0763 31.075C79.2429 30.625 79.4513 30.2333 79.7013 29.9C79.9513 29.55 80.2346 29.2667 80.5513 29.05C80.8846 28.8333 81.2596 28.725 81.6763 28.725C81.9096 28.725 82.2013 28.775 82.5513 28.875C82.9013 28.9583 83.2263 29.0833 83.5263 29.25C83.7429 29.05 84.0096 29.0167 84.3263 29.15ZM83.3763 30.975C83.1929 30.8583 82.9763 30.7083 82.7263 30.525C82.4929 30.325 82.2846 30.225 82.1013 30.225C81.9013 30.225 81.7013 30.3167 81.5013 30.5C81.3179 30.6833 81.1513 30.9 81.0013 31.15C80.8679 31.3833 80.7513 31.625 80.6513 31.875C80.5513 32.125 80.4846 32.325 80.4513 32.475C80.4013 32.725 80.3679 33.025 80.3513 33.375C80.3346 33.725 80.3596 34.075 80.4263 34.425C80.4929 34.7583 80.6179 35.0667 80.8013 35.35C81.0013 35.6167 81.2929 35.8083 81.6763 35.925C81.9096 35.9917 82.1846 35.9917 82.5013 35.925C82.8179 35.8417 83.1263 35.7 83.4263 35.5C83.7429 35.3 84.0346 35.0333 84.3013 34.7C84.5846 34.3667 84.8013 33.9833 84.9513 33.55C85.1179 33.0667 85.1179 32.5667 84.9513 32.05C84.8013 31.5167 84.4846 31.1333 84.0013 30.9C83.8846 30.9833 83.7679 31.025 83.6513 31.025C83.5346 31.025 83.4429 31.0083 83.3763 30.975ZM94.4337 31.45C94.317 31.5167 94.1754 31.5417 94.0087 31.525C93.842 31.4917 93.7004 31.3833 93.5837 31.2C93.317 30.85 92.992 30.675 92.6087 30.675C92.2587 30.675 91.942 30.7583 91.6587 30.925C91.392 31.075 91.1504 31.2833 90.9337 31.55C90.7337 31.8 90.567 32.0833 90.4337 32.4C90.3004 32.7167 90.2087 33.0333 90.1587 33.35C90.0754 33.9333 90.1754 34.425 90.4587 34.825C90.742 35.225 91.1837 35.425 91.7837 35.425C92.267 35.4417 92.8087 35.35 93.4087 35.15C94.0254 34.9333 94.6004 34.6583 95.1337 34.325C95.367 34.225 95.5837 34.1667 95.7837 34.15C95.9837 34.1333 96.1504 34.2333 96.2837 34.45C96.4504 34.7167 96.4087 34.9917 96.1587 35.275C95.9087 35.5417 95.5754 35.7833 95.1587 36C94.742 36.2333 94.3004 36.4417 93.8337 36.625C93.3837 36.7917 92.9254 36.9167 92.4587 37C91.992 37.0667 91.5254 37.0667 91.0587 37C90.6087 36.9333 90.1837 36.775 89.7837 36.525C89.1504 36.0917 88.767 35.475 88.6337 34.675C88.5004 33.875 88.5587 33.05 88.8087 32.2C88.9087 31.8833 89.0504 31.5667 89.2337 31.25C89.417 30.9167 89.6337 30.6167 89.8837 30.35C90.1504 30.0833 90.442 29.8583 90.7587 29.675C91.0754 29.475 91.4254 29.3417 91.8087 29.275C92.4254 29.175 93.017 29.2417 93.5837 29.475C94.1504 29.6917 94.5254 30.1 94.7087 30.7C94.742 30.8333 94.742 30.975 94.7087 31.125C94.6754 31.2583 94.5837 31.3667 94.4337 31.45ZM99.4913 26.8C99.4913 27.2 99.483 27.65 99.4663 28.15C99.4663 28.65 99.4663 29.1667 99.4663 29.7C99.483 30.2333 99.4913 30.7833 99.4913 31.35C99.508 31.9167 99.5246 32.4583 99.5413 32.975C99.708 32.6417 99.908 32.3167 100.141 32C100.375 31.6667 100.633 31.375 100.916 31.125C101.216 30.875 101.525 30.675 101.841 30.525C102.175 30.375 102.533 30.3 102.916 30.3C103.333 30.3 103.7 30.4333 104.016 30.7C104.35 30.9667 104.633 31.325 104.866 31.775C105.116 32.2083 105.325 32.7 105.491 33.25C105.658 33.7833 105.791 34.3333 105.891 34.9C106.008 35.45 106.091 35.9833 106.141 36.5C106.191 37 106.233 37.4333 106.266 37.8C106.266 38.0667 106.2 38.2833 106.066 38.45C105.933 38.6167 105.775 38.7 105.591 38.7C105.458 38.7 105.291 38.6167 105.091 38.45C104.908 38.2667 104.775 38.05 104.691 37.8C104.641 37.6 104.591 37.3083 104.541 36.925C104.491 36.5417 104.433 36.1333 104.366 35.7C104.3 35.25 104.216 34.8 104.116 34.35C104.016 33.9 103.891 33.5 103.741 33.15C103.608 32.7833 103.441 32.5 103.241 32.3C103.041 32.1 102.808 32.025 102.541 32.075C102.125 32.1583 101.758 32.45 101.441 32.95C101.141 33.45 100.875 34.0167 100.641 34.65C100.425 35.2833 100.241 35.925 100.091 36.575C99.958 37.225 99.858 37.75 99.7913 38.15C99.7246 38.45 99.633 38.6583 99.5163 38.775C99.4163 38.875 99.2996 38.925 99.1663 38.925C99.033 38.925 98.908 38.8583 98.7913 38.725C98.6913 38.5917 98.5913 38.4333 98.4913 38.25C98.408 38.05 98.333 37.85 98.2663 37.65C98.1996 37.4333 98.158 37.25 98.1413 37.1C98.058 36.2 97.9913 35.3417 97.9413 34.525C97.8913 33.6917 97.8496 32.8583 97.8163 32.025C97.7996 31.1917 97.7913 30.3417 97.7913 29.475C97.7913 28.5917 97.808 27.65 97.8413 26.65C97.8413 25.8167 98.1413 25.4417 98.7413 25.525C98.9413 25.5583 99.1163 25.7083 99.2663 25.975C99.4163 26.225 99.4913 26.5 99.4913 26.8ZM115.95 33.325C115.717 33.3583 115.442 33.3333 115.125 33.25C114.825 33.1667 114.617 32.9583 114.5 32.625C114.45 32.4583 114.442 32.3 114.475 32.15C114.509 31.9833 114.684 31.8667 115 31.8C115.3 31.7333 115.617 31.675 115.95 31.625C116.3 31.5583 116.65 31.5 117 31.45L116.075 28.65C115.792 27.5833 115.759 26.6667 115.975 25.9C116.192 25.1333 116.809 24.5833 117.825 24.25C118.242 24.1167 118.65 24.0667 119.05 24.1C119.467 24.1333 119.859 24.2417 120.225 24.425C120.592 24.6083 120.925 24.85 121.225 25.15C121.525 25.45 121.767 25.8 121.95 26.2C122.017 26.3833 122.05 26.55 122.05 26.7C122.067 26.8333 122.017 26.9583 121.9 27.075C121.734 27.2417 121.55 27.3167 121.35 27.3C121.15 27.2667 121.017 27.2083 120.95 27.125C120.8 26.9417 120.634 26.7583 120.45 26.575C120.284 26.375 120.1 26.2083 119.9 26.075C119.717 25.925 119.517 25.8167 119.3 25.75C119.084 25.6667 118.85 25.6417 118.6 25.675C118.484 25.6917 118.342 25.75 118.175 25.85C118.025 25.95 117.892 26.1083 117.775 26.325C117.659 26.525 117.584 26.7917 117.55 27.125C117.534 27.4583 117.592 27.875 117.725 28.375C117.842 28.7917 117.975 29.2417 118.125 29.725C118.275 30.2083 118.442 30.7167 118.625 31.25C119.425 31.1667 120.159 31.1417 120.825 31.175C121.192 31.2083 121.534 31.275 121.85 31.375C122.167 31.475 122.425 31.625 122.625 31.825C122.675 31.9917 122.667 32.1333 122.6 32.25C122.534 32.35 122.434 32.4417 122.3 32.525C122.184 32.5917 122.042 32.6417 121.875 32.675C121.725 32.7083 121.575 32.7333 121.425 32.75C121.092 32.7833 120.742 32.825 120.375 32.875C120.009 32.9083 119.625 32.9417 119.225 32.975C119.492 33.725 119.734 34.4417 119.95 35.125C120.184 35.7917 120.367 36.35 120.5 36.8C120.567 37.05 120.575 37.3167 120.525 37.6C120.475 37.8833 120.409 38.1583 120.325 38.425C120.192 38.8083 120.025 39.1167 119.825 39.35C119.625 39.5833 119.409 39.6583 119.175 39.575C118.992 39.4917 118.875 39.3833 118.825 39.25C118.775 39.1167 118.767 38.9333 118.8 38.7C118.834 38.4333 118.85 38.1667 118.85 37.9C118.85 37.6333 118.834 37.3917 118.8 37.175C118.784 36.9417 118.75 36.7417 118.7 36.575C118.667 36.3917 118.642 36.2667 118.625 36.2L117.575 33.15C117.309 33.1833 117.042 33.2167 116.775 33.25C116.509 33.2667 116.234 33.2917 115.95 33.325ZM130.528 27.375C132.161 27.375 133.369 27.7333 134.153 28.45C134.936 29.1667 135.328 30.3083 135.328 31.875V41H133.728L133.303 39.1H133.203C132.819 39.5833 132.419 39.9917 132.003 40.325C131.603 40.6417 131.136 40.875 130.603 41.025C130.086 41.175 129.453 41.25 128.703 41.25C127.903 41.25 127.178 41.1083 126.528 40.825C125.894 40.5417 125.394 40.1083 125.028 39.525C124.661 38.925 124.478 38.175 124.478 37.275C124.478 35.9417 125.003 34.9167 126.053 34.2C127.103 33.4667 128.719 33.0667 130.903 33L133.178 32.925V32.125C133.178 31.0083 132.936 30.2333 132.453 29.8C131.969 29.3667 131.286 29.15 130.403 29.15C129.703 29.15 129.036 29.2583 128.403 29.475C127.769 29.675 127.178 29.9083 126.628 30.175L125.953 28.525C126.536 28.2083 127.228 27.9417 128.028 27.725C128.828 27.4917 129.661 27.375 130.528 27.375ZM131.178 34.525C129.511 34.5917 128.353 34.8583 127.703 35.325C127.069 35.7917 126.753 36.45 126.753 37.3C126.753 38.05 126.978 38.6 127.428 38.95C127.894 39.3 128.486 39.475 129.203 39.475C130.336 39.475 131.278 39.1667 132.028 38.55C132.778 37.9167 133.153 36.95 133.153 35.65V34.45L131.178 34.525ZM130.328 25.85C129.511 25.85 128.853 25.6167 128.353 25.15C127.853 24.6833 127.603 24.0333 127.603 23.2C127.603 22.3667 127.853 21.725 128.353 21.275C128.853 20.8083 129.511 20.575 130.328 20.575C131.111 20.575 131.769 20.8083 132.303 21.275C132.836 21.725 133.103 22.3583 133.103 23.175C133.103 24.025 132.836 24.6833 132.303 25.15C131.786 25.6167 131.128 25.85 130.328 25.85ZM130.328 24.6C130.744 24.6 131.078 24.475 131.328 24.225C131.594 23.975 131.728 23.6333 131.728 23.2C131.728 22.7667 131.594 22.425 131.328 22.175C131.061 21.925 130.728 21.8 130.328 21.8C129.928 21.8 129.594 21.925 129.328 22.175C129.061 22.425 128.928 22.7667 128.928 23.2C128.928 23.6333 129.044 23.975 129.278 24.225C129.528 24.475 129.878 24.6 130.328 24.6ZM150.048 30.4C150.015 30.2167 149.981 30.0417 149.948 29.875C149.915 29.7083 149.831 29.6 149.698 29.55C149.415 29.4667 149.115 29.4583 148.798 29.525C148.481 29.5917 148.19 29.7 147.923 29.85C147.656 29.9833 147.431 30.1417 147.248 30.325C147.065 30.4917 146.965 30.6417 146.948 30.775C146.898 31.025 146.965 31.2667 147.148 31.5C147.331 31.7333 147.598 31.9667 147.948 32.2C148.531 32.55 149.14 32.9083 149.773 33.275C150.406 33.6417 150.94 34.0167 151.373 34.4C151.806 34.7833 152.098 35.2083 152.248 35.675C152.415 36.125 152.381 36.6417 152.148 37.225C151.965 37.675 151.623 38.0417 151.123 38.325C150.623 38.6083 150.073 38.8333 149.473 39C148.873 39.15 148.273 39.2583 147.673 39.325C147.073 39.375 146.565 39.4 146.148 39.4C146.048 39.4 145.923 39.3667 145.773 39.3C145.64 39.2167 145.506 39.125 145.373 39.025C145.256 38.925 145.148 38.825 145.048 38.725C144.965 38.6083 144.923 38.5083 144.923 38.425C144.923 38.125 145.056 37.9167 145.323 37.8C145.59 37.6833 145.865 37.625 146.148 37.625C146.548 37.625 146.973 37.6083 147.423 37.575C147.89 37.525 148.331 37.4583 148.748 37.375C149.165 37.275 149.54 37.15 149.873 37C150.206 36.85 150.44 36.6583 150.573 36.425C150.69 36.225 150.615 35.9917 150.348 35.725C150.098 35.4417 149.756 35.15 149.323 34.85C148.906 34.55 148.448 34.2583 147.948 33.975C147.465 33.6917 147.048 33.4333 146.698 33.2C146.348 32.9667 146.048 32.6917 145.798 32.375C145.548 32.0417 145.39 31.6333 145.323 31.15C145.306 30.7167 145.398 30.3 145.598 29.9C145.798 29.5 146.056 29.15 146.373 28.85C146.706 28.5333 147.081 28.2833 147.498 28.1C147.915 27.9167 148.331 27.825 148.748 27.825C149.465 27.8583 150.056 28.0583 150.523 28.425C150.99 28.775 151.265 29.3 151.348 30C151.348 30.2333 151.306 30.425 151.223 30.575C151.156 30.725 151.031 30.8167 150.848 30.85C150.615 30.8833 150.423 30.8583 150.273 30.775C150.14 30.675 150.065 30.55 150.048 30.4ZM162.27 28.8C162.003 29.25 161.736 29.6917 161.47 30.125C161.203 30.5583 160.911 31.0583 160.595 31.625C160.295 32.175 159.945 32.8167 159.545 33.55C159.145 34.2833 158.678 35.175 158.145 36.225C158.011 36.475 157.878 36.675 157.745 36.825C157.611 36.975 157.453 37.05 157.27 37.05C157.02 37.05 156.82 36.9833 156.67 36.85C156.536 36.7 156.42 36.5417 156.32 36.375C155.77 35.4583 155.228 34.4417 154.695 33.325C154.161 32.2083 153.728 31.1167 153.395 30.05C153.361 29.9667 153.361 29.875 153.395 29.775C153.445 29.6583 153.511 29.5833 153.595 29.55C153.761 29.4667 153.978 29.4583 154.245 29.525C154.445 29.6083 154.645 29.7583 154.845 29.975C155.045 30.1917 155.203 30.4167 155.32 30.65C155.42 30.8833 155.536 31.15 155.67 31.45C155.803 31.75 155.945 32.075 156.095 32.425C156.261 32.7583 156.428 33.0917 156.595 33.425C156.761 33.7583 156.928 34.0583 157.095 34.325C157.378 33.825 157.678 33.2917 157.995 32.725C158.328 32.1417 158.661 31.5583 158.995 30.975C159.328 30.375 159.661 29.8 159.995 29.25C160.345 28.7 160.686 28.2083 161.02 27.775C161.103 27.6583 161.22 27.5917 161.37 27.575C161.52 27.5583 161.686 27.6167 161.87 27.75C162.286 28.0667 162.42 28.4167 162.27 28.8ZM170.202 28.625C170.269 29.0917 170.319 29.5917 170.352 30.125C170.402 30.6417 170.436 31.1667 170.452 31.7C170.486 32.2333 170.502 32.75 170.502 33.25C170.502 33.75 170.494 34.2 170.477 34.6C171.011 34.9667 171.327 35.2917 171.427 35.575C171.544 35.8583 171.561 36.1083 171.477 36.325C171.377 36.625 171.194 36.7833 170.927 36.8C170.677 36.8 170.386 36.7083 170.052 36.525C169.819 36.6917 169.552 36.875 169.252 37.075C168.952 37.2583 168.636 37.4417 168.302 37.625C167.969 37.7917 167.636 37.9417 167.302 38.075C166.969 38.2083 166.661 38.3 166.377 38.35C165.844 38.4333 165.361 38.3333 164.927 38.05C164.511 37.7667 164.227 37.3417 164.077 36.775C163.977 36.3917 163.952 36 164.002 35.6C164.052 35.1833 164.177 34.7917 164.377 34.425C164.577 34.0417 164.844 33.7 165.177 33.4C165.527 33.1 165.936 32.8667 166.402 32.7C166.519 32.65 166.677 32.6083 166.877 32.575C167.094 32.5417 167.311 32.5333 167.527 32.55C167.761 32.55 167.994 32.5917 168.227 32.675C168.461 32.7583 168.677 32.9 168.877 33.1C168.877 32.8167 168.869 32.5083 168.852 32.175C168.852 31.825 168.844 31.475 168.827 31.125C168.811 30.775 168.786 30.45 168.752 30.15C168.736 29.8333 168.711 29.5667 168.677 29.35C168.644 29.1 168.544 28.95 168.377 28.9C168.227 28.8333 168.036 28.8417 167.802 28.925C167.402 29.0583 166.936 29.3167 166.402 29.7C165.869 30.0833 165.361 30.4917 164.877 30.925C164.727 31.075 164.552 31.1417 164.352 31.125C164.169 31.1083 164.011 31.0333 163.877 30.9C163.744 30.7667 163.669 30.6167 163.652 30.45C163.636 30.2667 163.702 30.075 163.852 29.875C164.136 29.575 164.452 29.2667 164.802 28.95C165.152 28.6333 165.519 28.35 165.902 28.1C166.286 27.8333 166.677 27.6167 167.077 27.45C167.477 27.2833 167.877 27.1917 168.277 27.175C168.861 27.1583 169.311 27.2917 169.627 27.575C169.944 27.8417 170.136 28.1917 170.202 28.625ZM167.302 34C167.086 34.05 166.852 34.1583 166.602 34.325C166.369 34.475 166.152 34.6667 165.952 34.9C165.769 35.1167 165.627 35.3667 165.527 35.65C165.444 35.9167 165.444 36.1833 165.527 36.45C165.561 36.55 165.627 36.625 165.727 36.675C165.844 36.725 165.969 36.7333 166.102 36.7C166.502 36.6167 166.952 36.4583 167.452 36.225C167.969 35.975 168.377 35.7083 168.677 35.425C168.677 35.325 168.627 35.2 168.527 35.05C168.427 34.8833 168.311 34.725 168.177 34.575C168.044 34.4083 167.894 34.2667 167.727 34.15C167.577 34.0333 167.436 33.9833 167.302 34ZM180.412 29.25C180.112 29.4167 179.795 29.5917 179.462 29.775C179.145 29.9583 178.82 30.175 178.487 30.425C178.17 30.6583 177.862 30.9417 177.562 31.275C177.278 31.5917 177.02 31.975 176.787 32.425C176.453 33.0583 176.228 33.7083 176.112 34.375C175.995 35.025 175.92 35.6667 175.887 36.3C175.887 36.6 175.812 36.9083 175.662 37.225C175.528 37.525 175.337 37.675 175.087 37.675C174.77 37.675 174.512 37.5167 174.312 37.2C174.128 36.8667 174.003 36.55 173.937 36.25C173.653 35.0667 173.42 33.9 173.237 32.75C173.053 31.5833 172.895 30.425 172.762 29.275C172.762 29.0417 172.828 28.8917 172.962 28.825C173.112 28.7583 173.278 28.7333 173.462 28.75C173.662 28.7667 173.853 28.8167 174.037 28.9C174.22 28.9833 174.328 29.1167 174.362 29.3C174.428 29.9167 174.512 30.5667 174.612 31.25C174.712 31.9167 174.812 32.4917 174.912 32.975C174.978 32.4083 175.162 31.8583 175.462 31.325C175.762 30.7917 176.128 30.3083 176.562 29.875C177.012 29.4417 177.512 29.075 178.062 28.775C178.628 28.475 179.203 28.275 179.787 28.175C180.037 28.1417 180.245 28.1417 180.412 28.175C180.578 28.2083 180.695 28.2667 180.762 28.35C180.828 28.4333 180.837 28.5667 180.787 28.75C180.753 28.9333 180.628 29.1 180.412 29.25ZM190.428 25.175C190.444 25.4417 190.453 25.7667 190.453 26.15C190.469 26.5333 190.486 26.95 190.503 27.4C190.519 27.85 190.544 28.3083 190.578 28.775C190.611 29.225 190.661 29.6583 190.728 30.075C190.978 29.6583 191.261 29.3417 191.578 29.125C191.911 28.9083 192.244 28.775 192.578 28.725C193.094 28.6583 193.544 28.7167 193.928 28.9C194.311 29.0833 194.628 29.3417 194.878 29.675C195.128 29.9917 195.311 30.35 195.428 30.75C195.544 31.1333 195.603 31.5083 195.603 31.875C195.603 32.6583 195.394 33.3833 194.978 34.05C194.578 34.7167 194.103 35.3083 193.553 35.825C193.019 36.3417 192.486 36.775 191.953 37.125C191.436 37.475 191.061 37.725 190.828 37.875C190.494 38.0083 190.169 38.0417 189.853 37.975C189.536 37.9083 189.328 37.8083 189.228 37.675C189.144 37.475 189.119 37.3083 189.153 37.175C189.186 37.025 189.253 36.8917 189.353 36.775C189.453 36.6583 189.569 36.5583 189.703 36.475C189.853 36.375 189.978 36.2833 190.078 36.2C189.678 34.3667 189.369 32.5167 189.153 30.65C188.936 28.7667 188.844 26.8583 188.878 24.925C188.878 24.5917 188.944 24.4 189.078 24.35C189.228 24.3 189.353 24.275 189.453 24.275C189.686 24.3083 189.894 24.4 190.078 24.55C190.261 24.7 190.378 24.9083 190.428 25.175ZM194.078 31.8C194.078 31.2333 193.936 30.8417 193.653 30.625C193.369 30.3917 193.078 30.2917 192.778 30.325C192.528 30.3583 192.303 30.45 192.103 30.6C191.903 30.75 191.728 30.9333 191.578 31.15C191.428 31.3667 191.311 31.6083 191.228 31.875C191.161 32.1417 191.136 32.4 191.153 32.65C191.186 33.0667 191.228 33.5167 191.278 34C191.344 34.4833 191.419 34.9167 191.503 35.3C191.769 35.1167 192.053 34.9083 192.353 34.675C192.653 34.425 192.928 34.15 193.178 33.85C193.444 33.55 193.661 33.2333 193.828 32.9C193.994 32.55 194.078 32.1833 194.078 31.8ZM199.451 26.175C199.534 27.9917 199.676 29.875 199.876 31.825C200.076 33.7583 200.292 35.6083 200.526 37.375C200.576 38.1083 200.376 38.4833 199.926 38.5C199.826 38.5 199.726 38.4667 199.626 38.4C199.526 38.3167 199.434 38.2167 199.351 38.1C199.267 37.9833 199.184 37.8583 199.101 37.725C199.034 37.5917 198.992 37.475 198.976 37.375C198.842 36.525 198.717 35.625 198.601 34.675C198.484 33.725 198.376 32.775 198.276 31.825C198.192 30.8583 198.117 29.9167 198.051 29C197.984 28.0833 197.942 27.2417 197.926 26.475C197.959 26.075 198.017 25.7417 198.101 25.475C198.184 25.1917 198.359 25.0583 198.626 25.075C198.909 25.0917 199.109 25.2083 199.226 25.425C199.359 25.625 199.434 25.875 199.451 26.175ZM206.775 27.675C206.742 27.8417 206.625 27.9333 206.425 27.95C206.225 27.9667 206.059 27.975 205.925 27.975C205.509 27.9917 205.075 28.0333 204.625 28.1C204.192 28.1667 203.734 28.2667 203.25 28.4C203.05 28.4667 202.834 28.4417 202.6 28.325C202.367 28.2083 202.225 27.975 202.175 27.625C202.175 27.4917 202.225 27.3833 202.325 27.3C202.425 27.2167 202.542 27.1417 202.675 27.075C202.892 26.975 203.15 26.8917 203.45 26.825C203.75 26.7417 204.05 26.6833 204.35 26.65C204.667 26.6167 204.967 26.6083 205.25 26.625C205.534 26.625 205.767 26.65 205.95 26.7C206.217 26.7833 206.425 26.9083 206.575 27.075C206.742 27.2417 206.809 27.4417 206.775 27.675ZM206.2 36C206.317 36.2667 206.375 36.5583 206.375 36.875C206.392 37.175 206.309 37.3833 206.125 37.5C205.892 37.65 205.642 37.6417 205.375 37.475C205.109 37.3083 204.909 37.0833 204.775 36.8C204.592 36.45 204.45 36.025 204.35 35.525C204.25 35.0083 204.175 34.5 204.125 34C204.075 33.5 204.042 33.0333 204.025 32.6C204.025 32.1667 204.025 31.8417 204.025 31.625C204.042 31.3917 204.109 31.175 204.225 30.975C204.342 30.775 204.492 30.6583 204.675 30.625C204.975 30.6417 205.217 30.7833 205.4 31.05C205.584 31.3 205.667 31.6167 205.65 32C205.65 32.3 205.659 32.6333 205.675 33C205.692 33.3667 205.725 33.7333 205.775 34.1C205.825 34.4667 205.884 34.825 205.95 35.175C206.017 35.5083 206.1 35.7833 206.2 36ZM215.98 35.525C216.297 35.9083 216.48 36.2583 216.53 36.575C216.58 36.875 216.455 37.0917 216.155 37.225C216.088 37.2583 215.988 37.2667 215.855 37.25C215.738 37.2167 215.605 37.175 215.455 37.125C215.322 37.0583 215.188 36.9833 215.055 36.9C214.922 36.8167 214.813 36.7333 214.73 36.65C214.363 36.2333 213.997 35.8167 213.63 35.4C213.28 34.9833 212.913 34.5667 212.53 34.15L209.805 36.925C209.522 37.1583 209.263 37.2583 209.03 37.225C208.797 37.175 208.68 37.05 208.68 36.85C208.68 36.5333 208.73 36.2417 208.83 35.975C208.947 35.6917 209.097 35.425 209.28 35.175C209.613 34.775 209.955 34.3833 210.305 34C210.655 33.6167 211.005 33.2333 211.355 32.85C210.922 32.4 210.48 31.9583 210.03 31.525C209.597 31.075 209.147 30.6333 208.68 30.2C208.48 30.2 208.347 30.1667 208.28 30.1C208.213 30.0333 208.172 29.9583 208.155 29.875C208.155 29.775 208.172 29.6833 208.205 29.6C208.238 29.5167 208.272 29.4583 208.305 29.425C208.605 29.125 208.905 28.9833 209.205 29C209.505 29 209.805 29.0917 210.105 29.275C210.988 29.975 211.813 30.7333 212.58 31.55C213.247 30.85 213.93 30.1667 214.63 29.5C214.847 29.3667 215.08 29.2833 215.33 29.25C215.58 29.2167 215.855 29.275 216.155 29.425C216.305 29.6083 216.347 29.825 216.28 30.075C216.23 30.3083 216.097 30.5417 215.88 30.775L213.805 32.875C214.188 33.3083 214.563 33.75 214.93 34.2C215.297 34.65 215.647 35.0917 215.98 35.525ZM223.851 31.175C224.168 31.1583 224.484 31.2333 224.801 31.4C225.118 31.5667 225.276 31.825 225.276 32.175C225.243 32.4583 225.084 32.6417 224.801 32.725C224.534 32.7917 224.318 32.825 224.151 32.825C223.818 32.825 223.459 32.8333 223.076 32.85C222.693 32.8667 222.301 32.8917 221.901 32.925C221.868 33.475 221.834 33.9917 221.801 34.475C221.784 34.9583 221.768 35.3917 221.751 35.775C221.734 36.1417 221.726 36.4417 221.726 36.675C221.726 36.9083 221.734 37.0333 221.751 37.05C222.118 36.9833 222.509 36.875 222.926 36.725C223.359 36.5583 223.784 36.3833 224.201 36.2C224.634 36 225.051 35.8 225.451 35.6C225.868 35.3833 226.259 35.1833 226.626 35C226.793 34.9167 226.943 34.8917 227.076 34.925C227.226 34.9583 227.318 35.0333 227.351 35.15C227.384 35.3333 227.359 35.5583 227.276 35.825C227.193 36.0917 227.043 36.3333 226.826 36.55C226.576 36.75 226.243 36.9833 225.826 37.25C225.426 37.5 224.993 37.7417 224.526 37.975C224.059 38.2083 223.584 38.4167 223.101 38.6C222.634 38.7667 222.218 38.8667 221.851 38.9C221.301 38.95 220.884 38.8 220.601 38.45C220.318 38.1 220.159 37.6583 220.126 37.125C220.093 36.5917 220.084 35.975 220.101 35.275C220.134 34.575 220.168 33.8333 220.201 33.05C219.884 33.0833 219.576 33.1167 219.276 33.15C218.993 33.1667 218.718 33.1917 218.451 33.225C218.234 33.225 217.993 33.175 217.726 33.075C217.476 32.975 217.351 32.7833 217.351 32.5C217.351 32.4 217.393 32.2667 217.476 32.1C217.559 31.9333 217.743 31.8083 218.026 31.725C218.709 31.6083 219.468 31.5083 220.301 31.425C220.351 30.6417 220.409 29.8833 220.476 29.15C220.543 28.4167 220.601 27.75 220.651 27.15C220.668 26.95 220.726 26.775 220.826 26.625C220.926 26.475 221.034 26.4 221.151 26.4C221.434 26.3833 221.701 26.4583 221.951 26.625C222.218 26.775 222.351 26.95 222.351 27.15C222.284 27.7167 222.218 28.3583 222.151 29.075C222.101 29.7917 222.051 30.525 222.001 31.275C222.334 31.2417 222.651 31.225 222.951 31.225C223.268 31.2083 223.568 31.1917 223.851 31.175ZM240.063 30.4C240.029 30.2167 239.996 30.0417 239.963 29.875C239.929 29.7083 239.846 29.6 239.713 29.55C239.429 29.4667 239.129 29.4583 238.813 29.525C238.496 29.5917 238.204 29.7 237.938 29.85C237.671 29.9833 237.446 30.1417 237.263 30.325C237.079 30.4917 236.979 30.6417 236.963 30.775C236.913 31.025 236.979 31.2667 237.163 31.5C237.346 31.7333 237.613 31.9667 237.963 32.2C238.546 32.55 239.154 32.9083 239.788 33.275C240.421 33.6417 240.954 34.0167 241.388 34.4C241.821 34.7833 242.113 35.2083 242.263 35.675C242.429 36.125 242.396 36.6417 242.163 37.225C241.979 37.675 241.638 38.0417 241.138 38.325C240.638 38.6083 240.088 38.8333 239.488 39C238.888 39.15 238.288 39.2583 237.688 39.325C237.088 39.375 236.579 39.4 236.163 39.4C236.063 39.4 235.938 39.3667 235.788 39.3C235.654 39.2167 235.521 39.125 235.388 39.025C235.271 38.925 235.163 38.825 235.063 38.725C234.979 38.6083 234.938 38.5083 234.938 38.425C234.938 38.125 235.071 37.9167 235.338 37.8C235.604 37.6833 235.879 37.625 236.163 37.625C236.563 37.625 236.988 37.6083 237.438 37.575C237.904 37.525 238.346 37.4583 238.763 37.375C239.179 37.275 239.554 37.15 239.888 37C240.221 36.85 240.454 36.6583 240.588 36.425C240.704 36.225 240.629 35.9917 240.363 35.725C240.113 35.4417 239.771 35.15 239.338 34.85C238.921 34.55 238.463 34.2583 237.963 33.975C237.479 33.6917 237.063 33.4333 236.713 33.2C236.363 32.9667 236.063 32.6917 235.813 32.375C235.563 32.0417 235.404 31.6333 235.338 31.15C235.321 30.7167 235.413 30.3 235.613 29.9C235.813 29.5 236.071 29.15 236.388 28.85C236.721 28.5333 237.096 28.2833 237.513 28.1C237.929 27.9167 238.346 27.825 238.763 27.825C239.479 27.8583 240.071 28.0583 240.538 28.425C241.004 28.775 241.279 29.3 241.363 30C241.363 30.2333 241.321 30.425 241.238 30.575C241.171 30.725 241.046 30.8167 240.863 30.85C240.629 30.8833 240.438 30.8583 240.288 30.775C240.154 30.675 240.079 30.55 240.063 30.4ZM245.459 29.625C245.509 29.875 245.559 30.1583 245.609 30.475C245.676 30.775 245.743 31.0917 245.809 31.425C245.876 31.7417 245.934 32.0667 245.984 32.4C246.034 32.7333 246.076 33.05 246.109 33.35C246.309 32.9167 246.526 32.4583 246.759 31.975C246.993 31.4917 247.243 31.05 247.509 30.65C247.793 30.2333 248.084 29.8917 248.384 29.625C248.701 29.3583 249.043 29.225 249.409 29.225C249.959 29.225 250.418 29.425 250.784 29.825C251.168 30.225 251.484 30.725 251.734 31.325C252.001 31.9083 252.209 32.525 252.359 33.175C252.509 33.825 252.634 34.4 252.734 34.9C252.834 35.35 252.634 35.6833 252.134 35.9C251.901 36.0167 251.726 36.0333 251.609 35.95C251.493 35.8667 251.426 35.7833 251.409 35.7C251.326 35.5 251.218 35.15 251.084 34.65C250.968 34.15 250.826 33.6417 250.659 33.125C250.509 32.6083 250.334 32.1583 250.134 31.775C249.934 31.3917 249.709 31.2167 249.459 31.25C249.159 31.2667 248.893 31.4917 248.659 31.925C248.459 32.275 248.251 32.6667 248.034 33.1C247.834 33.5167 247.634 33.95 247.434 34.4C247.234 34.8333 247.034 35.275 246.834 35.725C246.651 36.1583 246.476 36.5583 246.309 36.925C246.193 37.0417 246.043 37.125 245.859 37.175C245.693 37.2083 245.518 37.1917 245.334 37.125C245.168 37.075 245.034 36.9917 244.934 36.875C244.834 36.7583 244.784 36.6417 244.784 36.525C244.634 35.225 244.476 34.0417 244.309 32.975C244.159 31.9083 243.959 30.8167 243.709 29.7C243.593 29.3167 243.568 29.0167 243.634 28.8C243.718 28.5667 243.968 28.475 244.384 28.525C244.968 28.625 245.326 28.9917 245.459 29.625ZM260.705 28.625C260.772 29.0917 260.822 29.5917 260.855 30.125C260.905 30.6417 260.939 31.1667 260.955 31.7C260.989 32.2333 261.005 32.75 261.005 33.25C261.005 33.75 260.997 34.2 260.98 34.6C261.514 34.9667 261.83 35.2917 261.93 35.575C262.047 35.8583 262.064 36.1083 261.98 36.325C261.88 36.625 261.697 36.7833 261.43 36.8C261.18 36.8 260.889 36.7083 260.555 36.525C260.322 36.6917 260.055 36.875 259.755 37.075C259.455 37.2583 259.139 37.4417 258.805 37.625C258.472 37.7917 258.139 37.9417 257.805 38.075C257.472 38.2083 257.164 38.3 256.88 38.35C256.347 38.4333 255.864 38.3333 255.43 38.05C255.014 37.7667 254.73 37.3417 254.58 36.775C254.48 36.3917 254.455 36 254.505 35.6C254.555 35.1833 254.68 34.7917 254.88 34.425C255.08 34.0417 255.347 33.7 255.68 33.4C256.03 33.1 256.439 32.8667 256.905 32.7C257.022 32.65 257.18 32.6083 257.38 32.575C257.597 32.5417 257.814 32.5333 258.03 32.55C258.264 32.55 258.497 32.5917 258.73 32.675C258.964 32.7583 259.18 32.9 259.38 33.1C259.38 32.8167 259.372 32.5083 259.355 32.175C259.355 31.825 259.347 31.475 259.33 31.125C259.314 30.775 259.289 30.45 259.255 30.15C259.239 29.8333 259.214 29.5667 259.18 29.35C259.147 29.1 259.047 28.95 258.88 28.9C258.73 28.8333 258.539 28.8417 258.305 28.925C257.905 29.0583 257.439 29.3167 256.905 29.7C256.372 30.0833 255.864 30.4917 255.38 30.925C255.23 31.075 255.055 31.1417 254.855 31.125C254.672 31.1083 254.514 31.0333 254.38 30.9C254.247 30.7667 254.172 30.6167 254.155 30.45C254.139 30.2667 254.205 30.075 254.355 29.875C254.639 29.575 254.955 29.2667 255.305 28.95C255.655 28.6333 256.022 28.35 256.405 28.1C256.789 27.8333 257.18 27.6167 257.58 27.45C257.98 27.2833 258.38 27.1917 258.78 27.175C259.364 27.1583 259.814 27.2917 260.13 27.575C260.447 27.8417 260.639 28.1917 260.705 28.625ZM257.805 34C257.589 34.05 257.355 34.1583 257.105 34.325C256.872 34.475 256.655 34.6667 256.455 34.9C256.272 35.1167 256.13 35.3667 256.03 35.65C255.947 35.9167 255.947 36.1833 256.03 36.45C256.064 36.55 256.13 36.625 256.23 36.675C256.347 36.725 256.472 36.7333 256.605 36.7C257.005 36.6167 257.455 36.4583 257.955 36.225C258.472 35.975 258.88 35.7083 259.18 35.425C259.18 35.325 259.13 35.2 259.03 35.05C258.93 34.8833 258.814 34.725 258.68 34.575C258.547 34.4083 258.397 34.2667 258.23 34.15C258.08 34.0333 257.939 33.9833 257.805 34ZM264.94 25.175C264.956 25.4417 264.965 25.7667 264.965 26.15C264.981 26.5333 264.998 26.95 265.015 27.4C265.031 27.85 265.056 28.3083 265.09 28.775C265.123 29.225 265.173 29.6583 265.24 30.075C265.49 29.6583 265.773 29.3417 266.09 29.125C266.423 28.9083 266.756 28.775 267.09 28.725C267.606 28.6583 268.056 28.7167 268.44 28.9C268.823 29.0833 269.14 29.3417 269.39 29.675C269.64 29.9917 269.823 30.35 269.94 30.75C270.056 31.1333 270.115 31.5083 270.115 31.875C270.115 32.6583 269.906 33.3833 269.49 34.05C269.09 34.7167 268.615 35.3083 268.065 35.825C267.531 36.3417 266.998 36.775 266.465 37.125C265.948 37.475 265.573 37.725 265.34 37.875C265.006 38.0083 264.681 38.0417 264.365 37.975C264.048 37.9083 263.84 37.8083 263.74 37.675C263.656 37.475 263.631 37.3083 263.665 37.175C263.698 37.025 263.765 36.8917 263.865 36.775C263.965 36.6583 264.081 36.5583 264.215 36.475C264.365 36.375 264.49 36.2833 264.59 36.2C264.19 34.3667 263.881 32.5167 263.665 30.65C263.448 28.7667 263.356 26.8583 263.39 24.925C263.39 24.5917 263.456 24.4 263.59 24.35C263.74 24.3 263.865 24.275 263.965 24.275C264.198 24.3083 264.406 24.4 264.59 24.55C264.773 24.7 264.89 24.9083 264.94 25.175ZM268.59 31.8C268.59 31.2333 268.448 30.8417 268.165 30.625C267.881 30.3917 267.59 30.2917 267.29 30.325C267.04 30.3583 266.815 30.45 266.615 30.6C266.415 30.75 266.24 30.9333 266.09 31.15C265.94 31.3667 265.823 31.6083 265.74 31.875C265.673 32.1417 265.648 32.4 265.665 32.65C265.698 33.0667 265.74 33.5167 265.79 34C265.856 34.4833 265.931 34.9167 266.015 35.3C266.281 35.1167 266.565 34.9083 266.865 34.675C267.165 34.425 267.44 34.15 267.69 33.85C267.956 33.55 268.173 33.2333 268.34 32.9C268.506 32.55 268.59 32.1833 268.59 31.8ZM273.362 25.175C273.379 25.4417 273.387 25.7667 273.387 26.15C273.404 26.5333 273.421 26.95 273.437 27.4C273.454 27.85 273.479 28.3083 273.512 28.775C273.546 29.225 273.596 29.6583 273.662 30.075C273.912 29.6583 274.196 29.3417 274.512 29.125C274.846 28.9083 275.179 28.775 275.512 28.725C276.029 28.6583 276.479 28.7167 276.862 28.9C277.246 29.0833 277.562 29.3417 277.812 29.675C278.062 29.9917 278.246 30.35 278.362 30.75C278.479 31.1333 278.537 31.5083 278.537 31.875C278.537 32.6583 278.329 33.3833 277.912 34.05C277.512 34.7167 277.037 35.3083 276.487 35.825C275.954 36.3417 275.421 36.775 274.887 37.125C274.371 37.475 273.996 37.725 273.762 37.875C273.429 38.0083 273.104 38.0417 272.787 37.975C272.471 37.9083 272.262 37.8083 272.162 37.675C272.079 37.475 272.054 37.3083 272.087 37.175C272.121 37.025 272.187 36.8917 272.287 36.775C272.387 36.6583 272.504 36.5583 272.637 36.475C272.787 36.375 272.912 36.2833 273.012 36.2C272.612 34.3667 272.304 32.5167 272.087 30.65C271.871 28.7667 271.779 26.8583 271.812 24.925C271.812 24.5917 271.879 24.4 272.012 24.35C272.162 24.3 272.287 24.275 272.387 24.275C272.621 24.3083 272.829 24.4 273.012 24.55C273.196 24.7 273.312 24.9083 273.362 25.175ZM277.012 31.8C277.012 31.2333 276.871 30.8417 276.587 30.625C276.304 30.3917 276.012 30.2917 275.712 30.325C275.462 30.3583 275.237 30.45 275.037 30.6C274.837 30.75 274.662 30.9333 274.512 31.15C274.362 31.3667 274.246 31.6083 274.162 31.875C274.096 32.1417 274.071 32.4 274.087 32.65C274.121 33.0667 274.162 33.5167 274.212 34C274.279 34.4833 274.354 34.9167 274.437 35.3C274.704 35.1167 274.987 34.9083 275.287 34.675C275.587 34.425 275.862 34.15 276.112 33.85C276.379 33.55 276.596 33.2333 276.762 32.9C276.929 32.55 277.012 32.1833 277.012 31.8ZM285.96 31.175C286.277 31.1583 286.594 31.2333 286.91 31.4C287.227 31.5667 287.385 31.825 287.385 32.175C287.352 32.4583 287.194 32.6417 286.91 32.725C286.644 32.7917 286.427 32.825 286.26 32.825C285.927 32.825 285.569 32.8333 285.185 32.85C284.802 32.8667 284.41 32.8917 284.01 32.925C283.977 33.475 283.944 33.9917 283.91 34.475C283.894 34.9583 283.877 35.3917 283.86 35.775C283.844 36.1417 283.835 36.4417 283.835 36.675C283.835 36.9083 283.844 37.0333 283.86 37.05C284.227 36.9833 284.619 36.875 285.035 36.725C285.469 36.5583 285.894 36.3833 286.31 36.2C286.744 36 287.16 35.8 287.56 35.6C287.977 35.3833 288.369 35.1833 288.735 35C288.902 34.9167 289.052 34.8917 289.185 34.925C289.335 34.9583 289.427 35.0333 289.46 35.15C289.494 35.3333 289.469 35.5583 289.385 35.825C289.302 36.0917 289.152 36.3333 288.935 36.55C288.685 36.75 288.352 36.9833 287.935 37.25C287.535 37.5 287.102 37.7417 286.635 37.975C286.169 38.2083 285.694 38.4167 285.21 38.6C284.744 38.7667 284.327 38.8667 283.96 38.9C283.41 38.95 282.994 38.8 282.71 38.45C282.427 38.1 282.269 37.6583 282.235 37.125C282.202 36.5917 282.194 35.975 282.21 35.275C282.244 34.575 282.277 33.8333 282.31 33.05C281.994 33.0833 281.685 33.1167 281.385 33.15C281.102 33.1667 280.827 33.1917 280.56 33.225C280.344 33.225 280.102 33.175 279.835 33.075C279.585 32.975 279.46 32.7833 279.46 32.5C279.46 32.4 279.502 32.2667 279.585 32.1C279.669 31.9333 279.852 31.8083 280.135 31.725C280.819 31.6083 281.577 31.5083 282.41 31.425C282.46 30.6417 282.519 29.8833 282.585 29.15C282.652 28.4167 282.71 27.75 282.76 27.15C282.777 26.95 282.835 26.775 282.935 26.625C283.035 26.475 283.144 26.4 283.26 26.4C283.544 26.3833 283.81 26.4583 284.06 26.625C284.327 26.775 284.46 26.95 284.46 27.15C284.394 27.7167 284.327 28.3583 284.26 29.075C284.21 29.7917 284.16 30.525 284.11 31.275C284.444 31.2417 284.76 31.225 285.06 31.225C285.377 31.2083 285.677 31.1917 285.96 31.175Z" fill="black"/>
</svg>
