<svg width="14" height="17" viewBox="0 0 14 17" fill="none" xmlns="http://www.w3.org/2000/svg">
<path d="M4 7H10M4 13H10M4 10H7M1 15.55V1.45C1 1.33065 1.04741 1.21619 1.1318 1.1318C1.21619 1.04741 1.33065 1 1.45 1H10.189C10.3083 1.00011 10.4227 1.04758 10.507 1.132L12.868 3.493C12.91 3.53492 12.9432 3.58474 12.9659 3.63957C12.9886 3.6944 13.0001 3.75317 13 3.8125V15.55C13 15.6091 12.9884 15.6676 12.9657 15.7222C12.9431 15.7768 12.91 15.8264 12.8682 15.8682C12.8264 15.91 12.7768 15.9431 12.7222 15.9657C12.6676 15.9884 12.6091 16 12.55 16H1.45C1.39091 16 1.33239 15.9884 1.27779 15.9657C1.2232 15.9431 1.17359 15.91 1.1318 15.8682C1.09002 15.8264 1.05687 15.7768 1.03425 15.7222C1.01164 15.6676 1 15.6091 1 15.55V15.55Z" stroke="#858585" stroke-width="1.5" stroke-linecap="round" stroke-linejoin="round"/>
<path d="M10 1V3.55C10 3.66935 10.0475 3.78381 10.1318 3.8682C10.2162 3.95259 10.3307 4 10.45 4H13" stroke="#858585" stroke-width="1.5" stroke-linecap="round" stroke-linejoin="round"/>
</svg>
