<svg xmlns="http://www.w3.org/2000/svg" xmlns:xlink="http://www.w3.org/1999/xlink" viewBox="0 0 1074.35 752.27">
  <defs>
    <style>
      .cls-1 {
        mask: url(#mask);
        filter: url(#luminosity-noclip-2);
      }

      .cls-2 {
        mix-blend-mode: multiply;
        fill: url(#Безымянный_градиент_4);
      }

      .cls-3 {
        fill: url(#Безымянный_градиент_125);
      }

      .cls-15, .cls-20, .cls-34, .cls-4 {
        fill: #46414a;
      }

      .cls-5 {
        fill: #994a21;
      }

      .cls-6 {
        fill: #b78d35;
      }

      .cls-7 {
        fill: #e6813c;
      }

      .cls-8 {
        fill: url(#Безымянный_градиент_55);
      }

      .cls-9 {
        mask: url(#mask-2);
      }

      .cls-10 {
        fill: url(#Безымянный_градиент_325);
      }

      .cls-11 {
        fill: url(#Безымянный_градиент_213);
      }

      .cls-12 {
        fill: #210500;
        opacity: 0.1;
      }

      .cls-13 {
        fill: #1d0100;
        opacity: 0.2;
      }

      .cls-14 {
        fill: #b8b7bf;
      }

      .cls-15 {
        opacity: 0.5;
      }

      .cls-16 {
        fill: #ab5727;
      }

      .cls-17 {
        fill: #ea853d;
      }

      .cls-18 {
        fill: #f08a43;
      }

      .cls-19 {
        fill: #6d6a71;
      }

      .cls-20 {
        opacity: 0.6;
      }

      .cls-21 {
        fill: url(#Безымянный_градиент_109);
      }

      .cls-22 {
        fill: #97979c;
      }

      .cls-22, .cls-25, .cls-26 {
        opacity: 0.57;
      }

      .cls-23 {
        fill: #413c44;
      }

      .cls-24 {
        fill: #5f5b66;
      }

      .cls-25 {
        fill: #d5d4dd;
      }

      .cls-26 {
        fill: #a3a2a8;
      }

      .cls-27 {
        fill: #3c383f;
      }

      .cls-28 {
        fill: #363039;
      }

      .cls-29 {
        fill: #66636e;
      }

      .cls-30 {
        fill: #55505c;
      }

      .cls-31 {
        fill: url(#Безымянный_градиент_206);
      }

      .cls-32 {
        fill: url(#Безымянный_градиент_206-2);
      }

      .cls-33 {
        fill: #110d12;
        opacity: 0.18;
      }

      .cls-34 {
        opacity: 0.55;
      }

      .cls-35 {
        fill: #3d3742;
      }

      .cls-36 {
        fill: #808086;
      }

      .cls-37 {
        fill: #a2a6b4;
      }

      .cls-38 {
        fill: #56515d;
      }

      .cls-39 {
        fill: #332e37;
      }

      .cls-40 {
        fill: url(#Безымянный_градиент_219);
      }

      .cls-41 {
        fill: url(#Безымянный_градиент_303);
      }

      .cls-42 {
        fill: url(#Безымянный_градиент_219-2);
      }

      .cls-43 {
        fill: #220300;
        opacity: 0.15;
      }

      .cls-44 {
        fill: #b75d29;
      }

      .cls-45 {
        fill: #a65428;
      }

      .cls-46 {
        fill: url(#Безымянный_градиент_277);
      }

      .cls-47 {
        fill: #f29049;
      }

      .cls-48 {
        fill: url(#Безымянный_градиент_46);
      }

      .cls-49 {
        fill: #bc642e;
      }

      .cls-50 {
        fill: url(#Безымянный_градиент_213-2);
      }

      .cls-51 {
        fill: #5d5863;
      }

      .cls-52 {
        fill: #514c57;
      }

      .cls-53 {
        fill: #3e3942;
      }

      .cls-54 {
        fill: #9c7428;
      }

      .cls-55 {
        fill: #ad832e;
      }

      .cls-56 {
        fill: url(#Безымянный_градиент_277-2);
      }

      .cls-57 {
        fill: url(#Безымянный_градиент_219-3);
      }

      .cls-58 {
        fill: url(#Безымянный_градиент_5);
      }

      .cls-59 {
        filter: url(#luminosity-noclip);
      }
    </style>
    <filter id="luminosity-noclip" x="139.12" y="-11233.13" width="111.95" height="32766" filterUnits="userSpaceOnUse" color-interpolation-filters="sRGB">
      <feFlood flood-color="#fff" result="bg"/>
      <feBlend in="SourceGraphic" in2="bg"/>
    </filter>
    <mask id="mask" x="139.12" y="-11233.13" width="111.95" height="32766" maskUnits="userSpaceOnUse">
      <g class="cls-59"/>
    </mask>
    <linearGradient id="Безымянный_градиент_4" data-name="Безымянный градиент 4" x1="195.1" y1="474.46" x2="195.1" y2="538.24" gradientUnits="userSpaceOnUse">
      <stop offset="0" stop-color="#fff"/>
      <stop offset="1"/>
    </linearGradient>
    <linearGradient id="Безымянный_градиент_125" data-name="Безымянный градиент 125" x1="812.62" y1="219.84" x2="812.62" y2="294.95" gradientUnits="userSpaceOnUse">
      <stop offset="0" stop-color="#5b5860"/>
      <stop offset="0.2" stop-color="#5e5b62"/>
      <stop offset="0.8" stop-color="#545058"/>
      <stop offset="0.97" stop-color="#433e48"/>
    </linearGradient>
    <linearGradient id="Безымянный_градиент_55" data-name="Безымянный градиент 55" x1="268.29" y1="476.32" x2="268.29" y2="751.41" gradientUnits="userSpaceOnUse">
      <stop offset="0" stop-color="#5b5663"/>
      <stop offset="0.78" stop-color="#706c77"/>
      <stop offset="0.95" stop-color="#5b5663"/>
      <stop offset="1" stop-color="#4c4752"/>
    </linearGradient>
    <filter id="luminosity-noclip-2" x="139.12" y="484.89" width="111.95" height="168.41" filterUnits="userSpaceOnUse" color-interpolation-filters="sRGB">
      <feFlood flood-color="#fff" result="bg"/>
      <feBlend in="SourceGraphic" in2="bg"/>
    </filter>
    <mask id="mask-2" x="139.12" y="484.89" width="111.95" height="168.41" maskUnits="userSpaceOnUse">
      <g class="cls-1">
        <path class="cls-2" d="M248.32,598.65C237,547.94,192.8,504.33,139.12,484.89V653.3H246.26C251.72,636.8,252.71,618.26,248.32,598.65Z"/>
      </g>
    </mask>
    <linearGradient id="Безымянный_градиент_325" data-name="Безымянный градиент 325" x1="195.1" y1="474.46" x2="195.1" y2="538.24" gradientUnits="userSpaceOnUse">
      <stop offset="0" stop-color="#a3a1ab"/>
      <stop offset="1" stop-color="#a3a1ab"/>
    </linearGradient>
    <linearGradient id="Безымянный_градиент_213" data-name="Безымянный градиент 213" x1="56.1" y1="737.03" x2="130.6" y2="519.92" gradientUnits="userSpaceOnUse">
      <stop offset="0" stop-color="#f39b56"/>
      <stop offset="1" stop-color="#b55523"/>
    </linearGradient>
    <linearGradient id="Безымянный_градиент_109" data-name="Безымянный градиент 109" x1="443.32" y1="253.11" x2="443.32" y2="262.76" gradientUnits="userSpaceOnUse">
      <stop offset="0" stop-color="#797780"/>
      <stop offset="1" stop-color="#5d5965"/>
    </linearGradient>
    <linearGradient id="Безымянный_градиент_206" data-name="Безымянный градиент 206" x1="339.61" y1="16.66" x2="355.91" y2="16.66" gradientUnits="userSpaceOnUse">
      <stop offset="0" stop-color="#fcc551"/>
      <stop offset="1" stop-color="#b78234"/>
    </linearGradient>
    <linearGradient id="Безымянный_градиент_206-2" x1="611.65" y1="16.66" x2="627.96" y2="16.66" xlink:href="#Безымянный_градиент_206"/>
    <linearGradient id="Безымянный_градиент_219" data-name="Безымянный градиент 219" x1="697.65" y1="388.77" x2="697.65" y2="401.83" gradientUnits="userSpaceOnUse">
      <stop offset="0" stop-color="#f39b56"/>
      <stop offset="1" stop-color="#ae5e2d"/>
    </linearGradient>
    <linearGradient id="Безымянный_градиент_303" data-name="Безымянный градиент 303" x1="549.36" y1="458.63" x2="655.11" y2="458.63" gradientUnits="userSpaceOnUse">
      <stop offset="0" stop-color="#ae5e2d"/>
      <stop offset="1" stop-color="#a35328"/>
    </linearGradient>
    <linearGradient id="Безымянный_градиент_219-2" x1="251.07" y1="388.4" x2="251.07" y2="402.26" xlink:href="#Безымянный_градиент_219"/>
    <linearGradient id="Безымянный_градиент_277" data-name="Безымянный градиент 277" x1="1027.28" y1="333.91" x2="1027.28" y2="457.77" gradientUnits="userSpaceOnUse">
      <stop offset="0" stop-color="#f39b56"/>
      <stop offset="0.03" stop-color="#d88241"/>
      <stop offset="0.41" stop-color="#d88241"/>
      <stop offset="0.5" stop-color="#b75d29"/>
      <stop offset="0.92" stop-color="#b75d29"/>
      <stop offset="1" stop-color="#ab5727"/>
    </linearGradient>
    <linearGradient id="Безымянный_градиент_46" data-name="Безымянный градиент 46" x1="797.08" y1="476.32" x2="797.08" y2="751.97" gradientUnits="userSpaceOnUse">
      <stop offset="0" stop-color="#5b5663"/>
      <stop offset="0.11" stop-color="#65606e"/>
      <stop offset="0.18" stop-color="#5b5663"/>
      <stop offset="0.28" stop-color="#938f9b"/>
      <stop offset="0.83" stop-color="#706c77"/>
      <stop offset="0.95" stop-color="#5b5663"/>
      <stop offset="1" stop-color="#4c4752"/>
    </linearGradient>
    <linearGradient id="Безымянный_градиент_213-2" x1="584.89" y1="737.03" x2="659.4" y2="519.92" xlink:href="#Безымянный_градиент_213"/>
    <linearGradient id="Безымянный_градиент_277-2" x1="679.39" y1="333.91" x2="679.39" y2="457.77" xlink:href="#Безымянный_градиент_277"/>
    <linearGradient id="Безымянный_градиент_219-3" x1="114.59" y1="333.57" x2="114.59" y2="344.39" xlink:href="#Безымянный_градиент_219"/>
    <linearGradient id="Безымянный_градиент_5" data-name="Безымянный градиент 5" x1="401.18" y1="219.84" x2="401.18" y2="294.95" gradientUnits="userSpaceOnUse">
      <stop offset="0" stop-color="#95949c"/>
      <stop offset="0.18" stop-color="#5b5860"/>
      <stop offset="0.8" stop-color="#5e5b62"/>
      <stop offset="0.97" stop-color="#433e48"/>
    </linearGradient>
  </defs>
  <g id="Слой_2" data-name="Слой 2">
    <g id="Слой_1-2" data-name="Слой 1">
      <g>
        <g>
          <path class="cls-3" d="M821.74,219.6H803.5c-5.34,0-9.68,6.13-9.68,13.69v48.43c0,7.56,4.34,13.7,9.68,13.7h18.24c5.34,0,9.68-6.14,9.68-13.7V233.29C831.42,225.73,827.08,219.6,821.74,219.6Z"/>
          <path class="cls-4" d="M833.63,219.6H815.4c-5.35,0-9.68,6.13-9.68,13.69v48.43c0,7.56,4.33,13.7,9.68,13.7h18.23c5.35,0,9.69-6.14,9.69-13.7V233.29C843.32,225.73,839,219.6,833.63,219.6Z"/>
        </g>
        <polygon class="cls-5" points="118.43 452.07 131.98 452.07 119.29 500.68 105.73 500.68 118.43 452.07"/>
        <polygon class="cls-6" points="106.57 452.07 118.43 452.07 105.73 500.68 93.88 500.68 106.57 452.07"/>
        <path class="cls-7" d="M12.36,544.83V500.68H39.54C28.43,512.48,19.14,527.53,12.36,544.83Z"/>
        <path class="cls-8" d="M437.75,472.74H98.83C44.25,472.74,0,535.31,0,612.51S44.25,752.27,98.83,752.27H437.75c54.58,0,98.83-62.57,98.83-139.76S492.33,472.74,437.75,472.74Z"/>
        <g class="cls-9">
          <path class="cls-10" d="M248.32,598.65C237,547.94,192.8,504.33,139.12,484.89V653.3H246.26C251.72,636.8,252.71,618.26,248.32,598.65Z"/>
        </g>
        <g>
          <ellipse class="cls-11" cx="98.83" cy="612.51" rx="98.83" ry="139.77"/>
          <path class="cls-12" d="M98.83,472.74C44.25,472.74,0,535.31,0,612.51a197.35,197.35,0,0,0,1.72,25.88c24.56,45,63.06,74,106.37,74,29.37,0,56.51-13.37,78.61-36a187.17,187.17,0,0,0,11-63.94C197.66,535.31,153.41,472.74,98.83,472.74Z"/>
          <path class="cls-7" d="M124.2,486.7c-38.73,15.61-67.1,66-67.1,125.81s28.37,110.19,67.1,125.8c38.75-15.6,67.14-66,67.14-125.8S163,502.31,124.2,486.7Z"/>
          <path class="cls-13" d="M124.2,486.7c-38.73,15.61-67.1,66-67.1,125.81,0,39,12.05,73.92,31.16,97.88.06-1,.16-1.95.24-2.92,1.65,3.24,3.44,6.34,5.32,9.34a92.07,92.07,0,0,0,19.66,16.1,11.48,11.48,0,0,0,4.07-1.74l13.16-8.88c3.32-2.24,4.88-7.55,3.85-12.39l43.2-29.14c8.61-19.87,13.58-43.24,13.58-68.25C191.34,552.7,163,502.31,124.2,486.7Z"/>
          <path class="cls-14" d="M98.83,472.74C44.25,472.74,0,535.31,0,612.51S44.25,752.27,98.83,752.27s98.83-62.57,98.83-139.76S153.41,472.74,98.83,472.74Zm0,270.59c-51.09,0-92.51-58.57-92.51-130.82S47.74,481.68,98.83,481.68s92.51,58.57,92.51,130.83S149.92,743.33,98.83,743.33Z"/>
          <path class="cls-15" d="M38.09,513.87a95.42,95.42,0,0,1,24-21.42l-2.72-8.07A100.94,100.94,0,0,0,35.27,505.5Z"/>
          <path class="cls-15" d="M107,482.22c13.15,1.63,25.51,7.14,36.5,15.74l-4.41-13.07a75.67,75.67,0,0,0-35.23-12Z"/>
        </g>
        <path class="cls-16" d="M187,632.5l-1.36-4-71.5,48.23,1.36,4c.1.31.16.64.24,1l71.63-48.33C187.21,633.07,187.06,632.81,187,632.5Z"/>
        <path class="cls-17" d="M177.17,603.49c-9.3-27.6-32.5-39.48-52.11-26.9-20.22,13-28.57,47.93-19,76.27l8,23.85,71.5-48.23Z"/>
        <path class="cls-13" d="M114.1,676.71l6-4.06-2.3-6.82,24.23-16.34-17.92-53.13a41.2,41.2,0,0,1,11.27-11.05c10.28-6.6,21.54-6.46,31.28-.86-11.33-13.24-27.41-17-41.62-7.86-20.22,13-28.57,47.93-19,76.27Z"/>
        <path class="cls-16" d="M116.09,576.59c-20.22,13-28.57,47.93-19,76.27l9.4,27.87c1.74,5.18.19,11.39-3.47,13.86l-13.17,8.88a10.77,10.77,0,0,1-6.1,1.95v0h9a10.93,10.93,0,0,0,6.07-2L112,694.59c3.66-2.47,5.21-8.68,3.47-13.86l-9.4-27.87c-9.56-28.34-1.22-63.29,19-76.27A31.07,31.07,0,0,1,137,572,29.33,29.33,0,0,0,116.09,576.59Z"/>
        <path class="cls-18" d="M148.47,502.13,63.74,559.29l3.85,11.42c2.56,7.58.29,16.66-5.07,20.28l-9,6c-5.11,3.45-8.3,10.84-8.13,18.84.69,32.72,11.29,63.74,29.07,84.82,4.3,5.09,10.29,6.19,15.35,2.78L103,694.59c3.66-2.47,5.21-8.68,3.47-13.86l-9.4-27.87c-9.57-28.34-1.22-63.29,19-76.27,19.61-12.58,42.81-.7,52.11,26.9l9.79,29c1.75,5.18,6.14,7.38,9.8,4.9l2-1.36a184.92,184.92,0,0,0,1.52-23.53C191.34,566.09,174.23,525.35,148.47,502.13Z"/>
        <path class="cls-13" d="M172.55,616.38l18.58-12.53c-2-42.79-18.49-80-42.63-101.74L63.74,559.29l3.85,11.42c2.56,7.58.29,16.66-5.07,20.28l-9,6c-5.11,3.45-8.3,10.84-8.13,18.84.48,22.82,5.8,44.81,15,63.18C62.89,649.13,72,622.1,85.69,601l7.59,22.48c1-18.5,8.31-35.86,20.32-45.12l-2-5.92c11.65-8.93,24.68-14.68,38.56-16.33l2.75,8.17,8.49,25.17a60,60,0,0,1,6.8,14Z"/>
        <path class="cls-16" d="M187.79,637.4a5.45,5.45,0,0,1-3.23,1v0h5c.11-.79.2-1.59.3-2.38Z"/>
        <path class="cls-19" d="M146.8,373l-29.71,79.12H286l26.67-188c1.29-9-4.46-12.9-12.7-8.53L152,333.91Z"/>
        <path class="cls-20" d="M201.68,446.05c-2-5.89-6.24-9.14-10.55-8.64L151,341.5h0L146.8,373l-29.71,79.12h86.59Z"/>
        <path class="cls-21" d="M286,452.07H600.66L453.62,264c-5.06-6.47-11.27-10.25-15.94-10.26v0H306.19c4.67,0,7.39,3.81,6.46,10.28Z"/>
        <rect class="cls-22" x="603.1" y="78.51" width="180.14" height="357.99"/>
        <polygon class="cls-23" points="760.82 78.51 760.82 404.78 625.53 404.78 625.53 78.51 603.1 78.51 603.1 436.5 783.24 436.5 783.24 78.51 760.82 78.51"/>
        <polygon class="cls-19" points="297.48 311.2 303.82 311.09 299.54 78.51 293.2 78.51 297.48 311.2"/>
        <polygon class="cls-24" points="508.11 316.52 531.57 78.51 522 78.51 499.07 311.15 508.11 316.52"/>
        <polygon class="cls-25" points="503.85 311.15 300.65 311.15 296.37 78.51 526.79 78.51 503.85 311.15"/>
        <polygon class="cls-26" points="526.79 78.51 503.85 311.15 603.1 436.5 603.1 78.51 526.79 78.51"/>
        <polygon class="cls-25" points="296.37 78.51 300.65 311.15 282.13 436.5 282.13 78.51 296.37 78.51"/>
        <polygon class="cls-23" points="503.85 311.15 300.65 311.15 282.13 436.5 603.1 436.5 503.85 311.15"/>
        <g>
          <path class="cls-27" d="M584.14,284.39H547.19l-7.44-68c-1-10-9.75-18.24-19.41-18.24H438.26c-9.66,0-16.74,8.21-15.73,18.24l4,39.34,5.09,49.82c1,9.86,9,17.34,18.58,17.34H584.66c10.54,0,19-9.12,18.52-20.17A19.19,19.19,0,0,0,584.14,284.39Z"/>
          <rect class="cls-28" x="469.85" y="322.87" width="85.92" height="81.91"/>
          <path class="cls-23" d="M583.16,237.82H546.4c-26.59,0-52.26,12.09-72.23,34A15.21,15.21,0,0,0,470.48,282c0,5,3.25,9.05,7.25,9.05H583.16c6.32,0,11.45-6.39,11.45-14.29V252.11C594.61,244.22,589.48,237.82,583.16,237.82Z"/>
        </g>
        <rect class="cls-29" x="268.11" y="33.32" width="208.17" height="45.19"/>
        <rect class="cls-4" x="566.85" y="33.32" width="230.42" height="45.19"/>
        <rect class="cls-30" x="476.29" y="33.32" width="90.56" height="45.19"/>
        <polygon class="cls-31" points="359.7 0 337.29 0 334.17 33.32 362.82 33.32 359.7 0"/>
        <polygon class="cls-32" points="631.75 0 609.33 0 606.22 33.32 634.86 33.32 631.75 0"/>
        <polygon class="cls-26" points="538.59 78.51 561.52 311.15 462.27 436.5 462.27 78.51 538.59 78.51"/>
        <polygon class="cls-22" points="769 78.51 764.72 311.15 783.24 436.5 783.24 78.51 769 78.51"/>
        <rect class="cls-25" x="282.13" y="78.51" width="180.14" height="357.99"/>
        <path class="cls-33" d="M439.56,347.39c.09.14.19.26.28.39v-93.4h-7.11a6,6,0,0,0-.94.07,6,6,0,0,0-4.83,6.09v63a15.42,15.42,0,0,0,2.45,8.58C431,334.45,438.1,345.18,439.56,347.39Z"/>
        <polygon class="cls-24" points="439.84 78.51 439.84 404.78 304.56 404.78 304.56 78.51 282.13 78.51 282.13 436.5 462.27 436.5 462.27 78.51 439.84 78.51"/>
        <path class="cls-34" d="M462.27,263.55l-3.47-5.25a7.84,7.84,0,0,0-6.39-3.92H439.84v93.4a7.68,7.68,0,0,0,6.11,3.54h16.32Z"/>
        <polygon class="cls-22" points="538.59 78.51 561.52 311.15 764.72 311.15 769 78.51 538.59 78.51"/>
        <polygon class="cls-4" points="767.89 311.2 761.55 311.09 765.83 78.51 772.17 78.51 767.89 311.2"/>
        <polygon class="cls-4" points="557.27 316.52 533.8 78.51 543.37 78.51 566.3 311.15 557.27 316.52"/>
        <polygon class="cls-35" points="462.27 436.5 557.27 316.52 566.3 311.15 764.72 311.15 783.24 436.5 462.27 436.5"/>
        <path class="cls-36" d="M594.81,41.45H582.7c-2.31,0-4.17,2.64-4.17,5.9V64.48c0,3.26,1.86,5.9,4.17,5.9h12.11c2.3,0,4.17-2.64,4.17-5.9V47.35C599,44.09,597.11,41.45,594.81,41.45Z"/>
        <path class="cls-36" d="M781.41,41.45H769.3c-2.3,0-4.17,2.64-4.17,5.9V64.48c0,3.26,1.87,5.9,4.17,5.9h12.11c2.3,0,4.17-2.64,4.17-5.9V47.35C785.58,44.09,783.71,41.45,781.41,41.45Z"/>
        <path class="cls-37" d="M599.91,41.45H587.8c-2.3,0-4.17,2.64-4.17,5.9V64.48c0,3.26,1.87,5.9,4.17,5.9h12.11c2.31,0,4.17-2.64,4.17-5.9V47.35C604.08,44.09,602.22,41.45,599.91,41.45Z"/>
        <path class="cls-37" d="M786.51,41.45H774.4c-2.3,0-4.17,2.64-4.17,5.9V64.48c0,3.26,1.87,5.9,4.17,5.9h12.11c2.31,0,4.18-2.64,4.18-5.9V47.35C790.69,44.09,788.82,41.45,786.51,41.45Z"/>
        <path class="cls-19" d="M677.29,371.92l-43.6,80.15H464.55l147-189c7-9,16.32-12.9,20.55-8.54L708,332.88Z"/>
        <path class="cls-34" d="M559,452.07l9.1-7.59c6.92-5.77,8.15-10.45,2.74-10.45H554.59c-5.41,0-15.4,4.68-22.33,10.45l-9.09,7.59Z"/>
        <path class="cls-34" d="M632.14,254.48c-4.23-4.36-13.52-.5-20.55,8.54l-147,189.05,192.74-171.6Z"/>
        <path class="cls-38" d="M765.25,254.48A13.54,13.54,0,0,0,759,252.7v0H627.53a6.18,6.18,0,0,1,4.61,1.8L708,332.88H913.24Z"/>
        <polygon class="cls-35" points="913.24 332.88 708.03 332.88 677.29 371.92 918.41 371.92 913.24 332.88"/>
        <polygon class="cls-39" points="918.41 371.92 677.29 371.92 633.69 452.07 948.51 452.07 918.41 371.92"/>
        <path class="cls-40" d="M546.4,452.07V402.13c0-7.65-4.38-13.85-9.79-13.85h-9c5.41,0,9.8,6.2,9.8,13.85V465.2H867.66V452.07Z"/>
        <rect class="cls-41" x="546.4" y="452.07" width="321.26" height="13.14"/>
        <g>
          <path class="cls-42" d="M251.48,402.13V436.5h9V402.13c0-7.65-4.38-13.85-9.79-13.85h-9C247.1,388.28,251.48,394.48,251.48,402.13Z"/>
          <path class="cls-5" d="M537.43,465.2c-26.77,37.62-43.34,89.72-43.34,147.31v61.3H824.33v-61.3c0-57.59,16.57-109.69,43.33-147.31Z"/>
        </g>
        <path class="cls-18" d="M501.6,402.13V436.5H251.48V402.13c0-7.65-4.38-13.85-9.79-13.85H225.45c-5.41,0-9.79,6.2-9.79,13.85V465.2C242.42,502.82,259,554.92,259,612.51v61.3H494.09V612.52h0c0-57.59,16.57-109.69,43.34-147.31V402.13c0-7.65-4.39-13.85-9.8-13.85H511.4C506,388.28,501.6,394.48,501.6,402.13Z"/>
        <rect class="cls-43" x="277.5" y="516.95" width="53.41" height="136.35"/>
        <polygon class="cls-13" points="295.45 543.87 330.91 543.87 330.91 516.95 277.5 516.95 277.5 652.08 295.45 652.08 295.45 543.87"/>
        <rect class="cls-44" x="277.5" y="516.95" width="8.97" height="135.13"/>
        <rect class="cls-43" x="422.17" y="516.95" width="53.41" height="136.35"/>
        <polygon class="cls-13" points="440.12 543.87 475.58 543.87 475.58 516.95 422.17 516.95 422.17 652.08 440.12 652.08 440.12 543.87"/>
        <rect class="cls-44" x="422.17" y="516.95" width="8.97" height="135.13"/>
        <rect class="cls-45" x="345.55" y="592.09" width="61.98" height="61.21"/>
        <rect class="cls-45" x="345.55" y="516.95" width="61.98" height="61.21"/>
        <rect class="cls-45" x="345.55" y="464.19" width="61.98" height="38.83"/>
        <rect class="cls-44" x="345.55" y="592.09" width="36.83" height="61.21"/>
        <rect class="cls-44" x="345.55" y="516.95" width="36.83" height="61.21"/>
        <rect class="cls-44" x="345.55" y="464.19" width="36.83" height="38.83"/>
        <path class="cls-16" d="M990.07,440.43l-25.34,75.11h9L999,440.43c1.45-4.3,4-7.38,6.87-8.95C999.85,428.19,992.92,432,990.07,440.43Z"/>
        <path class="cls-46" d="M1069,387.36,993.9,335.45a8.08,8.08,0,0,0-4.7-1.52l-9,0v0a8.14,8.14,0,0,1,4.72,1.52L1060,387.36c3.3,2.28,5.39,7,5.39,12.2v50.55a18.34,18.34,0,0,1-.94,5.85l-34.85,103.33h9L1073.41,456a18.34,18.34,0,0,0,.94-5.85V399.56C1074.35,394.37,1072.26,389.64,1069,387.36Z"/>
        <path class="cls-5" d="M955.09,447l6.11-71.55a51.13,51.13,0,0,1,2.38-11.76l7-21c2.53-7.65,9-10.87,14.37-7.16L1060,387.36c3.3,2.28,5.39,7,5.39,12.2v50.55a18.29,18.29,0,0,1-.94,5.85l-34.85,103.33-25.41-17.15L1029.51,467c3-8.87.34-19.49-5.94-23.72L1006.85,432c-6.28-4.24-13.79-.47-16.78,8.4l-25.34,75.11L939.32,498.4,952.63,459A52,52,0,0,0,955.09,447Z"/>
        <path class="cls-47" d="M1060,387.36l-75.06-51.91c-5.09-3.53-11.18-.79-13.95,6.05l87.23,55.22a1.16,1.16,0,0,1,.43.3c1,1.46,4.16,6.22,6.74,10.11v-7.57C1065.38,394.37,1063.29,389.64,1060,387.36Z"/>
        <path class="cls-48" d="M966.54,472.74H627.63c-54.59,0-98.83,62.57-98.83,139.77S573,752.27,627.63,752.27H966.54c54.59,0,98.83-62.57,98.83-139.76S1021.13,472.74,966.54,472.74Z"/>
        <g>
          <polygon class="cls-5" points="764.97 452.07 751.42 452.07 764.11 500.68 777.67 500.68 764.97 452.07"/>
          <polygon class="cls-49" points="776.83 452.07 764.97 452.07 777.67 500.68 789.53 500.68 776.83 452.07"/>
        </g>
        <g>
          <polygon class="cls-5" points="964.89 452.07 951.34 452.07 964.03 500.68 977.59 500.68 964.89 452.07"/>
          <polygon class="cls-49" points="976.75 452.07 964.89 452.07 977.59 500.68 989.44 500.68 976.75 452.07"/>
        </g>
        <path class="cls-18" d="M714.1,544.83V500.68H686.91C698,512.48,707.32,527.53,714.1,544.83Z"/>
        <path class="cls-13" d="M714.1,515.48v-14.8H687.9l-.27.8a131.43,131.43,0,0,1,20.85,30.67Z"/>
        <g>
          <ellipse class="cls-50" cx="627.63" cy="612.51" rx="98.83" ry="139.77"/>
          <path class="cls-12" d="M627.63,472.74c-54.59,0-98.83,62.57-98.83,139.77a197.36,197.36,0,0,0,1.71,25.88c24.56,45,63.06,74,106.37,74,29.37,0,56.52-13.37,78.62-36a187.17,187.17,0,0,0,11-63.94C726.46,535.31,682.21,472.74,627.63,472.74Z"/>
          <path class="cls-7" d="M653,486.7c-38.74,15.61-67.11,66-67.11,125.81S614.26,722.7,653,738.31c38.75-15.6,67.14-66,67.14-125.8S691.75,502.31,653,486.7Z"/>
          <path class="cls-13" d="M653,486.7c-38.74,15.61-67.11,66-67.11,125.81,0,39,12.05,73.92,31.16,97.88a186.8,186.8,0,0,1,8.22-44.3c2.8.09,5.51-2.09,6.8-5.9l1-3,63.37,42.74c14.71-23.16,23.68-53.79,23.68-87.38C720.14,552.7,691.75,502.31,653,486.7Z"/>
          <path class="cls-14" d="M627.63,472.74c-54.59,0-98.83,62.57-98.83,139.77S573,752.27,627.63,752.27s98.83-62.57,98.83-139.76S682.21,472.74,627.63,472.74Zm0,270.59c-51.1,0-92.51-58.57-92.51-130.82s41.41-130.83,92.51-130.83,92.51,58.57,92.51,130.83S678.72,743.33,627.63,743.33Z"/>
          <path class="cls-15" d="M617.47,473.47l-3.24,9.59a65.76,65.76,0,0,1,30.86,1l2.82-8.34a71,71,0,0,0-30.44-2.23Z"/>
          <path class="cls-15" d="M684.84,509.74a126.34,126.34,0,0,1,20.48,31.78l3.15-9.36a131.75,131.75,0,0,0-20.84-30.69Z"/>
        </g>
        <path class="cls-17" d="M623.13,603.49c9.31-27.6,32.51-39.48,52.11-26.9,20.22,13,28.57,47.93,19,76.27l-8,23.85-71.5-48.23Z"/>
        <path class="cls-13" d="M698.1,624.33c-.92-20.07-9.16-39-22.86-47.74-19.6-12.58-42.8-.7-52.11,26.9l-8.43,25,10.59,7.14,6.4-19c7.4-21.94,23.58-33.94,39.75-31.61L664,607.19l25.42,17.14h8.72Z"/>
        <path class="cls-16" d="M614.16,603.49l-9.79,29c-1.25,3.72-3.87,5.86-6.6,5.88v0h8.88v0c2.76,0,5.43-2.13,6.69-5.89l9.79-29c6.1-18.08,18.15-29.41,31.25-31.54C638.05,569.32,621.63,581.34,614.16,603.49Z"/>
        <path class="cls-5" d="M628.36,498.4l81.87,55.22c-1-2.78-2.05-5.52-3.18-8.19l-69.72-47Z"/>
        <path class="cls-16" d="M718.76,590.13a174.84,174.84,0,0,0-3.69-20.31l-.3.89C712.39,577.76,714.19,586.09,718.76,590.13Z"/>
        <path class="cls-18" d="M718.76,590.13c-4.57-4-6.37-12.38-4-19.42l.3-.89a163,163,0,0,0-4.84-16.2L628.36,498.4l-3.85,11.42c-1.92,5.69-6,8.92-10.2,8.65a11.33,11.33,0,0,0-9.41,4c-19,21.39-30.28,53.87-30.7,88.08-.09,7.92,3.08,15.21,8.13,18.62l12.24,8.25c3.67,2.48,8.06.28,9.8-4.9l9.79-29c9.31-27.6,32.51-39.48,52.11-26.9,20.22,13,28.57,47.93,19,76.27l-9.4,27.87c-1.75,5.18-.2,11.39,3.47,13.86l13.16,8.88a10.78,10.78,0,0,0,1.14.63c16.38-23.6,26.49-55.92,26.49-91.59A184.22,184.22,0,0,0,718.76,590.13Z"/>
        <path class="cls-13" d="M718.76,590.13c-4.57-4-6.37-12.38-4-19.42l.3-.89a163,163,0,0,0-4.84-16.2L628.36,498.4l-3.85,11.42c-1.92,5.69-6,8.92-10.2,8.65a11.33,11.33,0,0,0-9.41,4c-19,21.39-30.28,53.87-30.7,88.08-.09,7.92,3.08,15.21,8.13,18.62l12.24,8.25a5.66,5.66,0,0,0,3,1A153.82,153.82,0,0,1,615,601c5.37-14.11,14.48-23.74,24.74-27.59a83.16,83.16,0,0,1,26.7-14.32l-5,14.9a32.9,32.9,0,0,1,4.81,2.56c10.53,6.76,17.83,19.47,21.07,34.11h32.77A184.56,184.56,0,0,0,718.76,590.13Z"/>
        <polygon class="cls-51" points="639.44 341.5 978.36 341.5 1058.64 397.02 719.73 397.02 639.44 341.5"/>
        <polygon class="cls-52" points="150.96 341.5 88.53 341.5 97.77 372.95 146.8 372.95 150.96 341.5"/>
        <polygon class="cls-53" points="117.09 452.07 103.9 452.07 97.77 372.95 146.8 372.95 117.09 452.07"/>
        <polygon class="cls-38" points="15.97 452.07 15.66 451.03 15.66 397.02 88.53 341.5 97.77 372.95 103.9 452.07 15.97 452.07"/>
        <rect class="cls-44" x="719.38" y="397.02" width="339.27" height="55.05"/>
        <polygon class="cls-38" points="719.41 452.07 719.73 451.03 719.73 397.02 646.85 341.5 637.7 371.92 631.49 452.07 719.41 452.07"/>
        <g>
          <path class="cls-4" d="M1033.92,403.75H964.74c-3.31,0-6,3.79-6,8.48v24.63c0,4.68,2.69,8.48,6,8.48h69.18c3.31,0,6-3.8,6-8.48V412.23C1039.92,407.54,1037.23,403.75,1033.92,403.75Z"/>
          <path class="cls-4" d="M813.28,403.75H744.1c-3.31,0-6,3.79-6,8.48v24.63c0,4.68,2.69,8.48,6,8.48h69.18c3.32,0,6-3.8,6-8.48V412.23C819.28,407.54,816.6,403.75,813.28,403.75Z"/>
          <path class="cls-36" d="M805.29,413.39H782.37c-2.3,0-4.17,2.64-4.17,5.89V429.8c0,3.26,1.87,5.9,4.17,5.9h22.92c2.3,0,4.17-2.64,4.17-5.9V419.28C809.46,416,807.59,413.39,805.29,413.39Z"/>
          <path class="cls-54" d="M764.21,413.39H752.1c-2.31,0-4.17,2.64-4.17,5.89V429.8c0,3.26,1.86,5.9,4.17,5.9h12.11c2.3,0,4.17-2.64,4.17-5.9V419.28C768.38,416,766.51,413.39,764.21,413.39Z"/>
          <path class="cls-37" d="M810.39,413.39H787.48c-2.3,0-4.17,2.64-4.17,5.89V429.8c0,3.26,1.87,5.9,4.17,5.9h22.91c2.3,0,4.17-2.64,4.17-5.9V419.28C814.56,416,812.69,413.39,810.39,413.39Z"/>
          <path class="cls-55" d="M769.31,413.39H757.2c-2.3,0-4.17,2.64-4.17,5.89V429.8c0,3.26,1.87,5.9,4.17,5.9h12.11c2.31,0,4.17-2.64,4.17-5.9V419.28C773.48,416,771.62,413.39,769.31,413.39Z"/>
          <path class="cls-36" d="M972.74,435.7h22.91c2.3,0,4.17-2.64,4.17-5.9V419.28c0-3.25-1.87-5.89-4.17-5.89H972.74c-2.31,0-4.17,2.64-4.17,5.89V429.8C968.57,433.06,970.43,435.7,972.74,435.7Z"/>
          <path class="cls-54" d="M1013.82,435.7h12.11c2.3,0,4.17-2.64,4.17-5.9V419.28c0-3.25-1.87-5.89-4.17-5.89h-12.11c-2.31,0-4.17,2.64-4.17,5.89V429.8C1009.65,433.06,1011.51,435.7,1013.82,435.7Z"/>
          <path class="cls-37" d="M977.84,435.7h22.92c2.3,0,4.17-2.64,4.17-5.9V419.28c0-3.25-1.87-5.89-4.17-5.89H977.84c-2.3,0-4.17,2.64-4.17,5.89V429.8C973.67,433.06,975.54,435.7,977.84,435.7Z"/>
          <path class="cls-55" d="M1018.92,435.7H1031c2.3,0,4.17-2.64,4.17-5.9V419.28c0-3.25-1.87-5.89-4.17-5.89h-12.11c-2.3,0-4.17,2.64-4.17,5.89V429.8C1014.75,433.06,1016.62,435.7,1018.92,435.7Z"/>
        </g>
        <g>
          <polygon class="cls-5" points="640.97 487.58 635.24 487.58 629.46 504.73 666.39 504.73 640.97 487.58"/>
          <path class="cls-5" d="M694.31,548.48h14a144.08,144.08,0,0,0-8.14-17.15h0Z"/>
          <path class="cls-16" d="M629.46,504.73l21.69-64.3c1.45-4.3,4-7.38,6.87-8.95-6.06-3.29-13,.51-15.84,8.95l-25.33,75.11h45.89l3.65-10.81Z"/>
          <path class="cls-56" d="M721.07,387.36,646,335.45a8.08,8.08,0,0,0-4.7-1.52l-9,0v0a8.13,8.13,0,0,1,4.71,1.52l75.06,51.91c3.3,2.28,5.39,7,5.39,12.2v50.55a18.29,18.29,0,0,1-.94,5.85L681.7,559.29h30.43q-1.74-5.55-3.84-10.81h-14L725.52,456a18.29,18.29,0,0,0,.94-5.85V399.56C726.46,394.37,724.37,389.64,721.07,387.36Z"/>
          <path class="cls-47" d="M607.2,447l6.11-71.55a51.13,51.13,0,0,1,2.38-11.76l7-21c2.53-7.65,9-10.87,14.37-7.16l75.06,51.91c3.3,2.28,5.39,7,5.39,12.2v50.55a18.29,18.29,0,0,1-.94,5.85L681.7,559.29l-25.41-17.15L681.62,467c3-8.87.34-19.49-5.94-23.72L659,432c-6.28-4.24-13.79-.47-16.78,8.4l-25.34,75.11L591.43,498.4,604.74,459A51.45,51.45,0,0,0,607.2,447Z"/>
        </g>
        <rect class="cls-44" x="714.1" y="500.68" width="338.94" height="44.15"/>
        <path class="cls-44" d="M94.48,531.34h-28L44.83,467c-3-8.87-.33-19.49,5.94-23.72L67.5,432c.31-.21.62-.38.93-.55a9.22,9.22,0,0,0-9.9.55L41.8,443.31c-6.27,4.23-8.93,14.85-5.94,23.72L61.2,542.14h28l7.31-4.92Z"/>
        <path class="cls-57" d="M132.4,490.61,121.72,459a50.94,50.94,0,0,1-2.46-12l-6.11-71.55a51.66,51.66,0,0,0-2.38-11.76l-7-21c-1.83-5.51-5.7-8.7-9.72-8.69H85.12c4,0,7.87,3.19,9.7,8.69l7,21a51.14,51.14,0,0,1,2.39,11.76L110.29,447a50.94,50.94,0,0,0,2.46,12l13.3,39.44h18A83.76,83.76,0,0,0,132.4,490.61Z"/>
        <polygon class="cls-16" points="35.79 559.29 63.74 559.29 89.15 542.14 61.2 542.14 35.79 559.29"/>
        <path class="cls-16" d="M100.64,515.54h28l19.88-13.41c-1.44-1.3-2.91-2.55-4.4-3.73h-18Z"/>
        <path class="cls-47" d="M110.29,447l-6.11-71.55a51.14,51.14,0,0,0-2.39-11.76l-7-21c-2.54-7.65-9-10.87-14.38-7.16L5.38,387.36c-3.29,2.28-5.38,7-5.38,12.2v50.55A18.29,18.29,0,0,0,.94,456L35.79,559.29,61.2,542.14,35.86,467c-3-8.87-.33-19.49,5.94-23.72L58.53,432c6.27-4.24,13.78-.47,16.78,8.4l25.33,75.11,25.41-17.14L112.75,459A50.94,50.94,0,0,1,110.29,447Z"/>
        <path class="cls-34" d="M765.25,254.48A13.54,13.54,0,0,0,759,252.7v0H627.53a6.18,6.18,0,0,1,4.61,1.8l25.15,26h0l173.83,52.41h82.12Z"/>
        <g>
          <path class="cls-58" d="M410.29,219.6H392.06c-5.35,0-9.68,6.13-9.68,13.69v48.43c0,7.56,4.33,13.7,9.68,13.7h18.23c5.35,0,9.69-6.14,9.69-13.7V233.29C420,225.73,415.64,219.6,410.29,219.6Z"/>
          <path class="cls-4" d="M422.19,219.6H404c-5.35,0-9.68,6.13-9.68,13.69v48.43c0,7.56,4.33,13.7,9.68,13.7h18.23c5.35,0,9.69-6.14,9.69-13.7V233.29C431.88,225.73,427.54,219.6,422.19,219.6Z"/>
        </g>
      </g>
    </g>
  </g>
</svg>
