<svg xmlns="http://www.w3.org/2000/svg" xmlns:xlink="http://www.w3.org/1999/xlink" viewBox="0 0 188.26 566.42">
  <defs>
    <style>
      .cls-1 {
        fill: url(#Безымянный_градиент_19);
      }

      .cls-2 {
        fill: #929099;
      }
    </style>
    <linearGradient id="Безымянный_градиент_19" data-name="Безымянный градиент 19" x1="72.04" y1="291.88" x2="104.52" y2="283.88" gradientUnits="userSpaceOnUse">
      <stop offset="0" stop-color="#d6d5db"/>
      <stop offset="1" stop-color="#78757f"/>
    </linearGradient>
  </defs>
  <g id="Слой_2" data-name="Слой 2">
    <g id="Слой_1-2" data-name="Слой 1">
      <path class="cls-1" d="M44.16,10.81C42.52,4.36,37,0,29,0,17.26,0,4.72,9.54,1,21.31A19.19,19.19,0,0,0,.53,31.9L127.27,566.42h61Z"/>
      <path class="cls-2" d="M113.76,402.94c15.47,1.39,32.05,12.93,39,26.57L44.16,10.81C42.52,4.36,37,0,29,0,17.26,0,4.72,9.54,1,21.31A19.19,19.19,0,0,0,.53,31.9L91.85,417C92.93,407.68,101.2,401.81,113.76,402.94Z"/>
    </g>
  </g>
</svg>
