<svg xmlns="http://www.w3.org/2000/svg" xmlns:xlink="http://www.w3.org/1999/xlink" viewBox="0 0 6821.07 916.8">
  <defs>
    <style>
      .cls-1 {
        mask: url(#mask);
        filter: url(#luminosity-noclip-3);
      }

      .cls-2, .cls-4 {
        mix-blend-mode: multiply;
      }

      .cls-2 {
        fill: url(#Безымянный_градиент_3);
      }

      .cls-3 {
        mask: url(#mask-2);
        filter: url(#luminosity-noclip-4);
      }

      .cls-4 {
        fill: url(#Безымянный_градиент_2);
      }

      .cls-5 {
        fill: url(#Безымянный_градиент_19);
      }

      .cls-6 {
        fill: #ffd753;
      }

      .cls-7 {
        fill: #a88230;
      }

      .cls-8 {
        fill: #c09635;
      }

      .cls-9 {
        fill: #47414d;
      }

      .cls-10 {
        fill: #010000;
      }

      .cls-10, .cls-62, .cls-71 {
        opacity: 0.4;
      }

      .cls-11 {
        fill: url(#Безымянный_градиент_19-2);
      }

      .cls-12 {
        fill: #f29049;
      }

      .cls-13 {
        fill: #994a21;
      }

      .cls-14 {
        fill: #b75d29;
      }

      .cls-15 {
        fill: #3f3945;
      }

      .cls-16 {
        fill: #6b7187;
      }

      .cls-17 {
        fill: #e88a81;
      }

      .cls-18 {
        fill: #a34139;
      }

      .cls-19 {
        fill: url(#Безымянный_градиент_224);
      }

      .cls-20 {
        fill: url(#Безымянный_градиент_224-2);
      }

      .cls-21 {
        fill: url(#Безымянный_градиент_224-3);
      }

      .cls-22 {
        fill: url(#Безымянный_градиент_102);
      }

      .cls-23 {
        fill: url(#Безымянный_градиент_102-2);
      }

      .cls-24 {
        fill: url(#Безымянный_градиент_224-4);
      }

      .cls-25 {
        fill: url(#Безымянный_градиент_224-5);
      }

      .cls-26 {
        fill: url(#Безымянный_градиент_224-6);
      }

      .cls-27 {
        fill: url(#Безымянный_градиент_102-3);
      }

      .cls-28 {
        fill: url(#Безымянный_градиент_102-4);
      }

      .cls-29 {
        fill: url(#Безымянный_градиент_224-7);
      }

      .cls-30 {
        fill: url(#Безымянный_градиент_224-8);
      }

      .cls-31 {
        fill: url(#Безымянный_градиент_224-9);
      }

      .cls-32 {
        fill: url(#Безымянный_градиент_102-5);
      }

      .cls-33 {
        fill: url(#Безымянный_градиент_102-6);
      }

      .cls-34 {
        fill: url(#Безымянный_градиент_453);
      }

      .cls-35 {
        fill: url(#Безымянный_градиент_453-2);
      }

      .cls-36 {
        fill: #58545f;
      }

      .cls-37 {
        fill: #66636e;
      }

      .cls-38 {
        fill: #443f49;
      }

      .cls-39 {
        fill: #433d49;
      }

      .cls-40 {
        fill: #615d69;
      }

      .cls-41, .cls-54, .cls-75, .cls-80, .cls-86, .cls-88 {
        fill: #0e0610;
      }

      .cls-41 {
        opacity: 0.28;
      }

      .cls-42 {
        fill: url(#Безымянный_градиент_200);
      }

      .cls-43 {
        fill: #423e4e;
        opacity: 0.85;
      }

      .cls-44 {
        fill: url(#Безымянный_градиент_200-2);
      }

      .cls-45 {
        fill: url(#Безымянный_градиент_48);
      }

      .cls-46 {
        fill: #4a4551;
      }

      .cls-47, .cls-85 {
        fill: #433d4a;
      }

      .cls-48 {
        fill: url(#Безымянный_градиент_207);
      }

      .cls-49 {
        fill: url(#Безымянный_градиент_220);
      }

      .cls-50 {
        fill: #5f5b66;
      }

      .cls-51 {
        fill: #3b3641;
      }

      .cls-52 {
        fill: #544e5c;
      }

      .cls-53 {
        fill: #5b5764;
      }

      .cls-54 {
        opacity: 0.26;
      }

      .cls-55 {
        fill: #797780;
      }

      .cls-56 {
        fill: #4e4a54;
      }

      .cls-57 {
        fill: url(#Безымянный_градиент_320);
      }

      .cls-58 {
        fill: #3d3742;
      }

      .cls-59 {
        fill: #9c7428;
      }

      .cls-60, .cls-93, .cls-98 {
        fill: #110d12;
      }

      .cls-60 {
        opacity: 0.35;
      }

      .cls-61 {
        fill: #403b46;
      }

      .cls-62 {
        fill: #66646b;
      }

      .cls-63 {
        fill: #3f3944;
      }

      .cls-64 {
        mask: url(#mask-3);
      }

      .cls-65 {
        fill: url(#Безымянный_градиент_56);
      }

      .cls-66 {
        fill: #453f4b;
      }

      .cls-67 {
        fill: #f8c64b;
      }

      .cls-68 {
        fill: #b1842f;
      }

      .cls-69 {
        fill: #d8a936;
      }

      .cls-70 {
        mask: url(#mask-4);
      }

      .cls-71 {
        fill: url(#Безымянный_градиент_93);
      }

      .cls-72 {
        fill: #46414a;
      }

      .cls-73 {
        fill: url(#Безымянный_градиент_323);
      }

      .cls-74 {
        fill: url(#Безымянный_градиент_168);
      }

      .cls-116, .cls-75, .cls-96 {
        opacity: 0.2;
      }

      .cls-76 {
        fill: #5b5763;
      }

      .cls-77 {
        fill: #130f17;
      }

      .cls-107, .cls-77 {
        opacity: 0.25;
      }

      .cls-78 {
        fill: url(#Безымянный_градиент_323-2);
      }

      .cls-79 {
        fill: url(#Безымянный_градиент_48-2);
      }

      .cls-80, .cls-93 {
        opacity: 0.32;
      }

      .cls-81 {
        fill: url(#Безымянный_градиент_48-3);
      }

      .cls-82 {
        fill: url(#Безымянный_градиент_48-4);
      }

      .cls-83 {
        fill: url(#Безымянный_градиент_48-5);
      }

      .cls-84 {
        fill: url(#Безымянный_градиент_48-6);
      }

      .cls-85 {
        opacity: 0.75;
      }

      .cls-110, .cls-86 {
        opacity: 0.22;
      }

      .cls-87 {
        fill: url(#Безымянный_градиент_323-3);
      }

      .cls-88 {
        opacity: 0.18;
      }

      .cls-89 {
        fill: url(#Безымянный_градиент_195);
      }

      .cls-90 {
        fill: #edba41;
      }

      .cls-103, .cls-107, .cls-110, .cls-112, .cls-113, .cls-114, .cls-91, .cls-96 {
        fill: #1f1300;
      }

      .cls-91 {
        opacity: 0.37;
      }

      .cls-92 {
        fill: #6b6873;
      }

      .cls-94 {
        fill: #49454e;
      }

      .cls-95 {
        fill: #d3a534;
      }

      .cls-97 {
        fill: #5f5967;
      }

      .cls-98 {
        opacity: 0.3;
      }

      .cls-99 {
        fill: url(#Безымянный_градиент_39);
      }

      .cls-100 {
        fill: #363039;
      }

      .cls-101 {
        fill: #f3c047;
      }

      .cls-102 {
        fill: #ffd159;
      }

      .cls-103 {
        opacity: 0.23;
      }

      .cls-104, .cls-123 {
        fill: #9d722b;
      }

      .cls-104 {
        opacity: 0.5;
      }

      .cls-105 {
        fill: #aa7c2a;
      }

      .cls-106 {
        fill: #ffde70;
      }

      .cls-108 {
        fill: url(#Безымянный_градиент_48-7);
      }

      .cls-109 {
        fill: #a2a6b4;
      }

      .cls-111 {
        fill: #ffd761;
      }

      .cls-112 {
        opacity: 0.27;
      }

      .cls-113 {
        opacity: 0.33;
      }

      .cls-114 {
        opacity: 0.31;
      }

      .cls-115 {
        fill: #515669;
      }

      .cls-116, .cls-117 {
        fill: #06000d;
      }

      .cls-117 {
        opacity: 0.12;
      }

      .cls-118 {
        fill: #bd9035;
      }

      .cls-119 {
        fill: #c19531;
      }

      .cls-120 {
        fill: #bc8a31;
      }

      .cls-121 {
        fill: url(#Безымянный_градиент_220-2);
      }

      .cls-122 {
        fill: url(#Безымянный_градиент_369);
      }

      .cls-123 {
        opacity: 0.7;
      }

      .cls-124 {
        fill: url(#Безымянный_градиент_48-8);
      }

      .cls-125 {
        fill: #423d47;
      }

      .cls-126 {
        filter: url(#luminosity-noclip-2);
      }

      .cls-127 {
        filter: url(#luminosity-noclip);
      }
    </style>
    <filter id="luminosity-noclip" x="3521.65" y="-8314.66" width="75.11" height="32766" filterUnits="userSpaceOnUse" color-interpolation-filters="sRGB">
      <feFlood flood-color="#fff" result="bg"/>
      <feBlend in="SourceGraphic" in2="bg"/>
    </filter>
    <mask id="mask" x="3521.65" y="-8314.66" width="75.11" height="32766" maskUnits="userSpaceOnUse">
      <g class="cls-127"/>
    </mask>
    <linearGradient id="Безымянный_градиент_3" data-name="Безымянный градиент 3" x1="3535.21" y1="494.93" x2="3592.14" y2="485.4" gradientUnits="userSpaceOnUse">
      <stop offset="0" stop-color="#b3b3b3"/>
      <stop offset="1"/>
    </linearGradient>
    <filter id="luminosity-noclip-2" x="3588.69" y="-8314.66" width="662.34" height="32766" filterUnits="userSpaceOnUse" color-interpolation-filters="sRGB">
      <feFlood flood-color="#fff" result="bg"/>
      <feBlend in="SourceGraphic" in2="bg"/>
    </filter>
    <mask id="mask-2" x="3588.69" y="-8314.66" width="662.34" height="32766" maskUnits="userSpaceOnUse">
      <g class="cls-126"/>
    </mask>
    <linearGradient id="Безымянный_градиент_2" data-name="Безымянный градиент 2" x1="3566.67" y1="702.92" x2="3951" y2="815.23" gradientUnits="userSpaceOnUse">
      <stop offset="0" stop-color="gray"/>
      <stop offset="1" stop-color="#fff"/>
    </linearGradient>
    <linearGradient id="Безымянный_градиент_19" data-name="Безымянный градиент 19" x1="2188.87" y1="662.29" x2="2195.2" y2="662.29" gradientUnits="userSpaceOnUse">
      <stop offset="0" stop-color="#d6d5db"/>
      <stop offset="1" stop-color="#78757f"/>
    </linearGradient>
    <linearGradient id="Безымянный_градиент_19-2" x1="6485.1" y1="677.57" x2="6491.43" y2="677.57" xlink:href="#Безымянный_градиент_19"/>
    <linearGradient id="Безымянный_градиент_224" data-name="Безымянный градиент 224" x1="354.64" y1="746.44" x2="362.89" y2="746.44" gradientUnits="userSpaceOnUse">
      <stop offset="0" stop-color="#e88a81"/>
      <stop offset="1" stop-color="#a34139"/>
    </linearGradient>
    <linearGradient id="Безымянный_градиент_224-2" x1="338.17" y1="876.12" x2="362.78" y2="876.12" xlink:href="#Безымянный_градиент_224"/>
    <linearGradient id="Безымянный_градиент_224-3" x1="346.23" y1="803.75" x2="363.2" y2="803.75" xlink:href="#Безымянный_градиент_224"/>
    <linearGradient id="Безымянный_градиент_102" data-name="Безымянный градиент 102" x1="351.13" y1="775.09" x2="363.09" y2="775.09" gradientUnits="userSpaceOnUse">
      <stop offset="0" stop-color="#f3f3f6"/>
      <stop offset="1" stop-color="#9a99a3"/>
    </linearGradient>
    <linearGradient id="Безымянный_градиент_102-2" x1="342.73" y1="832.4" x2="363.04" y2="832.4" xlink:href="#Безымянный_градиент_102"/>
    <linearGradient id="Безымянный_градиент_224-4" x1="1349.66" y1="746.44" x2="1357.91" y2="746.44" xlink:href="#Безымянный_градиент_224"/>
    <linearGradient id="Безымянный_градиент_224-5" x1="1333.2" y1="876.12" x2="1357.81" y2="876.12" xlink:href="#Безымянный_градиент_224"/>
    <linearGradient id="Безымянный_градиент_224-6" x1="1341.26" y1="803.75" x2="1358.23" y2="803.75" xlink:href="#Безымянный_градиент_224"/>
    <linearGradient id="Безымянный_градиент_102-3" x1="1346.16" y1="775.09" x2="1358.12" y2="775.09" xlink:href="#Безымянный_градиент_102"/>
    <linearGradient id="Безымянный_градиент_102-4" x1="1337.75" y1="832.4" x2="1358.07" y2="832.4" xlink:href="#Безымянный_градиент_102"/>
    <linearGradient id="Безымянный_градиент_224-7" x1="2344.69" y1="746.44" x2="2352.94" y2="746.44" xlink:href="#Безымянный_градиент_224"/>
    <linearGradient id="Безымянный_градиент_224-8" x1="2328.23" y1="876.12" x2="2352.84" y2="876.12" xlink:href="#Безымянный_градиент_224"/>
    <linearGradient id="Безымянный_градиент_224-9" x1="2336.28" y1="803.75" x2="2353.25" y2="803.75" xlink:href="#Безымянный_градиент_224"/>
    <linearGradient id="Безымянный_градиент_102-5" x1="2341.19" y1="775.09" x2="2353.15" y2="775.09" xlink:href="#Безымянный_градиент_102"/>
    <linearGradient id="Безымянный_градиент_102-6" x1="2332.78" y1="832.4" x2="2353.1" y2="832.4" xlink:href="#Безымянный_градиент_102"/>
    <linearGradient id="Безымянный_градиент_453" data-name="Безымянный градиент 453" x1="-4146.13" y1="20.52" x2="-4126.04" y2="20.52" gradientTransform="translate(8240.36)" gradientUnits="userSpaceOnUse">
      <stop offset="0" stop-color="#f6ab6f"/>
      <stop offset="1" stop-color="#b1632f"/>
    </linearGradient>
    <linearGradient id="Безымянный_градиент_453-2" x1="-4290.18" y1="49.95" x2="-4270.1" y2="49.95" gradientTransform="translate(7659.08)" xlink:href="#Безымянный_градиент_453"/>
    <linearGradient id="Безымянный_градиент_200" data-name="Безымянный градиент 200" x1="3270.47" y1="671.82" x2="3270.47" y2="694.49" gradientUnits="userSpaceOnUse">
      <stop offset="0" stop-color="#7c7b83"/>
      <stop offset="0.23" stop-color="#686771"/>
      <stop offset="0.58" stop-color="#4f4c5a"/>
      <stop offset="0.78" stop-color="#454251"/>
      <stop offset="1" stop-color="#423e4e"/>
    </linearGradient>
    <linearGradient id="Безымянный_градиент_200-2" x1="3270.47" y1="737.96" x2="3270.47" y2="760.63" xlink:href="#Безымянный_градиент_200"/>
    <linearGradient id="Безымянный_градиент_48" data-name="Безымянный градиент 48" x1="3138.22" y1="663.6" x2="3138.22" y2="689.41" gradientUnits="userSpaceOnUse">
      <stop offset="0" stop-color="#797780"/>
      <stop offset="1" stop-color="#433d4a"/>
    </linearGradient>
    <linearGradient id="Безымянный_градиент_207" data-name="Безымянный градиент 207" x1="3032.8" y1="696.8" x2="3048.09" y2="683.39" gradientUnits="userSpaceOnUse">
      <stop offset="0" stop-color="#66636e"/>
      <stop offset="1" stop-color="#433d4a"/>
    </linearGradient>
    <linearGradient id="Безымянный_градиент_220" data-name="Безымянный градиент 220" x1="2865.7" y1="669.32" x2="2865.7" y2="594.97" gradientUnits="userSpaceOnUse">
      <stop offset="0" stop-color="#66636e"/>
      <stop offset="1" stop-color="#8d8997"/>
    </linearGradient>
    <linearGradient id="Безымянный_градиент_320" data-name="Безымянный градиент 320" x1="2865.62" y1="781.07" x2="2865.62" y2="903.84" gradientUnits="userSpaceOnUse">
      <stop offset="0" stop-color="#797780"/>
      <stop offset="0.2" stop-color="#504b58"/>
      <stop offset="0.81" stop-color="#504b58"/>
      <stop offset="1" stop-color="#433d4a"/>
    </linearGradient>
    <filter id="luminosity-noclip-3" x="3521.65" y="463.6" width="75.11" height="52.71" filterUnits="userSpaceOnUse" color-interpolation-filters="sRGB">
      <feFlood flood-color="#fff" result="bg"/>
      <feBlend in="SourceGraphic" in2="bg"/>
    </filter>
    <mask id="mask-3" x="3521.65" y="463.6" width="75.11" height="52.71" maskUnits="userSpaceOnUse">
      <g class="cls-1">
        <path class="cls-2" d="M3528.83,514.2l.32,2.12h67.6c-17.11-31.05-41.12-52.72-61.45-52.72a24.1,24.1,0,0,0-13.65,4Z"/>
      </g>
    </mask>
    <linearGradient id="Безымянный_градиент_56" data-name="Безымянный градиент 56" x1="3535.21" y1="494.93" x2="3592.14" y2="485.4" gradientUnits="userSpaceOnUse">
      <stop offset="0" stop-color="#66646b"/>
      <stop offset="1" stop-color="#66646b"/>
    </linearGradient>
    <filter id="luminosity-noclip-4" x="3588.69" y="598.19" width="662.34" height="264.46" filterUnits="userSpaceOnUse" color-interpolation-filters="sRGB">
      <feFlood flood-color="#fff" result="bg"/>
      <feBlend in="SourceGraphic" in2="bg"/>
    </filter>
    <mask id="mask-4" x="3588.69" y="598.19" width="662.34" height="264.46" maskUnits="userSpaceOnUse">
      <g class="cls-3">
        <polygon class="cls-4" points="3969.82 746.48 3588.69 598.19 3720.47 862.65 4251.03 862.65 4251.03 788.12 3969.82 746.48"/>
      </g>
    </mask>
    <linearGradient id="Безымянный_градиент_93" data-name="Безымянный градиент 93" x1="3566.67" y1="702.92" x2="3951" y2="815.23" gradientUnits="userSpaceOnUse">
      <stop offset="0" stop-color="#1e0e00"/>
      <stop offset="1" stop-color="#1a0b00"/>
    </linearGradient>
    <linearGradient id="Безымянный_градиент_323" data-name="Безымянный градиент 323" x1="3570.77" y1="898.41" x2="3590.74" y2="846.63" gradientUnits="userSpaceOnUse">
      <stop offset="0" stop-color="#706e78"/>
      <stop offset="1" stop-color="#433d4a"/>
    </linearGradient>
    <linearGradient id="Безымянный_градиент_168" data-name="Безымянный градиент 168" x1="3653.87" y1="708.54" x2="3621.98" y2="823.84" gradientUnits="userSpaceOnUse">
      <stop offset="0.09" stop-color="#433d4a"/>
      <stop offset="0.41" stop-color="#55505d"/>
      <stop offset="1" stop-color="#433d4a"/>
    </linearGradient>
    <linearGradient id="Безымянный_градиент_323-2" x1="3569.1" y1="873.68" x2="3583.13" y2="826.89" xlink:href="#Безымянный_градиент_323"/>
    <linearGradient id="Безымянный_градиент_48-2" x1="3608.53" y1="740.8" x2="3608.53" y2="792.16" xlink:href="#Безымянный_градиент_48"/>
    <linearGradient id="Безымянный_градиент_48-3" x1="3747.27" y1="816.15" x2="3747.27" y2="852.35" xlink:href="#Безымянный_градиент_48"/>
    <linearGradient id="Безымянный_градиент_48-4" x1="3814.18" y1="816.15" x2="3814.18" y2="852.35" xlink:href="#Безымянный_градиент_48"/>
    <linearGradient id="Безымянный_градиент_48-5" x1="3903.92" y1="816.15" x2="3903.92" y2="852.35" xlink:href="#Безымянный_градиент_48"/>
    <linearGradient id="Безымянный_градиент_48-6" x1="3970.83" y1="816.15" x2="3970.83" y2="852.35" xlink:href="#Безымянный_градиент_48"/>
    <linearGradient id="Безымянный_градиент_323-3" x1="4056.46" y1="879.71" x2="4065.5" y2="849.45" xlink:href="#Безымянный_градиент_323"/>
    <linearGradient id="Безымянный_градиент_195" data-name="Безымянный градиент 195" x1="3891.02" y1="723.81" x2="3891.02" y2="832.37" gradientUnits="userSpaceOnUse">
      <stop offset="0" stop-color="#797780"/>
      <stop offset="0.28" stop-color="#66626d"/>
      <stop offset="0.74" stop-color="#4c4753"/>
      <stop offset="1" stop-color="#433d4a"/>
    </linearGradient>
    <linearGradient id="Безымянный_градиент_39" data-name="Безымянный градиент 39" x1="3917" y1="239.07" x2="3944.46" y2="243.74" gradientUnits="userSpaceOnUse">
      <stop offset="0" stop-color="#4e4b5a"/>
      <stop offset="0.37" stop-color="#555260"/>
      <stop offset="0.88" stop-color="#444150"/>
    </linearGradient>
    <linearGradient id="Безымянный_градиент_48-7" x1="4337.94" y1="482.69" x2="4337.94" y2="507.02" xlink:href="#Безымянный_градиент_48"/>
    <linearGradient id="Безымянный_градиент_220-2" x1="4736.08" y1="717.44" x2="4736.08" y2="674.37" xlink:href="#Безымянный_градиент_220"/>
    <linearGradient id="Безымянный_градиент_369" data-name="Безымянный градиент 369" x1="4485.62" y1="809.56" x2="4485.62" y2="856.37" gradientUnits="userSpaceOnUse">
      <stop offset="0" stop-color="#ffce52"/>
      <stop offset="0.4" stop-color="#b98c35"/>
      <stop offset="0.9" stop-color="#9d722b"/>
    </linearGradient>
    <linearGradient id="Безымянный_градиент_48-8" x1="3849.53" y1="482.69" x2="3849.53" y2="507.02" xlink:href="#Безымянный_градиент_48"/>
  </defs>
  <g id="Слой_2" data-name="Слой 2">
    <g id="Слой_1-2" data-name="Слой 1">
      <rect class="cls-5" x="2187.1" y="444.9" width="15.06" height="434.77"/>
      <g>
        <g>
          <polygon class="cls-6" points="2187.1 170.52 2090.09 307.71 2105.14 307.71 2202.15 170.52 2187.1 170.52"/>
          <polygon class="cls-7" points="2105.14 307.71 2090.09 307.71 2187.1 444.9 2202.15 444.9 2105.14 307.71"/>
        </g>
        <polygon class="cls-8" points="2202.15 170.52 2105.14 307.71 2202.15 444.9 2299.16 307.71 2202.15 170.52"/>
        <path class="cls-9" d="M2202.15,432.49a3.61,3.61,0,0,1-2.89-1.7l-84.14-119a7.59,7.59,0,0,1,0-8.19l84.14-119a3.32,3.32,0,0,1,5.79,0l84.14,119a7.63,7.63,0,0,1,0,8.19l-84.14,119A3.61,3.61,0,0,1,2202.15,432.49Zm-78.34-124.78,78.34,110.8,78.35-110.8-78.35-110.8Z"/>
        <g>
          <rect class="cls-9" x="2180.38" y="246.25" width="10.92" height="118.84"/>
          <path class="cls-9" d="M2226.69,365.08h-10.91V329.36a20.38,20.38,0,0,0-1.29-7.19l-9.78-25.69a41,41,0,0,1-2.59-14.51V246.25H2213V282a20.37,20.37,0,0,0,1.28,7.19l9.79,25.69a41.25,41.25,0,0,1,2.58,14.51Z"/>
        </g>
      </g>
      <polygon class="cls-10" points="6490.85 910.25 6821.07 910.25 6821.07 909.65 6490.85 907.22 6490.85 910.25"/>
      <rect class="cls-11" x="6483.33" y="444.9" width="15.06" height="465.34"/>
      <g>
        <g>
          <polygon class="cls-12" points="6483.33 170.52 6386.32 307.71 6401.38 307.71 6498.38 170.52 6483.33 170.52"/>
          <polygon class="cls-13" points="6401.38 307.71 6386.32 307.71 6483.33 444.9 6498.38 444.9 6401.38 307.71"/>
        </g>
        <polygon class="cls-14" points="6498.38 170.52 6401.38 307.71 6498.38 444.9 6595.39 307.71 6498.38 170.52"/>
        <path class="cls-9" d="M6498.38,432.49a3.61,3.61,0,0,1-2.89-1.7l-84.14-119a7.59,7.59,0,0,1,0-8.19l84.14-119a3.32,3.32,0,0,1,5.79,0l84.14,119a7.63,7.63,0,0,1,0,8.19l-84.14,119A3.61,3.61,0,0,1,6498.38,432.49ZM6415.9,307.71l82.48,116.65,82.49-116.65-82.49-116.65Z"/>
        <g>
          <path class="cls-15" d="M6463.11,278.49v13.42h-4.78V258.33h8.3A8,8,0,0,1,6473,261c1.54,1.74,2.3,4.17,2.3,7.3a9.56,9.56,0,0,1-1,4.46,7.62,7.62,0,0,1-2.83,3,5.54,5.54,0,0,1,3,2.93,12.47,12.47,0,0,1,.92,5.08v2.47a17.1,17.1,0,0,0,.27,2.94,4.66,4.66,0,0,0,.92,2.27v.48h-4.91a4.48,4.48,0,0,1-.84-2.44,31.62,31.62,0,0,1-.19-3.3v-2.38a6.77,6.77,0,0,0-1-3.91,3.13,3.13,0,0,0-2.74-1.39Zm0-5.19h3.44a3.63,3.63,0,0,0,3-1.2,5.48,5.48,0,0,0,1-3.55,6.12,6.12,0,0,0-1-3.67,3.34,3.34,0,0,0-2.91-1.36h-3.52Z"/>
          <path class="cls-15" d="M6498.6,278.14a17.76,17.76,0,0,1-2.75,10.23,8.37,8.37,0,0,1-14.32,0,17.79,17.79,0,0,1-2.75-10.22v-6a17.88,17.88,0,0,1,2.74-10.21,8.26,8.26,0,0,1,7.12-4.05,8.39,8.39,0,0,1,7.19,4.05,17.65,17.65,0,0,1,2.77,10.21Zm-4.74-6.09a13.26,13.26,0,0,0-1.39-6.43,4.23,4.23,0,0,0-3.83-2.52,4.13,4.13,0,0,0-3.76,2.52,13.51,13.51,0,0,0-1.35,6.43v6.09a13.62,13.62,0,0,0,1.36,6.51,4.16,4.16,0,0,0,3.78,2.51,4.23,4.23,0,0,0,3.82-2.51,13.61,13.61,0,0,0,1.37-6.51Z"/>
          <path class="cls-15" d="M6514.07,284.67h-7.7l-1.6,7.24h-5l8-33.58h4.88l8,33.58h-5Zm-6.53-5.28h5.37l-2.63-11.84h-.1Z"/>
          <path class="cls-15" d="M6522.92,291.91V258.33h8.31a8.5,8.5,0,0,1,7.16,3.93,16.91,16.91,0,0,1,2.82,10.09v5.56a16.82,16.82,0,0,1-2.82,10.09,8.51,8.51,0,0,1-7.16,3.91Zm4.78-28.39v23.23h3.53a4.29,4.29,0,0,0,3.77-2.48,12.45,12.45,0,0,0,1.45-6.36v-5.6A12.3,12.3,0,0,0,6535,266a4.27,4.27,0,0,0-3.77-2.48Z"/>
          <path class="cls-15" d="M6472,328h.1l3.15-22.79h4.91l-5.55,33.59h-4.42l-4.37-22.13h-.1l-4.35,22.13h-4.42l-5.55-33.59h4.91l3.17,22.77h.09l4.28-22.77h3.85Z"/>
          <path class="cls-15" d="M6501.38,325a17.68,17.68,0,0,1-2.76,10.23,8.37,8.37,0,0,1-14.32,0,17.77,17.77,0,0,1-2.74-10.22v-6a17.87,17.87,0,0,1,2.73-10.21,8.26,8.26,0,0,1,7.12-4.05,8.38,8.38,0,0,1,7.19,4.05,17.66,17.66,0,0,1,2.78,10.21Zm-4.75-6.09a13.15,13.15,0,0,0-1.39-6.43,4.23,4.23,0,0,0-3.83-2.52,4.14,4.14,0,0,0-3.76,2.52,13.51,13.51,0,0,0-1.35,6.43V325a13.74,13.74,0,0,0,1.36,6.51,4.14,4.14,0,0,0,3.78,2.51,4.2,4.2,0,0,0,3.82-2.51,13.61,13.61,0,0,0,1.37-6.51Z"/>
          <path class="cls-15" d="M6509.89,325.34v13.43h-4.78V305.18h8.3a8,8,0,0,1,6.37,2.62c1.53,1.74,2.3,4.18,2.3,7.3a9.68,9.68,0,0,1-1,4.46,7.7,7.7,0,0,1-2.83,3,5.56,5.56,0,0,1,3,2.93,12.3,12.3,0,0,1,.92,5.08v2.47a16.92,16.92,0,0,0,.27,2.94,4.66,4.66,0,0,0,.92,2.27v.49h-4.91a4.55,4.55,0,0,1-.84-2.45,31.54,31.54,0,0,1-.18-3.3v-2.37a6.82,6.82,0,0,0-1-3.91,3.15,3.15,0,0,0-2.75-1.4Zm0-5.19h3.44a3.66,3.66,0,0,0,3-1.2,5.52,5.52,0,0,0,1-3.55,6.19,6.19,0,0,0-1-3.67,3.37,3.37,0,0,0-2.92-1.36h-3.52Z"/>
          <path class="cls-15" d="M6533.17,324.83h-2v13.94h-4.76V305.18h4.76V319h1.66l6.05-13.82h5.89l-7.81,15.64,8.46,17.95h-6.06Z"/>
          <path class="cls-15" d="M6501.67,380h-6.75V348.86h6.75Zm0,16.41h-6.75v-8.37h6.75Z"/>
        </g>
      </g>
      <rect class="cls-16" y="879.67" width="3788.37" height="30.58"/>
      <g>
        <rect class="cls-17" x="310.81" y="905.51" width="49.44" height="11.29"/>
        <rect class="cls-18" x="360.24" y="905.51" width="49.44" height="11.29"/>
        <g>
          <path class="cls-19" d="M366.37,734.2a2.44,2.44,0,0,0-2.42-2.09h-7.42a2.43,2.43,0,0,0-2.41,2.09l-3.8,26.56h19.85Z"/>
          <polygon class="cls-20" points="329.59 905.51 390.89 905.51 382.48 846.73 338.01 846.73 329.59 905.51"/>
          <polygon class="cls-21" points="346.21 789.42 342.11 818.07 378.37 818.07 374.27 789.42 346.21 789.42"/>
          <polygon class="cls-22" points="370.17 760.76 350.31 760.76 346.21 789.42 374.27 789.42 370.17 760.76"/>
          <polygon class="cls-23" points="338.01 846.73 382.48 846.73 378.37 818.07 342.11 818.07 338.01 846.73"/>
        </g>
      </g>
      <g>
        <rect class="cls-17" x="1305.83" y="905.51" width="49.44" height="11.29"/>
        <rect class="cls-18" x="1355.27" y="905.51" width="49.44" height="11.29"/>
        <g>
          <path class="cls-24" d="M1361.39,734.2a2.43,2.43,0,0,0-2.41-2.09h-7.42a2.43,2.43,0,0,0-2.41,2.09l-3.81,26.56h19.86Z"/>
          <polygon class="cls-25" points="1324.62 905.51 1385.92 905.51 1377.5 846.73 1333.03 846.73 1324.62 905.51"/>
          <polygon class="cls-26" points="1341.24 789.42 1337.14 818.07 1373.4 818.07 1369.3 789.42 1341.24 789.42"/>
          <polygon class="cls-27" points="1365.2 760.76 1345.34 760.76 1341.24 789.42 1369.3 789.42 1365.2 760.76"/>
          <polygon class="cls-28" points="1333.03 846.73 1377.5 846.73 1373.4 818.07 1337.14 818.07 1333.03 846.73"/>
        </g>
      </g>
      <g>
        <rect class="cls-17" x="2300.86" y="905.51" width="49.44" height="11.29"/>
        <rect class="cls-18" x="2350.3" y="905.51" width="49.44" height="11.29"/>
        <g>
          <path class="cls-29" d="M2356.42,734.2a2.43,2.43,0,0,0-2.41-2.09h-7.42a2.44,2.44,0,0,0-2.42,2.09l-3.8,26.56h19.85Z"/>
          <polygon class="cls-30" points="2319.64 905.51 2380.95 905.51 2372.53 846.73 2328.06 846.73 2319.64 905.51"/>
          <polygon class="cls-31" points="2336.27 789.42 2332.16 818.07 2368.43 818.07 2364.33 789.42 2336.27 789.42"/>
          <polygon class="cls-32" points="2360.22 760.76 2340.37 760.76 2336.27 789.42 2364.33 789.42 2360.22 760.76"/>
          <polygon class="cls-33" points="2328.06 846.73 2372.53 846.73 2368.43 818.07 2332.16 818.07 2328.06 846.73"/>
        </g>
      </g>
      <polygon class="cls-10" points="5512.55 902.15 4774.2 902.15 4429.22 910.25 4983.35 910.25 6165.17 910.25 5512.55 902.15"/>
      <g>
        <polygon class="cls-34" points="4118.98 0 4091.38 0 4087.54 41.04 4122.82 41.04 4118.98 0"/>
        <polygon class="cls-35" points="3393.65 29.43 3366.04 29.43 3362.2 70.47 3397.49 70.47 3393.65 29.43"/>
        <rect class="cls-36" x="2618.11" y="833.66" width="134.46" height="31.4"/>
        <g>
          <path class="cls-37" d="M3632.69,430.15h-35.58c-21.39,0-38.78,24.6-38.78,54.84V593.92h9V485c0-23.24,13.37-42.15,29.81-42.15h35.58c16.44,0,29.81,18.91,29.81,42.15V593.92h9V485C3671.47,454.75,3654.07,430.15,3632.69,430.15Z"/>
          <path class="cls-38" d="M3567.3,485V593.92h9V485c0-23.24,13.37-42.15,29.81-42.15h-9C3580.67,442.84,3567.3,461.75,3567.3,485Z"/>
          <path class="cls-38" d="M3641.66,430.15h-9c21.38,0,38.78,24.6,38.78,54.84V593.92h9V485C3680.44,454.75,3663,430.15,3641.66,430.15Z"/>
        </g>
        <g>
          <path class="cls-37" d="M3522.28,430.15H3486.7c-21.39,0-38.79,24.6-38.79,54.84V593.92h9V485c0-23.24,13.37-42.15,29.81-42.15h35.58c16.43,0,29.8,18.91,29.8,42.15V593.92h9V485C3561.06,454.75,3543.66,430.15,3522.28,430.15Z"/>
          <path class="cls-38" d="M3456.89,485V593.92h9V485c0-23.24,13.37-42.15,29.81-42.15h-9C3470.26,442.84,3456.89,461.75,3456.89,485Z"/>
          <path class="cls-38" d="M3531.25,430.15h-9c21.38,0,38.78,24.6,38.78,54.84V593.92h9V485C3570,454.75,3552.63,430.15,3531.25,430.15Z"/>
        </g>
        <polygon class="cls-39" points="3302.19 650.44 3277.62 803.53 3312.87 803.53 3337.44 650.44 3302.19 650.44"/>
        <polygon class="cls-40" points="3403.8 650.44 3403.8 803.53 3312.87 803.53 3337.44 650.44 3403.8 650.44"/>
        <polygon class="cls-41" points="3362.01 693.97 3403.8 693.97 3403.8 650.44 3337.44 650.44 3312.87 803.53 3344.43 803.53 3362.01 693.97"/>
        <polygon class="cls-37" points="3266.41 593.92 3232.77 803.53 3277.62 803.53 3302.19 650.44 3403.8 650.44 3403.8 803.53 3448.66 803.53 3448.66 593.92 3266.41 593.92"/>
        <path class="cls-42" d="M3403.8,671.25H3150.14c-7.18,0-13,8.23-13,18.39s5.82,18.4,13,18.4H3403.8Z"/>
        <path class="cls-43" d="M3137.14,689.64c0,10.16,5.82,18.4,13,18.4H3174V695.09c0-10.26-4-19.18-9.93-23.84h-13.93C3143,671.25,3137.14,679.48,3137.14,689.64Z"/>
        <path class="cls-44" d="M3403.8,737.39H3150.14c-7.18,0-13,8.23-13,18.39s5.82,18.4,13,18.4H3403.8Z"/>
        <path class="cls-43" d="M3375.31,671.25c7,0,14.89,8.23,17.72,18.39s-.49,18.4-7.44,18.4h18.21V671.25Z"/>
        <path class="cls-43" d="M3375.31,737.39c7,0,14.89,8.23,17.72,18.39s-.49,18.4-7.44,18.4h18.21V737.39Z"/>
        <path class="cls-43" d="M3137.14,755.78c0,10.16,6.91,18.4,15.44,18.4h28.32V761.23c0-10.26-4.76-19.19-11.79-23.84h-16.53C3144.05,737.39,3137.14,745.62,3137.14,755.78Z"/>
        <path class="cls-45" d="M3150.14,662.37h-23.83c-10.66,0-19.29,12.21-19.29,27.27V803.53h62.41V689.64C3169.43,674.58,3160.79,662.37,3150.14,662.37Z"/>
        <path class="cls-37" d="M3126.31,662.37c-10.66,0-19.29,12.21-19.29,27.27V803.53h38.57V689.64C3145.59,674.58,3137,662.37,3126.31,662.37Z"/>
        <rect class="cls-46" x="3448.66" y="593.92" width="190.47" height="209.61"/>
        <path class="cls-47" d="M4503.72,876,4483,800.76c-3.43-12.48-11.93-20.7-21.4-20.7H4201c-10.41,0-18.86,11.94-18.86,26.67V853l40.49,57.26h264.5C4499.65,910.25,4508.25,892.48,4503.72,876Z"/>
        <g>
          <path class="cls-38" d="M2889.58,613.47h112.24c21.39,0,38.78,24.6,38.78,54.85V803.53h-9V668.32c0-23.25-13.37-42.16-29.81-42.16H2889.58c-16.44,0-29.81,18.91-29.81,42.16V803.53h-9V668.32C2850.79,638.07,2868.19,613.47,2889.58,613.47Z"/>
          <path class="cls-48" d="M3031.63,668.32V803.53h-9V668.32c0-23.25-13.37-42.16-29.81-42.16h9C3018.26,626.16,3031.63,645.07,3031.63,668.32Z"/>
          <path class="cls-49" d="M2880.6,613.47h9c-21.38,0-38.78,24.6-38.78,54.85V803.53h-9V668.32C2841.82,638.07,2859.22,613.47,2880.6,613.47Z"/>
        </g>
        <g>
          <polygon class="cls-50" points="2753.65 521.51 2702.9 593.28 2717.48 613.91 2768.23 542.14 2753.65 521.51"/>
          <polygon class="cls-51" points="2768.23 542.14 2717.48 613.91 2809.33 613.91 2860.08 542.14 2768.23 542.14"/>
          <polygon class="cls-52" points="2845.5 521.51 2753.65 521.51 2768.23 542.14 2860.08 542.14 2845.5 521.51"/>
          <polygon class="cls-53" points="2766.72 595.43 2766.72 803.53 2786.23 803.53 2786.23 567.84 2766.72 595.43"/>
          <polygon class="cls-54" points="2766.72 674.46 2786.23 646.87 2786.23 567.84 2766.72 595.43 2766.72 674.46"/>
          <rect class="cls-9" x="2786.23" y="567.84" width="19.51" height="235.68"/>
        </g>
        <rect class="cls-9" x="2752.57" y="803.53" width="1718.7" height="106.72"/>
        <polygon class="cls-55" points="3506.91 537.89 3515.89 537.89 3005.71 777.98 2996.74 777.98 3506.91 537.89"/>
        <rect class="cls-37" x="2996.74" y="777.98" width="8.97" height="19.76"/>
        <polygon class="cls-56" points="3515.89 537.89 3515.89 557.65 3005.71 797.75 3005.71 777.98 3515.89 537.89"/>
        <g>
          <path class="cls-57" d="M3025.78,876l-20.69-75.25c-3.43-12.48-11.93-20.7-21.4-20.7h-260.6c-10.41,0-18.86,11.94-18.86,26.67V853l40.49,57.26h264.5C3021.72,910.25,3030.31,892.48,3025.78,876Z"/>
          <path class="cls-50" d="M3002,876l-20.7-75.25c-3.43-12.48-11.93-20.7-21.4-20.7h-260.6c-10.41,0-18.85,11.94-18.85,26.67V853l40.48,57.26h264.51C2997.88,910.25,3006.48,892.48,3002,876Z"/>
        </g>
        <g>
          <path class="cls-51" d="M4052.3,713.84,4005.87,707a48.57,48.57,0,0,0-7.16-.53c-37.35,0-67.64,42.83-67.64,95.67s30.29,95.66,67.64,95.66h79.71c-37.36,0-67.65-42.83-67.65-95.66C4010.77,762.37,4027.91,728.3,4052.3,713.84Z"/>
          <path class="cls-47" d="M4064.27,706.44h-51.41c-37.36,0-67.64,42.83-67.64,95.67s30.28,95.66,67.64,95.66h51.41c37.36,0,67.64-42.83,67.64-95.66S4101.63,706.44,4064.27,706.44Z"/>
          <ellipse class="cls-51" cx="4012.86" cy="802.11" rx="67.64" ry="95.67"/>
          <path class="cls-51" d="M4487.21,776.45a31.38,31.38,0,0,1,4.56.34c21.54,3.22,38.33,29,38.33,60.32,0,33.5-19.2,60.66-42.89,60.66s-42.89-27.16-42.89-60.66S4463.52,776.45,4487.21,776.45Z"/>
          <path class="cls-58" d="M3998.71,706.44c-37.35,0-67.64,42.83-67.64,95.67s30.29,95.66,67.64,95.66h474.35c23.69,0,42.9-27.16,42.9-60.66,0-31.32-16.79-57.1-38.34-60.32L4005.87,707a48.57,48.57,0,0,0-7.16-.53m0-12.47a55.9,55.9,0,0,1,8.08.59l471.75,69.82c26.36,3.94,46.24,35.2,46.24,72.73,0,40.33-23.2,73.14-51.72,73.14H3998.71c-42.16,0-76.46-48.51-76.46-108.14S3956.55,694,3998.71,694Z"/>
          <path class="cls-47" d="M4186.14,816.07h-28.3c-15.95,0-28.88,18.29-28.88,40.85s12.93,40.85,28.88,40.85h28.3c15.95,0,28.88-18.29,28.88-40.85S4202.09,816.07,4186.14,816.07Z"/>
          <ellipse class="cls-51" cx="4157.84" cy="856.92" rx="28.89" ry="40.85"/>
          <path class="cls-47" d="M4253.05,816.07h-28.29c-16,0-28.89,18.29-28.89,40.85s12.93,40.85,28.89,40.85h28.29c16,0,28.89-18.29,28.89-40.85S4269,816.07,4253.05,816.07Z"/>
          <ellipse class="cls-51" cx="4224.76" cy="856.92" rx="28.89" ry="40.85"/>
          <path class="cls-47" d="M4342.79,816.07h-28.3c-15.95,0-28.88,18.29-28.88,40.85s12.93,40.85,28.88,40.85h28.3c15.95,0,28.89-18.29,28.89-40.85S4358.74,816.07,4342.79,816.07Z"/>
          <ellipse class="cls-51" cx="4314.49" cy="856.92" rx="28.89" ry="40.85"/>
          <path class="cls-47" d="M4409.71,816.07h-28.3c-16,0-28.89,18.29-28.89,40.85s12.93,40.85,28.89,40.85h28.3c15.95,0,28.88-18.29,28.88-40.85S4425.66,816.07,4409.71,816.07Z"/>
          <ellipse class="cls-51" cx="4381.41" cy="856.92" rx="28.89" ry="40.85"/>
          <path class="cls-47" d="M4558.24,764.38l-471.75-69.82a55.87,55.87,0,0,0-8.07-.59h-79.71a55.9,55.9,0,0,1,8.08.59l471.75,69.82c26.36,3.94,46.24,35.2,46.24,72.73,0,40.33-23.2,73.14-51.72,73.14h79.71c28.51,0,51.71-32.81,51.71-73.14C4604.48,799.58,4584.6,768.32,4558.24,764.38Z"/>
        </g>
        <polygon class="cls-59" points="3419.97 82.12 3322.14 125.11 3810.96 125.11 3908.79 82.12 3419.97 82.12"/>
        <polygon class="cls-37" points="3745.72 82.12 3731.38 88.42 3731.38 382.54 3745.72 376.76 3745.72 82.12 3745.72 82.12"/>
        <polygon class="cls-60" points="3745.72 302.96 3731.38 281.46 3731.38 88.42 3745.72 82.12 3745.72 302.96"/>
        <rect class="cls-38" x="3745.72" y="82.12" width="14.34" height="294.64"/>
        <g>
          <polygon class="cls-37" points="3618.71 516.32 3557.39 376.76 3557.39 82.12 3557.39 82.12 3543.05 88.42 3543.05 382.54 3601.84 516.32 3601.84 610.54 3643.33 652.99 3643.33 516.32 3618.71 516.32"/>
          <polygon class="cls-60" points="3557.39 302.96 3543.05 281.46 3543.05 88.42 3557.39 82.12 3557.39 302.96"/>
          <rect class="cls-38" x="3557.39" y="82.12" width="14.34" height="294.64"/>
        </g>
        <polygon class="cls-38" points="3618.71 516.32 3557.39 376.76 3571.73 376.76 3633.05 516.32 3618.71 516.32"/>
        <g>
          <g>
            <path class="cls-61" d="M3629.29,386h-36.95l-7.44-68c-1-10-9.75-18.24-19.41-18.24h-82.08c-9.66,0-16.74,8.21-15.73,18.24l4,39.34,5.09,49.82c1,9.86,9,17.34,18.58,17.34h134.44c10.54,0,19-9.12,18.52-20.17A19.18,19.18,0,0,0,3629.29,386Z"/>
            <path class="cls-62" d="M3565.46,404.31a19.18,19.18,0,0,0-19-18.3h-36.94L3502,318c-1-9.89-9.51-18-19-18.21-9.46.22-16.34,8.32-15.34,18.21l4,39.34,5.09,49.82c1,9.86,9,17.34,18.57,17.34H3547C3557.48,424.48,3566,415.36,3565.46,404.31Z"/>
            <polygon class="cls-63" points="3515 424.48 3529.15 516.32 3615.08 516.32 3600.93 424.48 3515 424.48"/>
            <g class="cls-64">
              <path class="cls-65" d="M3528.83,514.2l.32,2.12h67.6c-17.11-31.05-41.12-52.72-61.45-52.72a24.1,24.1,0,0,0-13.65,4Z"/>
            </g>
          </g>
          <g>
            <path class="cls-61" d="M3615,310.67c-16.61,16.6-20,40.11-7.62,52.51s35.91,9,52.52-7.62,20-40.11,7.62-52.51S3631.62,294.06,3615,310.67Zm36.75,36.75c-12.11,12.11-28.33,15.52-36.23,7.62s-4.48-24.12,7.62-36.23,28.33-15.52,36.23-7.62S3663.88,335.31,3651.77,347.42Z"/>
            <path class="cls-66" d="M3681.52,516.32V372.25A39.48,39.48,0,0,0,3663.38,339l-13.93-9a12,12,0,0,0-18.4,10.72l9.73,175.52Z"/>
          </g>
        </g>
        <g>
          <path class="cls-63" d="M4008.15,386h-37l-7.44-68c-1-10-9.75-18.24-19.41-18.24h-82.08c-9.66,0-16.74,8.21-15.73,18.24l4,39.34,5.09,49.82c1,9.86,9,17.34,18.58,17.34h134.44c10.54,0,19-9.12,18.52-20.17A19.18,19.18,0,0,0,4008.15,386Z"/>
          <g>
            <path class="cls-63" d="M3993.88,310.67c-16.61,16.6-20,40.11-7.62,52.51s35.91,9,52.52-7.62,20-40.11,7.62-52.51S4010.48,294.06,3993.88,310.67Zm36.75,36.75c-12.11,12.11-28.32,15.52-36.22,7.62s-4.49-24.12,7.61-36.23,28.33-15.52,36.23-7.62S4042.74,335.31,4030.63,347.42Z"/>
            <path class="cls-63" d="M4060.38,516.32V372.25A39.45,39.45,0,0,0,4042.24,339l-13.93-9a12,12,0,0,0-18.4,10.72l9.73,175.52Z"/>
          </g>
        </g>
        <polygon class="cls-67" points="3322.14 82.09 3415.57 41.04 3675.44 41.04 3675.44 82.12 3419.97 82.12 3322.14 125.11 3322.14 82.09"/>
        <rect class="cls-68" x="3675.44" y="41.04" width="488.82" height="41.08"/>
        <polygon class="cls-69" points="3969.82 516.32 3969.82 746.48 4251.03 788.12 4251.03 862.65 3588.69 862.65 3588.69 516.32 3969.82 516.32"/>
        <g class="cls-70">
          <polygon class="cls-71" points="3969.82 746.48 3588.69 598.19 3720.47 862.65 4251.03 862.65 4251.03 788.12 3969.82 746.48"/>
        </g>
        <rect class="cls-72" x="3761.42" y="841.21" width="195.27" height="31.42"/>
        <rect class="cls-72" x="3843.34" y="767.49" width="31.42" height="89.43"/>
        <polygon class="cls-72" points="4073.44 786.47 4073.44 821.11 3666.57 760.9 3666.57 726.25 4073.44 786.47"/>
        <path class="cls-73" d="M3641.72,713.84,3595.3,707a48.68,48.68,0,0,0-7.16-.53c-37.36,0-67.64,42.83-67.64,95.67s30.28,95.66,67.64,95.66h79.7c-37.36,0-67.64-42.83-67.64-95.66C3600.2,762.37,3617.33,728.3,3641.72,713.84Z"/>
        <path class="cls-74" d="M3653.69,706.44h-51.4c-37.36,0-67.65,42.83-67.65,95.67s30.29,95.66,67.65,95.66h51.4c37.36,0,67.65-42.83,67.65-95.66S3691.05,706.44,3653.69,706.44Z"/>
        <g>
          <ellipse class="cls-50" cx="3602.29" cy="802.11" rx="67.65" ry="95.67"/>
          <path class="cls-75" d="M3562.14,879.09a130.38,130.38,0,0,1-5.27-37.08c0-52.83,30.28-95.66,67.64-95.66a48.57,48.57,0,0,1,7.16.53l27.79,4.11c-12-26.76-33.11-44.55-57.17-44.55-37.36,0-67.65,42.83-67.65,95.67C3534.64,833.68,3545.46,861.67,3562.14,879.09Z"/>
          <ellipse class="cls-76" cx="3602.29" cy="802.11" rx="55.83" ry="78.96"/>
          <path class="cls-77" d="M3572.83,841.67c0-43.61,25-79,55.83-79a42.93,42.93,0,0,1,25,8.33c-8.53-28.16-28.3-47.89-51.34-47.89-30.84,0-55.84,35.35-55.84,79,0,30.91,12.57,57.66,30.87,70.62A107.27,107.27,0,0,1,3572.83,841.67Z"/>
          <path class="cls-78" d="M3616.65,725.88a40.56,40.56,0,0,0-14.36-2.73c-30.84,0-55.84,35.35-55.84,79s25,79,55.84,79a40.57,40.57,0,0,0,14.36-2.74c-23.86-9-41.47-39.65-41.47-76.22S3592.79,734.85,3616.65,725.88Z"/>
          <path class="cls-77" d="M3599.12,852.43l17.7,25.92c16-6.08,29.12-21.92,36-42.73Z"/>
          <path class="cls-79" d="M3658.12,802.11c0-24.41-7.83-46.23-20.13-60.71a31.52,31.52,0,0,0-5.76-.6h-29.94c-23.94,0-43.35,27.45-43.35,61.31s19.41,61.31,43.35,61.31h29.94a30.68,30.68,0,0,0,5.76-.61C3650.29,848.33,3658.12,826.51,3658.12,802.11Z"/>
          <ellipse class="cls-50" cx="3602.29" cy="802.11" rx="43.35" ry="61.31"/>
          <path class="cls-80" d="M3620.7,746.6c10.91,1.73,21,7.15,29.69,15.44A78.91,78.91,0,0,0,3638,741.4a31.52,31.52,0,0,0-5.76-.6H3602.3A33.06,33.06,0,0,1,3620.7,746.6Z"/>
          <path class="cls-75" d="M3620.58,746.52a33,33,0,0,0-18.29-5.72c-23.94,0-43.35,27.45-43.35,61.31a86.66,86.66,0,0,0,.84,12.08C3567.85,776.63,3591.8,748.86,3620.58,746.52Z"/>
        </g>
        <path class="cls-81" d="M3761.42,816.07h-28.3c-15.95,0-28.89,18.29-28.89,40.85s12.94,40.85,28.89,40.85h28.3c15.95,0,28.88-18.29,28.88-40.85S3777.37,816.07,3761.42,816.07Z"/>
        <ellipse class="cls-50" cx="3733.12" cy="856.92" rx="28.89" ry="40.85"/>
        <path class="cls-82" d="M3828.33,816.07H3800c-16,0-28.88,18.29-28.88,40.85s12.93,40.85,28.88,40.85h28.3c16,0,28.89-18.29,28.89-40.85S3844.28,816.07,3828.33,816.07Z"/>
        <ellipse class="cls-50" cx="3800.03" cy="856.92" rx="28.89" ry="40.85"/>
        <path class="cls-83" d="M3918.07,816.07h-28.3c-15.95,0-28.89,18.29-28.89,40.85s12.94,40.85,28.89,40.85h28.3c15.95,0,28.88-18.29,28.88-40.85S3934,816.07,3918.07,816.07Z"/>
        <ellipse class="cls-50" cx="3889.77" cy="856.92" rx="28.89" ry="40.85"/>
        <path class="cls-84" d="M3985,816.07h-28.3c-15.95,0-28.88,18.29-28.88,40.85s12.93,40.85,28.88,40.85H3985c16,0,28.89-18.29,28.89-40.85S4000.94,816.07,3985,816.07Z"/>
        <path class="cls-85" d="M3985,816.07h-28.3l25.08,20.63c8.13,7.23,13.56,20,13.56,34.58a51.74,51.74,0,0,1-6.7,26.13c14.23-2.54,25.25-19.68,25.25-40.49C4013.87,834.36,4000.94,816.07,3985,816.07Z"/>
        <ellipse class="cls-50" cx="3956.68" cy="856.92" rx="28.89" ry="40.85"/>
        <path class="cls-75" d="M3981.76,836.7c-5-12.31-14.33-20.63-25.08-20.63-8.58,0-16.26,5.32-21.55,13.72Z"/>
        <g>
          <ellipse class="cls-50" cx="4076.64" cy="837.11" rx="42.89" ry="60.66"/>
          <path class="cls-86" d="M4119.53,837.11c0-33.5-19.2-60.66-42.89-60.66s-42.89,27.16-42.89,60.66c0,.83,0,1.65,0,2.47l84.42,12.5A84.73,84.73,0,0,0,4119.53,837.11Z"/>
          <ellipse class="cls-76" cx="4076.64" cy="837.11" rx="35.4" ry="50.07"/>
          <path class="cls-77" d="M4058,862.2c0-27.65,15.85-50.07,35.4-50.07a27.18,27.18,0,0,1,15.83,5.29c-5.41-17.86-17.95-30.37-32.55-30.37-19.55,0-35.4,22.41-35.4,50.06,0,19.6,8,36.56,19.57,44.78A68.08,68.08,0,0,1,4058,862.2Z"/>
          <path class="cls-87" d="M4085.74,788.78a25.85,25.85,0,0,0-9.1-1.73c-19.55,0-35.4,22.41-35.4,50.06s15.85,50.07,35.4,50.07a25.63,25.63,0,0,0,9.1-1.74c-15.13-5.69-26.29-25.14-26.29-48.33S4070.61,794.47,4085.74,788.78Z"/>
          <path class="cls-77" d="M4074.63,869l11.22,16.43c10.13-3.85,18.46-13.89,22.85-27.09Z"/>
          <path class="cls-47" d="M4112,837.11c0-15.47-5-29.31-12.77-38.49a20.08,20.08,0,0,0-3.65-.38h-19c-15.18,0-27.49,17.4-27.49,38.87S4061.46,876,4076.64,876h19a19.24,19.24,0,0,0,3.65-.39C4107.07,866.42,4112,852.59,4112,837.11Z"/>
          <ellipse class="cls-50" cx="4076.64" cy="837.11" rx="27.49" ry="38.87"/>
          <path class="cls-86" d="M4104.13,837.11c0-21.47-12.31-38.87-27.49-38.87s-27.49,17.4-27.49,38.87c0,1.62.09,3.21.23,4.78l53.23,7.88A53.87,53.87,0,0,0,4104.13,837.11Z"/>
        </g>
        <path class="cls-50" d="M3588.14,706.44c-37.36,0-67.64,42.83-67.64,95.67s30.28,95.66,67.64,95.66h474.35c23.69,0,42.89-27.16,42.89-60.66,0-31.32-16.79-57.1-38.34-60.32L3595.3,707a48.68,48.68,0,0,0-7.16-.53m0-12.47a56.11,56.11,0,0,1,8.08.59L4068,764.38c26.37,3.94,46.24,35.2,46.24,72.73,0,40.33-23.2,73.14-51.71,73.14H3588.14c-42.16,0-76.47-48.51-76.47-108.14S3546,694,3588.14,694Z"/>
        <path class="cls-86" d="M4114.14,840.41c0-1.1.06-2.19.06-3.3,0-37.53-19.87-68.79-46.24-72.73L3915,741.75l5.29,13.32L4067,776.79c21.55,3.22,38.34,29,38.34,60.32,0,.67,0,1.33,0,2Z"/>
        <polygon class="cls-88" points="3707.04 723.51 3902.24 752.4 3902.24 739.86 3685.85 707.83 3707.04 723.51"/>
        <path class="cls-89" d="M4147.66,764.38l-471.74-69.82a56,56,0,0,0-8.08-.59h-79.7a56.11,56.11,0,0,1,8.08.59L4068,764.38c26.37,3.94,46.24,35.2,46.24,72.73,0,40.33-23.2,73.14-51.71,73.14h79.7c28.52,0,51.72-32.81,51.72-73.14C4193.91,799.58,4174,768.32,4147.66,764.38Z"/>
        <path class="cls-41" d="M3667.84,694h-36.18c15.5,0,20.89,1.82,34,6.57l20.15,7.29,58.53,8-14.63-13.27-53.83-8A56,56,0,0,0,3667.84,694Z"/>
        <polygon class="cls-90" points="3766.8 362.66 3974.42 516.32 3704.69 516.32 3704.69 362.66 3766.8 362.66"/>
        <polygon class="cls-91" points="3766.8 362.66 3704.69 362.66 3704.69 516.32 3863.99 516.32 3863.99 434.58 3766.8 362.66"/>
        <rect class="cls-92" x="3655.8" y="82.12" width="14.34" height="434.2"/>
        <rect class="cls-93" x="3655.8" y="82.12" width="14.34" height="36.71"/>
        <polygon class="cls-56" points="3766.8 362.66 3684.47 362.66 3684.47 82.12 3670.14 82.12 3670.14 516.32 3684.47 516.32 3684.47 382.93 3766.8 382.93 3766.8 362.66"/>
        <rect class="cls-94" x="4103.03" y="82.12" width="14.34" height="434.2"/>
        <polygon class="cls-56" points="4117.37 82.12 4117.37 362.66 4035.04 362.66 4035.04 382.93 4117.37 382.93 4117.37 516.32 4131.7 516.32 4131.7 82.12 4117.37 82.12"/>
        <rect class="cls-56" x="3893.75" y="82.12" width="14.34" height="280.54"/>
        <rect class="cls-94" x="3879.42" y="82.12" width="14.34" height="280.54"/>
        <polygon class="cls-95" points="4035.04 362.66 4242.65 516.32 3974.42 516.32 3766.8 362.66 4035.04 362.66"/>
        <polyline class="cls-95" points="4242.65 516.32 3974.42 516.32 3766.8 362.66 4035.04 362.66"/>
        <polygon class="cls-96" points="3766.8 362.66 3863.99 434.58 4085.37 516.32 4242.65 516.32 4035.04 362.66 3766.8 362.66"/>
        <polygon class="cls-97" points="3775.78 362.66 3983.39 516.32 4233.68 516.32 4026.07 362.66 3775.78 362.66"/>
        <polygon class="cls-98" points="3775.78 362.66 3881.89 441.19 4085.37 516.32 4233.68 516.32 4026.07 362.66 3775.78 362.66"/>
        <path class="cls-99" d="M3957.35,138.79c-2.7-17.81-9.35-32.25-14.84-32.25-2.6,0-4.46,3.25-5.43,8.53v0l-.09.58c0,.21-.07.42-.11.63L3896.68,364.5h0c-.25,1.22.86,2.94,3.43,4.85,5,3.7,13.43,6.7,18.88,6.7,2.82,0,4.26-.81,4.34-2.1h0l34.36-211.44v0C3958.81,156.61,3958.78,148.18,3957.35,138.79Z"/>
        <path class="cls-100" d="M3942.51,106.54c-5.49,0-7.76,14.44-5.05,32.25S3946.81,171,3952.3,171s7.76-14.43,5-32.24S3948,106.54,3942.51,106.54Z"/>
        <polygon class="cls-67" points="3482.6 516.32 3863.73 516.32 3863.73 746.48 3761.15 746.48 3560.8 598.19 3482.6 598.19 3482.6 516.32"/>
        <polygon class="cls-101" points="3736.99 684.59 3769.98 709 3818.16 709 3818.16 581.65 3736.99 581.65 3736.99 684.59"/>
        <polygon class="cls-102" points="3769.98 709 3736.99 684.59 3745.96 684.59 3778.95 709 3769.98 709"/>
        <polygon class="cls-103" points="3754.93 608.57 3818.16 608.57 3818.16 581.65 3736.99 581.65 3736.99 684.59 3754.93 691.23 3754.93 608.57"/>
        <rect class="cls-68" x="3736.98" y="581.65" width="8.97" height="102.93"/>
        <polygon class="cls-67" points="4179.38 794.26 4179.38 873.84 4137.88 873.84 4137.88 788.12 4179.38 794.26"/>
        <polygon class="cls-104" points="4179.38 850.07 4179.38 794.26 4137.88 788.12 4137.88 843.92 4179.38 850.07"/>
        <rect class="cls-105" x="4179.38" y="794.26" width="538.23" height="79.58"/>
        <polygon class="cls-106" points="4448.06 516.32 4439.08 516.32 3803.52 516.32 3821.47 517.49 4448.06 517.49 4731.01 554.48 4739.98 554.48 4448.06 516.32"/>
        <polygon class="cls-107" points="4644.12 543.12 4731.01 554.48 4739.98 554.48 4653.09 543.12 4644.12 543.12 4644.12 543.12"/>
        <path class="cls-108" d="M4337.12,472.68c-6.66,0-12.06,7.63-12.06,17.05s5.4,17,12.06,17h13.69v-34.1Z"/>
        <path class="cls-109" d="M4377.83,472.68h-27c-2.72,0-4.92,3.11-4.92,6.95v20.2c0,3.84,2.2,6.95,4.92,6.95h27c2.71,0,4.92-3.11,4.92-6.95v-20.2C4382.75,475.79,4380.54,472.68,4377.83,472.68Z"/>
        <polygon class="cls-68" points="3821.47 517.49 3821.47 686.83 3855.49 734.95 4414.03 734.95 4448.06 686.83 4448.06 517.49 3821.47 517.49"/>
        <polygon class="cls-102" points="3855.49 734.95 4188.35 784.39 4746.89 784.39 4414.03 734.95 3855.49 734.95"/>
        <polygon class="cls-110" points="4414.03 734.95 3855.49 734.95 3980.66 753.54 4539.19 753.54 4414.03 734.95"/>
        <polygon class="cls-111" points="4780.92 736.27 4746.89 784.39 4414.03 734.95 4448.06 686.83 4780.92 736.27"/>
        <polygon class="cls-112" points="4448.06 686.83 4414.03 734.95 4539.19 753.54 4539.19 700.37 4448.06 686.83"/>
        <polygon class="cls-67" points="4731.01 554.48 4780.92 652.03 4780.92 736.27 4448.06 686.83 4448.06 517.49 4731.01 554.48"/>
        <polygon class="cls-113" points="4780.92 736.27 4780.92 652.03 4731.01 554.48 4644.12 543.12 4533.53 699.52 4780.92 736.27"/>
        <polygon class="cls-114" points="4448.06 517.49 4448.06 686.83 4539.19 700.37 4448.06 517.49"/>
        <g>
          <polygon class="cls-115" points="3970.83 574.54 4377.83 472.68 4634.24 580.74 4760.45 700.37 4707.77 784.39 4171.99 784.39 4075.87 734.95 3970.83 574.54"/>
          <path class="cls-116" d="M4634.25,580.74,4377.83,472.68l-407,101.86,105,160.41L4172,784.39h535.78l52.68-84ZM4224.76,724.56l-27.42-66.62-90.2-63.64-49.39-41.52L4181.59,545l79.72,100.32,23.49,78Z"/>
          <polygon class="cls-117" points="4634.24 580.74 4693.85 784.39 4760.45 700.37 4634.24 580.74"/>
        </g>
        <polygon class="cls-118" points="4145.35 741.53 4184.65 797.09 3842.81 746.48 3803.52 690.91 4145.35 741.53"/>
        <polygon class="cls-102" points="4095.44 554.48 4145.35 652.03 4145.35 741.53 3803.52 690.91 3803.52 516.32 4095.44 554.48"/>
        <polygon class="cls-119" points="4739.98 554.48 4731.01 554.48 4780.92 652.03 4789.89 652.03 4739.98 554.48"/>
        <polygon class="cls-120" points="4780.92 652.03 4780.92 736.27 4746.89 784.39 4188.35 784.39 4154.33 736.27 4154.33 652.03 4145.35 652.03 4145.35 741.53 4184.65 797.1 4750.6 797.1 4789.89 741.53 4789.89 652.03 4780.92 652.03"/>
        <polygon class="cls-95" points="4104.42 554.48 4095.44 554.48 4145.35 652.03 4154.33 652.03 4104.42 554.48"/>
        <polygon class="cls-106" points="3821.47 517.49 3803.52 516.32 4095.44 554.48 4104.42 554.48 3821.47 517.49"/>
        <path class="cls-72" d="M4193,797.09h68.34V717.63c0-23.53-13.49-42.6-30.13-42.6h-77.51v66.5Z"/>
        <path class="cls-121" d="M4682.26,717.63v79.46h68.34l39.29-55.56V675h-77.51C4695.74,675,4682.26,694.1,4682.26,717.63Z"/>
        <polygon class="cls-75" points="4682.26 784.39 4682.26 797.1 4688.59 797.1 4682.26 784.39"/>
        <path class="cls-72" d="M4690.58,717.63v79.46h68.34l39.29-55.56V675H4720.7C4704.06,675,4690.58,694.1,4690.58,717.63Z"/>
        <path class="cls-122" d="M4768.6,808.83h-566c-9.93,0-18,11.4-18,25.45s8.06,25.44,18,25.44h566c9.93,0,18-11.39,18-25.44S4778.53,808.83,4768.6,808.83Z"/>
        <path class="cls-123" d="M4327.12,834.28c-4.43-14-19.67-25.44-34.06-25.45h-90.42c-9.93,0-18,11.4-18,25.45s8.06,25.44,18,25.44h106.45C4323.47,859.72,4331.54,848.33,4327.12,834.28Z"/>
        <path class="cls-123" d="M4768.6,808.83h-46.27c14.39,0,29.63,11.4,34.06,25.45s-3.65,25.44-18,25.44h30.24c9.93,0,18-11.39,18-25.44S4778.53,808.83,4768.6,808.83Z"/>
        <ellipse class="cls-118" cx="4202.64" cy="834.28" rx="17.99" ry="25.45"/>
        <path class="cls-124" d="M3848.71,472.68c-6.66,0-12.06,7.63-12.06,17.05s5.4,17,12.06,17h13.69v-34.1Z"/>
        <path class="cls-109" d="M3889.42,472.68h-27c-2.72,0-4.92,3.11-4.92,6.95v20.2c0,3.84,2.2,6.95,4.92,6.95h27c2.72,0,4.92-3.11,4.92-6.95v-20.2C3894.34,475.79,3892.14,472.68,3889.42,472.68Z"/>
        <rect class="cls-50" x="4145.35" y="675.03" width="8.32" height="66.5"/>
        <polygon class="cls-125" points="4184.65 797.1 4145.35 741.52 4153.67 741.52 4192.97 797.1 4184.65 797.1"/>
      </g>
      <polygon class="cls-10" points="2399.73 916.8 2475.61 915.83 2399.73 914.86 2399.73 916.8"/>
      <polygon class="cls-10" points="1404.7 916.8 1480.58 915.83 1404.7 914.86 1404.7 916.8"/>
      <polygon class="cls-10" points="409.68 916.8 485.56 915.83 409.68 914.86 409.68 916.8"/>
    </g>
  </g>
</svg>
