<svg xmlns="http://www.w3.org/2000/svg" viewBox="0 0 1067.52 1393.59">
  <defs>
    <style>
      .cls-1 {
        fill: #929099;
      }

      .cls-2 {
        fill: #a9a7b1;
      }

      .cls-3 {
        fill: #efedf2;
      }

      .cls-4 {
        fill: #110d12;
        opacity: 0.25;
      }

      .cls-5 {
        fill: #f3f2f5;
      }

      .cls-6 {
        fill: #aeacb7;
      }

      .cls-7 {
        fill: #96949c;
      }

      .cls-8 {
        fill: #c6c4d1;
      }

      .cls-9 {
        fill: #a8a6ae;
      }

      .cls-10 {
        fill: #9c9aa4;
      }
    </style>
  </defs>
  <g id="Слой_2" data-name="Слой 2">
    <g id="Слой_1-2" data-name="Слой 1">
      <g>
        <polygon class="cls-1" points="978.15 667.87 464.99 1393.59 231 1393.59 744.16 667.87 978.15 667.87"/>
        <polygon class="cls-2" points="625.15 577.47 112.9 1301.91 231 1393.59 744.16 667.87 625.15 577.47"/>
        <polygon class="cls-3" points="625.15 577.47 112.9 1301.91 45.41 1156.52 542.59 453.39 625.15 577.47"/>
        <polygon class="cls-4" points="56.53 1180.47 555.2 475.25 542.59 453.39 45.41 1156.52 56.53 1180.47"/>
        <polygon class="cls-5" points="486.16 197.22 605.07 29.06 584.52 0 431.28 216.71 407.93 514.8 0 1091.7 30.09 1156.52 536.52 440.32 603.52 584.65 641.25 531.3 486.16 197.22"/>
        <polygon class="cls-6" points="641.25 531.3 603.52 584.65 739.66 690.34 777.39 636.99 641.25 531.3"/>
        <polygon class="cls-7" points="777.39 636.99 739.66 690.34 991.78 690.34 1029.51 636.99 777.39 636.99"/>
        <polygon class="cls-8" points="912.43 197.22 486.16 197.22 641.25 531.3 777.39 636.99 1029.51 636.99 1067.52 531.3 912.43 197.22"/>
        <polygon class="cls-9" points="486.16 197.22 605.07 29.06 1031.34 29.06 912.43 197.22 486.16 197.22"/>
        <polygon class="cls-8" points="584.52 0 605.07 29.06 1031.34 29.06 1010.79 0 584.52 0"/>
        <polygon class="cls-10" points="536.52 440.32 30.09 1156.52 45.41 1156.52 542.59 453.39 536.52 440.32"/>
      </g>
    </g>
  </g>
</svg>
