<svg xmlns="http://www.w3.org/2000/svg" xmlns:xlink="http://www.w3.org/1999/xlink" viewBox="0 0 1611.5 794.11">
  <defs>
    <style>
      .cls-1 {
        fill: #3a3540;
      }

      .cls-2 {
        fill: #332e37;
      }

      .cls-3 {
        fill: #3b3641;
      }

      .cls-4 {
        fill: #3e3943;
      }

      .cls-5 {
        fill: #342f38;
      }

      .cls-6 {
        fill: #39333f;
      }

      .cls-7 {
        fill: #5f5b66;
      }

      .cls-8 {
        fill: url(#Безымянный_градиент_48);
      }

      .cls-9 {
        fill: #433d4a;
      }

      .cls-10 {
        fill: url(#Безымянный_градиент_5);
      }

      .cls-11 {
        fill: #47414d;
      }

      .cls-12, .cls-54 {
        fill: #a7a6ad;
      }

      .cls-12 {
        opacity: 0.5;
      }

      .cls-13 {
        fill: #3b3541;
      }

      .cls-14 {
        fill: url(#Безымянный_градиент_19);
      }

      .cls-15 {
        fill: #3f3945;
      }

      .cls-16 {
        fill: url(#Безымянный_градиент_19-2);
      }

      .cls-17 {
        fill: #494451;
      }

      .cls-18 {
        fill: #53505a;
      }

      .cls-19 {
        fill: #56535e;
      }

      .cls-20 {
        fill: url(#Безымянный_градиент_206);
      }

      .cls-21 {
        fill: url(#Безымянный_градиент_206-2);
      }

      .cls-22 {
        fill: url(#Безымянный_градиент_48-2);
      }

      .cls-23 {
        fill: #b8b7bf;
      }

      .cls-24 {
        fill: #abaab4;
      }

      .cls-25 {
        fill: #130f17;
      }

      .cls-25, .cls-61 {
        opacity: 0.25;
      }

      .cls-26 {
        fill: url(#Безымянный_градиент_81);
      }

      .cls-27 {
        fill: url(#Безымянный_градиент_48-3);
      }

      .cls-28 {
        fill: #322d36;
      }

      .cls-29 {
        fill: url(#Безымянный_градиент_48-4);
      }

      .cls-30 {
        fill: url(#Безымянный_градиент_81-2);
      }

      .cls-31 {
        fill: url(#Безымянный_градиент_48-5);
      }

      .cls-32 {
        fill: url(#Безымянный_градиент_48-6);
      }

      .cls-33 {
        fill: #332d38;
      }

      .cls-34 {
        fill: url(#Безымянный_градиент_62);
      }

      .cls-35 {
        fill: url(#Безымянный_градиент_7);
      }

      .cls-36 {
        fill: #78757f;
      }

      .cls-37 {
        fill: #423c49;
      }

      .cls-38 {
        fill: url(#Безымянный_градиент_48-7);
      }

      .cls-39 {
        fill: url(#Безымянный_градиент_81-3);
      }

      .cls-40 {
        fill: url(#Безымянный_градиент_81-4);
      }

      .cls-41 {
        fill: #322c38;
      }

      .cls-42 {
        fill: #322c3a;
      }

      .cls-43 {
        fill: #96949c;
      }

      .cls-44 {
        fill: #56515e;
      }

      .cls-45 {
        fill: #c2bfc8;
      }

      .cls-46 {
        fill: #908ea1;
      }

      .cls-47 {
        fill: #d5d4dd;
        opacity: 0.45;
      }

      .cls-48 {
        fill: #f3f2f5;
      }

      .cls-49 {
        fill: #110d12;
        opacity: 0.22;
      }

      .cls-50 {
        fill: url(#Безымянный_градиент_38);
      }

      .cls-51 {
        fill: #58545c;
      }

      .cls-52 {
        fill: #c6c4d1;
      }

      .cls-53 {
        fill: #d9d9e3;
      }

      .cls-54 {
        opacity: 0.47;
      }

      .cls-55 {
        fill: #aeb1c1;
      }

      .cls-56 {
        fill: #aeacb5;
      }

      .cls-57 {
        fill: url(#Безымянный_градиент_6);
      }

      .cls-58 {
        fill: #3d3845;
      }

      .cls-59 {
        fill: #fff;
      }

      .cls-60 {
        fill: url(#Безымянный_градиент_5-2);
      }

      .cls-61 {
        fill: #d6ae00;
      }
    </style>
    <linearGradient id="Безымянный_градиент_48" data-name="Безымянный градиент 48" x1="1336.18" y1="570.69" x2="1336.18" y2="641.47" gradientUnits="userSpaceOnUse">
      <stop offset="0" stop-color="#797780"/>
      <stop offset="1" stop-color="#433d4a"/>
    </linearGradient>
    <linearGradient id="Безымянный_градиент_5" data-name="Безымянный градиент 5" x1="1577.27" y1="140.06" x2="1577.27" y2="290.5" gradientUnits="userSpaceOnUse">
      <stop offset="0" stop-color="#95949c"/>
      <stop offset="0.18" stop-color="#5b5860"/>
      <stop offset="0.8" stop-color="#5e5b62"/>
      <stop offset="0.97" stop-color="#433e48"/>
    </linearGradient>
    <linearGradient id="Безымянный_градиент_19" data-name="Безымянный градиент 19" x1="1225.78" y1="252.4" x2="1244.65" y2="252.4" gradientUnits="userSpaceOnUse">
      <stop offset="0" stop-color="#d6d5db"/>
      <stop offset="1" stop-color="#78757f"/>
    </linearGradient>
    <linearGradient id="Безымянный_градиент_19-2" x1="824.25" y1="252.4" x2="843.12" y2="252.4" xlink:href="#Безымянный_градиент_19"/>
    <linearGradient id="Безымянный_градиент_206" data-name="Безымянный градиент 206" x1="1116.89" y1="18.58" x2="1135.07" y2="18.58" gradientUnits="userSpaceOnUse">
      <stop offset="0" stop-color="#fcc551"/>
      <stop offset="1" stop-color="#b78234"/>
    </linearGradient>
    <linearGradient id="Безымянный_градиент_206-2" x1="1426.65" y1="18.58" x2="1444.83" y2="18.58" xlink:href="#Безымянный_градиент_206"/>
    <linearGradient id="Безымянный_градиент_48-2" x1="176.15" y1="570.69" x2="176.15" y2="641.47" xlink:href="#Безымянный_градиент_48"/>
    <linearGradient id="Безымянный_градиент_81" data-name="Безымянный градиент 81" x1="132.14" y1="707.24" x2="132.14" y2="679.37" gradientUnits="userSpaceOnUse">
      <stop offset="0" stop-color="#c7c6ce"/>
      <stop offset="1" stop-color="#78757f"/>
    </linearGradient>
    <linearGradient id="Безымянный_градиент_48-3" x1="156.53" y1="658.65" x2="156.53" y2="673.42" xlink:href="#Безымянный_градиент_48"/>
    <linearGradient id="Безымянный_градиент_48-4" x1="362.71" y1="570.69" x2="362.71" y2="641.47" xlink:href="#Безымянный_градиент_48"/>
    <linearGradient id="Безымянный_градиент_81-2" x1="318.7" y1="707.24" x2="318.7" y2="679.37" xlink:href="#Безымянный_градиент_81"/>
    <linearGradient id="Безымянный_градиент_48-5" x1="343.09" y1="658.65" x2="343.09" y2="673.42" xlink:href="#Безымянный_градиент_48"/>
    <linearGradient id="Безымянный_градиент_48-6" x1="451.77" y1="518.65" x2="451.77" y2="588.99" xlink:href="#Безымянный_градиент_48"/>
    <linearGradient id="Безымянный_градиент_62" data-name="Безымянный градиент 62" x1="508.01" y1="627.02" x2="704.83" y2="627.02" gradientUnits="userSpaceOnUse">
      <stop offset="0" stop-color="#6c6973"/>
      <stop offset="0.09" stop-color="#6f6d76"/>
      <stop offset="0.15" stop-color="#6f6d76"/>
      <stop offset="0.58" stop-color="#47434d"/>
      <stop offset="0.68" stop-color="#3e3943"/>
    </linearGradient>
    <linearGradient id="Безымянный_градиент_7" data-name="Безымянный градиент 7" x1="777.38" y1="553.95" x2="777.38" y2="673.49" gradientUnits="userSpaceOnUse">
      <stop offset="0" stop-color="#c7c6ce"/>
      <stop offset="0.22" stop-color="#b8b7bf"/>
      <stop offset="0.81" stop-color="#b8b7bf"/>
      <stop offset="1" stop-color="#78757f"/>
    </linearGradient>
    <linearGradient id="Безымянный_градиент_48-7" x1="967.91" y1="570.69" x2="967.91" y2="641.47" xlink:href="#Безымянный_градиент_48"/>
    <linearGradient id="Безымянный_градиент_81-3" x1="923.9" y1="707.24" x2="923.9" y2="679.37" xlink:href="#Безымянный_градиент_81"/>
    <linearGradient id="Безымянный_градиент_81-4" x1="942.73" y1="643.53" x2="942.73" y2="665.23" xlink:href="#Безымянный_градиент_81"/>
    <linearGradient id="Безымянный_градиент_38" data-name="Безымянный градиент 38" x1="976.71" y1="383.55" x2="976.71" y2="393.58" gradientUnits="userSpaceOnUse">
      <stop offset="0" stop-color="#95949c"/>
      <stop offset="1" stop-color="#433e48"/>
    </linearGradient>
    <linearGradient id="Безымянный_градиент_6" data-name="Безымянный градиент 6" x1="1037.02" y1="461.11" x2="1037.02" y2="548" gradientUnits="userSpaceOnUse">
      <stop offset="0" stop-color="#5b5762"/>
      <stop offset="1" stop-color="#433d4a"/>
    </linearGradient>
    <linearGradient id="Безымянный_градиент_5-2" x1="1052.93" y1="140.06" x2="1052.93" y2="290.5" xlink:href="#Безымянный_градиент_5"/>
  </defs>
  <g id="Слой_2" data-name="Слой 2">
    <g id="Слой_1-2" data-name="Слой 1">
      <g>
        <g>
          <g>
            <path class="cls-1" d="M577.75,563.62H521.43c-44,0-79.6,50.4-79.6,112.57s35.64,112.56,79.6,112.56h56.32c44,0,79.6-50.39,79.6-112.56S621.71,563.62,577.75,563.62Z"/>
            <ellipse class="cls-2" cx="521.43" cy="676.19" rx="79.6" ry="112.57"/>
          </g>
          <g>
            <path class="cls-1" d="M515,563.62H458.68c-44,0-79.6,50.4-79.6,112.57s35.64,112.56,79.6,112.56H515c44,0,79.6-50.39,79.6-112.56S559,563.62,515,563.62Z"/>
            <ellipse class="cls-3" cx="458.68" cy="676.19" rx="79.6" ry="112.57"/>
          </g>
        </g>
        <g>
          <g>
            <path class="cls-4" d="M764.31,563.62H708c-44,0-79.6,50.4-79.6,112.57S664,788.75,708,788.75h56.32c44,0,79.6-50.39,79.6-112.56S808.27,563.62,764.31,563.62Z"/>
            <ellipse class="cls-2" cx="707.99" cy="676.19" rx="79.6" ry="112.57"/>
          </g>
          <g>
            <path class="cls-4" d="M701.56,563.62H645.24c-44,0-79.6,50.4-79.6,112.57s35.64,112.56,79.6,112.56h56.32c44,0,79.6-50.39,79.6-112.56S745.52,563.62,701.56,563.62Z"/>
            <ellipse class="cls-5" cx="645.24" cy="676.19" rx="79.6" ry="112.57"/>
          </g>
        </g>
        <rect class="cls-6" x="17.36" y="577.71" width="427.35" height="66.34"/>
        <rect class="cls-7" y="577.71" width="17.36" height="66.34"/>
        <g>
          <path class="cls-8" d="M1365.72,558.26h-59.08c-46.05,0-83.38,52.8-83.38,117.93s37.33,117.92,83.38,117.92h59.08c46.06,0,83.39-52.8,83.39-117.92S1411.78,558.26,1365.72,558.26Z"/>
          <ellipse class="cls-3" cx="1306.64" cy="676.19" rx="83.38" ry="117.92"/>
          <path class="cls-9" d="M1365.72,558.26h-26.43A116.24,116.24,0,0,1,1431.63,604C1416.37,576.18,1392.53,558.26,1365.72,558.26Z"/>
        </g>
        <g>
          <path class="cls-10" d="M1587.43,139.58H1567.1c-6,0-10.8,6.84-10.8,15.28V276.15c0,8.44,4.84,15.27,10.8,15.27h20.33c6,0,10.8-6.83,10.8-15.27V154.86C1598.23,146.42,1593.4,139.58,1587.43,139.58Z"/>
          <path class="cls-11" d="M1600.7,139.58h-20.33c-6,0-10.8,6.84-10.8,15.28V276.15c0,8.44,4.84,15.27,10.8,15.27h20.33c6,0,10.8-6.83,10.8-15.27V154.86C1611.5,146.42,1606.67,139.58,1600.7,139.58Z"/>
        </g>
        <path class="cls-12" d="M1529.23,119.53h-142.7c-5.82,0-10.55,6.67-10.55,14.91V245.38c0,8.24,4.73,14.92,10.55,14.92h62.31c9,0,17.84,3.56,25.49,10.28l28,24.64c7.66,6.72,16.49,10.28,25.49,10.28h20.71c4.65,0,8.23-5.79,7.61-12.3l-15.08-159C1540.3,125.81,1535.23,119.53,1529.23,119.53Z"/>
        <path class="cls-13" d="M1273.19,481.45V86h277.19L1572,305.5v176Zm256-361.92h-142.7c-5.82,0-10.55,6.67-10.55,14.91V245.38c0,8.24,4.73,14.92,10.55,14.92h62.31c9,0,17.84,3.56,25.49,10.28l28,24.64c7.66,6.72,16.49,10.28,25.49,10.28h20.71c4.65,0,8.23-5.79,7.61-12.3l-15.08-159C1540.3,125.81,1535.23,119.53,1529.23,119.53Z"/>
        <path class="cls-14" d="M1237.58,481.45h0a18.86,18.86,0,0,1-18.86-18.87V23.36h37.73V462.58A18.87,18.87,0,0,1,1237.58,481.45Z"/>
        <path class="cls-15" d="M845.83,86V365.21h427.36V86ZM1137,239.8c0,17.66-10.12,32-22.61,32h-109.8c-12.49,0-22.61-14.31-22.61-32V171.56c0-17.66,10.12-32,22.61-32h109.8c12.49,0,22.61,14.32,22.61,32Z"/>
        <path class="cls-16" d="M836.05,481.45h0a18.86,18.86,0,0,1-18.86-18.87V23.36h37.73V462.58A18.87,18.87,0,0,1,836.05,481.45Z"/>
        <rect class="cls-2" x="873.44" y="473.49" width="45.39" height="41.68"/>
        <rect class="cls-6" x="454.77" y="487.9" width="127.31" height="40.93"/>
        <polygon class="cls-17" points="1192.33 698.29 1192.33 473.49 918.82 473.49 918.82 528.83 454.77 528.83 454.77 487.9 215.04 487.9 215.04 527.25 167.29 577.71 167.29 644.05 1052.93 644.05 1052.93 698.29 1192.33 698.29"/>
        <g>
          <path class="cls-18" d="M381,631.41c-64.14-2.38-123.72-30.59-173.76-77.54H189.52c52.33,49.1,115.1,77.73,182.6,77.73C375.08,631.6,378,631.52,381,631.41Z"/>
          <path class="cls-2" d="M572.42,553.87H554.73l8.94,19.1c-54.9,51.5-120.74,81.52-191.55,81.52h17.7c70.81,0,136.65-30,191.54-81.52Z"/>
          <path class="cls-19" d="M180.58,573l8.94-19.1c52.33,49.1,115.1,77.73,182.6,77.73S502.4,603,554.73,553.87l8.94,19.1c-54.9,51.5-120.74,81.52-191.55,81.52S235.47,624.47,180.58,573Z"/>
          <polygon class="cls-18" points="572.42 553.87 554.73 553.87 563.67 572.97 581.36 572.97 572.42 553.87"/>
        </g>
        <polygon class="cls-20" points="1139.3 0 1114.31 0 1110.83 37.16 1142.77 37.16 1139.3 0"/>
        <polygon class="cls-21" points="1449.06 0 1424.06 0 1420.59 37.16 1452.53 37.16 1449.06 0"/>
        <path class="cls-6" d="M146.61,539h0c-53.48,0-97,61.53-97,137.17H161c0-58.77,22.88-110.09,56.7-137.17Z"/>
        <g>
          <g>
            <path class="cls-9" d="M271.59,558.26H212.51c-46,0-83.39,52.8-83.39,117.93s37.34,117.92,83.39,117.92h59.08c46.05,0,83.39-52.8,83.39-117.92S317.64,558.26,271.59,558.26Z"/>
            <ellipse class="cls-2" cx="212.51" cy="676.19" rx="83.38" ry="117.92"/>
          </g>
          <g>
            <path class="cls-22" d="M205.69,558.26H146.61c-46.05,0-83.38,52.8-83.38,117.93s37.33,117.92,83.38,117.92h59.08c46.06,0,83.39-52.8,83.39-117.92S251.75,558.26,205.69,558.26Z"/>
            <ellipse class="cls-7" cx="146.61" cy="676.19" rx="83.38" ry="117.92"/>
            <ellipse class="cls-23" cx="146.61" cy="676.19" rx="47.22" ry="66.77"/>
            <ellipse class="cls-24" cx="146.61" cy="676.19" rx="38.97" ry="55.12"/>
            <path class="cls-25" d="M126.05,703.8c0-30.44,17.45-55.11,39-55.11a30,30,0,0,1,17.43,5.81c-6-19.65-19.76-33.43-35.84-33.43-21.52,0-39,24.68-39,55.12,0,21.57,8.77,40.24,21.54,49.29A75.11,75.11,0,0,1,126.05,703.8Z"/>
            <path class="cls-26" d="M156.63,623a28.44,28.44,0,0,0-10-1.91c-21.52,0-39,24.68-39,55.12s17.45,55.11,39,55.11a28.22,28.22,0,0,0,10-1.91c-16.65-6.26-28.94-27.67-28.94-53.2S140,629.24,156.63,623Z"/>
            <path class="cls-25" d="M171.35,718.77c8.69-10.11,14.23-25.43,14.23-42.58,0-.92,0-1.82-.05-2.73l-7.67-11.23-22,33.8Z"/>
            <path class="cls-27" d="M166.44,655H146.61c-8.27,0-15,9.48-15,21.18s6.7,21.17,15,21.17h19.83c8.27,0,15-9.48,15-21.17S174.71,655,166.44,655Z"/>
            <ellipse class="cls-7" cx="146.61" cy="676.19" rx="14.97" ry="21.18"/>
            <path class="cls-9" d="M275.89,676.19h14.89c0-65.13-37.33-117.92-83.38-117.93H160.59C224.27,558.26,275.89,611.06,275.89,676.19Z"/>
          </g>
        </g>
        <path class="cls-28" d="M645.66,653.05H451.89c-9,0-16.36,10.36-16.36,23.14s7.32,23.14,16.36,23.14H645.66c9,0,16.36-10.36,16.36-23.14S654.7,653.05,645.66,653.05Z"/>
        <g>
          <g>
            <path class="cls-9" d="M458.15,558.26H399.07c-46.05,0-83.38,52.8-83.38,117.93S353,794.11,399.07,794.11h59.08c46.06,0,83.39-52.8,83.39-117.92S504.21,558.26,458.15,558.26Z"/>
            <ellipse class="cls-2" cx="399.07" cy="676.19" rx="83.38" ry="117.92"/>
          </g>
          <g>
            <path class="cls-29" d="M392.26,558.26H333.17c-46.05,0-83.38,52.8-83.38,117.93s37.33,117.92,83.38,117.92h59.09c46.05,0,83.38-52.8,83.38-117.92S438.31,558.26,392.26,558.26Z"/>
            <ellipse class="cls-7" cx="333.17" cy="676.19" rx="83.38" ry="117.92"/>
            <ellipse class="cls-23" cx="333.17" cy="676.19" rx="47.22" ry="66.77"/>
            <ellipse class="cls-24" cx="333.17" cy="676.19" rx="38.97" ry="55.12"/>
            <path class="cls-25" d="M312.61,703.8c0-30.44,17.45-55.11,39-55.11A30,30,0,0,1,369,654.5c-6-19.65-19.76-33.43-35.84-33.43-21.52,0-39,24.68-39,55.12,0,21.57,8.77,40.24,21.54,49.29A75.11,75.11,0,0,1,312.61,703.8Z"/>
            <path class="cls-30" d="M343.2,623a28.54,28.54,0,0,0-10-1.91c-21.52,0-39,24.68-39,55.12s17.45,55.11,39,55.11a28.32,28.32,0,0,0,10-1.91c-16.66-6.26-28.95-27.67-28.95-53.2S326.54,629.24,343.2,623Z"/>
            <path class="cls-25" d="M357.92,718.77c8.68-10.11,14.22-25.43,14.22-42.58,0-.92,0-1.82,0-2.73l-7.67-11.23-22,33.8Z"/>
            <path class="cls-31" d="M353,655H333.17c-8.27,0-15,9.48-15,21.18s6.7,21.17,15,21.17H353c8.27,0,15-9.48,15-21.17S361.27,655,353,655Z"/>
            <ellipse class="cls-7" cx="333.17" cy="676.19" rx="14.97" ry="21.18"/>
            <path class="cls-9" d="M462.46,676.19h14.88c0-65.13-37.33-117.92-83.38-117.93H347.15C410.83,558.26,462.46,611.06,462.46,676.19Z"/>
          </g>
        </g>
        <path class="cls-32" d="M459,518.65H333.17c61.43,0,111.4,70.67,111.4,157.53h125.8C570.37,589.32,520.4,518.65,459,518.65Z"/>
        <path class="cls-9" d="M568.17,676.18h2.2c0-86.86-50-157.53-111.39-157.53H414.12C499.2,518.65,568.16,589.18,568.17,676.18Z"/>
        <g>
          <polygon class="cls-33" points="538.27 646.83 562.86 681.87 755.01 681.87 799.75 646.83 538.27 646.83"/>
          <polygon class="cls-3" points="659.05 581.82 651.75 574.52 591.42 574.52 584.12 581.82 584.12 588.78 659.05 588.78 659.05 581.82"/>
          <rect class="cls-34" x="506.07" y="584.92" width="231.03" height="84.21" rx="5.44"/>
        </g>
        <rect class="cls-35" x="650.36" y="546.9" width="254.03" height="129.29" rx="26.38"/>
        <rect class="cls-36" x="813.8" y="546.9" width="80.49" height="129.29" rx="26.38"/>
        <g>
          <path class="cls-6" d="M934.06,532.73H873.28c-33.34,30.32-55.43,83.24-55.43,143.46h78c0-51.63,18.94-97,47.53-123Z"/>
          <polygon class="cls-37" points="934.06 532.73 873.28 532.73 882.57 553.21 943.36 553.21 934.06 532.73"/>
          <path class="cls-7" d="M873.28,532.73c-33.34,30.32-55.43,83.24-55.43,143.46h17.2c0-51.63,18.94-97,47.52-123Z"/>
        </g>
        <g>
          <path class="cls-38" d="M997.46,558.26H938.37c-46,0-83.38,52.8-83.38,117.93s37.33,117.92,83.38,117.92h59.09c46,0,83.38-52.8,83.38-117.92S1043.51,558.26,997.46,558.26Z"/>
          <path class="cls-9" d="M1067.65,676.19h14.89c0-65.13-37.33-117.92-83.38-117.93H952.35C1016,558.26,1067.65,611.06,1067.65,676.19Z"/>
          <ellipse class="cls-7" cx="938.37" cy="676.19" rx="83.38" ry="117.92"/>
          <ellipse class="cls-23" cx="938.37" cy="676.19" rx="47.22" ry="66.77"/>
          <ellipse class="cls-24" cx="938.37" cy="676.19" rx="38.97" ry="55.12"/>
          <path class="cls-25" d="M917.81,703.8c0-30.44,17.45-55.12,39-55.12a30,30,0,0,1,17.43,5.82c-6-19.65-19.76-33.43-35.84-33.43-21.52,0-39,24.68-39,55.12,0,21.57,8.77,40.24,21.54,49.29A75.11,75.11,0,0,1,917.81,703.8Z"/>
          <path class="cls-39" d="M948.4,623a28.54,28.54,0,0,0-10-1.91c-21.52,0-39,24.68-39,55.12s17.45,55.11,39,55.11a28.32,28.32,0,0,0,10-1.91c-16.66-6.26-28.95-27.67-28.95-53.2S931.74,629.24,948.4,623Z"/>
          <path class="cls-25" d="M936.16,711.31l12.36,18.09c11.15-4.24,20.32-15.3,25.14-29.82Z"/>
          <path class="cls-40" d="M977.34,676.19c0-17-5.46-32.27-14.05-42.38a22.37,22.37,0,0,0-4-.42h-20.9c-16.71,0-30.26,19.16-30.26,42.8S921.66,719,938.37,719h20.9a21.5,21.5,0,0,0,4-.42C971.88,708.45,977.34,693.22,977.34,676.19Z"/>
          <ellipse class="cls-23" cx="938.37" cy="676.19" rx="30.26" ry="42.79"/>
          <path class="cls-25" d="M963.29,633.81a22.37,22.37,0,0,0-4-.42H945.76a34.56,34.56,0,0,1,23.79,9.76A51.94,51.94,0,0,0,963.29,633.81Z"/>
        </g>
        <path class="cls-2" d="M1545.66,503.49v-30H918.82v50.25h19.55c60.26,0,109.29,68.39,109.29,152.45v22.1H1172.6v.44h373.06V525.5l26.33-5.87Z"/>
        <path class="cls-41" d="M1299.8,202.59c-1.07-10.26-10.35-18.66-20.62-18.66h-64.59a16.55,16.55,0,0,0-16.72,18.66l12.51,115.1h101.93Z"/>
        <path class="cls-41" d="M1066.52,202.59c-1.08-10.26-10.36-18.66-20.62-18.66H981.3a16.54,16.54,0,0,0-16.71,18.66l12.51,115.1H1079Z"/>
        <path class="cls-42" d="M1350,281.08c-26.25,26.25-31.65,63.43-12,83s56.77,14.2,83-12.05,31.64-63.42,12-83S1376.22,254.83,1350,281.08Zm58.1,58.11c-19.14,19.14-44.78,24.53-57.27,12s-7.09-38.13,12-57.27,44.78-24.53,57.27-12S1427.21,320.05,1408.07,339.19Z"/>
        <polygon class="cls-11" points="1571.99 305.5 1515.35 327.64 1229.24 327.64 1172.6 305.5 1571.99 305.5"/>
        <polygon class="cls-43" points="1515.35 327.64 1229.24 327.64 1172.6 305.5 1172.6 481.45 1242.13 481.45 1251.75 519.63 1492.84 519.63 1502.46 481.45 1571.99 481.45 1571.99 305.5 1515.35 327.64"/>
        <path class="cls-2" d="M1553.88,393.08v57.37c0,8.5-4.88,15.4-10.89,15.4h-11.74L1543,377.68C1549,377.68,1553.88,384.57,1553.88,393.08Z"/>
        <path class="cls-2" d="M1190.71,450.45V393.08c0-8.51,4.88-15.4,10.89-15.4l11.74,88.17H1201.6C1195.59,465.85,1190.71,459,1190.71,450.45Z"/>
        <path class="cls-11" d="M1497.78,519.63l-32.64,129.59c-3.59,14.22-13.11,23.71-23.78,23.71H1303.23c-10.67,0-20.19-9.49-23.78-23.71l-32.64-129.59H1172.6V707.71H1572V519.63Z"/>
        <polygon class="cls-2" points="1497.41 621.61 1568.29 621.61 1568.29 657.81 1486.24 665.96 1497.41 621.61"/>
        <polygon class="cls-2" points="1247.18 621.61 1176.31 621.61 1176.31 657.81 1258.35 665.96 1247.18 621.61"/>
        <rect class="cls-44" x="1144.64" y="519.63" width="27.95" height="188.07"/>
        <rect class="cls-45" x="1144.64" y="305.5" width="27.95" height="175.94"/>
        <polygon class="cls-15" points="1265.97 595.7 1272.5 621.61 1472.09 621.61 1478.62 595.7 1265.97 595.7"/>
        <polygon class="cls-15" points="1256.09 556.47 1488.5 556.47 1492.35 541.2 1252.24 541.2 1256.09 556.47"/>
        <polygon class="cls-46" points="1517.67 541.2 1571.99 541.2 1571.99 595.7 1503.94 595.7 1517.67 541.2"/>
        <polygon class="cls-46" points="1226.92 541.2 1172.6 541.2 1172.6 595.7 1240.65 595.7 1226.92 541.2"/>
        <path class="cls-15" d="M1277.77,486.11h189c5.75,0,10.88-5.12,12.81-12.78l8.59-34.09a66.44,66.44,0,0,0,2-16.18V390.25c0-6.94-4-12.57-8.89-12.57H1263.38c-4.91,0-8.89,5.63-8.89,12.57v33.17a66.87,66.87,0,0,0,2,16.18l8.5,33.73C1266.89,481,1272,486.11,1277.77,486.11Z"/>
        <path class="cls-47" d="M1101.88,119.53H959.18c-5.83,0-10.55,6.67-10.55,14.91V245.38c0,8.24,4.72,14.92,10.55,14.92h62.31c9,0,17.84,3.56,25.49,10.28l28,24.64c7.65,6.72,16.48,10.28,25.49,10.28h20.71c4.64,0,8.23-5.79,7.61-12.3l-15.08-159C1113,125.81,1107.88,119.53,1101.88,119.53Z"/>
        <path class="cls-48" d="M845.83,481.45V86H1123l21.61,219.51v176Zm256.05-361.92H959.18c-5.83,0-10.55,6.67-10.55,14.91V245.38c0,8.24,4.72,14.92,10.55,14.92h62.31c9,0,17.84,3.56,25.49,10.28l28,24.64c7.65,6.72,16.48,10.28,25.49,10.28h20.71c4.64,0,8.23-5.79,7.61-12.3l-15.08-159C1113,125.81,1107.88,119.53,1101.88,119.53Z"/>
        <path class="cls-49" d="M1144.64,305.5l-8.14-82.66-3.64-5.51c-1.95-3-4.74-4.81-7.83-4.81h-3.85l7.65,80.68c.62,6.51-3,12.3-7.61,12.3h-20.71a35,35,0,0,1-10.27-1.57v45.16a18.77,18.77,0,0,0,3,10.51c1.94,2.85,10.63,16,12.42,18.7,1.95,3,4.74,4.81,7.82,4.81h24.1a9.15,9.15,0,0,0,7.06-3.85Z"/>
        <path class="cls-49" d="M997,398.11c-1.19-1.74-6.49-9.77-7.58-11.42a5.85,5.85,0,0,0-4.78-2.93H969.9c-3.61,0-6.53,4.13-6.53,9.24v47.94a11.41,11.41,0,0,0,1.83,6.42c1.19,1.74,6.49,9.77,7.58,11.42a5.86,5.86,0,0,0,4.78,2.93h14.71c3.61,0,6.53-4.14,6.53-9.24v-48A11.48,11.48,0,0,0,997,398.11Z"/>
        <path class="cls-50" d="M990.05,390.8v52.39c0,3.9-2.23,7.05-5,7.05H968.35c-2.75,0-5-3.15-5-7.05V390.8c0-3.89,2.23-7,5-7h16.72C987.82,383.76,990.05,386.91,990.05,390.8Z"/>
        <path class="cls-51" d="M983.76,390.8v52.39c0,3.9-2.23,7.05-5,7.05H962.06c-2.75,0-5-3.15-5-7.05V390.8c0-3.89,2.23-7,5-7h16.72C981.53,383.76,983.76,386.91,983.76,390.8Z"/>
        <path class="cls-7" d="M845.83,528.83v-32.1H976.42c31.72,0,62.15,17.82,84.58,49.55h0V707.71h-18.43V676.19c0-81.38-46.65-147.36-104.2-147.36Z"/>
        <rect class="cls-6" x="1061" y="560.09" width="36.63" height="133.8"/>
        <g>
          <rect class="cls-11" x="1061" y="688.87" width="69.67" height="18.84"/>
          <rect class="cls-11" x="1061" y="617.57" width="69.67" height="18.84"/>
          <rect class="cls-11" x="1061" y="546.28" width="69.67" height="18.84"/>
        </g>
        <rect class="cls-7" x="1130.67" y="519.63" width="13.98" height="188.07"/>
        <path class="cls-7" d="M333.17,518.65H146.61c-61.42,0-111.4,70.67-111.4,157.54H49.62c0-75.64,43.51-137.17,97-137.17H333.17c53.48,0,97,61.53,97,137.16h14.41C444.57,589.32,394.6,518.65,333.17,518.65Z"/>
        <polygon class="cls-52" points="1123.03 37.16 1150.99 85.98 1550.38 85.98 1507.16 37.16 1123.03 37.16"/>
        <polygon class="cls-48" points="1123.03 37.16 1123.03 85.98 1150.99 85.98 1123.03 37.16"/>
        <polygon class="cls-53" points="1123.03 85.98 1144.64 305.5 1172.6 305.5 1150.99 85.98 1123.03 85.98"/>
        <polygon class="cls-54" points="1552.18 104.22 1571.99 305.5 1515.35 327.64 1229.24 327.64 1172.6 305.5 1152.78 104.22 1552.18 104.22"/>
        <rect class="cls-55" x="1144.64" y="541.2" width="27.95" height="54.51"/>
        <polygon class="cls-56" points="1150.99 85.98 1152.78 104.22 1552.18 104.22 1550.38 85.98 1150.99 85.98"/>
        <path class="cls-57" d="M1097.63,546.28c-22.43-31.73-52.86-49.55-84.58-49.55H976.42c31.72,0,62.15,17.82,84.58,49.55Z"/>
        <path class="cls-58" d="M1013.05,496.73H986.42a157.84,157.84,0,0,1,101.74,37.54C1067,510.11,1040.51,496.73,1013.05,496.73Z"/>
        <polygon class="cls-59" points="874.65 37.16 845.84 85.99 1123.03 85.99 1123.03 37.16 874.65 37.16"/>
        <g>
          <path class="cls-60" d="M1063.09,139.58h-20.33c-6,0-10.8,6.84-10.8,15.28V276.15c0,8.44,4.84,15.27,10.8,15.27h20.33c6,0,10.8-6.83,10.8-15.27V154.86C1073.89,146.42,1069.06,139.58,1063.09,139.58Z"/>
          <path class="cls-11" d="M1076.36,139.58H1056c-6,0-10.8,6.84-10.8,15.28V276.15c0,8.44,4.83,15.27,10.8,15.27h20.33c6,0,10.8-6.83,10.8-15.27V154.86C1087.16,146.42,1082.32,139.58,1076.36,139.58Z"/>
        </g>
        <polygon class="cls-61" points="1236.35 578.61 1144.64 578.61 1144.64 595.7 1240.65 595.7 1236.35 578.61"/>
        <polygon class="cls-61" points="1508.25 578.61 1571.99 578.61 1571.99 595.7 1503.94 595.7 1508.25 578.61"/>
      </g>
    </g>
  </g>
</svg>
