<svg class="news__item__svg" style="position: absolute; right: 0; bottom: 0;" width="38" height="24" viewBox="0 0 38 24" fill="none" xmlns="http://www.w3.org/2000/svg">
                                  <path d="M31.5303 7.46967C31.2374 7.17678 30.7626 7.17678 30.4697 7.46967C30.1768 7.76256 30.1768 8.23744 30.4697 8.53033L31.5303 7.46967ZM35 12L35.5303 12.5303C35.8232 12.2374 35.8232 11.7626 35.5303 11.4697L35 12ZM30.4697 15.4697C30.1768 15.7626 30.1768 16.2374 30.4697 16.5303C30.7626 16.8232 31.2374 16.8232 31.5303 16.5303L30.4697 15.4697ZM1.5 11.25C1.08579 11.25 0.75 11.5858 0.75 12C0.75 12.4142 1.08579 12.75 1.5 12.75V11.25ZM30.4697 8.53033L34.4697 12.5303L35.5303 11.4697L31.5303 7.46967L30.4697 8.53033ZM34.4697 11.4697L30.4697 15.4697L31.5303 16.5303L35.5303 12.5303L34.4697 11.4697ZM35 11.25H1.5V12.75H35V11.25Z" fill="#6BD398"/>
                              </svg> 