<svg width="80" height="80" viewBox="0 0 80 80" fill="none" xmlns="http://www.w3.org/2000/svg">
<g clip-path="url(#clip0_111_4714)">
<path d="M16.8413 10.6081V78.0268C16.8413 79.117 17.7523 80 18.8771 80H66.869C67.9938 80 68.9048 79.117 68.9048 78.0268V10.6081C68.9048 9.51789 67.9938 8.63489 66.869 8.63489H18.8771C17.7523 8.63489 16.8413 9.51789 16.8413 10.6081Z" fill="#0E338B"/>
<path d="M11 6.81969V74.9582C11 76.06 11.9599 76.9524 13.1451 76.9524H63.7121C64.8972 76.9524 65.8571 76.06 65.8571 74.9582V6.81969C65.8571 5.71787 64.8972 4.82544 63.7121 4.82544H13.1451C11.9599 4.82544 11 5.71787 11 6.81969Z" fill="#1A49B9"/>
<path d="M45.8597 0H13.2858C12.1632 0 11.254 0.909206 11.254 2.03175V71.4514C11.254 72.574 12.1632 73.4832 13.2858 73.4832H61.1816C62.3042 73.4832 63.2134 72.574 63.2134 71.4514V17.3511L45.8597 0Z" fill="#2D5FD6"/>
<path d="M54.9543 49.3587H18.619C18.0578 49.3587 17.6031 48.9041 17.6031 48.3428V32.2539C17.6031 31.6926 18.0578 31.238 18.619 31.238H54.9543C55.5155 31.238 55.9701 31.6926 55.9701 32.2539V48.3428C55.9701 48.9041 55.5155 49.3587 54.9543 49.3587Z" fill="#5185FF"/>
<path d="M26.2508 43.0019C26.6287 43.0019 26.9803 42.9337 27.3057 42.7972C27.6312 42.6503 27.9146 42.4561 28.156 42.2146C28.3975 41.9732 28.5864 41.6845 28.7229 41.3486C28.8593 41.0127 28.9276 40.6453 28.9276 40.2464C28.9276 39.858 28.8593 39.4958 28.7229 39.1599C28.5864 38.8135 28.3975 38.5196 28.156 38.2781C27.9146 38.0367 27.6312 37.8477 27.3057 37.7113C26.9803 37.5643 26.6287 37.4908 26.2508 37.4908H25.1485V43.0019H26.2508ZM22.8654 35.2864H26.2508C26.9436 35.2864 27.5892 35.4176 28.1875 35.68C28.7859 35.932 29.3107 36.2836 29.7621 36.735C30.2135 37.1864 30.5652 37.7113 30.8171 38.3096C31.0795 38.908 31.2108 39.5535 31.2108 40.2464C31.2108 40.9392 31.0795 41.5848 30.8171 42.1831C30.5652 42.7815 30.2135 43.3063 29.7621 43.7577C29.3107 44.2091 28.7859 44.566 28.1875 44.8285C27.5892 45.0804 26.9436 45.2064 26.2508 45.2064H22.8654V35.2864Z" fill="white"/>
<path d="M39.6367 40.2464C39.6367 39.837 39.5685 39.4591 39.432 39.1127C39.2956 38.7662 39.1066 38.4671 38.8652 38.2151C38.6342 37.9632 38.3613 37.769 38.0464 37.6325C37.7315 37.4856 37.3955 37.4121 37.0386 37.4121C36.6817 37.4121 36.3458 37.4856 36.0309 37.6325C35.716 37.769 35.4378 37.9632 35.1963 38.2151C34.9654 38.4671 34.7817 38.7662 34.6452 39.1127C34.5088 39.4591 34.4405 39.837 34.4405 40.2464C34.4405 40.6558 34.5088 41.0337 34.6452 41.3801C34.7817 41.7265 34.9654 42.0257 35.1963 42.2776C35.4378 42.5295 35.716 42.729 36.0309 42.876C36.3458 43.0124 36.6817 43.0807 37.0386 43.0807C37.3955 43.0807 37.7315 43.0124 38.0464 42.876C38.3613 42.729 38.6342 42.5295 38.8652 42.2776C39.1066 42.0257 39.2956 41.7265 39.432 41.3801C39.5685 41.0337 39.6367 40.6558 39.6367 40.2464ZM41.9199 40.2464C41.9199 40.9602 41.7887 41.6215 41.5263 42.2304C41.2743 42.8392 40.9279 43.3746 40.487 43.8365C40.0461 44.2879 39.5265 44.6448 38.9282 44.9072C38.3403 45.1591 37.7105 45.2851 37.0386 45.2851C36.3668 45.2851 35.7317 45.1591 35.1334 44.9072C34.5455 44.6448 34.0311 44.2879 33.5902 43.8365C33.1494 43.3746 32.7977 42.8392 32.5353 42.2304C32.2833 41.6215 32.1574 40.9602 32.1574 40.2464C32.1574 39.543 32.2833 38.887 32.5353 38.2781C32.7977 37.6588 33.1494 37.1234 33.5902 36.672C34.0311 36.2101 34.5455 35.8532 35.1334 35.6013C35.7317 35.3389 36.3668 35.2076 37.0386 35.2076C37.7105 35.2076 38.3403 35.3389 38.9282 35.6013C39.5265 35.8532 40.0461 36.2101 40.487 36.672C40.9279 37.1234 41.2743 37.6588 41.5263 38.2781C41.7887 38.887 41.9199 39.543 41.9199 40.2464Z" fill="white"/>
<path d="M47.741 43.0807C48.3709 43.0807 48.8642 42.9337 49.2211 42.6398C49.5885 42.3353 49.83 41.9837 49.9455 41.5848L52.3074 41.7422C52.1919 42.2146 52.0029 42.666 51.7405 43.0964C51.4781 43.5268 51.1527 43.9047 50.7643 44.2301C50.3758 44.545 49.9245 44.8022 49.4101 45.0017C48.9062 45.1906 48.3499 45.2851 47.741 45.2851C47.0692 45.2851 46.4341 45.1591 45.8357 44.9072C45.2479 44.6448 44.7335 44.2879 44.2926 43.8365C43.8517 43.3746 43.5001 42.8392 43.2376 42.2304C42.9857 41.6215 42.8597 40.9602 42.8597 40.2464C42.8597 39.543 42.9857 38.887 43.2376 38.2781C43.5001 37.6588 43.8517 37.1234 44.2926 36.672C44.7335 36.2101 45.2479 35.8532 45.8357 35.6013C46.4341 35.3389 47.0692 35.2076 47.741 35.2076C48.3289 35.2076 48.8695 35.3074 49.3629 35.5068C49.8667 35.6958 50.3076 35.953 50.6855 36.2784C51.0739 36.5933 51.3993 36.9659 51.6618 37.3963C51.9242 37.8267 52.1132 38.2781 52.2286 38.7505L49.8667 38.908C49.8037 38.7085 49.7145 38.5196 49.599 38.3411C49.4836 38.1626 49.3366 38.0052 49.1582 37.8687C48.9797 37.7323 48.7698 37.622 48.5283 37.5381C48.2974 37.4541 48.0349 37.4121 47.741 37.4121C47.3841 37.4121 47.0482 37.4856 46.7333 37.6325C46.4183 37.769 46.1402 37.9632 45.8987 38.2151C45.6678 38.4671 45.4841 38.7662 45.3476 39.1127C45.2111 39.4591 45.1429 39.837 45.1429 40.2464C45.1429 40.6558 45.2111 41.0337 45.3476 41.3801C45.4841 41.7265 45.6678 42.0257 45.8987 42.2776C46.1402 42.5295 46.4183 42.729 46.7333 42.876C47.0482 43.0124 47.3841 43.0807 47.741 43.0807Z" fill="white"/>
<path d="M45.8596 16.3352C45.8596 16.8965 46.3142 17.3511 46.8755 17.3511H63.2107L45.8596 0V16.3352Z" fill="#5185FF"/>
</g>
<defs>
<clipPath id="clip0_111_4714">
<rect width="80" height="80" rx="8" fill="white"/>
</clipPath>
</defs>
</svg>
