<svg width="50" height="50" viewBox="0 0 50 50" fill="none" xmlns="http://www.w3.org/2000/svg">
<circle cx="25" cy="25" r="25" fill="#E9F8FB"/>
<path fill-rule="evenodd" clip-rule="evenodd" d="M16.25 14C16.25 13.0335 17.0335 12.25 18 12.25H28.5C28.7126 12.25 28.9152 12.3402 29.0575 12.4983L33.5575 17.4983C33.6814 17.636 33.75 17.8147 33.75 18V32C33.75 32.9665 32.9665 33.75 32 33.75H18C17.0335 33.75 16.25 32.9665 16.25 32V14ZM18 13.75C17.8619 13.75 17.75 13.8619 17.75 14V32C17.75 32.1381 17.8619 32.25 18 32.25H32C32.1381 32.25 32.25 32.1381 32.25 32V18.2878L28.166 13.75H18Z" fill="#58858D"/>
<path fill-rule="evenodd" clip-rule="evenodd" d="M28 12.25C28.4142 12.25 28.75 12.5858 28.75 13V17.25H33C33.4142 17.25 33.75 17.5858 33.75 18C33.75 18.4142 33.4142 18.75 33 18.75H28C27.5858 18.75 27.25 18.4142 27.25 18V13C27.25 12.5858 27.5858 12.25 28 12.25Z" fill="#58858D"/>
<path d="M21 25L24 27.5L29 22" stroke="#58858D" stroke-width="1.5" stroke-linecap="round"/>
</svg>
