<svg width="13" height="13" viewBox="0 0 13 13" fill="none" xmlns="http://www.w3.org/2000/svg">
<path d="M7.90782 2.4043C8.39995 1.81858 9.20882 1.67283 9.78708 2.06889C9.93772 2.17207 10.0751 2.27373 10.188 2.3686C10.2948 2.45832 10.4101 2.56751 10.5283 2.68797C11.0127 3.18178 11.0068 3.996 10.517 4.57898L5.79973 10.1932C5.41401 10.6523 4.88948 10.9612 4.3131 11.0459C3.9338 11.1016 3.52229 11.1524 3.18768 11.1708C3.01921 11.1801 2.88219 11.1804 2.78354 11.172C2.7755 11.1713 2.76798 11.1706 2.76096 11.1698C2.75902 11.1631 2.75701 11.1558 2.75495 11.148C2.72965 11.0523 2.70637 10.9172 2.68648 10.7497C2.64696 10.4169 2.62603 10.0028 2.61556 9.61957C2.59964 9.03722 2.81352 8.4673 3.19924 8.00823L7.90782 2.4043ZM2.68348 11.1563C2.68353 11.1563 2.68471 11.1566 2.68685 11.1574C2.6845 11.1568 2.68343 11.1563 2.68348 11.1563ZM2.78595 11.2407C2.78713 11.2427 2.78767 11.2438 2.78766 11.2438C2.78764 11.2439 2.78705 11.2429 2.78595 11.2407Z" stroke="white" stroke-width="0.8"/>
<path d="M7.58997 3.10522C7.58997 3.10522 8.2243 4.0161 8.77794 4.38061C9.33158 4.74511 10.0208 5.1458 10.0208 5.1458" stroke="white" stroke-width="0.8" stroke-linecap="round"/>
</svg>
