<svg width="24" height="24" viewBox="0 0 24 24" fill="none" xmlns="http://www.w3.org/2000/svg">
<path fill-rule="evenodd" clip-rule="evenodd" d="M5.17949 11.905C6.86091 10.6146 9.2726 9.25 12.0001 9.25C14.7276 9.25 17.1393 10.6146 18.8207 11.905C19.6704 12.5572 20.3565 13.208 20.8307 13.6961C21.0683 13.9406 21.2538 14.1454 21.3811 14.2907C21.4449 14.3633 21.4941 14.4212 21.5282 14.4618C21.5452 14.4821 21.5584 14.4981 21.5678 14.5094L21.5789 14.523L21.5822 14.5271L21.5833 14.5285C21.5835 14.5287 21.5841 14.5294 21.0001 15C21.5841 15.4706 21.5839 15.4708 21.5837 15.471L21.5822 15.4729L21.5789 15.477L21.5678 15.4906C21.5584 15.5019 21.5452 15.5179 21.5282 15.5382C21.4941 15.5788 21.4449 15.6367 21.3811 15.7093C21.2538 15.8546 21.0683 16.0594 20.8307 16.3039C20.3565 16.792 19.6704 17.4428 18.8207 18.095C17.1393 19.3854 14.7276 20.75 12.0001 20.75C9.2726 20.75 6.86091 19.3854 5.17949 18.095C4.3298 17.4428 3.64369 16.792 3.16943 16.3039C2.93189 16.0594 2.74641 15.8546 2.61903 15.7093C2.55531 15.6367 2.50605 15.5788 2.47199 15.5382C2.45497 15.5179 2.44173 15.5019 2.43239 15.4906L2.4213 15.477L2.41796 15.4729L2.41685 15.4715C2.41668 15.4713 2.41611 15.4706 3.00008 15C2.41611 14.5294 2.41627 14.5292 2.41644 14.529L2.41796 14.5271L2.4213 14.523L2.43239 14.5094C2.44173 14.4981 2.45497 14.4821 2.47199 14.4618C2.50605 14.4212 2.55531 14.3633 2.61903 14.2907C2.74641 14.1454 2.93189 13.9406 3.16943 13.6961C3.64369 13.208 4.3298 12.5572 5.17949 11.905ZM3.00008 15L2.41644 14.529C2.19506 14.8037 2.19474 15.1959 2.41611 15.4706L3.00008 15ZM3.99953 15C4.07254 15.0786 4.1546 15.1653 4.24527 15.2586C4.68186 15.708 5.31377 16.3072 6.09276 16.905C7.6687 18.1146 9.75701 19.25 12.0001 19.25C14.2432 19.25 16.3315 18.1146 17.9074 16.905C18.6864 16.3072 19.3183 15.708 19.7549 15.2586C19.8456 15.1653 19.9276 15.0786 20.0006 15C19.9276 14.9214 19.8456 14.8347 19.7549 14.7414C19.3183 14.292 18.6864 13.6928 17.9074 13.095C16.3315 11.8854 14.2432 10.75 12.0001 10.75C9.75701 10.75 7.6687 11.8854 6.09276 13.095C5.31377 13.6928 4.68186 14.292 4.24527 14.7414C4.1546 14.8347 4.07254 14.9214 3.99953 15ZM21.0001 15L21.5837 15.471C21.8051 15.1963 21.8054 14.8041 21.5841 14.5294L21.0001 15Z" fill="white"/>
<path fill-rule="evenodd" clip-rule="evenodd" d="M9.25 15C9.25 13.4812 10.4812 12.25 12 12.25C13.5188 12.25 14.75 13.4812 14.75 15C14.75 16.5188 13.5188 17.75 12 17.75C10.4812 17.75 9.25 16.5188 9.25 15ZM12 13.75C11.3097 13.75 10.75 14.3097 10.75 15C10.75 15.6903 11.3097 16.25 12 16.25C12.6903 16.25 13.25 15.6903 13.25 15C13.25 14.3097 12.6903 13.75 12 13.75Z" fill="white"/>
<path fill-rule="evenodd" clip-rule="evenodd" d="M7.7865 3.31226C9.8215 2.70812 12.149 2.25 14 2.25C17.4199 2.25 19.8323 4.436 21.0803 5.56687C21.2339 5.70611 21.37 5.82936 21.488 5.93056C21.7756 6.17707 21.8342 6.59932 21.6247 6.91487C21.4152 7.23042 21.0033 7.34021 20.6645 7.17081C20.1565 6.91679 19.0749 6.53515 17.8201 6.29261C16.5592 6.04889 15.2267 5.9664 14.1819 6.22761C13.0219 6.5176 10.8042 7.25561 8.72614 7.99419C6.63387 8.73783 4.78479 9.44611 4.33535 9.67082L4.00544 9.011L4.33534 9.67082C3.7886 9.94419 3.23474 9.81846 2.83546 9.51531C2.46363 9.23299 2.21724 8.80312 2.09129 8.36229C1.8347 7.46422 2.0088 6.26634 3.0198 5.42383L3.01981 5.42383C3.47867 5.04145 4.18303 4.66372 4.98203 4.31616C5.79622 3.96198 6.7631 3.61609 7.7865 3.31226ZM5.58037 5.69165C4.81687 6.02378 4.27123 6.33355 3.98008 6.57617C3.49109 6.98366 3.41517 7.53578 3.53358 7.95021C3.58712 8.13761 3.66775 8.25053 3.72077 8.30175C4.33829 8.00712 6.23095 7.28911 8.22379 6.58081C10.2957 5.84439 12.578 5.0824 13.8181 4.77239C14.9706 4.48425 16.2888 4.53219 17.4861 4.71319C16.5067 4.15981 15.3504 3.75 14 3.75C12.3509 3.75 10.1784 4.16688 8.21339 4.75024C7.2368 5.04016 6.32868 5.36614 5.58037 5.69165Z" fill="white"/>
</svg>
