<svg width="80" height="80" viewBox="0 0 80 80" fill="none" xmlns="http://www.w3.org/2000/svg">
<g clip-path="url(#clip0_117_2292)">
<path d="M16.8413 10.6081V78.0268C16.8413 79.117 17.7523 80 18.8771 80H66.869C67.9938 80 68.9048 79.117 68.9048 78.0268V10.6081C68.9048 9.51789 67.9938 8.63489 66.869 8.63489H18.8771C17.7523 8.63489 16.8413 9.51789 16.8413 10.6081Z" fill="#8B0E68"/>
<path d="M11 6.81969V74.9582C11 76.06 11.9599 76.9524 13.1451 76.9524H63.7121C64.8972 76.9524 65.8571 76.06 65.8571 74.9582V6.81969C65.8571 5.71787 64.8972 4.82544 63.7121 4.82544H13.1451C11.9599 4.82544 11 5.71787 11 6.81969Z" fill="#B91A8C"/>
<path d="M45.8597 0H13.2858C12.1632 0 11.254 0.909206 11.254 2.03175V71.4514C11.254 72.574 12.1632 73.4832 13.2858 73.4832H61.1816C62.3042 73.4832 63.2134 72.574 63.2134 71.4514V17.3511L45.8597 0Z" fill="#D62D9D"/>
<path d="M54.9543 49.3587H18.619C18.0578 49.3587 17.6031 48.9041 17.6031 48.3428V32.2539C17.6031 31.6926 18.0578 31.238 18.619 31.238H54.9543C55.5155 31.238 55.9701 31.6926 55.9701 32.2539V48.3428C55.9701 48.9041 55.5155 49.3587 54.9543 49.3587Z" fill="#FA49BE"/>
<path d="M27.6882 45.2064H25.405V35.2864H27.6882V45.2064Z" fill="white"/>
<path d="M38.075 35.2864H40.122V45.2064H37.8389V40.2464L35.5557 45.2064H34.1385L31.8554 40.2464V45.2064H29.5722V35.2864H31.6192L34.8471 42.2934L38.075 35.2864Z" fill="white"/>
<path d="M46.4211 39.8527H51.2236V45.2064H49.649L49.2554 44.2616C49.0244 44.4611 48.7672 44.6343 48.4838 44.7812C48.2424 44.9072 47.9484 45.0227 47.602 45.1276C47.2556 45.2326 46.862 45.2851 46.4211 45.2851C45.7492 45.2851 45.1141 45.1591 44.5158 44.9072C43.9279 44.6448 43.4136 44.2879 42.9727 43.8365C42.5318 43.3746 42.1801 42.8392 41.9177 42.2304C41.6658 41.6215 41.5398 40.9602 41.5398 40.2464C41.5398 39.543 41.6658 38.887 41.9177 38.2781C42.1801 37.6588 42.5318 37.1234 42.9727 36.672C43.4136 36.2101 43.9279 35.8532 44.5158 35.6013C45.1141 35.3389 45.7492 35.2076 46.4211 35.2076C47.0089 35.2076 47.5495 35.3021 48.0429 35.4911C48.5468 35.68 48.9877 35.9372 49.3656 36.2626C49.754 36.5775 50.0794 36.945 50.3418 37.3648C50.6043 37.7847 50.7932 38.2204 50.9087 38.6718L48.5468 38.8292C48.4838 38.6508 48.3946 38.4776 48.2791 38.3096C48.1636 38.1417 48.0167 37.9894 47.8382 37.853C47.6597 37.7165 47.4498 37.6115 47.2084 37.5381C46.9774 37.4541 46.715 37.4121 46.4211 37.4121C46.0642 37.4121 45.7282 37.4856 45.4133 37.6325C45.0984 37.769 44.8202 37.9632 44.5788 38.2151C44.3478 38.4671 44.1641 38.7662 44.0277 39.1127C43.8912 39.4591 43.823 39.837 43.823 40.2464C43.823 40.6558 43.8912 41.0337 44.0277 41.3801C44.1641 41.7265 44.3478 42.0257 44.5788 42.2776C44.8202 42.5295 45.0984 42.729 45.4133 42.876C45.7282 43.0124 46.0642 43.0807 46.4211 43.0807C46.736 43.0807 47.0142 43.0439 47.2556 42.9704C47.5075 42.8865 47.7227 42.7815 47.9012 42.6555C48.0901 42.519 48.2424 42.3721 48.3578 42.2146C48.4733 42.0572 48.5625 41.8997 48.6255 41.7422H46.4211V39.8527Z" fill="white"/>
<path d="M45.8596 16.3352C45.8596 16.8965 46.3142 17.3511 46.8755 17.3511H63.2107L45.8596 0V16.3352Z" fill="#FA49BE"/>
</g>
<defs>
<clipPath id="clip0_117_2292">
<rect width="80" height="80" rx="8" fill="white"/>
</clipPath>
</defs>
</svg>
