<svg width="24" height="24" viewBox="0 0 24 24" fill="none" xmlns="http://www.w3.org/2000/svg">
<path fill-rule="evenodd" clip-rule="evenodd" d="M12 1.25C12.4142 1.25 12.75 1.58579 12.75 2V4C12.75 4.41421 12.4142 4.75 12 4.75C11.5858 4.75 11.25 4.41421 11.25 4V2C11.25 1.58579 11.5858 1.25 12 1.25Z" fill="#333333"/>
<path fill-rule="evenodd" clip-rule="evenodd" d="M17.3751 2.68996C17.7338 2.89707 17.8568 3.35577 17.6496 3.71448L16.6496 5.44651C16.4425 5.80523 15.9838 5.92814 15.6251 5.72103C15.2664 5.51392 15.1435 5.05523 15.3506 4.69651L16.3506 2.96448C16.5577 2.60576 17.0164 2.48285 17.3751 2.68996Z" fill="#333333"/>
<path fill-rule="evenodd" clip-rule="evenodd" d="M21.3094 6.62513C21.5165 6.98384 21.3936 7.44254 21.0349 7.64964L19.3029 8.64964C18.9441 8.85675 18.4854 8.73384 18.2783 8.37513C18.0712 8.01641 18.1941 7.55771 18.5529 7.35061L20.2849 6.35061C20.6436 6.1435 21.1023 6.26641 21.3094 6.62513Z" fill="#333333"/>
<path fill-rule="evenodd" clip-rule="evenodd" d="M19.25 12C19.25 11.5858 19.5858 11.25 20 11.25H22C22.4142 11.25 22.75 11.5858 22.75 12C22.75 12.4142 22.4142 12.75 22 12.75H20C19.5858 12.75 19.25 12.4142 19.25 12Z" fill="#333333"/>
<path fill-rule="evenodd" clip-rule="evenodd" d="M18.2783 15.6251C18.4854 15.2664 18.9441 15.1435 19.3029 15.3506L21.0349 16.3506C21.3936 16.5577 21.5165 17.0164 21.3094 17.3751C21.1023 17.7338 20.6436 17.8568 20.2849 17.6496L18.5529 16.6496C18.1941 16.4425 18.0712 15.9838 18.2783 15.6251Z" fill="#333333"/>
<path fill-rule="evenodd" clip-rule="evenodd" d="M15.6251 18.2788C15.9838 18.0717 16.4425 18.1946 16.6496 18.5533L17.6496 20.2854C17.8568 20.6441 17.7338 21.1028 17.3751 21.3099C17.0164 21.517 16.5577 21.3941 16.3506 21.0354L15.3506 19.3033C15.1435 18.9446 15.2664 18.4859 15.6251 18.2788Z" fill="#333333"/>
<path fill-rule="evenodd" clip-rule="evenodd" d="M12 19.25C12.4142 19.25 12.75 19.5858 12.75 20V22C12.75 22.4142 12.4142 22.75 12 22.75C11.5858 22.75 11.25 22.4142 11.25 22V20C11.25 19.5858 11.5858 19.25 12 19.25Z" fill="#333333"/>
<path fill-rule="evenodd" clip-rule="evenodd" d="M8.37513 18.2788C8.73384 18.4859 8.85675 18.9446 8.64964 19.3033L7.64964 21.0354C7.44254 21.3941 6.98384 21.517 6.62513 21.3099C6.26641 21.1028 6.1435 20.6441 6.35061 20.2854L7.35061 18.5533C7.55771 18.1946 8.01641 18.0717 8.37513 18.2788Z" fill="#333333"/>
<path fill-rule="evenodd" clip-rule="evenodd" d="M5.72152 15.6251C5.92862 15.9838 5.80572 16.4425 5.447 16.6496L3.71497 17.6496C3.35625 17.8568 2.89756 17.7338 2.69045 17.3751C2.48334 17.0164 2.60625 16.5577 2.96497 16.3506L4.697 15.3506C5.05571 15.1435 5.51441 15.2664 5.72152 15.6251Z" fill="#333333"/>
<path fill-rule="evenodd" clip-rule="evenodd" d="M1.25 12C1.25 11.5858 1.58579 11.25 2 11.25H4C4.41421 11.25 4.75 11.5858 4.75 12C4.75 12.4142 4.41421 12.75 4 12.75H2C1.58579 12.75 1.25 12.4142 1.25 12Z" fill="#333333"/>
<path fill-rule="evenodd" clip-rule="evenodd" d="M2.69045 6.62512C2.89756 6.2664 3.35625 6.1435 3.71497 6.35061L5.447 7.35061C5.80572 7.55772 5.92862 8.01641 5.72152 8.37513C5.51441 8.73385 5.05571 8.85675 4.697 8.64964L2.96497 7.64964C2.60625 7.44253 2.48334 6.98384 2.69045 6.62512Z" fill="#333333"/>
<path fill-rule="evenodd" clip-rule="evenodd" d="M6.62512 2.68996C6.98384 2.48285 7.44253 2.60576 7.64964 2.96448L8.64964 4.69651C8.85675 5.05523 8.73385 5.51392 8.37513 5.72103C8.01641 5.92814 7.55772 5.80523 7.35061 5.44651L6.35061 3.71448C6.1435 3.35577 6.2664 2.89707 6.62512 2.68996Z" fill="#333333"/>
</svg>
