<svg width="24" height="28" viewBox="0 0 24 28" fill="none" xmlns="http://www.w3.org/2000/svg">
<path d="M22.85 11.8C22.85 13.2242 22.1964 14.9084 21.115 16.6917C20.0435 18.4585 18.6035 20.2398 17.1458 21.8385C15.6907 23.4344 14.2332 24.8319 13.1382 25.8312C12.5912 26.3305 12.1358 26.7292 11.818 27.0026C11.8119 27.0078 11.8059 27.0129 11.8 27.018C11.7941 27.0129 11.7881 27.0078 11.782 27.0026C11.4642 26.7292 11.0088 26.3305 10.4618 25.8312C9.36684 24.8319 7.90931 23.4344 6.45421 21.8385C4.99646 20.2398 3.55648 18.4585 2.48505 16.6917C1.40361 14.9084 0.75 13.2242 0.75 11.8C0.75 5.69725 5.69725 0.75 11.8 0.75C17.9027 0.75 22.85 5.69725 22.85 11.8Z" stroke="black" stroke-width="1.5"/>
<circle cx="11.7996" cy="11.0008" r="3.45" stroke="black" stroke-width="1.5"/>
</svg>
