<svg width="17" height="20" viewBox="0 0 17 20" fill="none" xmlns="http://www.w3.org/2000/svg">
<path d="M16.1071 8.42857C16.1071 9.38723 15.6643 10.5494 14.8989 11.8115C14.1435 13.0571 13.125 14.318 12.0886 15.4546C11.055 16.5882 10.0189 17.5817 9.23995 18.2926C8.91885 18.5857 8.64225 18.83 8.42857 19.0154C8.2149 18.83 7.9383 18.5857 7.61719 18.2926C6.83827 17.5817 5.80217 16.5882 4.76849 15.4546C3.73217 14.318 2.71362 13.0571 1.95826 11.8115C1.19289 10.5494 0.75 9.38723 0.75 8.42857C0.75 4.18781 4.18781 0.75 8.42857 0.75C12.6693 0.75 16.1071 4.18781 16.1071 8.42857Z" stroke="#6BD398" stroke-width="1.5"/>
<circle cx="8.42822" cy="7.85791" r="2.25" stroke="#6BD398" stroke-width="1.5"/>
</svg>
