<svg width="24" height="24" viewBox="0 0 24 24" fill="none" xmlns="http://www.w3.org/2000/svg">
<path fill-rule="evenodd" clip-rule="evenodd" d="M12 1.25C12.4142 1.25 12.75 1.58579 12.75 2V4C12.75 4.41421 12.4142 4.75 12 4.75C11.5858 4.75 11.25 4.41421 11.25 4V2C11.25 1.58579 11.5858 1.25 12 1.25Z" fill="#333333"/>
<path fill-rule="evenodd" clip-rule="evenodd" d="M17.375 2.69021C17.7337 2.89732 17.8566 3.35601 17.6495 3.71473L16.6495 5.44676C16.4424 5.80548 15.9837 5.92838 15.625 5.72127C15.2663 5.51416 15.1434 5.05547 15.3505 4.69675L16.3505 2.96472C16.5576 2.606 17.0163 2.4831 17.375 2.69021Z" fill="#333333"/>
<path fill-rule="evenodd" clip-rule="evenodd" d="M21.3098 6.625C21.5169 6.98372 21.394 7.44242 21.0353 7.64952L19.3032 8.64952C18.9445 8.85663 18.4858 8.73372 18.2787 8.375C18.0716 8.01628 18.1945 7.55759 18.5532 7.35048L20.2853 6.35048C20.644 6.14338 21.1027 6.26628 21.3098 6.625Z" fill="#333333"/>
<path fill-rule="evenodd" clip-rule="evenodd" d="M19.25 12C19.25 11.5858 19.5858 11.25 20 11.25H22C22.4142 11.25 22.75 11.5858 22.75 12C22.75 12.4142 22.4142 12.75 22 12.75H20C19.5858 12.75 19.25 12.4142 19.25 12Z" fill="#333333"/>
<path fill-rule="evenodd" clip-rule="evenodd" d="M18.2787 15.625C18.4858 15.2663 18.9445 15.1434 19.3032 15.3505L21.0353 16.3505C21.394 16.5576 21.5169 17.0163 21.3098 17.375C21.1027 17.7337 20.644 17.8566 20.2853 17.6495L18.5532 16.6495C18.1945 16.4424 18.0716 15.9837 18.2787 15.625Z" fill="#333333"/>
<path fill-rule="evenodd" clip-rule="evenodd" d="M15.625 18.2787C15.9837 18.0716 16.4424 18.1945 16.6495 18.5533L17.6495 20.2853C17.8566 20.644 17.7337 21.1027 17.375 21.3098C17.0163 21.5169 16.5576 21.394 16.3505 21.0353L15.3505 19.3033C15.1434 18.9445 15.2663 18.4858 15.625 18.2787Z" fill="#333333"/>
<path fill-rule="evenodd" clip-rule="evenodd" d="M12 19.25C12.4142 19.25 12.75 19.5858 12.75 20V22C12.75 22.4142 12.4142 22.75 12 22.75C11.5858 22.75 11.25 22.4142 11.25 22V20C11.25 19.5858 11.5858 19.25 12 19.25Z" fill="#333333"/>
<path fill-rule="evenodd" clip-rule="evenodd" d="M8.375 18.2787C8.73372 18.4858 8.85663 18.9445 8.64952 19.3033L7.64952 21.0353C7.44242 21.394 6.98372 21.5169 6.625 21.3098C6.26628 21.1027 6.14338 20.644 6.35048 20.2853L7.35048 18.5533C7.55759 18.1945 8.01628 18.0716 8.375 18.2787Z" fill="#333333"/>
<path fill-rule="evenodd" clip-rule="evenodd" d="M5.72126 15.625C5.92837 15.9837 5.80547 16.4424 5.44675 16.6495L3.71472 17.6495C3.356 17.8566 2.89731 17.7337 2.6902 17.375C2.48309 17.0163 2.606 16.5576 2.96471 16.3505L4.69674 15.3505C5.05546 15.1434 5.51416 15.2663 5.72126 15.625Z" fill="#333333"/>
<path fill-rule="evenodd" clip-rule="evenodd" d="M1.25 12C1.25 11.5858 1.58579 11.25 2 11.25H4C4.41421 11.25 4.75 11.5858 4.75 12C4.75 12.4142 4.41421 12.75 4 12.75H2C1.58579 12.75 1.25 12.4142 1.25 12Z" fill="#333333"/>
<path fill-rule="evenodd" clip-rule="evenodd" d="M2.6902 6.625C2.89731 6.26628 3.356 6.14338 3.71472 6.35049L5.44675 7.35049C5.80547 7.55759 5.92837 8.01629 5.72126 8.37501C5.51416 8.73372 5.05546 8.85663 4.69674 8.64952L2.96471 7.64952C2.606 7.44241 2.48309 6.98372 2.6902 6.625Z" fill="#333333"/>
<path fill-rule="evenodd" clip-rule="evenodd" d="M6.625 2.69021C6.98372 2.4831 7.44241 2.606 7.64952 2.96472L8.64952 4.69675C8.85663 5.05547 8.73372 5.51416 8.37501 5.72127C8.01629 5.92838 7.55759 5.80548 7.35049 5.44676L6.35049 3.71473C6.14338 3.35601 6.26628 2.89732 6.625 2.69021Z" fill="#333333"/>
</svg>
