<svg width="24" height="11" viewBox="0 0 24 11" fill="none" xmlns="http://www.w3.org/2000/svg">
<path d="M1.4595 5.64671L1.45937 5.6467V5.65291C1.45937 8.3147 3.62467 10.48 6.28644 10.48C8.94825 10.48 11.1136 8.3147 11.1136 5.65295H11.1137L11.1134 5.64676C10.8495 -0.747807 1.72438 -0.750016 1.4595 5.64671ZM2.58127 5.64982C2.58295 3.60832 4.24456 1.94772 6.28644 1.94772C8.32831 1.94772 9.98997 3.60832 9.99166 5.64978C9.7858 10.5671 2.78787 10.5682 2.58127 5.64982Z" fill="black" stroke="black" stroke-width="0.3"/>
<path d="M13.0113 5.64671L13.0111 5.6467V5.65291C13.0111 8.3147 15.1764 10.48 17.8382 10.48C20.5 10.48 22.6653 8.3147 22.6653 5.65295H22.6654L22.6652 5.64676C22.4013 -0.747882 13.2761 -0.749941 13.0113 5.64671ZM14.133 5.64982C14.1347 3.60833 15.7964 1.94772 17.8382 1.94772C19.8801 1.94772 21.5417 3.60832 21.5434 5.64978C21.3376 10.567 14.3397 10.5682 14.133 5.64982Z" fill="black" stroke="black" stroke-width="0.3"/>
<path d="M14.4733 3.70219L14.4735 3.70276C14.5822 3.99281 14.4351 4.31613 14.145 4.42481M14.4733 3.70219L14.0924 4.28435M14.4733 3.70219C13.6275 1.47238 10.4999 1.48019 9.65211 3.70103C9.50872 4.06305 9.794 4.46624 10.178 4.46059M14.4733 3.70219L10.1767 4.31059M14.145 4.42481L14.0924 4.28435M14.145 4.42481C14.145 4.42481 14.145 4.4248 14.1451 4.42479L14.0924 4.28435M14.145 4.42481C13.8548 4.53363 13.5316 4.38642 13.4229 4.09636L13.4229 4.09635C13.2048 3.51446 12.6468 3.13372 12.0328 3.14523M14.0924 4.28435C13.8798 4.36408 13.643 4.25628 13.5633 4.04372C13.3232 3.40295 12.7082 2.9825 12.0299 2.99526M12.0328 3.14523C12.0329 3.14523 12.0329 3.14523 12.033 3.14523L12.0299 2.99526M12.0328 3.14523C12.0328 3.14523 12.0328 3.14523 12.0327 3.14523L12.0299 2.99526M12.0328 3.14523C11.4467 3.15711 10.9106 3.53897 10.7021 4.09612L10.7021 4.09614C10.6178 4.32129 10.4045 4.46007 10.178 4.46059M12.0299 2.99526C11.3814 3.00835 10.7914 3.42962 10.5616 4.04355C10.4998 4.20866 10.3432 4.31059 10.1767 4.31059M10.178 4.46059C10.1784 4.46059 10.1788 4.46058 10.1793 4.46057L10.1767 4.31059M10.178 4.46059C10.1775 4.46059 10.1771 4.46059 10.1767 4.46059V4.31059" fill="black" stroke="black" stroke-width="0.3"/>
<path d="M22.7834 4.46018V4.46027L22.7886 4.46009C23.5267 4.43461 23.5246 3.36361 22.7886 3.33837L22.7886 3.33828H22.7834H21.7283C21.4185 3.33828 21.1674 3.58944 21.1674 3.89923C21.1674 4.20903 21.4185 4.46018 21.7283 4.46018H22.7834Z" fill="black" stroke="black" stroke-width="0.3"/>
<path d="M2.39573 4.46018V4.46027L2.4009 4.46009C3.13895 4.43461 3.1369 3.36361 2.40087 3.33837L2.40087 3.33828H2.39573H1.34064C1.0308 3.33828 0.779687 3.58944 0.779687 3.89923C0.779687 4.20903 1.0308 4.46018 1.34064 4.46018H2.39573Z" fill="black" stroke="black" stroke-width="0.3"/>
<path d="M8.13194 3.96165C8.32777 3.64824 8.23244 3.23542 7.91903 3.03961L7.9191 3.03951L7.91394 3.03657C7.14887 2.59961 6.47641 3.67488 7.20491 4.1713L7.20484 4.1714L7.20989 4.17456C7.5233 4.37038 7.93611 4.27506 8.13194 3.96165ZM8.13194 3.96165L8.00473 3.88217M8.13194 3.96165L8.00473 3.88217M8.00473 3.88217C8.15666 3.63902 8.0827 3.31874 7.83955 3.16682L7.28937 4.04735C7.53252 4.19927 7.8528 4.12532 8.00473 3.88217Z" fill="black" stroke="black" stroke-width="0.3"/>
<path d="M4.50965 5.13178L4.50964 5.1318C4.43774 5.37601 4.21458 5.53405 3.97264 5.53448M4.50965 5.13178L5.58162 2.76416C4.55513 3.01527 3.73243 3.80041 3.43368 4.81393C3.3234 5.16974 3.60407 5.53873 3.97264 5.53448M4.50965 5.13178C4.69548 4.50025 5.20863 4.01036 5.84827 3.85391M4.50965 5.13178L6.25986 3.17575M3.97264 5.53448C3.97231 5.53448 3.97198 5.53448 3.97165 5.53448V5.38448L3.97366 5.53447C3.97332 5.53447 3.97298 5.53448 3.97264 5.53448ZM5.84827 3.85391C6.1492 3.78032 6.33349 3.47668 6.25986 3.17575M5.84827 3.85391L5.81263 3.70821M5.84827 3.85391L5.81263 3.70821M6.25986 3.17575C6.18626 2.87491 5.88276 2.6904 5.58168 2.76415L6.25986 3.17575ZM5.81263 3.70821C5.12108 3.87735 4.56667 4.40661 4.36575 5.08943L6.11416 3.2114C6.16809 3.43186 6.03309 3.65429 5.81263 3.70821Z" fill="black" stroke="black" stroke-width="0.3"/>
<path d="M14.9855 4.81389C15.2842 3.80037 16.1069 3.01527 17.1334 2.76416L14.9855 4.81389ZM14.9855 4.81389C14.8751 5.16972 15.1558 5.53878 15.5244 5.53448M14.9855 4.81389L17.4001 3.85391M15.5244 5.53448C15.5241 5.53448 15.5237 5.53448 15.5234 5.53448V5.38448L15.5254 5.53447C15.5251 5.53447 15.5247 5.53448 15.5244 5.53448ZM15.5244 5.53448C15.7663 5.53404 15.9895 5.37603 16.0613 5.13182C16.2473 4.50027 16.7604 4.01035 17.4001 3.85391M17.4001 3.85391L17.3644 3.70821M17.4001 3.85391L17.3644 3.70821M17.3644 3.70821C16.6729 3.87735 16.1185 4.40663 15.9174 5.08946L17.8116 3.17576L17.6659 3.2114M17.3644 3.70821C17.5849 3.65429 17.7199 3.43186 17.6659 3.2114M17.6659 3.2114C17.612 2.99092 17.3896 2.85581 17.1691 2.90985L17.1335 2.76415C17.4345 2.6904 17.738 2.8749 17.8116 3.17575L17.6659 3.2114Z" fill="black" stroke="black" stroke-width="0.3"/>
</svg>
