<svg width="80" height="80" viewBox="0 0 80 80" fill="none" xmlns="http://www.w3.org/2000/svg">
<g clip-path="url(#clip0_110_7337)">
<path d="M16.9878 10.8345V78.1867C16.9878 79.2758 17.8979 80.1579 19.0216 80.1579H66.9661C68.0897 80.1579 68.9999 79.2758 68.9999 78.1867V10.8345C68.9999 9.74541 68.0897 8.86328 66.9661 8.86328H19.0216C17.8979 8.86328 16.9878 9.74541 16.9878 10.8345Z" fill="#9A1830"/>
<path d="M11.1523 7.04977V75.121C11.1523 76.2217 12.1113 77.1132 13.2953 77.1132H63.8124C64.9963 77.1132 65.9553 76.2217 65.9553 75.121V7.04977C65.9553 5.94904 64.9963 5.0575 63.8124 5.0575H13.2953C12.1113 5.0575 11.1523 5.94904 11.1523 7.04977Z" fill="#D00C30"/>
<path d="M45.9775 0.236816H13.4357C12.3143 0.236816 11.406 1.14512 11.406 2.26656V71.6177C11.406 72.7391 12.3143 73.6474 13.4357 73.6474H61.2843C62.4057 73.6474 63.314 72.7391 63.314 71.6177V17.5708L45.9775 0.236816Z" fill="#E83354"/>
<path d="M55.0632 49.547H18.7639C18.2032 49.547 17.749 49.0928 17.749 48.5321V32.4591C17.749 31.8984 18.2032 31.4442 18.7639 31.4442H55.0632C55.624 31.4442 56.0781 31.8984 56.0781 32.4591V48.5321C56.0781 49.0928 55.624 49.547 55.0632 49.547Z" fill="#FF5473"/>
<path d="M29.3971 35.4885C29.9109 35.4885 30.3828 35.5777 30.8128 35.7559C31.2428 35.9237 31.6151 36.1649 31.9297 36.4795C32.2443 36.7837 32.4907 37.1402 32.669 37.5492C32.8473 37.9582 32.9364 38.3987 32.9364 38.8706C32.9364 39.3425 32.8473 39.7829 32.669 40.1919C32.4907 40.6009 32.2443 40.9627 31.9297 41.2773C31.6151 41.5815 31.2428 41.8227 30.8128 42.0009C30.3828 42.1687 29.9109 42.2526 29.3971 42.2526H27.824V45.3987H25.5431V35.4885H29.3971ZM29.3971 40.0504C29.7536 40.0504 30.0525 39.935 30.2937 39.7043C30.5349 39.4631 30.6555 39.1852 30.6555 38.8706C30.6555 38.556 30.5349 38.2833 30.2937 38.0526C30.0525 37.8114 29.7536 37.6908 29.3971 37.6908H27.824V40.0504H29.3971Z" fill="white"/>
<path d="M37.7275 43.1965C38.105 43.1965 38.4563 43.1283 38.7814 42.992C39.1065 42.8451 39.3896 42.6511 39.6308 42.4099C39.872 42.1687 40.0608 41.8803 40.1971 41.5448C40.3335 41.2092 40.4016 40.8421 40.4016 40.4436C40.4016 40.0556 40.3335 39.6938 40.1971 39.3582C40.0608 39.0122 39.872 38.7185 39.6308 38.4773C39.3896 38.2361 39.1065 38.0474 38.7814 37.911C38.4563 37.7642 38.105 37.6908 37.7275 37.6908H36.6263V43.1965H37.7275ZM34.3454 35.4885H37.7275C38.4196 35.4885 39.0645 35.6196 39.6623 35.8818C40.2601 36.1335 40.7844 36.4848 41.2353 36.9357C41.6863 37.3867 42.0376 37.911 42.2893 38.5088C42.5515 39.1065 42.6826 39.7515 42.6826 40.4436C42.6826 41.1358 42.5515 41.7807 42.2893 42.3785C42.0376 42.9762 41.6863 43.5006 41.2353 43.9515C40.7844 44.4025 40.2601 44.759 39.6623 45.0212C39.0645 45.2729 38.4196 45.3987 37.7275 45.3987H34.3454V35.4885Z" fill="white"/>
<path d="M44.1001 35.4885H50.9429V37.6908H46.3811V39.7358H50.0777V41.938H46.3811V45.3987H44.1001V35.4885Z" fill="white"/>
<path d="M45.9775 16.5559C45.9775 17.1166 46.4317 17.5708 46.9924 17.5708H63.3115L45.9775 0.236816V16.5559Z" fill="#FF5473"/>
</g>
<defs>
<clipPath id="clip0_110_7337">
<rect width="80" height="80" rx="8" fill="white"/>
</clipPath>
</defs>
</svg>
