<svg width="80" height="80" viewBox="0 0 80 80" fill="none" xmlns="http://www.w3.org/2000/svg">
<g clip-path="url(#clip0_111_5107)">
<path d="M16.8413 10.6081V78.0268C16.8413 79.117 17.7523 80 18.8771 80H66.869C67.9938 80 68.9048 79.117 68.9048 78.0268V10.6081C68.9048 9.51789 67.9938 8.63489 66.869 8.63489H18.8771C17.7523 8.63489 16.8413 9.51789 16.8413 10.6081Z" fill="#A20D54"/>
<path d="M11 6.81969V74.9582C11 76.06 11.9599 76.9524 13.1451 76.9524H63.7121C64.8972 76.9524 65.8571 76.06 65.8571 74.9582V6.81969C65.8571 5.71787 64.8972 4.82544 63.7121 4.82544H13.1451C11.9599 4.82544 11 5.71787 11 6.81969Z" fill="#C63C7E"/>
<path d="M45.8597 0H13.2858C12.1632 0 11.254 0.909206 11.254 2.03175V71.4514C11.254 72.574 12.1632 73.4832 13.2858 73.4832H61.1816C62.3042 73.4832 63.2134 72.574 63.2134 71.4514V17.3511L45.8597 0Z" fill="#EE5FA4"/>
<path d="M54.9543 49.3587H18.619C18.0578 49.3587 17.6031 48.9041 17.6031 48.3428V32.2539C17.6031 31.6926 18.0578 31.238 18.619 31.238H54.9543C55.5155 31.238 55.9701 31.6926 55.9701 32.2539V48.3428C55.9701 48.9041 55.5155 49.3587 54.9543 49.3587Z" fill="#FF7BBA"/>
<path d="M29.7707 35.2864C30.2851 35.2864 30.7575 35.3756 31.1879 35.5541C31.6183 35.722 31.9909 35.9635 32.3059 36.2784C32.6208 36.5828 32.8675 36.9397 33.0459 37.3491C33.2244 37.7585 33.3136 38.1994 33.3136 38.6718C33.3136 39.1442 33.2244 39.585 33.0459 39.9944C32.8675 40.4038 32.6208 40.766 32.3059 41.0809C31.9909 41.3853 31.6183 41.6268 31.1879 41.8052C30.7575 41.9732 30.2851 42.0572 29.7707 42.0572H28.1961V45.2064H25.913V35.2864H29.7707ZM29.7707 39.8527C30.1277 39.8527 30.4268 39.7373 30.6683 39.5063C30.9097 39.2649 31.0304 38.9867 31.0304 38.6718C31.0304 38.3569 30.9097 38.0839 30.6683 37.853C30.4268 37.6115 30.1277 37.4908 29.7707 37.4908H28.1961V39.8527H29.7707Z" fill="white"/>
<path d="M38.5818 35.2864C39.0961 35.2864 39.5685 35.3756 39.9989 35.5541C40.4293 35.722 40.8019 35.9635 41.1169 36.2784C41.4318 36.5828 41.6785 36.9397 41.8569 37.3491C42.0354 37.7585 42.1246 38.1994 42.1246 38.6718C42.1246 39.1442 42.0354 39.585 41.8569 39.9944C41.6785 40.4038 41.4318 40.766 41.1169 41.0809C40.8019 41.3853 40.4293 41.6268 39.9989 41.8052C39.5685 41.9732 39.0961 42.0572 38.5818 42.0572H37.0072V45.2064H34.724V35.2864H38.5818ZM38.5818 39.8527C38.9387 39.8527 39.2378 39.7373 39.4793 39.5063C39.7207 39.2649 39.8414 38.9867 39.8414 38.6718C39.8414 38.3569 39.7207 38.0839 39.4793 37.853C39.2378 37.6115 38.9387 37.4908 38.5818 37.4908H37.0072V39.8527H38.5818Z" fill="white"/>
<path d="M47.8651 45.2064H45.582V37.4908H42.7477V35.2864H50.6994V37.4908H47.8651V45.2064Z" fill="white"/>
<path d="M45.8596 16.3352C45.8596 16.8965 46.3142 17.3511 46.8755 17.3511H63.2107L45.8596 0V16.3352Z" fill="#FF7BBA"/>
</g>
<defs>
<clipPath id="clip0_111_5107">
<rect width="80" height="80" rx="8" fill="white"/>
</clipPath>
</defs>
</svg>
