                          <svg width="15" height="15" viewBox="0 0 15 15" fill="none"
                              xmlns="http://www.w3.org/2000/svg">
                              <path
                                  d="M7.5 12.5C10.6066 12.5 13.125 9.375 13.125 9.375C13.125 9.375 10.6066 6.25 7.5 6.25C4.39341 6.25 1.875 9.375 1.875 9.375C1.875 9.375 4.39341 12.5 7.5 12.5Z"
                                  stroke="white" stroke-linejoin="round" />
                              <path
                                  d="M7.5 10.625C8.19034 10.625 8.75 10.0653 8.75 9.375C8.75 8.68466 8.19034 8.125 7.5 8.125C6.80966 8.125 6.25 8.68466 6.25 9.375C6.25 10.0653 6.80966 10.625 7.5 10.625Z"
                                  stroke="white" stroke-linejoin="round" />
                              <path
                                  d="M8.75006 1.875C6.56253 1.875 3.12506 2.96875 2.18755 3.75C1.25005 4.53125 1.87503 5.9375 2.50005 5.625C3.12506 5.3125 7.25006 3.8125 8.75006 3.4375C10.2501 3.0625 12.3959 3.69791 13.125 4.0625C12.3959 3.4375 10.9376 1.875 8.75006 1.875Z"
                                  stroke="white" stroke-linejoin="round" />
                          </svg>