<svg width="50" height="50" viewBox="0 0 50 50" fill="none" xmlns="http://www.w3.org/2000/svg">
<circle cx="25" cy="25" r="25" fill="#F7E8F5"/>
<path fill-rule="evenodd" clip-rule="evenodd" d="M27.75 13C28.1642 13 28.5 13.3358 28.5 13.75V18H32.75C33.1642 18 33.5 18.3358 33.5 18.75C33.5 19.1642 33.1642 19.5 32.75 19.5H27.75C27.3358 19.5 27 19.1642 27 18.75V13.75C27 13.3358 27.3358 13 27.75 13Z" fill="#825A7E"/>
<path fill-rule="evenodd" clip-rule="evenodd" d="M16 14.75C16 13.7835 16.7835 13 17.75 13H28.25C28.4626 13 28.6652 13.0902 28.8075 13.2483L33.3075 18.2483C33.4314 18.386 33.5 18.5647 33.5 18.75V32.75C33.5 33.7165 32.7165 34.5 31.75 34.5H17.75C16.7835 34.5 16 33.7165 16 32.75V14.75ZM17.75 14.5C17.6119 14.5 17.5 14.6119 17.5 14.75V32.75C17.5 32.8881 17.6119 33 17.75 33H31.75C31.8881 33 32 32.8881 32 32.75V19.0378L27.916 14.5H17.75Z" fill="#825A7E"/>
<path d="M24.3749 27.9167C26.3309 27.9167 27.9166 26.331 27.9166 24.375C27.9166 22.419 26.3309 20.8334 24.3749 20.8334C22.4189 20.8334 20.8333 22.419 20.8333 24.375C20.8333 26.331 22.4189 27.9167 24.3749 27.9167Z" stroke="#825A7E" stroke-width="1.5" stroke-linejoin="round"/>
<path d="M26.9211 26.9213L28.6889 28.689" stroke="#825A7E" stroke-width="1.5" stroke-linecap="round" stroke-linejoin="round"/>
</svg>
