<svg width="17" height="17" viewBox="0 0 17 17" fill="none" xmlns="http://www.w3.org/2000/svg">
<path d="M15.2935 16.7078C15.6844 17.0979 16.3176 17.0973 16.7078 16.7065C17.0979 16.3156 17.0973 15.6824 16.7065 15.2922L15.2935 16.7078ZM12.3226 12.3294L11.616 11.6218L12.3226 12.3294ZM7.63462 13.2692C4.5227 13.2692 2 10.7465 2 7.63462H0C0 11.8511 3.41813 15.2692 7.63462 15.2692V13.2692ZM2 7.63462C2 4.5227 4.5227 2 7.63462 2V0C3.41813 0 0 3.41813 0 7.63462H2ZM7.63462 2C10.7465 2 13.2692 4.5227 13.2692 7.63462H15.2692C15.2692 3.41813 11.8511 0 7.63462 0V2ZM13.2692 7.63462C13.2692 9.1923 12.6385 10.6008 11.616 11.6218L13.0292 13.037C14.412 11.6562 15.2692 9.74456 15.2692 7.63462H13.2692ZM11.616 11.6218C10.5955 12.6408 9.18939 13.2692 7.63462 13.2692V15.2692C9.7406 15.2692 11.649 14.4152 13.0292 13.037L11.616 11.6218ZM11.6162 13.0371L15.2935 16.7078L16.7065 15.2922L13.0291 11.6216L11.6162 13.0371Z" fill="black"/>
</svg>
