<svg width="80" height="80" viewBox="0 0 80 80" fill="none" xmlns="http://www.w3.org/2000/svg">
<g clip-path="url(#clip0_111_4892)">
<path d="M16.8413 10.6081V78.0268C16.8413 79.117 17.7523 80 18.8771 80H66.869C67.9938 80 68.9048 79.117 68.9048 78.0268V10.6081C68.9048 9.51789 67.9938 8.63489 66.869 8.63489H18.8771C17.7523 8.63489 16.8413 9.51789 16.8413 10.6081Z" fill="#008770"/>
<path d="M11 6.81969V74.9582C11 76.06 11.9599 76.9524 13.1451 76.9524H63.7121C64.8972 76.9524 65.8571 76.06 65.8571 74.9582V6.81969C65.8571 5.71787 64.8972 4.82544 63.7121 4.82544H13.1451C11.9599 4.82544 11 5.71787 11 6.81969Z" fill="#00AB8C"/>
<path d="M45.8597 0H13.2858C12.1632 0 11.254 0.909206 11.254 2.03175V71.4514C11.254 72.574 12.1632 73.4832 13.2858 73.4832H61.1816C62.3042 73.4832 63.2134 72.574 63.2134 71.4514V17.3511L45.8597 0Z" fill="#00C295"/>
<path d="M54.9543 49.3588H18.619C18.0578 49.3588 17.6031 48.9042 17.6031 48.3429V32.254C17.6031 31.6928 18.0578 31.2382 18.619 31.2382H54.9543C55.5155 31.2382 55.9701 31.6928 55.9701 32.254V48.3429C55.9701 48.9042 55.5155 49.3588 54.9543 49.3588Z" fill="#00E6B0"/>
<path d="M27.1372 35.2864L29.0267 38.5143L30.9162 35.2864H33.4356L30.4438 40.1676L33.593 45.2064H31.0737L29.0267 41.821L26.9797 45.2064H24.4603L27.6095 40.1676L24.6178 35.2864H27.1372Z" fill="white"/>
<path d="M34.539 35.2864H36.8222V43.0019H41.3098V45.2064H34.539V35.2864Z" fill="white"/>
<path d="M42.0184 38.0419C42.0184 37.664 42.0971 37.3071 42.2546 36.9712C42.4225 36.6248 42.6587 36.3256 42.9631 36.0737C43.2676 35.8112 43.635 35.6013 44.0654 35.4438C44.5063 35.2864 45.0049 35.2076 45.5612 35.2076C46.0966 35.2076 46.5742 35.2864 46.9941 35.4438C47.4245 35.6013 47.7867 35.8217 48.0806 36.1052C48.385 36.3886 48.616 36.7245 48.7734 37.1129C48.9414 37.4908 49.0254 37.9055 49.0254 38.3568L46.8209 38.5143C46.8209 38.1154 46.7107 37.8057 46.4903 37.5853C46.2698 37.3648 45.9601 37.2546 45.5612 37.2546C45.2043 37.2546 44.9157 37.3544 44.6952 37.5538C44.4853 37.7428 44.3803 37.9579 44.3803 38.1994C44.3803 38.4408 44.501 38.6245 44.7424 38.7505C44.9839 38.8765 45.2831 38.9972 45.64 39.1127C46.0074 39.2176 46.401 39.3331 46.8209 39.4591C47.2408 39.585 47.6292 39.7635 47.9861 39.9944C48.3535 40.2254 48.658 40.5298 48.8994 40.9077C49.1408 41.2856 49.2616 41.7737 49.2616 42.3721C49.2616 42.771 49.1776 43.1489 49.0096 43.5058C48.8522 43.8522 48.616 44.1566 48.301 44.4191C47.9861 44.6815 47.5977 44.8915 47.1358 45.0489C46.674 45.2064 46.1491 45.2851 45.5612 45.2851C44.9944 45.2851 44.4853 45.2064 44.0339 45.0489C43.5825 44.8915 43.1993 44.671 42.8844 44.3876C42.58 44.0937 42.3438 43.7525 42.1758 43.3641C42.0184 42.9652 41.9397 42.5295 41.9397 42.0572L44.1441 41.8997C44.1441 42.792 44.6165 43.2381 45.5612 43.2381C46.0021 43.2381 46.3328 43.1384 46.5532 42.9389C46.7842 42.729 46.8997 42.4876 46.8997 42.2146C46.8997 41.9627 46.7789 41.7685 46.5375 41.632C46.2961 41.4956 45.9916 41.3696 45.6242 41.2541C45.2673 41.1386 44.8789 41.0179 44.459 40.892C44.0391 40.766 43.6455 40.5928 43.2781 40.3723C42.9212 40.1414 42.622 39.8422 42.3805 39.4748C42.1391 39.1074 42.0184 38.6298 42.0184 38.0419Z" fill="white"/>
<path d="M45.8596 16.3352C45.8596 16.8965 46.3142 17.3511 46.8755 17.3511H63.2107L45.8596 0V16.3352Z" fill="#00E6B0"/>
</g>
<defs>
<clipPath id="clip0_111_4892">
<rect width="80" height="80" rx="8" fill="white"/>
</clipPath>
</defs>
</svg>
