<svg width="80" height="80" viewBox="0 0 80 80" fill="none" xmlns="http://www.w3.org/2000/svg">
<g clip-path="url(#clip0_117_2331)">
<path d="M16.8413 10.6081V78.0268C16.8413 79.117 17.7523 80 18.8771 80H66.869C67.9938 80 68.9048 79.117 68.9048 78.0268V10.6081C68.9048 9.51789 67.9938 8.63489 66.869 8.63489H18.8771C17.7523 8.63489 16.8413 9.51789 16.8413 10.6081Z" fill="#8B3B0E"/>
<path d="M11 6.81969V74.9582C11 76.06 11.9599 76.9524 13.1451 76.9524H63.7121C64.8972 76.9524 65.8571 76.06 65.8571 74.9582V6.81969C65.8571 5.71787 64.8972 4.82544 63.7121 4.82544H13.1451C11.9599 4.82544 11 5.71787 11 6.81969Z" fill="#B9531A"/>
<path d="M45.8597 0H13.2858C12.1632 0 11.254 0.909206 11.254 2.03175V71.4514C11.254 72.574 12.1632 73.4832 13.2858 73.4832H61.1816C62.3042 73.4832 63.2134 72.574 63.2134 71.4514V17.3511L45.8597 0Z" fill="#D6602D"/>
<path d="M54.9543 49.3587H18.619C18.0578 49.3587 17.6031 48.9041 17.6031 48.3428V32.2539C17.6031 31.6926 18.0578 31.238 18.619 31.238H54.9543C55.5155 31.238 55.9701 31.6926 55.9701 32.2539V48.3428C55.9701 48.9041 55.5155 49.3587 54.9543 49.3587Z" fill="#FF8855"/>
<path d="M29.3696 43.0019H33.8572V45.2064H26.4565V43.3169L30.708 37.4908H26.614V35.2864H33.621V37.1759L29.3696 43.0019Z" fill="white"/>
<path d="M37.5618 45.2064H35.2786V35.2864H37.5618V45.2064Z" fill="white"/>
<path d="M43.3036 35.2864C43.8179 35.2864 44.2903 35.3756 44.7207 35.5541C45.1511 35.722 45.5238 35.9635 45.8387 36.2784C46.1536 36.5828 46.4003 36.9397 46.5787 37.3491C46.7572 37.7585 46.8464 38.1994 46.8464 38.6718C46.8464 39.1442 46.7572 39.585 46.5787 39.9944C46.4003 40.4038 46.1536 40.766 45.8387 41.0809C45.5238 41.3853 45.1511 41.6268 44.7207 41.8052C44.2903 41.9732 43.8179 42.0572 43.3036 42.0572H41.729V45.2064H39.4458V35.2864H43.3036ZM43.3036 39.8527C43.6605 39.8527 43.9597 39.7373 44.2011 39.5063C44.4425 39.2649 44.5633 38.9867 44.5633 38.6718C44.5633 38.3569 44.4425 38.0839 44.2011 37.853C43.9597 37.6115 43.6605 37.4908 43.3036 37.4908H41.729V39.8527H43.3036Z" fill="white"/>
<path d="M45.8596 16.3352C45.8596 16.8965 46.3142 17.3511 46.8755 17.3511H63.2107L45.8596 0V16.3352Z" fill="#FF8855"/>
</g>
<defs>
<clipPath id="clip0_117_2331">
<rect width="80" height="80" rx="8" fill="white"/>
</clipPath>
</defs>
</svg>
