<svg width="23" height="23" viewBox="0 0 23 23" fill="none" xmlns="http://www.w3.org/2000/svg">
<g clip-path="url(#clip0_901_2209)">
<path d="M22.3125 11.569C22.3123 9.37134 21.7217 7.21977 20.6107 5.36902C19.4997 3.51827 17.9148 2.04583 16.0436 1.12603C14.1725 0.206228 12.0934 -0.122419 10.0526 0.178996C8.01174 0.480412 6.09461 1.39927 4.52815 2.82678C2.96169 4.25429 1.81149 6.13068 1.21374 8.23381C0.615979 10.3369 0.595691 12.5787 1.15527 14.6938C1.71486 16.8088 2.83088 18.7085 4.37121 20.168C5.91155 21.6275 7.81169 22.5857 9.84668 22.9291V14.8934H7.10914V11.569H9.84668V9.03516C9.84668 6.15345 11.4567 4.5607 13.9184 4.5607C14.7271 4.57307 15.5339 4.64802 16.3325 4.78495V7.61586H14.9723C14.5628 7.55788 14.1485 7.67574 13.8205 7.9435C13.4924 8.21127 13.2775 8.60704 13.223 9.04378C13.2076 9.16609 13.2052 9.28986 13.2158 9.41274V11.569H16.2031L15.7252 14.8934H13.2095V22.9291C15.7468 22.5026 18.0579 21.1239 19.7267 19.0412C21.3956 16.9585 22.3126 14.3088 22.3125 11.569Z" fill="white"/>
</g>
<defs>
<clipPath id="clip0_901_2209">
<rect width="21.5625" height="23" fill="white" transform="translate(0.75)"/>
</clipPath>
</defs>
</svg>
