<svg width="22" height="22" viewBox="0 0 22 22" fill="none" xmlns="http://www.w3.org/2000/svg">
<g clip-path="url(#clip0_901_2201)">
<path d="M10.7812 1.94242C13.6598 1.94242 14.0013 1.9532 15.1378 2.00531C16.365 2.06102 17.5034 2.30719 18.3793 3.18316C19.2553 4.05914 19.5015 5.19746 19.5572 6.42473C19.6093 7.56125 19.6201 7.90266 19.6201 10.7812C19.6201 13.6598 19.6093 14.0013 19.5572 15.1378C19.5015 16.365 19.2553 17.5034 18.3793 18.3793C17.5034 19.2553 16.365 19.5015 15.1378 19.5572C14.0013 19.6093 13.6598 19.6201 10.7812 19.6201C7.90266 19.6201 7.56125 19.6093 6.42473 19.5572C5.19746 19.5015 4.05914 19.2553 3.18316 18.3793C2.30719 17.5034 2.06102 16.365 2.00531 15.1378C1.9532 14.0013 1.94242 13.6598 1.94242 10.7812C1.94242 7.90266 1.9532 7.56125 2.00531 6.42473C2.06102 5.19746 2.30719 4.05914 3.18316 3.18316C4.05914 2.30719 5.19746 2.06102 6.42473 2.00531C7.56125 1.9532 7.90266 1.94242 10.7812 1.94242ZM10.7812 0C7.85324 0 7.48578 0.0125781 6.33578 0.0646875C4.58383 0.144648 3.0448 0.574102 1.80945 1.80945C0.574102 3.0448 0.144648 4.58383 0.0646875 6.33578C0.0125781 7.48578 0 7.85324 0 10.7812C0 13.7093 0.0125781 14.0767 0.0646875 15.2267C0.144648 16.9787 0.574102 18.5177 1.80945 19.753C3.0448 20.9884 4.58383 21.4179 6.33578 21.4978C7.48578 21.5499 7.85324 21.5625 10.7812 21.5625C13.7093 21.5625 14.0767 21.5499 15.2267 21.4978C16.9787 21.4179 18.5177 20.9884 19.753 19.753C20.9884 18.5177 21.4179 16.9787 21.4978 15.2267C21.5499 14.0767 21.5625 13.7093 21.5625 10.7812C21.5625 7.85324 21.5499 7.48578 21.4978 6.33578C21.4179 4.58383 20.9884 3.0448 19.753 1.80945C18.5177 0.574102 16.9787 0.144648 15.2267 0.0646875C14.0767 0.0125781 13.7093 0 10.7812 0Z" fill="white"/>
<path d="M10.7815 5.24512C7.72415 5.24512 5.24536 7.72391 5.24536 10.7813C5.24536 13.8387 7.72415 16.3175 10.7815 16.3175C13.8389 16.3175 16.3177 13.8387 16.3177 10.7813C16.3177 7.72391 13.8389 5.24512 10.7815 5.24512ZM10.7815 14.375C8.79689 14.375 7.18778 12.7659 7.18778 10.7813C7.18778 8.79664 8.79689 7.18754 10.7815 7.18754C12.7662 7.18754 14.3753 8.79664 14.3753 10.7813C14.3753 12.7659 12.7662 14.375 10.7815 14.375Z" fill="white"/>
<path d="M16.5364 6.31943C17.2509 6.31943 17.8302 5.7402 17.8302 5.02568C17.8302 4.31117 17.2509 3.73193 16.5364 3.73193C15.8219 3.73193 15.2427 4.31117 15.2427 5.02568C15.2427 5.7402 15.8219 6.31943 16.5364 6.31943Z" fill="white"/>
</g>
<defs>
<clipPath id="clip0_901_2201">
<rect width="21.5625" height="21.5625" fill="white"/>
</clipPath>
</defs>
</svg>
