<svg width="23" height="22" viewBox="0 0 23 22" fill="none" xmlns="http://www.w3.org/2000/svg">
<g clip-path="url(#clip0_901_2212)">
<path d="M22.1455 2.27033C22.128 2.19071 22.0898 2.11712 22.0347 2.05701C21.9797 1.9969 21.9097 1.95241 21.8319 1.92803C21.5486 1.87192 21.2554 1.89271 20.9829 1.98822C20.9829 1.98822 2.08964 8.77951 1.01062 9.53151C0.778823 9.69322 0.700659 9.78756 0.662026 9.89807C0.475151 10.4371 1.05644 10.6689 1.05644 10.6689L5.92597 12.2556C6.00831 12.2703 6.09297 12.2654 6.17304 12.2412C7.27992 11.5413 17.3137 5.20283 17.8968 4.9899C17.9866 4.96295 18.0558 4.9899 18.0378 5.05729C17.806 5.87037 9.13519 13.5727 9.08757 13.6194C9.06438 13.6384 9.04631 13.6629 9.03501 13.6907C9.02371 13.7185 9.01954 13.7486 9.02289 13.7784L8.56828 18.533C8.56828 18.533 8.37781 20.0127 9.85753 18.533C10.9069 17.4827 11.9141 16.613 12.4172 16.1898C14.0919 17.3461 15.8932 18.6246 16.6704 19.2939C16.8011 19.4205 16.956 19.5193 17.1258 19.5846C17.2956 19.6499 17.4768 19.6803 17.6587 19.674C17.8826 19.6467 18.0928 19.5519 18.2615 19.4021C18.4302 19.2524 18.5493 19.0548 18.6029 18.8357C18.6029 18.8357 22.0439 4.97912 22.1589 3.12295C22.1706 2.94326 22.1859 2.82467 22.1877 2.69979C22.1933 2.55538 22.1791 2.41089 22.1455 2.27033Z" fill="white"/>
</g>
<defs>
<clipPath id="clip0_901_2212">
<rect width="21.5625" height="21.5625" fill="white" transform="translate(0.625)"/>
</clipPath>
</defs>
</svg>
