<svg width="23" height="23" viewBox="0 0 23 23" fill="none" xmlns="http://www.w3.org/2000/svg">
<g clip-path="url(#clip0_901_2206)">
<path d="M22.2578 6.89995C22.2578 6.89995 22.0781 5.27078 21.3594 4.59995C20.5508 3.64162 19.6523 3.64162 19.2031 3.64162C16.1484 3.44995 11.6562 3.44995 11.6562 3.44995C11.6562 3.44995 7.16406 3.44995 4.10938 3.64162C3.66016 3.73745 2.76172 3.73745 1.95312 4.59995C1.32422 5.27078 1.05469 6.89995 1.05469 6.89995C1.05469 6.89995 0.875 8.72078 0.875 10.6375V12.3625C0.875 14.1833 1.05469 16.0999 1.05469 16.0999C1.05469 16.0999 1.23438 17.7291 1.95312 18.4C2.76172 19.3583 3.83984 19.2625 4.28906 19.3583C5.99609 19.55 11.6562 19.5499 11.6562 19.5499C11.6562 19.5499 16.1484 19.55 19.2031 19.2625C19.6523 19.1666 20.5508 19.1666 21.3594 18.3041C21.9883 17.6333 22.2578 16.0041 22.2578 16.0041C22.2578 16.0041 22.4375 14.1833 22.4375 12.2666V10.5416C22.4375 8.72078 22.2578 6.89995 22.2578 6.89995ZM9.41016 14.4708V8.04995L15.25 11.3083L9.41016 14.4708Z" fill="white"/>
</g>
<defs>
<clipPath id="clip0_901_2206">
<rect width="21.5625" height="23" fill="white" transform="translate(0.875)"/>
</clipPath>
</defs>
</svg>
